<?xml version="1.0" standalone="no"?>
<!DOCTYPE svg PUBLIC "-//W3C//DTD SVG 1.1//EN" "http://www.w3.org/Graphics/SVG/1.1/DTD/svg11.dtd" >
<svg xmlns="http://www.w3.org/2000/svg">
<metadata>Generated by IcoMoon</metadata>
<defs>
<font id="FCTicones" horiz-adv-x="1024">
<font-face units-per-em="1024" ascent="960" descent="-64" />
<missing-glyph horiz-adv-x="1024" />
<glyph unicode="&#x20;" horiz-adv-x="512" d="" />
<glyph unicode="&#xe900;" glyph-name="acoes_small" horiz-adv-x="481" d="M348.961 423.807c0 57.207-45.765 102.972-102.972 102.972s-97.251-45.765-97.251-102.972 45.765-102.972 102.972-102.972 97.251 45.765 97.251 102.972zM348.961 126.332c0 57.207-45.765 102.972-102.972 102.972s-102.972-45.765-102.972-102.972 51.486-102.972 102.972-102.972 102.972 45.765 102.972 102.972zM348.961 721.282c0 57.207-45.765 102.972-102.972 102.972s-97.251-45.765-97.251-102.972 45.765-102.972 102.972-102.972 97.251 51.486 97.251 102.972z" />
<glyph unicode="&#xe901;" glyph-name="acoes" horiz-adv-x="1003" d="M501.551 14.977c-234.057 0-422.139 188.082-422.139 422.139s188.082 422.139 422.139 422.139 422.139-188.082 422.139-422.139-188.082-422.139-422.139-422.139zM501.551 938.667c-275.853 0-501.551-225.698-501.551-501.551s225.698-501.551 501.551-501.551 501.551 225.698 501.551 501.551-225.698 501.551-501.551 501.551zM689.633 499.81c-33.437 0-62.694-29.257-62.694-62.694s29.257-62.694 62.694-62.694c33.437 0 62.694 29.257 62.694 62.694s-29.257 62.694-62.694 62.694zM501.551 499.81c-33.437 0-62.694-29.257-62.694-62.694s29.257-62.694 62.694-62.694c33.437 0 62.694 29.257 62.694 62.694s-29.257 62.694-62.694 62.694zM313.469 499.81c-33.437 0-62.694-29.257-62.694-62.694s29.257-62.694 62.694-62.694c33.437 0 62.694 29.257 62.694 62.694s-29.257 62.694-62.694 62.694z" />
<glyph unicode="&#xe902;" glyph-name="adicionar" horiz-adv-x="1003" d="M534.988 687.891h-66.873v-217.339h-217.339v-66.873h217.339v-217.339h66.873v217.339h217.339v66.873h-217.339zM501.551 14.977c-234.057 0-422.139 188.082-422.139 422.139s188.082 422.139 422.139 422.139 422.139-188.082 422.139-422.139-188.082-422.139-422.139-422.139zM501.551 938.667c-275.853 0-501.551-225.698-501.551-501.551s225.698-501.551 501.551-501.551 501.551 225.698 501.551 501.551-225.698 501.551-501.551 501.551z" />
<glyph unicode="&#xe903;" glyph-name="atencao_input" horiz-adv-x="1003" d="M501.551 14.977c-234.057 0-422.139 188.082-422.139 422.139s188.082 422.139 422.139 422.139 422.139-188.082 422.139-422.139-188.082-422.139-422.139-422.139zM501.551 938.667c-275.853 0-501.551-225.698-501.551-501.551s225.698-501.551 501.551-501.551 501.551 225.698 501.551 501.551-225.698 501.551-501.551 501.551zM518.269 403.679h-33.437l-16.718 158.824h62.694l-12.539-158.824zM501.551 311.728c-16.718 0-33.437 12.539-33.437 33.437s12.539 33.437 33.437 33.437c16.718 0 33.437-12.539 33.437-33.437s-16.718-33.437-33.437-33.437zM501.551 687.891c-137.927 0-250.776-112.849-250.776-250.776s112.849-250.776 250.776-250.776c137.927 0 250.776 112.849 250.776 250.776s-112.849 250.776-250.776 250.776z" />
<glyph unicode="&#xe904;" glyph-name="aviso" horiz-adv-x="1003" d="M501.551 14.977c-234.057 0-422.139 188.082-422.139 422.139s188.082 422.139 422.139 422.139 422.139-188.082 422.139-422.139-188.082-422.139-422.139-422.139zM501.551 938.667c-275.853 0-501.551-225.698-501.551-501.551s225.698-501.551 501.551-501.551 501.551 225.698 501.551 501.551-225.698 501.551-501.551 501.551zM463.935 478.912l12.539-150.465h41.796l16.718 150.465v188.082h-71.053zM463.935 257.394h71.053v-71.053h-71.053v71.053z" />
<glyph unicode="&#xe905;" glyph-name="calendario" horiz-adv-x="1003" d="M781.584 169.622h-560.065v392.882h564.245v-392.882zM647.837 804.92v-58.514h-292.571v58.514h-91.951v-58.514h-41.796c-41.796 0-75.233-33.437-75.233-75.233v-501.551c0-41.796 33.437-75.233 75.233-75.233h564.245c41.796 0 75.233 33.437 75.233 75.233v501.551c0 41.796-33.437 75.233-75.233 75.233h-45.976v58.514h-91.951zM710.531 420.398h-175.543v-175.543h175.543v175.543z" />
<glyph unicode="&#xe906;" glyph-name="documento" horiz-adv-x="1003" d="M300.931 132.006v626.939h250.776v-158.824c0-29.257 25.078-54.335 54.335-54.335h129.567v-409.6h-434.678zM618.58 729.687l112.849-125.388h-112.849v125.388zM802.482 616.838c0 4.18-4.18 8.359-8.359 12.539l-163.004 179.722c-4.18 4.18-8.359 4.18-12.539 8.359s-12.539 4.18-16.718 4.18h-313.469c-25.078 0-45.976-16.718-45.976-45.976v-656.196c0-25.078 20.898-50.155 45.976-50.155h476.473c25.078 0 41.796 25.078 41.796 50.155v476.473c-4.18 8.359-4.18 16.718-4.18 20.898z" />
<glyph unicode="&#xe907;" glyph-name="download" horiz-adv-x="1003" d="M501.551 14.977c-234.057 0-422.139 188.082-422.139 422.139s188.082 422.139 422.139 422.139 422.139-188.082 422.139-422.139-188.082-422.139-422.139-422.139zM501.551 938.667c-275.853 0-501.551-225.698-501.551-501.551s225.698-501.551 501.551-501.551 501.551 225.698 501.551 501.551-225.698 501.551-501.551 501.551zM689.633 311.728v-62.694h-376.163v62.694h-62.694v-125.388h501.551v125.388zM534.988 437.116v250.776h-66.873v-250.776h-91.951l125.388-158.824 125.388 158.824z" />
<glyph unicode="&#xe908;" glyph-name="dropdown_select" horiz-adv-x="1723" d="M224.78 688.911v0l536.976-624.39c12.488-24.976 49.951-37.463 74.927-37.463s62.439 12.488 74.927 37.463l524.488 624.39h12.488c12.488 12.488 12.488 24.976 12.488 37.463 0 37.463-24.976 62.439-62.439 62.439h-1123.902c-37.463 0-62.439-24.976-62.439-62.439 0-12.488 0-24.976 12.488-37.463z" />
<glyph unicode="&#xe909;" glyph-name="duvidas_input" horiz-adv-x="1003" d="M501.551 35.875c-234.057 0-422.139 192.261-422.139 422.139s188.082 426.318 422.139 426.318 422.139-188.082 422.139-422.139-188.082-426.318-422.139-426.318zM501.551 959.565c-275.853 0-501.551-225.698-501.551-501.551s225.698-501.551 501.551-501.551 501.551 225.698 501.551 501.551-225.698 501.551-501.551 501.551zM543.347 470.553c-12.539-16.718-12.539-29.257-12.539-45.976v4.18h-62.694v4.18c0 20.898 4.18 37.616 20.898 54.335 12.539 16.718 20.898 25.078 20.898 37.616s-8.359 20.898-29.257 20.898c-12.539 0-29.257-4.18-37.616-12.539l-12.539 41.796c12.539 8.359 37.616 16.718 62.694 16.718 50.155 0 75.233-29.257 75.233-58.514 4.18-29.257-8.359-45.976-25.078-62.694zM493.192 332.626c-20.898 0-33.437 16.718-33.437 33.437 0 20.898 12.539 33.437 33.437 33.437s33.437-12.539 33.437-33.437c0-20.898-12.539-33.437-33.437-33.437zM501.551 708.789c-137.927 0-250.776-112.849-250.776-250.776s112.849-250.776 250.776-250.776c137.927 0 250.776 112.849 250.776 250.776s-112.849 250.776-250.776 250.776z" />
<glyph unicode="&#xe90a;" glyph-name="duvidas" horiz-adv-x="1003" d="M501.551 14.977c-234.057 0-422.139 188.082-422.139 422.139s188.082 422.139 422.139 422.139 422.139-188.082 422.139-422.139-188.082-422.139-422.139-422.139zM501.551 938.667c-275.853 0-501.551-225.698-501.551-501.551s225.698-501.551 501.551-501.551 501.551 225.698 501.551 501.551-225.698 501.551-501.551 501.551zM468.114 203.059h62.694v-62.694h-62.694v62.694zM622.759 600.12c-12.539 12.539-29.257 25.078-50.155 33.437s-41.796 12.539-71.053 12.539c-25.078 0-45.976-4.18-62.694-12.539-20.898-12.539-37.616-20.898-50.155-37.616-12.539-12.539-25.078-29.257-33.437-50.155s-12.539-29.257-12.539-62.694h62.694c0 29.257 8.359 54.335 25.078 75.233s37.616 29.257 66.873 29.257c29.257 0 50.155-8.359 62.694-20.898s20.898-33.437 20.898-58.514c0-20.898-8.359-37.616-20.898-50.155-12.539-16.718-25.078-29.257-41.796-45.976-16.718-12.539-25.078-29.257-37.616-45.976s-16.718-33.437-16.718-54.335v-50.155h62.694v25.078c0 16.718 4.18 29.257 8.359 41.796s12.539 25.078 25.078 33.437c8.359 8.359 20.898 20.898 29.257 29.257 12.539 8.359 20.898 20.898 29.257 29.257 8.359 12.539 16.718 20.898 25.078 33.437 4.18 12.539 8.359 29.257 8.359 45.976s-4.18 29.257-8.359 45.976c0 25.078-8.359 41.796-20.898 54.335z" />
<glyph unicode="&#xe90b;" glyph-name="editar" horiz-adv-x="1003" d="M468.114 190.52l-75.233-75.233h484.833v75.233h-409.6zM789.943 637.736c16.718 16.718 16.718 37.616 0 50.155l-83.592 83.592c-16.718 16.718-37.616 16.718-50.155 0l-71.053-62.694 142.106-142.106 62.694 71.053zM133.747 257.394v-142.106h142.106l409.6 413.78-142.106 142.106-409.6-413.78z" />
<glyph unicode="&#xe90c;" glyph-name="eliminar" horiz-adv-x="856" d="M702.171 763.124h-138.971l-43.886 43.886h-204.8l-43.886-43.886h-138.971v-80.457h570.514v80.457zM175.543 156.038c0-43.886 36.571-80.457 80.457-80.457h321.829c43.886 0 80.457 36.571 80.457 80.457v490.057h-490.057v-490.057z" />
<glyph unicode="&#xe90d;" glyph-name="erro_input" horiz-adv-x="1003" d="M501.551 14.977c-234.057 0-422.139 188.082-422.139 422.139s188.082 422.139 422.139 422.139 422.139-188.082 422.139-422.139-188.082-422.139-422.139-422.139zM501.551 938.667c-275.853 0-501.551-225.698-501.551-501.551s225.698-501.551 501.551-501.551 501.551 225.698 501.551 501.551-225.698 501.551-501.551 501.551zM614.4 370.243l-45.976-45.976-66.873 66.873-66.873-66.873-45.976 45.976 66.873 66.873-66.873 66.873 45.976 45.976 66.873-66.873 66.873 66.873 45.976-45.976-66.873-66.873 66.873-66.873zM501.551 687.891c-137.927 0-250.776-112.849-250.776-250.776s112.849-250.776 250.776-250.776 250.776 112.849 250.776 250.776-112.849 250.776-250.776 250.776z" />
<glyph unicode="&#xe90e;" glyph-name="erro" horiz-adv-x="1003" d="M656.196 654.455l-154.645-154.645-154.645 154.645-45.976-41.796 154.645-158.824-154.645-154.645 45.976-41.796 154.645 154.645 154.645-154.645 45.976 41.796-154.645 154.645 154.645 158.824zM501.551 31.696c-234.057 0-422.139 188.082-422.139 422.139s188.082 426.318 422.139 426.318 422.139-192.261 422.139-426.318-188.082-422.139-422.139-422.139zM501.551 955.385c-275.853 0-501.551-225.698-501.551-501.551s225.698-501.551 501.551-501.551 501.551 225.698 501.551 501.551-225.698 501.551-501.551 501.551z" />
<glyph unicode="&#xe90f;" glyph-name="favorito" horiz-adv-x="1003" d="M514.090 796.561l-100.31-234.057-250.776-20.898 192.261-167.184-58.514-246.596 217.339 129.567 217.339-129.567-58.514 246.596 192.261 167.184-254.955 20.898z" />
<glyph unicode="&#xe910;" glyph-name="ficheiro" horiz-adv-x="1003" d="M501.551 14.977c-234.057 0-422.139 188.082-422.139 422.139s188.082 422.139 422.139 422.139 422.139-188.082 422.139-422.139-188.082-422.139-422.139-422.139zM501.551 938.667c-275.853 0-501.551-225.698-501.551-501.551s225.698-501.551 501.551-501.551 501.551 225.698 501.551 501.551-225.698 501.551-501.551 501.551zM493.192 424.577l62.694 66.873c4.18 4.18 16.718 0 20.898-4.18s8.359-16.718 4.18-20.898l-16.718-20.898-45.976-50.155c-4.18-4.18-16.718 0-20.898 4.18-4.18 8.359-8.359 20.898-4.18 25.078zM514.090 662.814l-75.233-79.412-146.286-163.004-16.718-20.898c-37.616-41.796-37.616-104.49 4.18-154.645 41.796-45.976 108.669-50.155 146.286-8.359l121.208 133.747 45.976 50.155 16.718 20.898c16.718 20.898 16.718 54.335-4.18 75.233s-50.155 25.078-71.053 4.18l-62.694-66.873c-16.718-20.898-16.718-54.335 4.18-79.412 4.18-4.18 12.539-12.539 12.539-8.359l-91.951-100.31c-25.078-25.078-66.873-20.898-96.131 8.359s-29.257 71.053-4.18 100.31l20.898 20.898 150.465 163.004 75.233 79.412c33.437 37.616 96.131 29.257 137.927-12.539 37.616-41.796 45.976-112.849 12.539-150.465l-221.518-242.416c-8.359-8.359-8.359-16.718 0-25.078s16.718-8.359 25.078 0l221.518 242.416c45.976 50.155 41.796 142.106-12.539 204.8-58.514 54.335-142.106 62.694-192.261 8.359z" />
<glyph unicode="&#xe911;" glyph-name="harmonio_descer" horiz-adv-x="1003" d="M923.69 437.116c0-234.057-188.082-422.139-422.139-422.139s-422.139 188.082-422.139 422.139 188.082 422.139 422.139 422.139 422.139-188.082 422.139-422.139zM0 437.116c0-275.853 225.698-501.551 501.551-501.551s501.551 225.698 501.551 501.551-225.698 501.551-501.551 501.551-501.551-225.698-501.551-501.551zM292.571 520.708c-12.539-12.539-12.539-33.437 0-45.976l188.082-188.082c12.539-12.539 33.437-12.539 45.976 0l183.902 192.261c4.18 4.18 8.359 12.539 8.359 20.898s-4.18 16.718-8.359 20.898c-12.539 12.539-33.437 12.539-45.976 0l-167.184-167.184-167.184 167.184c-8.359 12.539-25.078 12.539-37.616 0z" />
<glyph unicode="&#xe912;" glyph-name="harmonio_subir" horiz-adv-x="1003" d="M79.412 412.038c0 234.057 188.082 426.318 422.139 426.318s422.139-192.261 422.139-426.318-188.082-422.139-422.139-422.139-422.139 192.261-422.139 422.139zM1003.102 412.038c0 275.853-225.698 501.551-501.551 501.551s-501.551-221.518-501.551-501.551 225.698-501.551 501.551-501.551 501.551 225.698 501.551 501.551zM710.531 328.447c12.539 12.539 12.539 33.437 0 45.976l-188.082 188.082c-12.539 12.539-33.437 12.539-45.976 0l-183.902-188.082c-4.18-4.18-8.359-12.539-8.359-20.898s4.18-16.718 8.359-20.898c12.539-12.539 33.437-12.539 45.976 0l167.184 167.184 167.184-167.184c8.359-16.718 25.078-16.718 37.616-4.18z" />
<glyph unicode="&#xe913;" glyph-name="imprimir" horiz-adv-x="1003" d="M764.865 767.304h-501.551v-167.184h501.551v167.184zM806.661 391.14c-25.078 0-41.796 16.718-41.796 41.796s16.718 41.796 41.796 41.796c25.078 0 41.796-16.718 41.796-41.796s-16.718-41.796-41.796-41.796zM681.273 98.569h-334.367v208.98h334.367v-208.98zM806.661 558.324h-585.143c-71.053 0-125.388-54.335-125.388-125.388v-250.776h167.184v-167.184h501.551v167.184h167.184v250.776c0 71.053-54.335 125.388-125.388 125.388z" />
<glyph unicode="&#xe914;" glyph-name="informar" horiz-adv-x="1003" d="M501.551 35.875c-234.057 0-422.139 192.261-422.139 426.318s188.082 422.139 422.139 422.139 422.139-188.082 422.139-422.139-188.082-426.318-422.139-426.318zM501.551 963.745c-275.853 0-501.551-225.698-501.551-501.551s225.698-501.551 501.551-501.551 501.551 225.698 501.551 501.551-225.698 501.551-501.551 501.551zM455.576 595.94h87.771v83.592h-87.771v-83.592zM455.576 240.675h87.771v263.314h-87.771v-263.314z" />
<glyph unicode="&#xe915;" glyph-name="legendas" horiz-adv-x="1003" d="M501.551 69.312c-192.261 0-351.086 158.824-351.086 351.086s158.824 351.086 351.086 351.086 351.086-158.824 351.086-351.086-158.824-351.086-351.086-351.086zM501.551 859.255c-242.416 0-438.857-196.441-438.857-438.857s196.441-438.857 438.857-438.857 438.857 196.441 438.857 438.857-196.441 438.857-438.857 438.857z" />
<glyph unicode="&#xe916;" glyph-name="lock" horiz-adv-x="1003" d="M635.298 591.761h-246.596v79.412c0 66.873 54.335 125.388 125.388 125.388s125.388-54.335 125.388-125.388v-79.412zM509.91 228.136c-41.796 0-79.412 37.616-79.412 79.412s37.616 79.412 79.412 79.412c41.796 0 79.412-37.616 79.412-79.412s-33.437-79.412-79.412-79.412zM748.147 591.761h-41.796v79.412c0 108.669-87.771 200.62-200.62 200.62s-192.261-91.951-192.261-200.62v-79.412h-41.796c-41.796 0-79.412-37.616-79.412-79.412v-397.061c0-41.796 37.616-79.412 79.412-79.412h476.473c41.796 0 79.412 37.616 79.412 79.412v397.061c0 41.796-33.437 79.412-79.412 79.412z" />
<glyph unicode="&#xe917;" glyph-name="login" horiz-adv-x="1003" d="M505.731 942.847c-213.159 0-397.061-133.747-468.114-321.829h75.233c20.898 45.976 50.155 87.771 87.771 125.388 79.412 79.412 188.082 125.388 300.931 125.388s221.518-45.976 305.11-125.388c79.412-79.412 125.388-188.082 125.388-305.11 0-112.849-45.976-221.518-125.388-300.931s-188.082-125.388-305.11-125.388-221.518 45.976-300.931 125.388c-37.616 37.616-66.873 79.412-87.771 125.388h-75.233c71.053-188.082 254.955-321.829 468.114-321.829 275.853 0 501.551 225.698 501.551 501.551-4.18 271.673-225.698 497.371-501.551 497.371zM392.882 591.761l117.029-112.849h-505.731v-71.053h505.731l-117.029-117.029 50.155-50.155 204.8 200.62-204.8 200.62z" />
<glyph unicode="&#xe918;" glyph-name="logout" horiz-adv-x="1003" d="M501.551 938.667c213.159 0 397.061-133.747 468.114-321.829h-75.233c-20.898 45.976-50.155 87.771-87.771 125.388-79.412 79.412-188.082 125.388-300.931 125.388s-221.518-45.976-305.11-125.388c-79.412-79.412-125.388-188.082-125.388-305.11 0-112.849 45.976-221.518 125.388-300.931s188.082-125.388 305.11-125.388 221.518 45.976 300.931 125.388c37.616 37.616 66.873 79.412 87.771 125.388h75.233c-71.053-188.082-254.955-321.829-468.114-321.829-275.853 0-501.551 225.698-501.551 501.551 4.18 271.673 225.698 497.371 501.551 497.371zM359.445 437.116l204.8-200.62 50.155 50.155-117.029 117.029h505.731v71.053h-505.731l117.029 117.029-50.155 50.155z" />
<glyph unicode="&#xe919;" glyph-name="pesquisa" horiz-adv-x="1003" d="M547.527 458.014c-12.539-16.718-25.078-33.437-45.976-45.976-16.718-12.539-41.796-16.718-62.694-16.718-71.053 0-125.388 54.335-125.388 125.388s54.335 125.388 125.388 125.388c71.053 0 125.388-54.335 125.388-125.388 0-20.898-8.359-41.796-16.718-62.694zM743.967 261.573l-150.465 150.465c20.898 29.257 33.437 66.873 33.437 108.669 0 104.49-83.592 188.082-188.082 188.082s-188.082-83.592-188.082-183.902c0-104.49 83.592-188.082 188.082-188.082 41.796 0 79.412 12.539 108.669 33.437l150.465-150.465c12.539-12.539 33.437-12.539 45.976 0s12.539 29.257 0 41.796zM501.551 35.875c-234.057 0-422.139 192.261-422.139 422.139s188.082 426.318 422.139 426.318 422.139-188.082 422.139-422.139-188.082-426.318-422.139-426.318zM501.551 959.565c-275.853 0-501.551-225.698-501.551-501.551s225.698-501.551 501.551-501.551 501.551 225.698 501.551 501.551-225.698 501.551-501.551 501.551z" />
<glyph unicode="&#xe91a;" glyph-name="pessoa" horiz-adv-x="1030" d="M578.259-13.051h-415.624c6.024 6.024 12.047 18.071 24.094 24.094 18.071 18.071 48.188 30.118 84.329 42.165 18.071 6.024 48.188 12.047 78.306 18.071 18.071 0 36.141 6.024 48.188 6.024s60.235 12.047 84.329 42.165c12.047 18.071 18.071 36.141 18.071 96.376 0 30.118 0 60.235 0 60.235v12.047l-6.024 12.047c-12.047 6.024-24.094 30.118-30.118 48.188-6.024 12.047-12.047 60.235-18.071 84.329 0 0 0-6.024 0 12.047-6.024 12.047-24.094 12.047-30.118 24.094 0 12.047-6.024 18.071-12.047 54.212s6.024 36.141 12.047 48.188c0 12.047 0 18.071 0 18.071s-12.047 42.165-12.047 114.447c0 42.165 12.047 78.306 42.165 102.4 30.118 30.118 78.306 48.188 132.518 48.188s102.4-18.071 132.518-48.188c30.118-30.118 42.165-66.259 42.165-102.4 0-72.282-12.047-108.424-12.047-114.447 0 0 0-6.024 0-18.071 0-18.071 18.071-18.071 12.047-48.188-6.024-36.141-12.047-42.165-12.047-54.212s-24.094-12.047-30.118-24.094c0-12.047 0-12.047 0-12.047-6.024-24.094-12.047-72.282-18.071-84.329-6.024-18.071-18.071-36.141-24.094-48.188l-6.024-12.047v-12.047c0 0 0-30.118 0-60.235 0-60.235 6.024-78.306 18.071-96.376 24.094-30.118 78.306-42.165 84.329-42.165 12.047-6.024 30.118-6.024 48.188-6.024 24.094-6.024 54.212-6.024 78.306-18.071 36.141-12.047 60.235-24.094 84.329-42.165 12.047-6.024 18.071-12.047 24.094-24.094h-421.647zM897.506 101.396c-36.141 12.047-96.376 18.071-132.518 24.094-18.071 6.024-48.188 18.071-60.235 30.118s-6.024 120.471-6.024 120.471 18.071 30.118 30.118 54.212 18.071 96.376 18.071 96.376 18.071 0 30.118 36.141c6.024 36.141 18.071 54.212 18.071 84.329 0 24.094-18.071 30.118-18.071 30.118s12.047 42.165 18.071 126.494c0 102.4-78.306 204.8-222.871 204.8s-222.871-102.4-216.847-204.8c0-84.329 18.071-126.494 18.071-126.494s-18.071 0-18.071-30.118c-6.024-30.118 6.024-48.188 18.071-84.329 6.024-36.141 30.118-36.141 30.118-36.141s6.024-72.282 18.071-96.376c6.024-24.094 24.094-54.212 24.094-54.212s6.024-108.424-6.024-120.471-42.165-24.094-60.235-30.118c-36.141-6.024-90.353-12.047-132.518-24.094-36.141-12.047-156.612-60.235-156.612-156.612h963.765c6.024 90.353-114.447 138.541-156.612 156.612z" />
<glyph unicode="&#xe91b;" glyph-name="pessoas" horiz-adv-x="1559" d="M422.846 98.070c15.284 20.378 40.756 35.662 66.229 45.851 35.662 10.189 71.323 10.189 106.985 20.378 30.567 5.095 66.229 20.378 86.607 40.756s20.378 45.851 25.473 76.418c0 20.378 0 45.851 0 66.229 0 15.284-20.378 25.473-25.473 35.662-20.378 15.284-20.378 45.851-20.378 66.229 0 10.189 0 25.473-10.189 30.567-10.189 10.189-15.284 10.189-20.378 25.473s-10.189 35.662-15.284 50.945c-5.095 10.189 10.189 20.378 10.189 30.567 10.189 15.284-5.095 40.756-10.189 61.134-10.189 50.945-10.189 106.985 30.567 152.836 76.418 81.512 249.632 56.040 275.104-61.134 10.189-35.662 5.095-81.512-5.095-117.174-5.095-15.284-10.189-25.473 0-40.756 15.284-20.378 5.095-35.662 0-61.134-5.095-20.378-10.189-30.567-25.473-40.756-10.189-10.189-10.189-35.662-15.284-50.945s-5.095-35.662-15.284-50.945c-5.095-5.095-25.473-25.473-25.473-30.567 0-35.662 0-71.323 5.095-106.985 10.189-50.945 50.945-61.134 91.701-76.418s91.701-10.189 132.458-30.567c40.756-20.378 81.512-56.040 96.796-106.985h-779.463c10.189 30.567 20.378 50.945 40.756 71.323 30.567 30.567-20.378-20.378 0 0zM1064.756 189.771c-40.756 15.284-91.701 15.284-132.458 30.567-15.284 5.095-40.756 10.189-45.851 25.473s-5.095 30.567-5.095 45.851c0 10.189 0 25.473 0 35.662s20.378 25.473 25.473 30.567c15.284 30.567 20.378 66.229 20.378 101.891 25.473-5.095 30.567 45.851 35.662 61.134 5.095 10.189 25.473 81.512-5.095 71.323 5.095 15.284 10.189 30.567 10.189 45.851 5.095 40.756 10.189 86.607-5.095 127.363-25.473 81.512-106.985 127.363-188.498 132.458-86.607 5.095-168.119-35.662-203.781-122.269-10.189-40.756-10.189-81.512-5.095-122.269 0-20.378 5.095-40.756 15.284-56.040-30.567 10.189-15.284-56.040-10.189-66.229 5.095-15.284 10.189-76.418 40.756-66.229 5.095-25.473 5.095-50.945 10.189-76.418 5.095-15.284 15.284-30.567 25.473-45.851 5.095-5.095 10.189-5.095 10.189-15.284 0-25.473 0-50.945-5.095-76.418s-61.134-35.662-81.512-40.756c-56.040-10.189-112.080-15.284-157.93-50.945-56.040-40.756-86.607-106.985-86.607-173.214h886.448c0 86.607-56.040 173.214-147.741 203.781-35.662 10.189 35.662-15.284 0 0zM280.199 184.677h-152.836c20.378 35.662 81.512 35.662 117.174 45.851s56.040 35.662 61.134 71.323c0 5.095 0 91.701-5.095 91.701-25.473 0-56.040 0-86.607 5.095 20.378 71.323 0 142.647 15.284 213.97 10.189 50.945 40.756 81.512 96.796 81.512 50.945 0 86.607-25.473 96.796-76.418 15.284-71.323-5.095-147.741 15.284-224.159-15.284-5.095-35.662-5.095-56.040-5.095-10.189 0-20.378 0-25.473 0s-5.095-10.189-5.095-15.284c-5.095-35.662-15.284-91.701 10.189-117.174-25.473-15.284-61.134-40.756-81.512-71.323zM412.657 230.528c20.378 10.189 45.851 15.284 71.323 15.284 10.189 0 15.284 5.095 5.095 15.284-10.189 15.284-56.040 20.378-76.418 25.473-10.189 5.095-15.284 10.189-15.284 20.378 0 5.095-5.095 30.567 0 35.662s25.473 0 25.473 0c20.378 0 35.662 5.095 56.040 10.189 5.095 5.095 15.284 5.095 20.378 10.189s-5.095 20.378-10.189 25.473c-10.189 25.473-15.284 50.945-15.284 76.418-5.095 50.945 5.095 101.891-5.095 152.836-10.189 86.607-71.323 127.363-147.741 127.363-45.851 0-91.701-15.284-122.269-56.040-30.567-45.851-25.473-101.891-25.473-152.836 0-30.567 0-61.134 0-91.701 0-10.189-5.095-25.473-10.189-35.662s-20.378-30.567-15.284-35.662c25.473-20.378 71.323-25.473 101.891-20.378 0-15.284 5.095-35.662 0-50.945-10.189-25.473-76.418-35.662-96.796-40.756-56.040-20.378-96.796-66.229-96.796-127.363h249.632c5.095 0 20.378 30.567 25.473 35.662 25.473 25.473 50.945 45.851 81.512 61.134s-45.851-25.473 0 0zM1227.781 220.339c-15.284 15.284-30.567 30.567-50.945 40.756 25.473 30.567 15.284 81.512 10.189 117.174 0 20.378-5.095 15.284-25.473 15.284s-40.756 0-61.134 5.095c25.473 71.323 5.095 142.647 15.284 213.97 10.189 56.040 45.851 81.512 101.891 81.512 50.945 0 81.512-25.473 91.701-71.323 15.284-71.323-10.189-147.741 15.284-224.159-25.473-5.095-56.040-5.095-81.512-5.095-5.095 0-5.095-81.512-5.095-86.607 0-35.662 20.378-61.134 56.040-76.418 40.756-15.284 96.796-10.189 122.269-50.945h-147.741c-20.378 5.095-25.473 25.473-40.756 40.756s10.189-10.189 0 0zM1227.781 133.732h254.726c0 61.134-40.756 106.985-96.796 127.363-25.473 10.189-76.418 10.189-91.701 35.662-10.189 10.189-5.095 40.756-5.095 50.945 15.284 0 30.567 0 45.851 5.095 15.284 0 25.473 5.095 40.756 10.189 5.095 0 10.189 5.095 15.284 5.095 10.189 5.095 5.095 10.189 0 20.378-35.662 56.040-20.378 132.458-20.378 198.687 0 50.945-15.284 112.080-61.134 142.647-45.851 25.473-106.985 25.473-152.836 10.189-132.458-56.040-56.040-234.348-101.891-336.239-10.189-15.284-20.378-25.473 0-35.662 10.189-5.095 25.473-10.189 35.662-10.189 20.378-5.095 35.662-5.095 56.040-10.189 5.095 0 0-40.756 0-45.851-5.095-15.284-35.662-20.378-50.945-25.473s-35.662-5.095-40.756-20.378c-10.189-20.378 30.567-15.284 40.756-15.284 30.567-5.095 61.134-25.473 86.607-45.851 15.284-15.284 35.662-35.662 45.851-61.134z" />
<glyph unicode="&#xe91c;" glyph-name="reordenar" horiz-adv-x="911" d="M538.947 491.341v-291.032h-123.958l167.074-167.074 167.074 167.074h-123.958v291.032h-86.232zM328.758 782.372l-167.074-167.074h123.958v-291.032h86.232v291.032h123.958l-167.074 167.074z" />
<glyph unicode="&#xe91d;" glyph-name="sucesso_input" horiz-adv-x="1003" d="M501.551-5.921c-234.057 0-422.139 188.082-422.139 422.139s188.082 422.139 422.139 422.139 422.139-188.082 422.139-422.139-188.082-422.139-422.139-422.139zM501.551 917.769c-275.853 0-501.551-225.698-501.551-501.551s225.698-501.551 501.551-501.551 501.551 225.698 501.551 501.551-225.698 501.551-501.551 501.551zM468.114 290.83l-91.951 91.951 41.796 50.155 50.155-50.155 142.106 158.824 45.976-50.155-188.082-200.62zM501.551 666.994c-137.927 0-250.776-112.849-250.776-250.776s112.849-250.776 250.776-250.776c137.927 0 250.776 112.849 250.776 250.776s-112.849 250.776-250.776 250.776z" />
<glyph unicode="&#xe91e;" glyph-name="sucesso" horiz-adv-x="1003" d="M413.78 290.83l-100.31 100.31-62.694-62.694 163.004-154.645 338.547 376.163-62.694 62.694zM501.551-10.1c-234.057 0-422.139 188.082-422.139 422.139s188.082 426.318 422.139 426.318 422.139-192.261 422.139-426.318-188.082-422.139-422.139-422.139zM501.551 913.589c-275.853 0-501.551-225.698-501.551-501.551s225.698-501.551 501.551-501.551 501.551 225.698 501.551 501.551-225.698 501.551-501.551 501.551z" />
<glyph unicode="&#xe91f;" glyph-name="unlock" horiz-adv-x="1003" d="M518.269 249.034c-41.796 0-79.412 37.616-79.412 79.412s37.616 79.412 79.412 79.412c41.796 0 79.412-37.616 79.412-79.412s-33.437-79.412-79.412-79.412zM756.506 612.659h-41.796v79.412c0 108.669-87.771 200.62-200.62 200.62s-192.261-91.951-192.261-200.62h75.233c0 66.873 54.335 125.388 125.388 125.388s125.388-54.335 125.388-125.388v-79.412h-367.804c-41.796 0-79.412-37.616-79.412-79.412v-397.061c0-41.796 37.616-79.412 79.412-79.412h476.473c41.796 0 79.412 37.616 79.412 79.412v397.061c0 41.796-33.437 79.412-79.412 79.412z" />
<glyph unicode="&#xe920;" glyph-name="upload" horiz-adv-x="1003" d="M501.551 14.977c-234.057 0-422.139 188.082-422.139 422.139s188.082 422.139 422.139 422.139 422.139-188.082 422.139-422.139-188.082-422.139-422.139-422.139zM501.551 938.667c-275.853 0-501.551-225.698-501.551-501.551s225.698-501.551 501.551-501.551 501.551 225.698 501.551 501.551-225.698 501.551-501.551 501.551zM689.633 311.728v-62.694h-376.163v62.694h-62.694v-125.388h501.551v125.388zM472.294 533.247v-250.776h62.694v250.776h91.951l-125.388 154.645-125.388-154.645z" />
<glyph unicode="&#xe921;" glyph-name="utilizador" horiz-adv-x="1003" d="M501.551 14.977c-234.057 0-422.139 188.082-422.139 422.139s188.082 422.139 422.139 422.139 422.139-188.082 422.139-422.139-188.082-422.139-422.139-422.139zM501.551 938.667c-275.853 0-501.551-225.698-501.551-501.551s225.698-501.551 501.551-501.551 501.551 225.698 501.551 501.551-225.698 501.551-501.551 501.551zM639.478 336.806c-33.437 4.18-75.233 37.616-75.233 50.155v33.437c0 12.539 16.718 37.616 25.078 58.514 0 0 4.18 0 8.359 4.18 8.359 8.359 8.359 25.078 12.539 29.257 4.18 12.539-8.359 12.539-8.359 12.539s8.359 54.335 0 91.951c-12.539 45.976-75.233 71.053-100.31 71.053s-87.771-25.078-96.131-71.053c-8.359-33.437 0-91.951 0-91.951s-12.539 0-8.359-12.539c0-8.359 4.18-20.898 12.539-29.257 0-4.18 4.18-4.18 4.18-4.18 8.359-20.898 25.078-45.976 25.078-58.514v-33.437c0-12.539-41.796-41.796-75.233-50.155-41.796-8.359-58.514-33.437-50.155-104.49 4.18-33.437 96.131-45.976 188.082-45.976s183.902 12.539 188.082 50.155c8.359 66.873-12.539 96.131-50.155 100.31z" />
<glyph unicode="&#xe922;" glyph-name="visaogeral" horiz-adv-x="1003" d="M330.188 625.198c0-8.359-4.18-12.539-12.539-12.539h-91.951c-8.359 0-12.539 4.18-12.539 12.539v96.131c0 4.18 4.18 8.359 12.539 8.359h91.951c8.359 0 12.539-4.18 12.539-12.539v-91.951zM564.245 625.198c0-8.359-4.18-12.539-12.539-12.539h-91.951c-8.359 0-12.539 4.18-12.539 12.539v96.131c0 4.18 4.18 8.359 12.539 8.359h91.951c8.359 0 12.539-4.18 12.539-12.539v-91.951zM798.302 625.198c0-8.359-4.18-12.539-12.539-12.539h-91.951c-8.359 0-12.539 4.18-12.539 12.539v96.131c0 8.359 4.18 12.539 12.539 12.539h91.951c8.359 0 12.539-4.18 12.539-12.539v-96.131zM330.188 391.14c0-8.359-4.18-12.539-12.539-12.539h-91.951c-8.359 0-12.539 4.18-12.539 12.539v91.951c0 8.359 4.18 12.539 12.539 12.539h91.951c8.359 0 12.539-4.18 12.539-12.539v-91.951zM564.245 391.14c0-8.359-4.18-12.539-12.539-12.539h-91.951c-8.359 0-12.539 4.18-12.539 12.539v91.951c0 8.359 4.18 12.539 12.539 12.539h91.951c8.359 0 12.539-4.18 12.539-12.539v-91.951zM798.302 391.14c0-8.359-4.18-12.539-12.539-12.539h-91.951c-8.359 0-12.539 4.18-12.539 12.539v91.951c0 8.359 4.18 12.539 12.539 12.539h91.951c8.359 0 12.539-4.18 12.539-12.539v-91.951zM330.188 157.083c0-8.359-4.18-12.539-12.539-12.539h-91.951c-8.359 0-12.539 4.18-12.539 12.539v91.951c0 8.359 4.18 12.539 12.539 12.539h91.951c8.359 0 12.539-4.18 12.539-12.539v-91.951zM564.245 157.083c0-8.359-4.18-12.539-12.539-12.539h-91.951c-8.359 0-12.539 4.18-12.539 12.539v91.951c0 8.359 4.18 12.539 12.539 12.539h91.951c8.359 0 12.539-4.18 12.539-12.539v-91.951zM798.302 157.083c0-8.359-4.18-12.539-12.539-12.539h-91.951c-8.359 0-12.539 4.18-12.539 12.539v91.951c0 8.359 4.18 12.539 12.539 12.539h91.951c8.359 0 12.539-4.18 12.539-12.539v-91.951z" />
<glyph unicode="&#xe923;" glyph-name="visualizar" horiz-adv-x="1328" d="M669.751 152.678c-138.378 0-254.616 116.238-254.616 260.151s116.238 260.151 254.616 260.151 254.616-116.238 254.616-260.151c-5.535-143.914-116.238-260.151-254.616-260.151zM669.751 772.613c-232.476 0-415.135-138.378-636.541-359.784 193.73-193.73 354.249-365.319 636.541-365.319s487.092 215.87 631.005 359.784c-143.914 166.054-354.249 365.319-631.005 365.319zM669.751 501.391c0 22.141 5.535 44.281 22.141 60.886-5.535 0-16.605 0-22.141 0-83.027 0-149.449-66.422-149.449-149.449s66.422-149.449 149.449-149.449 149.449 66.422 149.449 149.449c0 5.535 0 11.070 0 22.141-16.605-11.070-33.211-22.141-55.351-22.141-55.351 0-94.097 38.746-94.097 88.562z" />
</font>
</defs>
</svg>
