<?xml version="1.0" encoding="utf-8"?>
<!-- Generator: Adobe Illustrator 19.0.0, SVG Export Plug-In . SVG Version: 6.00 Build 0)  -->
<svg version="1.1" id="Layer_1" xmlns="http://www.w3.org/2000/svg" xmlns:xlink="http://www.w3.org/1999/xlink" x="0px" y="0px"
	 viewBox="-156 321.7 281.3 198.2" style="enable-background:new -156 321.7 281.3 198.2;" xml:space="preserve">
<style type="text/css">
	.st0{fill:none;stroke:#D1D3D4;stroke-width:1.8871;stroke-linecap:round;stroke-linejoin:round;stroke-miterlimit:10;}
	.st1{fill:#E5E8E8;}
	.st2{fill:#D1D4D4;}
	.st3{fill:#41AD49;}
	.st4{fill:#FFFFFF;}
	.st5{opacity:0.65;}
	.st6{fill:#58595B;}
	.st7{opacity:0.9;fill:#36474F;enable-background:new    ;}
	.st8{fill:#36474F;}
	.st9{fill:#FF0C3E;}
	.st10{fill:#FFD514;}
	.st11{fill:#00E871;}
	.st12{fill:#E0E0E0;}
	.st13{fill:#FEFEFE;}
	.st14{clip-path:url(#SVGID_2_);fill:#CCD1D9;}
	.st15{fill:#45AC4C;}
	.st16{fill:#CCD1D9;}
	.st17{clip-path:url(#SVGID_4_);fill:#CCD1D9;}
	.st18{fill:none;stroke:#E5E8E8;stroke-width:0.75;stroke-miterlimit:10;}
	.st19{opacity:0.25;fill:#E5E8E8;enable-background:new    ;}
</style>
<g id="Layer_1_1_">
</g>
<line class="st0" x1="-157.3" y1="514.9" x2="123.8" y2="514.9"/>
<path class="st1" d="M109,325.9h-249.9c-4.1,0-7.5,3.4-7.5,7.5l0.1,7.3h265.1l-0.1-7.4C116.7,329.2,113.3,325.9,109,325.9z"/>
<g>
	<path class="st2" d="M-127.4,333.9c0,1.7-1.5,3.2-3.2,3.2c-1.7,0-3.2-1.5-3.2-3.2c0-1.7,1.5-3.2,3.2-3.2
		C-128.8,330.7-127.4,332.1-127.4,333.9z"/>
	<path class="st2" d="M-117.9,333.9c0,1.7-1.5,3.2-3.2,3.2c-1.7,0-3.2-1.5-3.2-3.2c0-1.7,1.5-3.2,3.2-3.2
		C-119.5,330.7-117.9,332.1-117.9,333.9z"/>
	<path class="st3" d="M-108.3,333.9c0,1.7-1.5,3.2-3.2,3.2s-3.2-1.5-3.2-3.2c0-1.7,1.5-3.2,3.2-3.2
		C-109.9,330.7-108.3,332.1-108.3,333.9z"/>
</g>
<polyline class="st1" points="116.7,341.2 116.7,359.3 -148.6,359.3 -148.6,341.2 "/>
<path class="st4" d="M-118.6,353.7c0,0.7,0.7,1.2,1.7,1.2H85c0.7,0,1.7-0.7,1.7-1.2v-6.3c0-0.7-0.7-1.2-1.7-1.2h-202
	c-0.7,0-1.7,0.7-1.7,1.2L-118.6,353.7L-118.6,353.7z"/>
<path class="st2" d="M-142.7,352c0,1.1,0.7,1.9,1.9,1.9h3.8c1.1,0,1.9-0.7,1.9-1.9v-3.2c0-1.1-0.7-1.9-1.9-1.9h-3.8
	c-1.1,0-1.9,0.7-1.9,1.9V352z"/>
<path class="st2" d="M-131,351.8c0,1.1,0.7,1.9,1.9,1.9h3.8c1.1,0,1.9-0.7,1.9-1.9v-3.2c0-1.1-0.7-1.9-1.9-1.9h-3.8
	c-1.1,0-1.9,0.7-1.9,1.9V351.8z"/>
<path class="st2" d="M91.5,352c0,1.1,0.7,1.9,1.9,1.9h3.8c1.1,0,1.9-0.7,1.9-1.9v-3.2c0-1.1-0.7-1.9-1.9-1.9h-3.8
	c-1.1,0-1.9,0.7-1.9,1.9V352z"/>
<path class="st2" d="M102.8,352c0,1.1,0.7,1.9,1.9,1.9h3.8c1.1,0,1.9-0.7,1.9-1.9v-3.2c0-1.1-0.7-1.9-1.9-1.9h-3.8
	c-1.1,0-1.9,0.7-1.9,1.9V352z"/>
<g class="st5">
	<path class="st6" d="M-111.3,349.3l0.5,1.8c0.1,0.5,0.2,0.7,0.2,1.2l0,0c0.1-0.4,0.2-0.7,0.4-1.2l0.6-1.8h0.6l0.6,1.8
		c0.1,0.5,0.2,0.7,0.4,1.2l0,0c0.1-0.4,0.1-0.7,0.2-1.2l0.6-1.8h0.7l-1.2,3.6h-0.6l-0.6-1.7c-0.1-0.5-0.2-0.7-0.4-1.2l0,0
		c-0.1,0.5-0.2,0.7-0.4,1.2l-0.6,1.7h-0.6l-1.1-3.6H-111.3z"/>
	<path class="st6" d="M-105.7,349.3l0.5,1.8c0.1,0.5,0.2,0.7,0.2,1.2l0,0c0.1-0.4,0.2-0.7,0.4-1.2l0.6-1.8h0.6l0.6,1.8
		c0.1,0.5,0.2,0.7,0.4,1.2l0,0c0.1-0.4,0.1-0.7,0.2-1.2l0.6-1.8h0.6l-1.2,3.6h-0.6l-0.6-1.7c-0.1-0.5-0.2-0.7-0.4-1.2l0,0
		c-0.1,0.5-0.2,0.7-0.4,1.2l-0.6,1.7h-0.6l-1.2-3.6H-105.7z"/>
	<path class="st6" d="M-100,349.3l0.5,1.8c0.1,0.5,0.2,0.7,0.2,1.2l0,0c0.1-0.4,0.2-0.7,0.4-1.2l0.6-1.8h0.6l0.6,1.8
		c0.1,0.5,0.2,0.7,0.4,1.2l0,0c0.1-0.4,0.1-0.7,0.2-1.2l0.6-1.8h0.7l-1.2,3.6H-97l-0.6-1.7c-0.1-0.5-0.2-0.7-0.4-1.2l0,0
		c-0.1,0.5-0.2,0.7-0.4,1.2l-0.6,1.6h-0.6l-1.2-3.6L-100,349.3L-100,349.3z"/>
	<path class="st6" d="M-94.8,353.1c-0.2,0-0.5-0.2-0.5-0.5c0-0.2,0.2-0.5,0.5-0.5c0.2,0,0.5,0.2,0.5,0.5
		C-94.3,352.8-94.5,353.1-94.8,353.1L-94.8,353.1z"/>
	<path class="st6" d="M-93.1,351.2c0,0.9,0.6,1.2,1.2,1.2c0.5,0,0.7-0.1,1.1-0.2l0.1,0.5c-0.3,0-0.8,0.1-1.3,0.1
		c-1.2,0-1.8-0.7-1.8-1.8c0-1.2,0.7-1.9,1.7-1.9c1.2,0,1.5,1.1,1.5,1.7c0,0.1,0,0.2,0,0.4C-90.5,351.2-93.1,351.2-93.1,351.2z
		 M-91.1,350.7c0-0.5-0.2-1.1-0.9-1.1c-0.7,0-0.9,0.6-1.1,1.1H-91.1z"/>
	<path class="st6" d="M-89.8,352.2c0.2,0.1,0.6,0.2,0.9,0.2c0.5,0,0.7-0.2,0.7-0.6c0-0.4-0.2-0.5-0.7-0.7c-0.7-0.2-1.1-0.6-1.1-1.1
		c0-0.6,0.5-1.1,1.2-1.1c0.4,0,0.7,0.1,0.9,0.2v0.6c-0.1-0.1-0.5-0.2-0.7-0.2c-0.4,0-0.6,0.2-0.6,0.5c0,0.4,0.2,0.5,0.7,0.7
		c0.7,0.2,0.9,0.6,0.9,1.2c0,0.7-0.5,1.2-1.3,1.2c-0.5,0-0.7-0.1-1.1-0.2L-89.8,352.2z"/>
	<path class="st6" d="M-85.9,348.3v0.9h0.9v0.5h-0.9v1.9c0,0.5,0.1,0.7,0.5,0.7c0.2,0,0.4,0,0.4,0v0.5c-0.1,0-0.4,0.1-0.6,0.1
		c-0.4,0-0.6-0.1-0.7-0.2c-0.2-0.2-0.2-0.6-0.2-0.9v-1.9h-0.6v-0.6h0.6v-0.6L-85.9,348.3z"/>
	<path class="st6" d="M-83.8,348.7c-0.2,0-0.5-0.2-0.5-0.5c0-0.2,0.1-0.5,0.5-0.5c0.2,0,0.5,0.2,0.5,0.5
		C-83.5,348.4-83.7,348.7-83.8,348.7L-83.8,348.7z M-84.1,352.9v-3.6h0.7v3.6H-84.1z"/>
	<path class="st6" d="M-82.5,347.5h0.7v5.5h-0.7V347.5z"/>
	<path class="st6" d="M-79.2,353.1c-1.1,0-1.7-0.7-1.7-1.9c0-1.2,0.7-1.9,1.8-1.9s1.7,0.7,1.7,1.8
		C-77.4,352.5-78.3,353.1-79.2,353.1L-79.2,353.1z M-79.2,352.5c0.7,0,1.2-0.6,1.2-1.5c0-0.6-0.4-1.3-1.2-1.3
		c-0.7,0-1.2,0.7-1.2,1.3C-80.2,351.9-79.8,352.5-79.2,352.5L-79.2,352.5z"/>
	<path class="st6" d="M-76.6,352.2c0.2,0.1,0.6,0.2,0.9,0.2c0.5,0,0.7-0.2,0.7-0.6c0-0.4-0.2-0.5-0.7-0.7c-0.7-0.2-1.1-0.6-1.1-1.1
		c0-0.6,0.5-1.1,1.2-1.1c0.4,0,0.7,0.1,0.9,0.2v0.6c-0.1-0.1-0.5-0.2-0.7-0.2c-0.4,0-0.6,0.2-0.6,0.5c0,0.4,0.2,0.5,0.7,0.7
		c0.7,0.2,0.9,0.6,0.9,1.2c0,0.7-0.5,1.2-1.3,1.2c-0.5,0-0.7-0.1-1.1-0.2L-76.6,352.2z"/>
	<path class="st6" d="M-73.2,353.1c-0.2,0-0.5-0.2-0.5-0.5c0-0.2,0.2-0.5,0.5-0.5c0.2,0,0.5,0.2,0.5,0.5
		C-72.8,352.8-73,353.1-73.2,353.1L-73.2,353.1z"/>
	<path class="st6" d="M-71.9,352.9v-3.2h-0.5v-0.5h0.5V349c0-0.6,0.1-1.1,0.5-1.2c0.2-0.2,0.6-0.4,0.9-0.4c0.2,0,0.5,0,0.6,0.1
		l-0.1,0.7c-0.1,0-0.2-0.1-0.5-0.1c-0.6,0-0.7,0.5-0.7,1.1v0.2h0.9v0.5h-0.9v3.2C-71.2,352.9-71.9,352.9-71.9,352.9z"/>
	<path class="st6" d="M-67.3,352.8c-0.2,0.1-0.6,0.2-1.1,0.2c-1.2,0-1.8-0.7-1.8-1.8c0-1.2,0.7-1.9,1.9-1.9c0.4,0,0.7,0.1,0.9,0.2
		l-0.1,0.5c-0.1-0.1-0.5-0.2-0.7-0.2c-0.7,0-1.2,0.7-1.2,1.3c0,0.7,0.6,1.3,1.2,1.3c0.4,0,0.7-0.1,0.7-0.2L-67.3,352.8z"/>
	<path class="st6" d="M-65.6,348.3v0.9h0.9v0.5h-0.9v1.9c0,0.5,0.1,0.7,0.5,0.7c0.2,0,0.4,0,0.4,0v0.5c-0.1,0-0.4,0.1-0.6,0.1
		c-0.4,0-0.6-0.1-0.7-0.2c-0.2-0.2-0.2-0.6-0.2-0.9v-1.9h-0.6v-0.6h0.6v-0.6L-65.6,348.3z"/>
	<path class="st6" d="M-63.7,353.1c-0.2,0-0.5-0.2-0.5-0.5c0-0.2,0.2-0.5,0.5-0.5c0.2,0,0.5,0.2,0.5,0.5
		C-63.3,352.8-63.3,353.1-63.7,353.1L-63.7,353.1z"/>
	<path class="st6" d="M-62.3,350.3c0-0.5,0-0.7,0-1.2h0.6v0.7l0,0c0.2-0.5,0.7-0.7,1.2-0.7c0.9,0,1.7,0.7,1.7,1.8
		c0,1.3-0.7,1.9-1.7,1.9c-0.5,0-0.9-0.2-1.2-0.6l0,0v1.9h-0.7L-62.3,350.3L-62.3,350.3L-62.3,350.3z M-61.7,351.4c0,0.1,0,0.2,0,0.2
		c0.1,0.5,0.6,0.7,1.1,0.7c0.7,0,1.2-0.6,1.2-1.3s-0.4-1.3-1.1-1.3c-0.5,0-0.9,0.4-1.1,0.7c0,0.1,0,0.2,0,0.2L-61.7,351.4
		L-61.7,351.4L-61.7,351.4z"/>
	<path class="st6" d="M-57.2,348.3v0.9h0.9v0.5h-0.9v1.9c0,0.5,0.1,0.7,0.5,0.7c0.2,0,0.4,0,0.4,0v0.5c-0.1,0-0.4,0.1-0.6,0.1
		c-0.4,0-0.6-0.1-0.7-0.2c-0.2-0.2-0.2-0.6-0.2-0.9v-1.9h-0.7v-0.6h0.6v-0.6L-57.2,348.3z"/>
</g>
<ellipse class="st2" cx="-16.6" cy="454.6" rx="106.4" ry="10"/>
<path class="st7" d="M68.5,418.8h-31l0,0c-0.2,0-0.5,0.2-0.5,0.6v5.2l0,0v25.8l0,0c0,0.2,0.2,0.5,0.5,0.5h31l0,0
	c0.2,0,0.5-0.2,0.5-0.5v-25.8l0,0v-5.2C69.1,419.1,68.8,418.8,68.5,418.8z"/>
<g>
	<rect x="36" y="420.6" class="st8" width="31.3" height="5.2"/>
	<path class="st8" d="M36,420L36,420h31.3c0.2,0,0.5,0.2,0.5,0.5l0,0v5.2c0,0.2-0.2,0.5-0.5,0.5l0,0H36c-0.2,0-0.5-0.2-0.5-0.5l0,0
		v-5.2C35.4,420.2,35.7,420,36,420L36,420z M66.6,421.1H36.4v4.2h30.2V421.1z"/>
	<path class="st9" d="M39.7,422.1c0.7,0,1.2,0.5,1.2,1.2c0,0.7-0.5,1.2-1.2,1.2c-0.6,0-1.2-0.5-1.2-1.2
		C38.5,422.6,39.1,422.1,39.7,422.1L39.7,422.1z"/>
	<path class="st9" d="M39.7,421.5c0.5,0,0.8,0.2,1.2,0.5c0.2,0.2,0.5,0.7,0.5,1.2c0,0.5-0.2,0.8-0.5,1.2c-0.3,0.2-0.7,0.5-1.2,0.5
		c-0.4,0-0.8-0.2-1.2-0.5s-0.5-0.7-0.5-1.2c0-0.4,0.2-0.8,0.5-1.2C38.8,421.7,39.2,421.5,39.7,421.5L39.7,421.5z M40.1,422.7
		c-0.1-0.1-0.2-0.2-0.5-0.2c-0.2,0-0.3,0.1-0.5,0.2c-0.1,0.1-0.2,0.2-0.2,0.4s0.1,0.3,0.2,0.5c0.1,0.1,0.2,0.2,0.5,0.2
		c0.2,0,0.3-0.1,0.5-0.2c0.1-0.1,0.2-0.2,0.2-0.5C40.4,423,40.3,422.8,40.1,422.7L40.1,422.7z"/>
	<path class="st10" d="M44,422.1c0.6,0,1.2,0.5,1.2,1.2c0,0.7-0.5,1.2-1.2,1.2s-1.2-0.5-1.2-1.2C42.7,422.6,43.3,422.1,44,422.1
		L44,422.1z"/>
	<path class="st10" d="M44,421.5c0.4,0,0.8,0.2,1.2,0.5c0.3,0.2,0.5,0.7,0.5,1.2c0,0.5-0.2,0.8-0.5,1.2c-0.2,0.2-0.7,0.5-1.2,0.5
		c-0.5,0-0.8-0.2-1.2-0.5c-0.2-0.3-0.5-0.7-0.5-1.2c0-0.4,0.2-0.8,0.5-1.2C43.1,421.7,43.5,421.5,44,421.5L44,421.5z M44.4,422.7
		c-0.1-0.1-0.2-0.2-0.5-0.2c-0.2,0-0.3,0.1-0.5,0.2c-0.1,0.1-0.2,0.2-0.2,0.4s0.1,0.3,0.2,0.5c0.1,0.1,0.2,0.2,0.5,0.2
		c0.2,0,0.3-0.1,0.5-0.2c0.1-0.1,0.2-0.2,0.2-0.5C44.5,423,44.5,422.8,44.4,422.7L44.4,422.7z"/>
	<path class="st11" d="M48.1,422.1c0.7,0,1.2,0.5,1.2,1.2c0,0.7-0.5,1.2-1.2,1.2c-0.6,0-1.2-0.5-1.2-1.2
		C47,422.6,47.5,422.1,48.1,422.1L48.1,422.1z"/>
	<path class="st11" d="M48.1,421.5c0.5,0,0.8,0.2,1.2,0.5c0.2,0.2,0.5,0.7,0.5,1.2c0,0.5-0.2,0.8-0.5,1.2c-0.3,0.2-0.7,0.5-1.2,0.5
		c-0.4,0-0.8-0.2-1.2-0.5c-0.2-0.3-0.5-0.7-0.5-1.2c0-0.4,0.2-0.8,0.5-1.2C47.3,421.7,47.7,421.5,48.1,421.5L48.1,421.5z
		 M48.6,422.7c-0.1-0.1-0.2-0.2-0.5-0.2c-0.2,0-0.3,0.1-0.4,0.2c-0.1,0.1-0.2,0.2-0.2,0.4s0.1,0.3,0.2,0.5c0.1,0.1,0.2,0.2,0.4,0.2
		c0.2,0,0.3-0.1,0.5-0.2c0.1-0.1,0.2-0.2,0.2-0.5C48.8,423,48.8,422.8,48.6,422.7L48.6,422.7z"/>
	<path class="st12" d="M67.2,425.8v26.1H35.9v-26.1h17.9l0.9-1.6c0.1-0.2,0.2-0.5,0.9-0.5h3.3c0.5,0,0.8,0.2,1,0.5l0.8,1.6H67.2z"/>
	<path class="st12" d="M67.8,425.8L67.8,425.8v26.1c0,0.3-0.2,0.6-0.5,0.6l0,0H36c-0.2,0-0.5-0.2-0.5-0.6l0,0v-26.1
		c0-0.3,0.2-0.5,0.5-0.5l0,0h17.4l0.7-1.3l0,0l0,0l0,0c0.2-0.3,0.4-0.7,1.4-0.7h3.3c0.3,0,0.6,0.1,0.8,0.2l0,0l0,0
		c0.2,0.2,0.5,0.3,0.6,0.6l0.7,1.3h6.1C67.6,425.2,67.8,425.5,67.8,425.8L67.8,425.8z M66.6,451.4v-25h-5.9l0,0
		c-0.2,0-0.3-0.1-0.5-0.2l-0.8-1.6c0-0.1-0.1-0.1-0.2-0.2l0,0c-0.1,0-0.2-0.1-0.2-0.1h-3.3c-0.2,0-0.3,0.1-0.4,0.2l0,0l0,0l0,0l0,0
		l-0.8,1.6c-0.1,0.2-0.2,0.3-0.5,0.3H36.7v25H66.6L66.6,451.4z"/>
	<polygon class="st13" points="62.2,422.3 62.2,423.1 62.9,423.1 62.9,423.3 62.2,423.3 62.2,424.1 61.9,424.1 61.9,423.3 
		61.2,423.3 61.2,423.1 61.9,423.1 61.9,422.3 	"/>
</g>
<g>
	<g>
		<g>
			<g>
				<g>
					<g>
						<defs>
							<rect id="SVGID_1_" x="49.3" y="431.9" width="12.1" height="10.9"/>
						</defs>
						<clipPath id="SVGID_2_">
							<use xlink:href="#SVGID_1_"  style="overflow:visible;"/>
						</clipPath>
						<path class="st14" d="M54.8,441.5l-1.2,1.2h7.9v-1.2H54.8z M60,434.3c0.2-0.2,0.2-0.6,0-0.8l-1.4-1.4c-0.2-0.2-0.6-0.2-0.8,0
							l-1.1,1.1l2.3,2.3L60,434.3z M49.3,440.4v2.3h2.3l6.6-6.7l-2.3-2.3L49.3,440.4z"/>
					</g>
				</g>
			</g>
		</g>
	</g>
</g>
<path class="st7" d="M40.5,411.3H-1.1l0,0c-0.4,0-0.7,0.3-0.7,0.7v6.9l0,0v34.6l0,0c0,0.4,0.3,0.7,0.7,0.7h41.5l0,0
	c0.4,0,0.7-0.3,0.7-0.7v-34.5l0,0v-6.9C41.1,411.8,40.8,411.3,40.5,411.3z"/>
<g>
	<rect x="-3.1" y="413.7" class="st8" width="42" height="7.1"/>
	<path class="st8" d="M-3.1,413L-3.1,413h41.9c0.4,0,0.7,0.3,0.7,0.7l0,0v7c0,0.4-0.3,0.7-0.7,0.7l0,0H-3.1c-0.4,0-0.7-0.3-0.7-0.7
		l0,0v-7C-3.9,413.3-3.6,413-3.1,413L-3.1,413z M38,414.5H-2.4v5.6h40.5L38,414.5L38,414.5z"/>
	<path class="st9" d="M1.8,415.7c0.9,0,1.6,0.7,1.6,1.6c0,0.9-0.7,1.6-1.6,1.6s-1.6-0.7-1.6-1.6C0.3,416.3,1,415.7,1.8,415.7
		L1.8,415.7z"/>
	<path class="st9" d="M1.8,415c0.7,0,1.2,0.2,1.6,0.7c0.4,0.4,0.7,1,0.7,1.6c0,0.7-0.2,1.2-0.7,1.6s-1,0.7-1.6,0.7s-1.2-0.2-1.6-0.7
		s-0.7-1-0.7-1.6s0.2-1.2,0.7-1.6C0.7,415.2,1.3,415,1.8,415L1.8,415z M2.4,416.6c-0.2-0.2-0.4-0.2-0.7-0.2s-0.5,0.1-0.7,0.2
		s-0.2,0.3-0.2,0.6c0,0.2,0.1,0.5,0.2,0.7s0.4,0.2,0.7,0.2s0.5-0.1,0.7-0.2c0.2-0.2,0.2-0.3,0.2-0.7C2.8,417,2.7,416.7,2.4,416.6
		L2.4,416.6z"/>
	<path class="st10" d="M7.6,415.7c0.8,0,1.6,0.7,1.6,1.6c0,0.9-0.7,1.6-1.6,1.6c-0.9,0-1.6-0.7-1.6-1.6C6,416.3,6.7,415.7,7.6,415.7
		L7.6,415.7z"/>
	<path class="st10" d="M7.6,415c0.6,0,1.2,0.2,1.6,0.7c0.4,0.4,0.7,1,0.7,1.6c0,0.7-0.2,1.2-0.7,1.6c-0.4,0.4-1,0.7-1.6,0.7
		c-0.7,0-1.2-0.2-1.6-0.7s-0.7-1-0.7-1.6s0.2-1.2,0.7-1.6C6.3,415.2,6.9,415,7.6,415L7.6,415z M8.2,416.6c-0.2-0.2-0.4-0.2-0.7-0.2
		s-0.5,0.1-0.7,0.2s-0.2,0.3-0.2,0.6c0,0.2,0.1,0.5,0.2,0.7s0.4,0.2,0.7,0.2s0.5-0.1,0.7-0.2c0.2-0.2,0.2-0.3,0.2-0.7
		C8.4,417,8.3,416.7,8.2,416.6L8.2,416.6z"/>
	<path class="st11" d="M13.2,415.7c0.9,0,1.6,0.7,1.6,1.6c0,0.9-0.7,1.6-1.6,1.6s-1.6-0.7-1.6-1.6C11.6,416.3,12.4,415.7,13.2,415.7
		L13.2,415.7z"/>
	<path class="st11" d="M13.2,415c0.7,0,1.2,0.2,1.6,0.7c0.4,0.4,0.7,1,0.7,1.6c0,0.7-0.2,1.2-0.7,1.6c-0.4,0.4-1,0.7-1.6,0.7
		s-1.2-0.2-1.6-0.7c-0.4-0.4-0.7-1-0.7-1.6s0.2-1.2,0.7-1.6C12.1,415.2,12.6,415,13.2,415L13.2,415z M13.9,416.6
		c-0.2-0.2-0.3-0.2-0.7-0.2c-0.2,0-0.5,0.1-0.6,0.2c-0.2,0.2-0.2,0.3-0.2,0.6c0,0.2,0.1,0.5,0.2,0.7c0.2,0.2,0.3,0.2,0.6,0.2
		s0.5-0.1,0.7-0.2c0.2-0.2,0.2-0.3,0.2-0.7C14.1,417,14.1,416.7,13.9,416.6L13.9,416.6z"/>
	<path class="st12" d="M38.7,420.7v35h-42v-35h23.8l1.2-2.2c0.2-0.3,0.3-0.7,1.2-0.7h4.5c0.7,0,1.1,0.3,1.2,0.7l1.2,2.2H38.7z"/>
	<path class="st12" d="M39.5,420.7L39.5,420.7v35c0,0.4-0.3,0.7-0.7,0.7l0,0H-3.1c-0.4,0-0.7-0.3-0.7-0.7l0,0v-35
		c0-0.4,0.3-0.7,0.7-0.7l0,0h23.4l1-1.7l0,0l0,0l0,0c0.2-0.5,0.6-1,1.8-1h4.5c0.5,0,0.8,0.1,1.1,0.2l0,0l0,0
		c0.3,0.2,0.7,0.5,0.7,0.8l1,1.7h8.2C39.1,420,39.5,420.3,39.5,420.7L39.5,420.7z M38,455v-33.5h-7.9l0,0c-0.2,0-0.5-0.2-0.7-0.4
		l-1.2-2.2c0-0.1-0.1-0.2-0.2-0.2l0,0c-0.1,0-0.2-0.1-0.4-0.1h-4.5c-0.4,0-0.5,0.2-0.6,0.2l0,0l0,0l0,0l0,0l-1.2,2.1
		c-0.1,0.2-0.3,0.4-0.7,0.4H-2.4v33.5H38V455z"/>
	<polygon class="st13" points="32.1,416 32.1,417.1 33,417.1 33,417.5 32.1,417.5 32.1,418.4 31.7,418.4 31.7,417.5 30.8,417.5 
		30.8,417.1 31.7,417.1 31.7,416 	"/>
</g>
<path class="st7" d="M-108.2,419.4v5.2l0,0v25.8c0,0.2,0.2,0.5,0.5,0.5l0,0h31c0.2,0,0.5-0.2,0.5-0.5l0,0v-25.8l0,0v-5.2
	c0-0.3-0.2-0.6-0.5-0.6l0,0h-30.9C-108,418.8-108.2,419.1-108.2,419.4z"/>
<g>
	<rect x="-106.4" y="420.6" class="st8" width="31.3" height="5.2"/>
	<path class="st8" d="M-75.2,420c0.2,0,0.5,0.2,0.5,0.6v5.2l0,0c0,0.2-0.2,0.5-0.5,0.5h-31.2l0,0c-0.2,0-0.5-0.2-0.5-0.5v-5.2l0,0
		c0-0.2,0.2-0.5,0.5-0.5L-75.2,420L-75.2,420L-75.2,420z M-105.9,425.2h30.2v-4.2h-30.2V425.2z"/>
	<path class="st9" d="M-78.8,422.1c0.6,0,1.2,0.5,1.2,1.2c0,0.7-0.5,1.2-1.2,1.2c-0.7,0-1.2-0.5-1.2-1.2
		C-80.1,422.6-79.6,422.1-78.8,422.1L-78.8,422.1z"/>
	<path class="st9" d="M-78.8,421.5c0.5,0,0.9,0.2,1.2,0.5c0.3,0.2,0.5,0.7,0.5,1.2c0,0.5-0.2,0.8-0.5,1.2c-0.2,0.2-0.7,0.5-1.2,0.5
		c-0.5,0-0.8-0.2-1.2-0.5c-0.2-0.3-0.5-0.7-0.5-1.2c0-0.4,0.2-0.8,0.5-1.2C-79.7,421.7-79.3,421.5-78.8,421.5L-78.8,421.5z
		 M-79.3,422.7c-0.1,0.1-0.2,0.2-0.2,0.4c0,0.2,0.1,0.3,0.2,0.5c0.1,0.1,0.2,0.2,0.5,0.2c0.2,0,0.3-0.1,0.5-0.2
		c0.1-0.1,0.2-0.2,0.2-0.5c0-0.2-0.1-0.3-0.2-0.4c-0.1-0.1-0.2-0.2-0.5-0.2C-79.1,422.6-79.2,422.6-79.3,422.7L-79.3,422.7z"/>
	<path class="st10" d="M-83.1,422.1c0.7,0,1.2,0.5,1.2,1.2c0,0.7-0.5,1.2-1.2,1.2c-0.6,0-1.2-0.5-1.2-1.2
		C-84.3,422.6-83.7,422.1-83.1,422.1L-83.1,422.1z"/>
	<path class="st10" d="M-83.1,421.5c0.5,0,0.9,0.2,1.2,0.5c0.2,0.2,0.5,0.7,0.5,1.2c0,0.5-0.2,0.8-0.5,1.2c-0.3,0.2-0.7,0.5-1.2,0.5
		c-0.4,0-0.8-0.2-1.2-0.5c-0.3-0.3-0.5-0.7-0.5-1.2c0-0.4,0.2-0.8,0.5-1.2C-84,421.7-83.6,421.5-83.1,421.5L-83.1,421.5z
		 M-83.6,422.7c-0.1,0.1-0.2,0.2-0.2,0.4s0.1,0.3,0.2,0.5c0.1,0.1,0.2,0.2,0.5,0.2s0.3-0.1,0.5-0.2c0.1-0.1,0.2-0.2,0.2-0.5
		c0-0.2-0.1-0.3-0.2-0.4c-0.1-0.1-0.2-0.2-0.5-0.2S-83.5,422.6-83.6,422.7L-83.6,422.7z"/>
	<path class="st11" d="M-87.4,422.1c0.6,0,1.2,0.5,1.2,1.2c0,0.7-0.5,1.2-1.2,1.2c-0.7,0-1.2-0.5-1.2-1.2
		C-88.5,422.6-88.1,422.1-87.4,422.1L-87.4,422.1z"/>
	<path class="st11" d="M-87.4,421.5c0.4,0,0.8,0.2,1.2,0.5c0.2,0.2,0.5,0.7,0.5,1.2c0,0.5-0.2,0.8-0.5,1.2c-0.2,0.2-0.7,0.5-1.2,0.5
		c-0.5,0-0.8-0.2-1.2-0.5c-0.2-0.3-0.5-0.7-0.5-1.2c0-0.4,0.2-0.8,0.5-1.2C-88.2,421.7-87.8,421.5-87.4,421.5L-87.4,421.5z
		 M-87.8,422.7c-0.1,0.1-0.2,0.2-0.2,0.4s0.1,0.3,0.2,0.5c0.1,0.1,0.2,0.2,0.5,0.2c0.2,0,0.3-0.1,0.4-0.2c0.1-0.1,0.2-0.2,0.2-0.5
		c0-0.2-0.1-0.3-0.2-0.4s-0.2-0.2-0.4-0.2C-87.6,422.6-87.7,422.6-87.8,422.7L-87.8,422.7z"/>
	<path class="st12" d="M-99.9,425.8l0.8-1.6c0.1-0.2,0.4-0.5,1-0.5h3.3c0.7,0,0.7,0.2,0.9,0.5l0.9,1.6h17.9v26.1h-31.3v-26.1H-99.9z
		"/>
	<path class="st12" d="M-107,425.8c0-0.3,0.2-0.5,0.6-0.5h6.1l0.7-1.3c0.1-0.2,0.3-0.5,0.6-0.6l0,0l0,0c0.2-0.1,0.5-0.2,0.8-0.2h3.3
		c0.9,0,1.2,0.3,1.4,0.7l0,0l0,0l0,0l0.7,1.3h17.4l0,0c0.2,0,0.5,0.2,0.5,0.5v26.1l0,0c0,0.3-0.2,0.6-0.5,0.6h-31.2l0,0
		c-0.2,0-0.5-0.2-0.5-0.6L-107,425.8L-107,425.8L-107,425.8z M-105.9,451.4h30.2v-25H-93c-0.2,0-0.4-0.1-0.5-0.3l-0.8-1.6l0,0l0,0
		l0,0l0,0c0-0.1-0.1-0.2-0.4-0.2H-98c-0.1,0-0.2,0-0.2,0.1l0,0c-0.1,0-0.2,0.1-0.2,0.2l-0.8,1.6c-0.1,0.2-0.2,0.2-0.5,0.2l0,0h-6.1
		L-105.9,451.4L-105.9,451.4z"/>
	<polygon class="st13" points="-101.2,422.3 -101.2,423.1 -100.4,423.1 -100.4,423.3 -101.2,423.3 -101.2,424.1 -101.4,424.1 
		-101.4,423.3 -102.2,423.3 -102.2,423.1 -101.4,423.1 -101.4,422.3 	"/>
</g>
<path class="st7" d="M-82,412.2v6.9l0,0v34.6c0,0.4,0.3,0.7,0.7,0.7l0,0h41.5c0.4,0,0.7-0.3,0.7-0.7l0,0v-34.6l0,0v-6.9
	c0-0.4-0.3-0.7-0.7-0.7l0,0h-41.5C-81.7,411.3-82,411.8-82,412.2z"/>
<g>
	<rect x="-79.6" y="413.7" class="st8" width="42" height="7.1"/>
	<path class="st8" d="M-37.7,413c0.4,0,0.7,0.3,0.7,0.7v7l0,0c0,0.4-0.3,0.7-0.7,0.7h-41.9l0,0c-0.4,0-0.7-0.3-0.7-0.7v-7l0,0
		c0-0.4,0.3-0.7,0.7-0.7H-37.7L-37.7,413L-37.7,413z M-78.8,420h40.5v-5.5h-40.5V420z"/>
	<path class="st9" d="M-42.7,415.7c0.8,0,1.6,0.7,1.6,1.6c0,0.8-0.7,1.6-1.6,1.6c-0.8,0-1.6-0.7-1.6-1.6
		C-44.3,416.4-43.6,415.7-42.7,415.7L-42.7,415.7z"/>
	<path class="st9" d="M-42.7,415c0.6,0,1.2,0.2,1.6,0.7c0.4,0.4,0.7,1,0.7,1.6c0,0.7-0.2,1.2-0.7,1.6c-0.4,0.4-1,0.7-1.6,0.7
		c-0.7,0-1.2-0.2-1.6-0.7c-0.4-0.4-0.7-1-0.7-1.6s0.2-1.2,0.7-1.6C-43.9,415.2-43.4,415-42.7,415L-42.7,415z M-43.3,416.6
		c-0.2,0.2-0.2,0.3-0.2,0.6c0,0.2,0.1,0.5,0.2,0.7c0.2,0.2,0.4,0.2,0.7,0.2c0.2,0,0.5-0.1,0.7-0.2c0.2-0.2,0.2-0.3,0.2-0.7
		c0-0.2-0.1-0.5-0.2-0.6c-0.2-0.2-0.4-0.2-0.7-0.2C-42.9,416.3-43.2,416.4-43.3,416.6L-43.3,416.6z"/>
	<path class="st10" d="M-48.4,415.7c0.9,0,1.6,0.7,1.6,1.6c0,0.8-0.7,1.6-1.6,1.6c-0.8,0-1.6-0.7-1.6-1.6
		C-50,416.4-49.3,415.7-48.4,415.7L-48.4,415.7z"/>
	<path class="st10" d="M-48.4,415c0.7,0,1.2,0.2,1.6,0.7c0.4,0.4,0.7,1,0.7,1.6c0,0.7-0.2,1.2-0.7,1.6s-1,0.7-1.6,0.7
		c-0.6,0-1.2-0.2-1.6-0.7c-0.4-0.4-0.7-1-0.7-1.6s0.2-1.2,0.7-1.6C-49.6,415.2-49,415-48.4,415L-48.4,415z M-49,416.6
		c-0.2,0.2-0.2,0.3-0.2,0.6c0,0.2,0.1,0.5,0.2,0.7c0.2,0.2,0.4,0.2,0.7,0.2c0.2,0,0.5-0.1,0.7-0.2c0.2-0.2,0.2-0.3,0.2-0.7
		c0-0.2-0.1-0.5-0.2-0.6c-0.2-0.2-0.4-0.2-0.7-0.2C-48.7,416.3-48.8,416.4-49,416.6L-49,416.6z"/>
	<path class="st11" d="M-54.1,415.7c0.8,0,1.6,0.7,1.6,1.6c0,0.8-0.7,1.6-1.6,1.6c-0.8,0-1.6-0.7-1.6-1.6
		C-55.6,416.4-55,415.7-54.1,415.7L-54.1,415.7z"/>
	<path class="st11" d="M-54.1,415c0.6,0,1.2,0.2,1.6,0.7c0.4,0.4,0.7,1,0.7,1.6c0,0.7-0.2,1.2-0.7,1.6s-1,0.7-1.6,0.7
		c-0.7,0-1.2-0.2-1.6-0.7s-0.7-1-0.7-1.6s0.2-1.2,0.7-1.6C-55.2,415.2-54.7,415-54.1,415L-54.1,415z M-54.7,416.6
		c-0.2,0.2-0.2,0.3-0.2,0.6c0,0.2,0.1,0.5,0.2,0.7c0.2,0.2,0.3,0.2,0.7,0.2c0.2,0,0.5-0.1,0.6-0.2c0.2-0.2,0.2-0.3,0.2-0.7
		c0-0.2-0.1-0.5-0.2-0.6c-0.2-0.2-0.3-0.2-0.6-0.2C-54.3,416.3-54.6,416.4-54.7,416.6L-54.7,416.6z"/>
	<path class="st12" d="M-70.9,420.7l1.2-2.2c0.2-0.3,0.6-0.7,1.2-0.7h4.5c0.8,0,1.1,0.3,1.2,0.7l1.2,2.2h23.8v35h-41.9v-35H-70.9z"
		/>
	<path class="st12" d="M-80.3,420.7c0-0.4,0.3-0.7,0.7-0.7h8.2l1-1.7c0.2-0.3,0.4-0.6,0.7-0.8l0,0l0,0c0.2-0.2,0.7-0.2,1.1-0.2h4.5
		c1.2,0,1.6,0.5,1.8,1l0,0l0,0l0,0l1,1.7h23.5l0,0c0.4,0,0.7,0.2,0.7,0.7v35l0,0c0,0.4-0.3,0.7-0.7,0.7h-41.9l0,0
		c-0.4,0-0.7-0.3-0.7-0.7L-80.3,420.7L-80.3,420.7L-80.3,420.7z M-78.8,455h40.4v-33.5h-23.1c-0.2,0-0.6-0.2-0.7-0.4l-1.2-2.1l0,0
		l0,0l0,0l0,0c-0.1-0.1-0.2-0.2-0.6-0.2h-4.5c-0.2,0-0.3,0.1-0.4,0.1l0,0c-0.1,0.1-0.2,0.2-0.2,0.2l-1.2,2.2
		c-0.2,0.2-0.4,0.4-0.7,0.4l0,0h-7.9V455L-78.8,455z"/>
	<polygon class="st13" points="-72.5,416 -72.5,417.1 -71.6,417.1 -71.6,417.5 -72.5,417.5 -72.5,418.4 -72.9,418.4 -72.9,417.5 
		-73.8,417.5 -73.8,417.1 -72.9,417.1 -72.9,416 	"/>
</g>
<g>
	<polygon class="st15" points="24.9,433.3 23.5,433.3 23.5,437.9 18.9,437.9 18.9,439.2 23.5,439.2 23.5,443.8 24.9,443.8 
		24.9,439.2 29.4,439.2 29.4,437.9 24.9,437.9 	"/>
	<g>
		<path class="st15" d="M24.2,447.4c-4.9,0-8.9-4-8.9-8.9s4-8.9,8.9-8.9s8.9,4,8.9,8.9C33.1,443.5,29.1,447.4,24.2,447.4 M24.2,428
			c-5.8,0-10.6,4.7-10.6,10.6s4.7,10.6,10.6,10.6s10.6-4.7,10.6-10.6S30,428,24.2,428"/>
	</g>
</g>
<g>
	<path class="st7" d="M9.6,401.8h-59.4h-0.1c-0.6,0-1,0.4-1,1v9.1v0.1v45.6v0.1c0,0.5,0.5,1,1,1H9.6h0.1c0.6,0,1-0.4,1-1V412v-0.1
		v-9.1C10.7,402.2,10.2,401.8,9.6,401.8z"/>
	<g>
		<rect x="-47.1" y="404.8" class="st8" width="54" height="9.1"/>
		<path class="st8" d="M-47.1,403.9L-47.1,403.9h54c0.5,0,0.9,0.4,0.9,0.9l0,0v9c0,0.5-0.4,0.9-0.9,0.9l0,0H-47
			c-0.5,0-0.9-0.4-0.9-0.9l0,0v-9C-48,404.3-47.6,403.9-47.1,403.9L-47.1,403.9z M6,405.7h-52.1v7.1H6V405.7L6,405.7z"/>
		<path class="st9" d="M-40.6,407.3c1.2,0,2,0.9,2,2c0,1.2-0.9,2-2,2c-1.1,0-2-0.9-2-2C-42.7,408.2-41.7,407.3-40.6,407.3
			L-40.6,407.3z"/>
		<path class="st9" d="M-40.6,406.4c0.8,0,1.5,0.3,2.1,0.8c0.5,0.5,0.8,1.2,0.8,2c0,0.8-0.3,1.5-0.8,2.1c-0.6,0.5-1.2,0.8-2.1,0.8
			c-0.7,0-1.5-0.3-2-0.8c-0.6-0.6-0.8-1.2-0.8-2.1c0-0.7,0.3-1.5,0.8-2C-42.2,406.8-41.4,406.4-40.6,406.4L-40.6,406.4z
			 M-39.8,408.4c-0.2-0.2-0.5-0.3-0.8-0.3c-0.3,0-0.6,0.1-0.8,0.3c-0.2,0.2-0.3,0.5-0.3,0.7c0,0.3,0.1,0.7,0.3,0.8
			c0.2,0.2,0.5,0.3,0.8,0.3c0.3,0,0.6-0.1,0.8-0.3c0.2-0.2,0.3-0.5,0.3-0.8C-39.4,408.9-39.6,408.7-39.8,408.4L-39.8,408.4z"/>
		<path class="st10" d="M-33.3,407.3c1.1,0,2,0.9,2,2c0,1.2-0.9,2-2,2c-1.2,0-2-0.9-2-2C-35.3,408.2-34.5,407.3-33.3,407.3
			L-33.3,407.3z"/>
		<path class="st10" d="M-33.3,406.4c0.7,0,1.5,0.3,2,0.8c0.6,0.5,0.8,1.2,0.8,2c0,0.8-0.3,1.5-0.8,2.1c-0.5,0.5-1.2,0.8-2,0.8
			c-0.8,0-1.5-0.3-2.1-0.8c-0.5-0.6-0.8-1.2-0.8-2.1c0-0.7,0.3-1.5,0.8-2C-34.8,406.8-34.1,406.4-33.3,406.4L-33.3,406.4z
			 M-32.5,408.4c-0.2-0.2-0.5-0.3-0.8-0.3c-0.3,0-0.7,0.1-0.8,0.3c-0.2,0.2-0.3,0.5-0.3,0.7c0,0.3,0.2,0.7,0.3,0.8
			c0.2,0.2,0.5,0.3,0.8,0.3c0.3,0,0.6-0.1,0.8-0.3c0.2-0.2,0.3-0.5,0.3-0.8C-32.1,408.9-32.2,408.7-32.5,408.4L-32.5,408.4z"/>
		<path class="st11" d="M-26,407.3c1.2,0,2,0.9,2,2c0,1.2-0.9,2-2,2c-1.1,0-2-0.9-2-2C-28,408.2-27.1,407.3-26,407.3L-26,407.3z"/>
		<path class="st11" d="M-26,406.4c0.8,0,1.5,0.3,2.1,0.8c0.5,0.5,0.8,1.2,0.8,2c0,0.8-0.3,1.5-0.8,2.1c-0.6,0.5-1.2,0.8-2.1,0.8
			c-0.7,0-1.5-0.3-2-0.8c-0.5-0.6-0.8-1.2-0.8-2.1c0-0.7,0.3-1.5,0.8-2C-27.5,406.8-26.8,406.4-26,406.4L-26,406.4z M-25.2,408.4
			c-0.2-0.2-0.5-0.3-0.8-0.3c-0.3,0-0.6,0.1-0.7,0.3c-0.2,0.2-0.3,0.5-0.3,0.7c0,0.3,0.1,0.7,0.3,0.8c0.2,0.2,0.5,0.3,0.7,0.3
			c0.3,0,0.6-0.1,0.8-0.3c0.2-0.2,0.3-0.5,0.3-0.8C-24.8,408.9-24.9,408.7-25.2,408.4L-25.2,408.4z"/>
		<path class="st12" d="M6.9,413.8v45h-54v-45h30.7l1.6-2.7c0.2-0.4,0.5-0.9,1.6-0.9h5.7c0.9,0,1.4,0.5,1.7,0.9l1.5,2.7H6.9z"/>
		<path class="st12" d="M7.8,413.8L7.8,413.8v45c0,0.6-0.4,1-0.9,1l0,0H-47c-0.5,0-0.9-0.4-0.9-1l0,0v-45c0-0.6,0.4-0.9,0.9-0.9l0,0
			h30.2l1.2-2.2l0,0l0,0l0,0c0.3-0.7,0.7-1.3,2.4-1.3h5.7c0.6,0,1.1,0.2,1.4,0.3l0,0l0,0c0.5,0.2,0.8,0.7,1,1.1l1.2,2.2H6.8
			C7.4,412.8,7.8,413.3,7.8,413.8L7.8,413.8z M6,457.9v-43.1H-4.2l0,0c-0.3,0-0.7-0.2-0.8-0.5l-1.5-2.7c0-0.1-0.2-0.2-0.3-0.3l0,0
			c-0.1,0-0.2-0.1-0.5-0.1h-5.7c-0.5,0-0.7,0.2-0.7,0.3l0,0l0,0l0,0l0,0l-1.5,2.7c-0.1,0.3-0.5,0.6-0.8,0.6H-46v43.2L6,457.9
			L6,457.9z"/>
		<polygon class="st13" points="-1.7,407.8 -1.7,409 -0.5,409 -0.5,409.6 -1.7,409.6 -1.7,410.8 -2.1,410.8 -2.1,409.6 -3.4,409.6 
			-3.4,409 -2.1,409 -2.1,407.8 		"/>
	</g>
	<g>
		<path class="st15" d="M-20.5,449c-6.9,0-12.5-5.6-12.5-12.5s5.6-12.5,12.5-12.5S-8,429.6-8,436.5C-8,443.4-13.5,449-20.5,449
			 M-20.5,421.7c-8.1,0-14.8,6.6-14.8,14.8c0,8.1,6.6,14.8,14.8,14.8s14.8-6.6,14.8-14.8C-5.7,428.4-12.3,421.7-20.5,421.7"/>
		<path class="st15" d="M-14.9,434.6c-1,0-1.8,0.8-1.8,1.8c0,1,0.8,1.8,1.8,1.8s1.8-0.8,1.8-1.8C-13.1,435.4-13.9,434.6-14.9,434.6"
			/>
		<path class="st15" d="M-20.5,434.6c-1,0-1.8,0.8-1.8,1.8c0,1,0.8,1.8,1.8,1.8c1,0,1.8-0.8,1.8-1.8
			C-18.7,435.4-19.4,434.6-20.5,434.6"/>
		<path class="st15" d="M-26.1,434.6c-1,0-1.8,0.8-1.8,1.8c0,1,0.8,1.8,1.8,1.8c1,0,1.8-0.8,1.8-1.8
			C-24.2,435.4-25,434.6-26.1,434.6"/>
	</g>
</g>
<g>
	<g>
		<g>
			<path class="st16" d="M-98.8,443.4v-10.1h4.1v2.6c0,0.5,0.4,0.8,0.8,0.8h2.1v6.6L-98.8,443.4L-98.8,443.4L-98.8,443.4z
				 M-93.6,433.7l1.8,2h-1.8V433.7z M-90.7,435.5c0-0.1-0.1-0.1-0.1-0.2l-2.7-2.9c-0.1-0.1-0.1-0.1-0.2-0.1
				c-0.1-0.1-0.2-0.1-0.2-0.1H-99c-0.4,0-0.7,0.2-0.7,0.7v10.6c0,0.4,0.3,0.8,0.7,0.8h7.6c0.4,0,0.7-0.4,0.7-0.8v-7.7
				C-90.7,435.8-90.7,435.7-90.7,435.5"/>
		</g>
	</g>
</g>
<g>
	<polygon class="st16" points="-66.9,439.8 -69.1,437.7 -70.4,439 -66.9,442.3 -60,434.4 -61.3,433.2 	"/>
	<g>
		<g>
			<g>
				<g>
					<g>
						<defs>
							<rect id="SVGID_3_" x="-75.6" y="427.3" width="20.9" height="20.9"/>
						</defs>
						<clipPath id="SVGID_4_">
							<use xlink:href="#SVGID_3_"  style="overflow:visible;"/>
						</clipPath>
						<path class="st17" d="M-65.2,446.5c-4.8,0-8.8-3.9-8.8-8.8c0-4.9,3.9-8.8,8.8-8.8s8.8,3.9,8.8,8.8
							C-56.4,442.6-60.3,446.5-65.2,446.5 M-65.2,427.3c-5.7,0-10.5,4.7-10.5,10.5c0,5.7,4.7,10.5,10.5,10.5s10.5-4.7,10.5-10.5
							C-54.7,431.9-59.4,427.3-65.2,427.3"/>
					</g>
				</g>
			</g>
		</g>
	</g>
</g>
<line class="st18" x1="-147.6" y1="359.3" x2="-147.6" y2="514.9"/>
<line class="st18" x1="115.9" y1="359.3" x2="115.9" y2="514.9"/>
<rect x="-148.4" y="357.8" class="st19" width="264.3" height="155.6"/>
</svg>
