<?xml version="1.0" encoding="utf-8"?>
<!-- Generator: Adobe Illustrator 22.0.1, SVG Export Plug-In . SVG Version: 6.00 Build 0)  -->
<svg version="1.1" id="Layer_1" xmlns="http://www.w3.org/2000/svg" xmlns:xlink="http://www.w3.org/1999/xlink" x="0px" y="0px"
	 viewBox="0 0 780 249.7" style="enable-background:new 0 0 780 249.7;" xml:space="preserve">
<style type="text/css">
	.st0{fill:none;stroke:#D1D3D4;stroke-width:1.8871;stroke-linecap:round;stroke-linejoin:round;stroke-miterlimit:10;}
	.st1{fill:#FFFFFF;}
	.st2{fill:#F2F2F2;}
	.st3{fill:#E5E8E8;}
	.st4{fill:#D1D4D4;}
	.st5{fill:#41AD49;}
	.st6{fill:none;stroke:#D1D3D4;stroke-width:3;stroke-linecap:round;stroke-linejoin:round;stroke-miterlimit:10;}
	.st7{opacity:0.65;fill:none;stroke:#D1D3D4;stroke-miterlimit:10;enable-background:new    ;}
	.st8{opacity:0.45;enable-background:new    ;}
	.st9{fill:#F8F9FA;stroke:#96D29B;stroke-width:0.5;stroke-miterlimit:10;}
	.st10{fill:#65B966;}
	.st11{fill:#D1D3D4;}
	.st12{fill:#3A9057;}
	.st13{fill:#2F282F;}
	
		.st14{opacity:0.65;fill:none;stroke:#D1D3D4;stroke-width:1.5;stroke-linecap:round;stroke-linejoin:round;stroke-miterlimit:10;enable-background:new    ;}
	.st15{fill:#FFFFFF;stroke:#E3E5E5;stroke-miterlimit:10;}
	.st16{fill:#EAEBEC;}
	.st17{opacity:0.65;}
	.st18{fill:#58595B;}
	.st19{opacity:0.55;fill:#E5E8E8;enable-background:new    ;}
	.st20{opacity:0.85;fill:#FFFFFF;enable-background:new    ;}
	
		.st21{opacity:0.44;fill:none;stroke:#D1D3D4;stroke-width:1.8871;stroke-linecap:round;stroke-linejoin:round;stroke-miterlimit:10;enable-background:new    ;}
	.st22{fill:#FFCA76;}
	.st23{fill:#282854;}
	.st24{fill:#86D1FB;}
	.st25{fill:#CFEDFD;}
	.st26{fill:#1B1B44;}
	.st27{fill:#60B95F;}
	.st28{fill:#545054;}
	.st29{fill:none;stroke:#60B95F;stroke-width:2.7333;stroke-linecap:round;stroke-linejoin:round;stroke-miterlimit:10;}
	.st30{fill:none;stroke:#60B95F;stroke-width:4.0999;stroke-linecap:round;stroke-linejoin:round;stroke-miterlimit:10;}
</style>
<g id="Layer_1_1_">
</g>
<line class="st0" x1="258.4" y1="234.5" x2="482.5" y2="234.5"/>
<polygon class="st1" points="265.5,102.1 478.6,102.5 478.6,234.2 265.5,233.8 "/>
<rect x="265.4" y="98.7" class="st2" width="53.8" height="135.7"/>
<path class="st3" d="M470.7,83.9H271.4c-3.3,0-6,2.7-6,6l0.1,5.9h211.4l-0.1-5.9C476.8,86.5,474.1,83.9,470.7,83.9z"/>
<g>
	<path class="st4" d="M282.2,90.2c0,1.3-1.2,2.6-2.6,2.6s-2.6-1.2-2.6-2.6c0-1.3,1.2-2.6,2.6-2.6C281,87.7,282.2,88.8,282.2,90.2z"
		/>
	<path class="st4" d="M289.7,90.2c0,1.3-1.2,2.6-2.6,2.6c-1.3,0-2.6-1.2-2.6-2.6c0-1.3,1.2-2.6,2.6-2.6
		C288.5,87.7,289.7,88.8,289.7,90.2z"/>
	<path class="st5" d="M297.4,90.2c0,1.3-1.2,2.6-2.6,2.6c-1.3,0-2.6-1.2-2.6-2.6c0-1.3,1.2-2.6,2.6-2.6
		C296.2,87.7,297.4,88.8,297.4,90.2z"/>
</g>
<line class="st6" x1="331.8" y1="136.6" x2="439.8" y2="136.6"/>
<line class="st6" x1="331.8" y1="143.6" x2="455" y2="143.6"/>
<line class="st6" x1="331.8" y1="150.6" x2="436.2" y2="150.6"/>
<ellipse class="st7" cx="460.8" cy="218.6" rx="6.6" ry="6.6"/>
<path class="st8" d="M306.1,137h-30.6c-0.8,0-1.5-0.8-1.5-1.7s0.7-1.7,1.5-1.7h30.6c0.8,0,1.5,0.8,1.5,1.7
	C307.6,136.3,306.9,137,306.1,137z"/>
<path class="st8" d="M309.1,145h-33.6c-0.9,0-1.7-0.8-1.7-1.7s0.8-1.7,1.7-1.7h33.6c0.9,0,1.7,0.8,1.7,1.7
	C310.8,144.3,310,145,309.1,145z"/>
<path class="st8" d="M296.4,152.6h-21.5c-0.6,0-1-0.8-1-1.7s0.5-1.7,1-1.7h21.5c0.6,0,1,0.8,1,1.7S296.9,152.6,296.4,152.6z"/>
<path class="st8" d="M296.4,160.2h-21.5c-0.6,0-1-0.8-1-1.7s0.5-1.7,1-1.7h21.5c0.6,0,1,0.8,1,1.7S296.9,160.2,296.4,160.2z"/>
<path class="st9" d="M333.1,158.8h14.7c0.7,0,1.2,0.6,1.2,1.3v5c0,0.8-0.6,1.3-1.2,1.3h-14.7c-0.7,0-1.2-0.6-1.2-1.3v-4.9
	C331.9,159.3,332.5,158.8,333.1,158.8z"/>
<path class="st10" d="M333.1,158.8h0.2c0.7,0,1.2,0.6,1.2,1.3v5c0,0.8-0.6,1.3-1.2,1.3h-0.2c-0.7,0-1.2-0.6-1.2-1.3v-4.9
	C331.9,159.3,332.5,158.8,333.1,158.8z"/>
<rect x="333.2" y="158.7" class="st10" width="12.6" height="7.7"/>
<g>
	<path class="st11" d="M341.8,174.5l1.8-4.1c0.3-0.7,1.4-1,2.1-0.7l4.2,1.8c0.7,0.4,1.2,0.1,1.5-0.3l0.5-1.5c0.3-0.5-0.1-1-0.7-1.2
		l-2.5-1.1l0.3-0.7l2.5,1.1c1,0.4,1.5,1.5,1.2,2.2l-0.5,1.5c-0.3,0.7-1.4,1-2.2,0.7l-4.2-1.8c-0.5-0.3-1,0-1.2,0.3l-1.8,4.1
		L341.8,174.5z"/>
	<path class="st12" d="M340.9,163.9L340.9,163.9c0.4-1.1,1.5-1.6,2.5-1.2l6.6,2.5c1.1,0.4,1.6,1.5,1.2,2.5l0,0
		c-0.4,1.1-1.5,1.6-2.5,1.2l-6.6-2.5C341.3,166,340.6,164.8,340.9,163.9z"/>
	<path class="st13" d="M338.2,181.3l3.3-7.5c0.3-0.4,0.7-0.7,1-0.4l0.7,0.3c0.4,0.3,0.7,0.7,0.4,1l-2.7,7.8c-0.3,0.4-0.7,0.7-1,0.4
		l-1.2-0.5C338.2,182.3,338,181.7,338.2,181.3z"/>
</g>
<polyline class="st14" points="458.4,219.8 460.8,217.3 463.5,219.7 "/>
<g>
	<path class="st15" d="M375.2,127.1h-43.9c-0.6,0-1-0.9-1-2.3v-5.5c0-1.3,0.4-2.3,1-2.3h43.9c0.6,0,1,0.9,1,2.3v5.5
		C376.1,126.1,375.7,127.1,375.2,127.1z"/>
	<g>
		<path class="st16" d="M342.8,123.4H340v-0.9h2.5v-0.6H340V121h2.8v-1h-3.6c0,1.7,0,3.2,0,4.7h3.6V123.4z M338,120.5
			c-0.4-0.8-1.1-0.9-1.7-0.9c-0.9,0-1.7,0.4-1.7,1.3s0.9,1.3,1.7,1.3c0.6,0.2,0.9,0.2,0.9,0.6c0,0.6-0.6,0.6-0.9,0.6
			c-0.6,0-1.1-0.2-1.3-0.8l-0.8,0.4c0.4,0.9,0.9,1.1,2.1,1.1c0.9,0,1.9-0.4,1.9-1.7s-0.9-1.3-1.9-1.7c-0.6-0.2-0.9-0.2-0.9-0.6
			s0.2-0.6,0.9-0.6c0.6,0,0.9,0.2,1.1,0.6L338,120.5z"/>
		<path class="st16" d="M346.9,122.8h-1.7l0.9-2.1L346.9,122.8z M347.6,124.4h0.9l-2.1-4.7h-0.9l-2.1,4.7h0.9l0.4-0.9h2.5
			L347.6,124.4z"/>
		<path class="st16" d="M351.7,120.5c0.6,0,0.8,0.4,0.8,0.8s-0.2,0.8-0.8,0.8h-1.3v-1.5L351.7,120.5L351.7,120.5z M353.6,124.4
			l-1.3-1.7c0.9-0.2,1.1-0.8,1.1-1.3c0-0.8-0.6-1.7-1.7-1.7c-0.8,0-1.7,0-2.3,0v4.7h0.9v-1.6h0.9l1.3,1.7L353.6,124.4L353.6,124.4z"
			/>
		<path class="st16" d="M358,123.3c-0.2,0.2-0.8,0.6-1.1,0.6c-1.1,0-1.7-0.8-1.7-1.7c0-0.8,0.6-1.7,1.7-1.7c0.4,0,0.8,0.2,1.1,0.4
			l0.6-0.6c-0.6-0.6-0.9-0.8-1.7-0.8c-1.7,0-2.5,1.3-2.5,2.5c0,1.1,0.8,2.5,2.5,2.5c0.6,0,1.3-0.2,1.7-0.6L358,123.3z"/>
		<polygon class="st16" points="363.7,124.4 363.7,119.6 362.5,119.6 362.5,121.8 360.4,121.8 360.4,119.6 359.4,119.6 359.4,124.4 
			360.4,124.4 360.4,122.4 362.5,122.4 362.5,124.4 		"/>
	</g>
</g>
<polyline class="st3" points="476.8,96.1 476.8,110.5 265.3,110.5 265.3,96.1 "/>
<path class="st1" d="M289.2,106c0,0.6,0.6,0.9,1.3,0.9h161c0.6,0,1.3-0.6,1.3-0.9v-5c0-0.6-0.6-0.9-1.3-0.9h-161
	c-0.6,0-1.3,0.6-1.3,0.9V106L289.2,106z"/>
<path class="st4" d="M270,104.7c0,0.9,0.6,1.5,1.5,1.5h3c0.9,0,1.5-0.6,1.5-1.5v-2.6c0-0.9-0.6-1.5-1.5-1.5h-3
	c-0.9,0-1.5,0.6-1.5,1.5V104.7z"/>
<path class="st4" d="M279.3,104.5c0,0.9,0.6,1.5,1.5,1.5h3c0.9,0,1.5-0.6,1.5-1.5v-2.6c0-0.9-0.6-1.5-1.5-1.5h-3
	c-0.9,0-1.5,0.6-1.5,1.5V104.5z"/>
<path class="st4" d="M456.7,104.7c0,0.9,0.6,1.5,1.5,1.5h3c0.9,0,1.5-0.6,1.5-1.5v-2.6c0-0.9-0.6-1.5-1.5-1.5h-3
	c-0.9,0-1.5,0.6-1.5,1.5V104.7z"/>
<path class="st4" d="M465.7,104.7c0,0.9,0.6,1.5,1.5,1.5h3c0.9,0,1.5-0.6,1.5-1.5v-2.6c0-0.9-0.6-1.5-1.5-1.5h-3
	c-0.9,0-1.5,0.6-1.5,1.5V104.7z"/>
<g class="st17">
	<path class="st18" d="M295,102.5l0.4,1.4c0.1,0.4,0.2,0.6,0.2,0.9l0,0c0.1-0.3,0.2-0.6,0.3-0.9l0.5-1.4h0.5l0.5,1.4
		c0.1,0.4,0.2,0.6,0.3,0.9l0,0c0.1-0.3,0.1-0.6,0.2-0.9l0.5-1.4h0.6l-0.9,2.8h-0.5l-0.5-1.3c-0.1-0.4-0.2-0.6-0.3-0.9l0,0
		c-0.1,0.4-0.2,0.6-0.3,0.9l-0.5,1.3h-0.5l-0.9-2.8H295z"/>
	<path class="st18" d="M299.5,102.5l0.4,1.4c0.1,0.4,0.2,0.6,0.2,0.9l0,0c0.1-0.3,0.2-0.6,0.3-0.9l0.5-1.4h0.5l0.5,1.4
		c0.1,0.4,0.2,0.6,0.3,0.9l0,0c0.1-0.3,0.1-0.6,0.2-0.9l0.5-1.4h0.6l-0.9,2.8h-0.5l-0.5-1.3c-0.1-0.4-0.2-0.6-0.3-0.9l0,0
		c-0.1,0.4-0.2,0.6-0.3,0.9l-0.5,1.3H300l-0.9-2.8H299.5z"/>
	<path class="st18" d="M304,102.5l0.4,1.4c0.1,0.4,0.2,0.6,0.2,0.9l0,0c0.1-0.3,0.2-0.6,0.3-0.9l0.5-1.4h0.5l0.5,1.4
		c0.1,0.4,0.2,0.6,0.3,0.9l0,0c0.1-0.3,0.1-0.6,0.2-0.9l0.5-1.4h0.6l-0.9,2.8h-0.5l-0.5-1.3c-0.1-0.4-0.2-0.6-0.3-0.9l0,0
		c-0.1,0.4-0.2,0.6-0.3,0.9l-0.5,1.3h-0.5l-0.9-2.8H304z"/>
	<path class="st18" d="M308.2,105.5c-0.2,0-0.4-0.2-0.4-0.4c0-0.2,0.2-0.4,0.4-0.4c0.2,0,0.4,0.2,0.4,0.4S308.5,105.5,308.2,105.5
		L308.2,105.5z"/>
	<path class="st18" d="M309.5,104c0,0.8,0.5,0.9,0.9,0.9s0.6-0.1,0.9-0.2l0.1,0.4c-0.2,0.1-0.6,0.2-0.9,0.2c-0.9,0-1.4-0.6-1.4-1.4
		c0-0.9,0.6-1.5,1.3-1.5c0.9,0,1.2,0.9,1.2,1.3c0,0.1,0,0.2,0,0.3C311.6,104,309.5,104,309.5,104z M311.1,103.6
		c0-0.4-0.2-0.9-0.8-0.9s-0.8,0.5-0.9,0.9H311.1z"/>
	<path class="st18" d="M312.1,104.9c0.2,0.1,0.5,0.2,0.8,0.2c0.4,0,0.6-0.2,0.6-0.5s-0.2-0.4-0.6-0.6c-0.6-0.2-0.9-0.5-0.9-0.9
		c0-0.5,0.4-0.9,0.9-0.9c0.3,0,0.6,0.1,0.8,0.2l-0.1,0.4c-0.1-0.1-0.4-0.2-0.6-0.2c-0.3,0-0.5,0.2-0.5,0.4c0,0.3,0.2,0.4,0.6,0.6
		c0.6,0.2,0.8,0.5,0.8,0.9c0,0.6-0.4,0.9-1,0.9c-0.4,0-0.6-0.1-0.9-0.2L312.1,104.9z"/>
	<path class="st18" d="M315.3,101.7v0.8h0.8v0.4h-0.8v1.5c0,0.4,0.1,0.6,0.4,0.6c0.2,0,0.3,0,0.3,0v0.4c-0.1,0-0.3,0.1-0.5,0.1
		c-0.3,0-0.5-0.1-0.6-0.2c-0.2-0.2-0.2-0.5-0.2-0.8V103h-0.5v-0.5h0.5V102L315.3,101.7z"/>
	<path class="st18" d="M317,102c-0.2,0-0.4-0.2-0.4-0.4c0-0.2,0.1-0.4,0.4-0.4c0.2,0,0.4,0.2,0.4,0.4C317.2,101.8,317.1,102,317,102
		L317,102z M316.7,105.4v-2.8h0.6v2.8H316.7z"/>
	<path class="st18" d="M318,101.1h0.6v4.3H318V101.1z"/>
	<path class="st18" d="M320.6,105.5c-0.9,0-1.3-0.6-1.3-1.5s0.6-1.5,1.4-1.5c0.9,0,1.3,0.6,1.3,1.4
		C322.1,105,321.3,105.5,320.6,105.5L320.6,105.5z M320.6,105c0.6,0,0.9-0.5,0.9-1.2c0-0.5-0.3-1-0.9-1s-0.9,0.6-0.9,1
		C319.8,104.6,320.2,105,320.6,105L320.6,105z"/>
	<path class="st18" d="M322.7,104.9c0.2,0.1,0.5,0.2,0.8,0.2c0.4,0,0.6-0.2,0.6-0.5s-0.2-0.4-0.6-0.6c-0.6-0.2-0.9-0.5-0.9-0.9
		c0-0.5,0.4-0.9,0.9-0.9c0.3,0,0.6,0.1,0.8,0.2l-0.1,0.4c-0.1-0.1-0.4-0.2-0.6-0.2c-0.3,0-0.5,0.2-0.5,0.4c0,0.3,0.2,0.4,0.6,0.6
		c0.6,0.2,0.8,0.5,0.8,0.9c0,0.6-0.4,0.9-1,0.9c-0.4,0-0.6-0.1-0.9-0.2L322.7,104.9z"/>
	<path class="st18" d="M325.4,105.5c-0.2,0-0.4-0.2-0.4-0.4c0-0.2,0.2-0.4,0.4-0.4c0.2,0,0.4,0.2,0.4,0.4S325.6,105.5,325.4,105.5
		L325.4,105.5z"/>
	<path class="st18" d="M326.4,105.4v-2.6H326v-0.4h0.4v-0.2c0-0.5,0.1-0.9,0.4-0.9c0.2-0.2,0.5-0.3,0.8-0.3c0.2,0,0.4,0,0.5,0.1
		l-0.1,0.5c-0.1,0-0.2-0.1-0.4-0.1c-0.5,0-0.6,0.4-0.6,0.9v0.2h0.8v0.4H327v2.6C327,105.4,326.4,105.4,326.4,105.4z"/>
	<path class="st18" d="M330.1,105.3c-0.2,0.1-0.5,0.2-0.9,0.2c-0.9,0-1.4-0.6-1.4-1.4c0-0.9,0.6-1.5,1.5-1.5c0.3,0,0.6,0.1,0.8,0.2
		l-0.1,0.4c-0.1-0.1-0.4-0.2-0.6-0.2c-0.6,0-0.9,0.6-0.9,1c0,0.6,0.5,1,0.9,1c0.3,0,0.6-0.1,0.6-0.2L330.1,105.3z"/>
	<path class="st18" d="M331.4,101.7v0.8h0.8v0.4h-0.8v1.5c0,0.4,0.1,0.6,0.4,0.6c0.2,0,0.3,0,0.3,0v0.4c-0.1,0-0.3,0.1-0.5,0.1
		c-0.3,0-0.5-0.1-0.6-0.2c-0.2-0.2-0.2-0.5-0.2-0.8V103h-0.5v-0.5h0.5V102L331.4,101.7z"/>
	<path class="st18" d="M332.9,105.5c-0.2,0-0.4-0.2-0.4-0.4c0-0.2,0.2-0.4,0.4-0.4c0.2,0,0.4,0.2,0.4,0.4S333.3,105.5,332.9,105.5
		L332.9,105.5z"/>
	<path class="st18" d="M334.1,103.3c0-0.4,0-0.6,0-0.9h0.5v0.6l0,0c0.2-0.4,0.6-0.6,0.9-0.6c0.8,0,1.3,0.6,1.3,1.4
		c0,1-0.6,1.5-1.3,1.5c-0.4,0-0.8-0.2-0.9-0.5l0,0v1.5H334L334.1,103.3L334.1,103.3L334.1,103.3z M334.5,104.2c0,0.1,0,0.2,0,0.2
		c0.1,0.4,0.5,0.6,0.9,0.6c0.6,0,0.9-0.5,0.9-1s-0.3-1-0.9-1c-0.4,0-0.8,0.3-0.9,0.6c0,0.1,0,0.2,0,0.2V104.2L334.5,104.2
		L334.5,104.2z"/>
	<path class="st18" d="M338.1,101.7v0.8h0.8v0.4h-0.8v1.5c0,0.4,0.1,0.6,0.4,0.6c0.2,0,0.3,0,0.3,0v0.4c-0.1,0-0.3,0.1-0.5,0.1
		c-0.3,0-0.5-0.1-0.6-0.2c-0.2-0.2-0.2-0.5-0.2-0.8V103H337v-0.5h0.5V102L338.1,101.7z"/>
</g>
<rect x="274" y="119.5" class="st8" width="19.2" height="7.8"/>
<g>
	
		<rect x="214.5" y="187.2" transform="matrix(0.1941 -0.981 0.981 0.1941 30.5417 413.6159)" class="st1" width="105.1" height="2"/>
	<rect x="242.5" y="187.2" transform="matrix(0.1941 -0.981 0.981 0.1941 53.209 441.0872)" class="st1" width="105.1" height="2"/>
	<rect x="259" y="229.1" class="st1" width="28.1" height="2"/>
	<rect x="260.9" y="218.6" class="st1" width="28.1" height="2"/>
	<rect x="263.2" y="208.1" class="st1" width="28.1" height="2"/>
	<rect x="264.7" y="197.5" class="st1" width="28.1" height="2"/>
	<rect x="267.6" y="187" class="st1" width="28.1" height="2"/>
	<rect x="269.5" y="176.5" class="st1" width="28.1" height="2"/>
	<rect x="271.1" y="165.8" class="st1" width="28.1" height="2"/>
	<rect x="273" y="155.3" class="st1" width="28.1" height="2"/>
	<rect x="275.2" y="144.8" class="st1" width="28.1" height="2"/>
</g>
<path class="st3" d="M571.9,71.8l-82.7-0.2c0,0,2-5.2,8.2-9.6c6.4-4.8,16,0.4,16,0.4s1.2-13.9,18-16.4s21,13.9,21,13.9
	C569,57.4,571.9,71.8,571.9,71.8L571.9,71.8z"/>
<path class="st19" d="M452.8,48.5V48h-74.5c0,0,1.5-4.8,7.4-8.8c5.9-4.2,14.5,0.5,14.5,0.5s1.2-12.5,16.3-14.6
	c14.9-2,18.8,12.6,18.8,12.6C450.3,35.6,452.8,48.5,452.8,48.5L452.8,48.5z"/>
<path class="st20" d="M532.4,66.7v0.2H393.6c0,0,2.8-6.9,13.7-13.7c10.8-6.8,26.8,0.5,26.8,0.5s1.6-20.8,30.4-23.3
	c28.3-2.3,35.2,19.6,35.2,19.6C527.6,46.4,532.4,66.7,532.4,66.7L532.4,66.7z"/>
<line class="st21" x1="238.6" y1="239.5" x2="524.8" y2="239.5"/>
<g>
	<g>
		<path class="st22" d="M341.9,179.4c-0.4-0.8-1.5-0.4-2.4,0.2c0.1-0.3,0.1-0.7-0.1-0.7c-0.5,0-1.2,1.7-1.2,1.7l-0.2,1.5l1.4,0.6
			C340,181.8,342.6,180.9,341.9,179.4z"/>
		<path class="st18" d="M314.2,238.4l3.2,1.3c0.1,0,0.1,0.1,0.2,0.1c0,0.1,0,0.1,0,0.2v0.1c0,0.1-0.1,0.2-0.2,0.2l-5.8,0.3l0.3-1.9
			L314.2,238.4z"/>
		<path class="st18" d="M311.8,239.9l-0.1,0.5l5.8-0.3c0.2,0,0.3-0.1,0.3-0.2l0,0H311.8z"/>
		<path class="st23" d="M326.4,197.5c0,0,11.1,18.7,10.2,40.5l-2.6,0.6c0,0-2.1-20.7-11.9-31.2c0,0-0.6,15.8-7.4,31H312
			c0,0,5.7-27.5,1.9-39.6l8.2-4.2L326.4,197.5z"/>
		<path class="st22" d="M321.5,173.3c0,0-0.6-0.9-0.9-0.5c-0.4,0.4,0,1.6,0.7,1.9c0,0-0.1,0.3-0.7,0.8s-1.8,0.4-1.8,0.4
			s-0.9,2.3-1,2.9c0,0,1.2,0.3,2.1,0.1c1-0.3,1.6,0.3,1.6,0.3v-1.9c0,0,0.8,0.3,1.6-0.3c0.8-0.6,2.2-4.5,0.6-6.6
			c0,0-1.7-0.4-2.1,0.7c-0.3,0.8,0.1,2.1,0.1,2.1L321.5,173.3z"/>
		<path class="st23" d="M323.7,170.5c0,0,1.6-0.1,1.2-1.6c-0.3-1-2.4-2.1-4.2-1.8c-1.5,0.3-1.8,1.1-1.8,1.1s-1.6-0.2-2.3,1.1
			c-0.8,1.2,0.1,3-0.1,4.3c-0.2,1.4-1.6,1.8-0.7,2.5s4.3,1.4,5.3,0.6c1-0.9,0.3-2.1,0.3-2.1s-0.8-0.8-0.7-1.4
			c0.1-0.3,0.4-0.6,0.9,0.2l0.4-0.1c0,0,0-1.2,0.3-2C322.5,170.6,323.7,170.5,323.7,170.5z"/>
		<path class="st24" d="M313.8,199c0,0-1.3-11.9,0.6-16.3c1.9-4.4,2.7-4.5,6.3-4.3c3.5,0.2,6.3,3.1,8.8,4c2.5,0.8,5.4,0.3,8.8-1.8
			l1.2,2.1c0,0-3.3,2.3-6.4,3.3c-3,0.9-7.7-1-7.7-1s0.2,6.3,1.2,12.5C326.4,197.5,319.2,200.6,313.8,199z"/>
		<path class="st25" d="M323.3,184.5l2.1,5.5c-0.3-3-0.3-4.9-0.3-4.9L323.3,184.5z"/>
		<path class="st18" d="M336.6,238.1l3.2,1.3c0.1,0,0.1,0.1,0.2,0.1c0,0.1,0,0.1,0,0.2s-0.1,0.1-0.1,0.2c0,0-0.1,0.1-0.2,0.1
			l-5.7,0.3l0,0L336.6,238.1z"/>
		<path class="st18" d="M333.9,238.6l0.2,1.6l2.1-1.6c0.2,0,3.8,1.2,3.8,1.1l0,0L333.9,238.6z"/>
		<path class="st26" d="M320.6,219.3c1.4-6.9,1.6-11.8,1.6-11.8l-1.8-1.5C320.3,206,320.7,212.7,320.6,219.3z"/>
	</g>
</g>
<g>
	<path class="st3" d="M268.6,239.2H256c-0.8,0-1.4-0.6-1.4-1.4v-14.3c0-0.6,0.5-1,1-1h13.2c0.6,0,1,0.5,1,1v14.4
		C269.9,238.7,269.4,239.2,268.6,239.2z"/>
	<path class="st27" d="M269.9,224.7h-15.4v-1c0-0.6,0.5-1,1-1h13.2c0.6,0,1,0.5,1,1L269.9,224.7L269.9,224.7z"/>
	<path class="st28" d="M265.8,231.5h-7.2c-1,0-1.9-0.6-2.3-1.4l-1.7-4.9c-0.1-0.2,0-0.3,0.2-0.3c0.2-0.1,0.3,0,0.3,0.2l1.7,4.9
		c0.3,0.6,0.9,1.2,1.7,1.2h7.2c0.8,0,1.4-0.4,1.7-1l1.9-5c0.1-0.2,0.3-0.3,0.4-0.2c0.2,0.1,0.3,0.3,0.2,0.4l-1.9,5
		C267.6,230.9,266.7,231.5,265.8,231.5z"/>
	<line class="st29" x1="263.3" y1="223.4" x2="263.3" y2="228"/>
	<line class="st30" x1="264.8" y1="224.3" x2="264.8" y2="225"/>
</g>
</svg>
