<?xml version="1.0" encoding="utf-8"?>
<!-- Generator: Adobe Illustrator 22.0.1, SVG Export Plug-In . SVG Version: 6.00 Build 0)  -->
<svg version="1.1" id="Layer_1" xmlns="http://www.w3.org/2000/svg" xmlns:xlink="http://www.w3.org/1999/xlink" x="0px" y="0px"
	 viewBox="0 0 780 249.7" style="enable-background:new 0 0 780 249.7;" xml:space="preserve">
<style type="text/css">
	.st0{opacity:0.55;fill:#E5E8E8;enable-background:new    ;}
	.st1{fill:#D1D3D4;}
	.st2{fill:#DB5371;}
	.st3{fill:none;stroke:#D1D3D4;stroke-width:1.8871;stroke-linecap:round;stroke-linejoin:round;stroke-miterlimit:10;}
	.st4{fill:#FFFFFF;}
	.st5{fill:#F2F2F2;}
	.st6{fill:#E5E8E8;}
	.st7{fill:#D1D4D4;}
	.st8{fill:#41AD49;}
	.st9{fill:none;stroke:#D1D3D4;stroke-width:3;stroke-linecap:round;stroke-linejoin:round;stroke-miterlimit:10;}
	.st10{opacity:0.45;enable-background:new    ;}
	
		.st11{opacity:0.25;fill:none;stroke:#D1D3D4;stroke-width:1.8871;stroke-linecap:round;stroke-linejoin:round;stroke-miterlimit:10;}
	.st12{opacity:0.85;fill:#FFFFFF;enable-background:new    ;}
	.st13{opacity:0.65;}
	.st14{fill:#58595B;}
	.st15{fill:#FFCA76;}
	.st16{fill:#282854;}
	.st17{fill:#BA6B7B;}
	.st18{fill:#1B1B44;}
	.st19{opacity:0.55;fill:none;stroke:#D1D3D4;stroke-miterlimit:10;}
	.st20{fill:#BA77E5;}
	.st21{fill:#393975;}
	.st22{fill:#5E3823;}
	.st23{opacity:0.65;fill:#D1D3D4;}
	.st24{fill:#442415;}
	.st25{opacity:0.2;fill:#545C56;}
	.st26{opacity:0.2;}
	.st27{fill:#545C56;}
	.st28{opacity:0.65;fill:#96D29B;}
	.st29{fill:#86D1FB;}
	.st30{fill:#AEE1FD;}
</style>
<path class="st0" d="M313.5,54.8V55l-58.3,5.2c0,0-65.3-11.5-55.4-17.6s24.4,0.5,24.4,0.5s1.5-18.9,27.6-21.2
	c25.7-2.1,32,17.8,32,17.8C309.2,36.4,313.5,54.8,313.5,54.8L313.5,54.8z"/>
<g>
	<path class="st1" d="M504.3,234.4l3.7,0.3l-36.7-114.4l-3.7-0.3l5.8,18.1l-20.5-0.8l-5.8-18.1l-3.7-0.1l36.7,114.4l3.7,0.1l-4.8-15
		l20.5,0.8L504.3,234.4z M466.1,178.8l20.2,0.8l5,15.7l-20.2-0.8L466.1,178.8z M485.3,176.1l-20.2-0.8l-5-15.7l20.2,0.8L485.3,176.1
		z M474.1,141.2l5,15.7l-20.2-0.8l-5-15.7L474.1,141.2z M477.3,213.7l-5-15.7l20.2,0.8l5,15.7L477.3,213.7z"/>
</g>
<path class="st2" d="M252.8,181.1c0,0,11-2.9,13.6-13.3l2,1.6c0,0-1.4,9.1-10.7,13.8L252.8,181.1z"/>
<g id="Layer_1_1_">
</g>
<line class="st3" x1="256.1" y1="234.6" x2="510.4" y2="234.6"/>
<rect x="263.2" y="101.7" class="st4" width="212.2" height="132.2"/>
<rect x="263.2" y="98.3" class="st5" width="54" height="136.3"/>
<path class="st6" d="M469.2,83.4h-200c-3.3,0-6,2.8-6,6l0.1,5.9h212.2l-0.1-5.9C475.4,86.1,472.6,83.4,469.2,83.4z"/>
<g>
	<path class="st7" d="M280,89.8c0,1.3-1.2,2.6-2.6,2.6c-1.3,0-2.6-1.2-2.6-2.6s1.2-2.6,2.6-2.6C278.9,87.2,280,88.3,280,89.8z"/>
	<path class="st7" d="M287.6,89.8c0,1.3-1.2,2.6-2.6,2.6s-2.6-1.2-2.6-2.6s1.2-2.6,2.6-2.6S287.6,88.3,287.6,89.8z"/>
	<path class="st8" d="M295.3,89.8c0,1.3-1.2,2.6-2.6,2.6s-2.6-1.2-2.6-2.6s1.2-2.6,2.6-2.6S295.3,88.3,295.3,89.8z"/>
</g>
<line class="st9" x1="329.8" y1="201.2" x2="453.5" y2="201.2"/>
<line class="st9" x1="329.8" y1="182.4" x2="455.7" y2="182.4"/>
<line class="st9" x1="329.8" y1="191" x2="445" y2="191"/>
<line class="st9" x1="329.8" y1="171.9" x2="434.6" y2="171.9"/>
<line class="st9" x1="329.8" y1="211.6" x2="434.6" y2="211.6"/>
<path class="st10" d="M304,136.7h-30.7c-0.8,0-1.5-0.8-1.5-1.7s0.7-1.7,1.5-1.7H304c0.8,0,1.5,0.8,1.5,1.7
	C305.5,136.1,304.9,136.7,304,136.7z"/>
<path class="st10" d="M307.1,144.8h-33.7c-0.9,0-1.7-0.8-1.7-1.7s0.8-1.7,1.7-1.7h33.7c0.9,0,1.7,0.8,1.7,1.7
	S307.9,144.8,307.1,144.8z"/>
<path class="st10" d="M294.3,152.4h-21.5c-0.6,0-1-0.8-1-1.7s0.5-1.7,1-1.7h21.5c0.6,0,1,0.8,1,1.7S294.8,152.4,294.3,152.4z"/>
<path class="st10" d="M294.3,160h-21.5c-0.6,0-1-0.8-1-1.7s0.5-1.7,1-1.7h21.5c0.6,0,1,0.8,1,1.7C295.3,159.2,294.8,160,294.3,160z"
	/>
<path class="st6" d="M562,58l-61.8-0.1c0,0,1.5-3.9,6.1-7.2c4.8-3.6,12,0.3,12,0.3s0.9-10.4,13.4-12.2c12.5-1.9,15.7,10.4,15.7,10.4
	C559.9,47.3,562,58,562,58L562,58z"/>
<path class="st4" d="M288,61.5v-0.6h-94.8c0,0,2-6.1,9.4-11.2c7.4-5.3,18.4,0.6,18.4,0.6s1.6-15.9,20.8-18.6
	c19-2.5,23.9,16.1,23.9,16.1C284.9,45,288,61.5,288,61.5L288,61.5z"/>
<line class="st11" x1="231.2" y1="243" x2="518.5" y2="243"/>
<path class="st12" d="M539.6,61.3v0.1H435.8c0,0,2.1-5.2,10.2-10.2s20.1,0.4,20.1,0.4s1.2-15.6,22.7-17.4
	c21.1-1.7,26.3,14.6,26.3,14.6C536,46.1,539.6,61.3,539.6,61.3L539.6,61.3z"/>
<polyline class="st6" points="475.4,95.6 475.4,110.2 263,110.2 263,95.6 "/>
<path class="st4" d="M287,105.6c0,0.6,0.6,0.9,1.3,0.9H450c0.6,0,1.3-0.6,1.3-0.9v-5c0-0.6-0.6-0.9-1.3-0.9H288.4
	c-0.6,0-1.3,0.6-1.3,0.9V105.6L287,105.6z"/>
<path class="st7" d="M267.8,104.3c0,0.9,0.6,1.5,1.5,1.5h3c0.9,0,1.5-0.6,1.5-1.5v-2.6c0-0.9-0.6-1.5-1.5-1.5h-3
	c-0.9,0-1.5,0.6-1.5,1.5V104.3z"/>
<path class="st7" d="M277.2,104.1c0,0.9,0.6,1.5,1.5,1.5h3c0.9,0,1.5-0.6,1.5-1.5v-2.6c0-0.9-0.6-1.5-1.5-1.5h-3
	c-0.9,0-1.5,0.6-1.5,1.5V104.1z"/>
<path class="st7" d="M455.2,104.3c0,0.9,0.6,1.5,1.5,1.5h3c0.9,0,1.5-0.6,1.5-1.5v-2.6c0-0.9-0.6-1.5-1.5-1.5h-3
	c-0.9,0-1.5,0.6-1.5,1.5V104.3z"/>
<path class="st7" d="M464.3,104.3c0,0.9,0.6,1.5,1.5,1.5h3c0.9,0,1.5-0.6,1.5-1.5v-2.6c0-0.9-0.6-1.5-1.5-1.5h-3
	c-0.9,0-1.5,0.6-1.5,1.5V104.3z"/>
<g class="st13">
	<path class="st14" d="M292.9,102.1l0.4,1.4c0.1,0.4,0.2,0.6,0.2,0.9l0,0c0.1-0.3,0.2-0.6,0.3-0.9l0.5-1.4h0.5l0.5,1.4
		c0.1,0.4,0.2,0.6,0.3,0.9l0,0c0.1-0.3,0.1-0.6,0.2-0.9l0.5-1.4h0.6l-0.9,2.8h-0.5l-0.5-1.3c-0.1-0.4-0.2-0.6-0.3-0.9l0,0
		c-0.1,0.4-0.2,0.6-0.3,0.9l-0.5,1.3h-0.5l-0.9-2.8H292.9z"/>
	<path class="st14" d="M297.4,102.1l0.4,1.4c0.1,0.4,0.2,0.6,0.2,0.9l0,0c0.1-0.3,0.2-0.6,0.3-0.9l0.5-1.4h0.5l0.5,1.4
		c0.1,0.4,0.2,0.6,0.3,0.9l0,0c0.1-0.3,0.1-0.6,0.2-0.9l0.5-1.4h0.6l-0.9,2.8h-0.5l-0.5-1.3c-0.1-0.4-0.2-0.6-0.3-0.9l0,0
		c-0.1,0.4-0.2,0.6-0.3,0.9l-0.5,1.3h-0.5l-0.9-2.8H297.4z"/>
	<path class="st14" d="M301.9,102.1l0.4,1.4c0.1,0.4,0.2,0.6,0.2,0.9l0,0c0.1-0.3,0.2-0.6,0.3-0.9l0.5-1.4h0.5l0.5,1.4
		c0.1,0.4,0.2,0.6,0.3,0.9l0,0c0.1-0.3,0.1-0.6,0.2-0.9l0.5-1.4h0.6l-0.9,2.8h-0.5l-0.5-1.3c-0.1-0.4-0.2-0.6-0.3-0.9l0,0
		c-0.1,0.4-0.2,0.6-0.3,0.9l-0.5,1.3h-0.5l-0.9-2.8H301.9z"/>
	<path class="st14" d="M306.1,105.1c-0.2,0-0.4-0.2-0.4-0.4c0-0.2,0.2-0.4,0.4-0.4c0.2,0,0.4,0.2,0.4,0.4S306.4,105.1,306.1,105.1
		L306.1,105.1z"/>
	<path class="st14" d="M307.4,103.6c0,0.8,0.5,0.9,0.9,0.9c0.4,0,0.6-0.1,0.9-0.2l0.1,0.4c-0.2,0.1-0.6,0.2-0.9,0.2
		c-0.9,0-1.4-0.6-1.4-1.4c0-0.9,0.6-1.5,1.3-1.5c0.9,0,1.2,0.9,1.2,1.3c0,0.1,0,0.2,0,0.3C309.5,103.6,307.4,103.6,307.4,103.6z
		 M309.1,103.2c0-0.4-0.2-0.9-0.8-0.9s-0.8,0.5-0.9,0.9H309.1z"/>
	<path class="st14" d="M310.1,104.5c0.2,0.1,0.5,0.2,0.8,0.2c0.4,0,0.6-0.2,0.6-0.5c0-0.3-0.2-0.4-0.6-0.6c-0.6-0.2-0.9-0.5-0.9-0.9
		c0-0.5,0.4-0.9,0.9-0.9c0.3,0,0.6,0.1,0.8,0.2l-0.1,0.4c-0.1-0.1-0.4-0.2-0.6-0.2c-0.3,0-0.5,0.2-0.5,0.4c0,0.3,0.2,0.4,0.6,0.6
		c0.6,0.2,0.8,0.5,0.8,0.9c0,0.6-0.4,0.9-1,0.9c-0.4,0-0.6-0.1-0.9-0.2L310.1,104.5z"/>
	<path class="st14" d="M313.2,101.3v0.8h0.8v0.4h-0.8v1.5c0,0.4,0.1,0.6,0.4,0.6c0.2,0,0.3,0,0.3,0v0.4c-0.1,0-0.3,0.1-0.5,0.1
		c-0.3,0-0.5-0.1-0.6-0.2c-0.2-0.2-0.2-0.5-0.2-0.8v-1.5h-0.5v-0.5h0.5v-0.5L313.2,101.3z"/>
	<path class="st14" d="M314.9,101.6c-0.2,0-0.4-0.2-0.4-0.4s0.1-0.4,0.4-0.4c0.2,0,0.4,0.2,0.4,0.4
		C315.1,101.4,315,101.6,314.9,101.6L314.9,101.6z M314.7,105v-2.8h0.6v2.8H314.7z"/>
	<path class="st14" d="M316,100.7h0.6v4.4H316V100.7z"/>
	<path class="st14" d="M318.6,105.1c-0.9,0-1.3-0.6-1.3-1.5s0.6-1.5,1.4-1.5c0.9,0,1.3,0.6,1.3,1.4
		C320.1,104.7,319.3,105.1,318.6,105.1L318.6,105.1z M318.6,104.7c0.6,0,0.9-0.5,0.9-1.2c0-0.5-0.3-1-0.9-1c-0.6,0-0.9,0.6-0.9,1
		C317.8,104.2,318.2,104.7,318.6,104.7L318.6,104.7z"/>
	<path class="st14" d="M320.7,104.5c0.2,0.1,0.5,0.2,0.8,0.2c0.4,0,0.6-0.2,0.6-0.5c0-0.3-0.2-0.4-0.6-0.6c-0.6-0.2-0.9-0.5-0.9-0.9
		c0-0.5,0.4-0.9,0.9-0.9c0.3,0,0.6,0.1,0.8,0.2l-0.1,0.4c-0.1-0.1-0.4-0.2-0.6-0.2c-0.3,0-0.5,0.2-0.5,0.4c0,0.3,0.2,0.4,0.6,0.6
		c0.6,0.2,0.8,0.5,0.8,0.9c0,0.6-0.4,0.9-1,0.9c-0.4,0-0.6-0.1-0.9-0.2L320.7,104.5z"/>
	<path class="st14" d="M323.4,105.1c-0.2,0-0.4-0.2-0.4-0.4c0-0.2,0.2-0.4,0.4-0.4c0.2,0,0.4,0.2,0.4,0.4S323.6,105.1,323.4,105.1
		L323.4,105.1z"/>
	<path class="st14" d="M324.4,105v-2.6H324v-0.4h0.4v-0.2c0-0.5,0.1-0.9,0.4-0.9c0.2-0.2,0.5-0.3,0.8-0.3c0.2,0,0.4,0,0.5,0.1
		l-0.1,0.5c-0.1,0-0.2-0.1-0.4-0.1c-0.5,0-0.6,0.4-0.6,0.9v0.2h0.8v0.4H325v2.6C325,105,324.4,105,324.4,105z"/>
	<path class="st14" d="M328.1,104.9c-0.2,0.1-0.5,0.2-0.9,0.2c-0.9,0-1.4-0.6-1.4-1.4c0-0.9,0.6-1.5,1.5-1.5c0.3,0,0.6,0.1,0.8,0.2
		l-0.1,0.4c-0.1-0.1-0.4-0.2-0.6-0.2c-0.6,0-0.9,0.6-0.9,1c0,0.6,0.5,1,0.9,1c0.3,0,0.6-0.1,0.6-0.2L328.1,104.9z"/>
	<path class="st14" d="M329.5,101.3v0.8h0.8v0.4h-0.8v1.5c0,0.4,0.1,0.6,0.4,0.6c0.2,0,0.3,0,0.3,0v0.4c-0.1,0-0.3,0.1-0.5,0.1
		c-0.3,0-0.5-0.1-0.6-0.2c-0.2-0.2-0.2-0.5-0.2-0.8v-1.5h-0.5v-0.5h0.5v-0.5L329.5,101.3z"/>
	<path class="st14" d="M331,105.1c-0.2,0-0.4-0.2-0.4-0.4c0-0.2,0.2-0.4,0.4-0.4c0.2,0,0.4,0.2,0.4,0.4S331.3,105.1,331,105.1
		L331,105.1z"/>
	<path class="st14" d="M332.1,103c0-0.4,0-0.6,0-0.9h0.5v0.6l0,0c0.2-0.4,0.6-0.6,0.9-0.6c0.8,0,1.3,0.6,1.3,1.4
		c0,1-0.6,1.5-1.3,1.5c-0.4,0-0.8-0.2-0.9-0.5l0,0v1.5H332L332.1,103L332.1,103L332.1,103z M332.6,103.8c0,0.1,0,0.2,0,0.2
		c0.1,0.4,0.5,0.6,0.9,0.6c0.6,0,0.9-0.5,0.9-1c0-0.6-0.3-1-0.9-1c-0.4,0-0.8,0.3-0.9,0.6c0,0.1,0,0.2,0,0.2L332.6,103.8
		L332.6,103.8L332.6,103.8z"/>
	<path class="st14" d="M336.2,101.3v0.8h0.8v0.4h-0.8v1.5c0,0.4,0.1,0.6,0.4,0.6c0.2,0,0.3,0,0.3,0v0.4c-0.1,0-0.3,0.1-0.5,0.1
		c-0.3,0-0.5-0.1-0.6-0.2c-0.2-0.2-0.2-0.5-0.2-0.8v-1.5h-0.6v-0.5h0.5v-0.5L336.2,101.3z"/>
</g>
<rect x="271.8" y="119.2" class="st10" width="19.3" height="7.8"/>
<g>
	<g>
		<path class="st15" d="M278.1,180.3c-0.4-0.8-1.6-0.4-2.5,0.2c0.1-0.3,0.2-0.7-0.1-0.7c-0.5,0-1.2,1.7-1.2,1.7l-0.2,1.5l1.4,0.6
			C276.3,182.7,278.9,181.8,278.1,180.3z"/>
		<path class="st14" d="M249.7,240.8l3.4,1.3c0.1,0,0.1,0.1,0.2,0.1c0,0.1,0,0.1,0,0.2c0,0,0,0.1,0,0.1c0,0.1-0.1,0.2-0.2,0.2
			l-5.9,0.3l0.3-2L249.7,240.8z"/>
		<path class="st14" d="M247.2,242.4l-0.1,0.5l5.9-0.3c0.2,0,0.3-0.1,0.3-0.3c0,0,0,0,0,0L247.2,242.4z"/>
		<path class="st16" d="M262.2,198.9c0,0,11.4,19.2,10.5,41.7l-2.7,0.6c0,0-2.2-21.3-12.2-32c0,0-0.6,16.3-7.6,31.8l-2.8,0
			c0,0,5.8-28.2,1.9-40.6l8.5-4.3L262.2,198.9z"/>
		<path class="st15" d="M257.2,174c0,0-0.6-0.9-0.9-0.5c-0.4,0.4,0,1.6,0.7,1.9c0,0-0.1,0.3-0.7,0.8c-0.6,0.5-1.8,0.4-1.8,0.4
			s-0.9,2.4-1,3.1c0,0,1.2,0.3,2.2,0.1c1-0.3,1.6,0.3,1.6,0.3l0-1.9c0,0,0.8,0.3,1.6-0.3c0.8-0.6,2.3-4.6,0.6-6.8
			c0,0-1.7-0.4-2.1,0.7c-0.3,0.8,0.1,2.1,0.1,2.1L257.2,174z"/>
		<path class="st16" d="M259.5,171.1c0,0,1.7-0.1,1.2-1.7c-0.3-1-2.5-2.2-4.4-1.8c-1.5,0.3-1.8,1.1-1.8,1.1s-1.6-0.2-2.4,1.1
			c-0.8,1.2,0.1,3.1-0.1,4.5c-0.2,1.4-1.6,1.8-0.7,2.6s4.4,1.4,5.4,0.6c1-0.9,0.3-2.1,0.3-2.1s-0.8-0.8-0.7-1.4
			c0.1-0.3,0.4-0.6,0.9,0.2l0.4-0.1c0,0,0-1.2,0.3-2C258.2,171.3,259.5,171.1,259.5,171.1z"/>
		<path class="st17" d="M249.3,200.3c0,0-1.3-12.2,0.6-16.7c1.9-4.5,2.8-4.6,6.4-4.4c3.6,0.2,6.5,3.2,9.1,4.1c2.6,0.8,5.5,0.3,9-1.8
			l1.2,2.2c0,0-3.5,2.5-6.6,3.4s-8-1-8-1s0.2,6.5,1.2,12.9C262.2,198.9,254.8,202.1,249.3,200.3z"/>
		<path class="st2" d="M259,185.5l2.2,5.6c-0.3-3.1-0.3-5-0.3-5L259,185.5z"/>
		<path class="st14" d="M272.7,240.5l3.4,1.3c0.1,0,0.1,0.1,0.2,0.1c0,0.1,0,0.1,0,0.2c0,0.1-0.1,0.1-0.1,0.2c0,0-0.1,0.1-0.2,0.1
			l-5.8,0.3l0,0L272.7,240.5z"/>
		<path class="st14" d="M270.1,242.2l0,0.5l5.8-0.3c0.2,0,0.3-0.1,0.3-0.3c0,0,0,0,0,0L270.1,242.2z"/>
		<path class="st18" d="M256.2,221.3c1.4-7.1,1.6-12.2,1.6-12.2l-1.8-1.6C256,207.5,256.3,214.4,256.2,221.3z"/>
	</g>
</g>
<path class="st14" d="M269.5,242.7c0-0.3-0.2-2.4-0.2-2.4l3.1-0.4l0.2,1.4l-0.2,0.7"/>
<rect x="328.1" y="119.3" class="st19" width="37.3" height="37.3"/>
<rect x="373" y="119.3" class="st19" width="37.3" height="37.3"/>
<rect x="418.5" y="119.3" class="st19" width="37.3" height="37.3"/>
<g>
	<path class="st20" d="M356.5,241.3l0,0.5l-5.9,0.2c-0.2,0-0.3-0.1-0.3-0.2c0,0,0,0,0,0L356.5,241.3z"/>
	<g>
		<path class="st14" d="M383.1,236.8l-0.1,3.7c0,0.1,0,0.2,0.1,0.2c0,0.1,0.1,0.1,0.2,0.1c0,0,0.1,0,0.1,0c0.1,0,0.2-0.1,0.2-0.2
			l2.6-5.5l-2-0.5L383.1,236.8z"/>
		<path class="st14" d="M385.7,235l0.5,0.1l-2.6,5.5c-0.1,0.1-0.2,0.2-0.3,0.2c0,0,0,0,0,0L385.7,235z"/>
		<path class="st14" d="M353.7,239.9l-3.3,1.6c-0.1,0-0.1,0.1-0.1,0.2c0,0.1,0,0.1,0,0.2c0,0.1,0.1,0.1,0.1,0.2c0,0,0.1,0,0.2,0
			l5.9-0.2l0-1.6L353.7,239.9z"/>
		<path class="st21" d="M365,200.3c0,0-12,15.3-11.6,39.7l3.1,0.2c0,0,2.7-23.2,12.4-30.2c0,0-2.2,18.8,14.2,27.5l1.2-2.9
			c0,0-13.8-12.4-6.4-34.2l-4.6-6.6L365,200.3z"/>
		<path class="st22" d="M375.2,181.8c0,0-9.9,0.5-13.6-10.4l-2.3,0.9c0,0,1.5,8.4,9.4,11.8L375.2,181.8z"/>
		<path class="st15" d="M372.1,175.9c0,0,0.6-1,1-0.5c0.4,0.4,0.1,1.7-0.7,1.9c0,0,0.1,0.3,0.7,0.8c0.7,0.5,1.9,0.4,1.9,0.4
			s0.9,2.5,1.1,3.1c0,0-1.3,0.3-2.3,0.1c-1-0.3-1.7,0.4-1.7,0.4l0-1.9c0,0-0.9,0.4-1.7-0.3s-2.4-4.7-0.7-7c0,0,1.8-0.4,2.2,0.6
			c0.3,0.8-0.1,2.2-0.1,2.2L372.1,175.9z"/>
		<path class="st22" d="M369.7,173c0,0-0.7-0.3-0.6-1c0.1-0.7,1.2-3.2,3.5-2.6c2.3,0.6,5,2,5.8,1.7c0.8-0.2,0.2,3.1-0.4,4.7
			c-0.6,1.6-2,3.1-3.3,3.2c-1.3,0.1-3.1-1-2.9-1.4c0.1-0.4,0.7-0.4,1-1.2c0.2-0.8-0.5-0.7-1-0.1l-0.3-0.2
			C371.4,175.9,372.3,172.3,369.7,173z"/>
		<path class="st22" d="M368.5,181.8c0,0,5.7-2.2,8.3-0.4c2.6,1.8,0.8,12.7,0.9,19.1c0,0-7.1,2.2-12.8-0.2c0,0,1.1-10.7,1.2-13.1
			c0,0-12.1,0.2-16.1-14l2.7-0.7C352.8,172.5,356.4,185.7,368.5,181.8z"/>
		<polygon class="st23" points="368.1,168.3 359,133.9 323.8,136.4 332.6,174.7 		"/>
		<path class="st15" d="M350.1,173.2c0,0-2.2-1-2.2-2c0-1,1.7,0.4,1.7,0.4l3.1-0.4l0.1,1.3L350.1,173.2z"/>
		<path class="st15" d="M361.6,171.3c0,0,0.8-1.9,0.4-2.6c-0.4-0.7-1,1.3-1,1.3l-2.6,0.3l0.9,1.8L361.6,171.3z"/>
		<path class="st18" d="M369.5,219c-1-5.1-0.6-9-0.6-9l2.9-1.5C371.8,208.6,370.4,214,369.5,219z"/>
		<path class="st24" d="M365.9,191c0.1-1.6,0.3-3.1,0.3-3.8l2.9-0.3C369.1,186.9,367.5,188.9,365.9,191z"/>
	</g>
</g>
<g>
	<path class="st25" d="M401.5,101.3c0,0,3.6-13.2,9.3-21l2.7,0l-8.7,24.3L401.5,101.3z"/>
	<g class="st26">
		<path class="st27" d="M438.1,96.2c0,0-2.7-9.4-6.6-15.9l5,0.1l7.4,16.2L438.1,96.2z"/>
	</g>
</g>
<polygon class="st25" points="451,98 456.3,136.3 381.4,157.5 373.4,110.9 "/>
<rect x="373.6" y="102.8" transform="matrix(0.9828 -0.1847 0.1847 0.9828 -15.8799 78.6759)" class="st28" width="81.7" height="43.5"/>
<g>
	<path class="st15" d="M399.6,103.4c0,0-2.5,4-0.4,5.3c2.1,1.3,3.5-2.9,3.5-2.9l1.5-0.2l-1.1-1.4l-1.9-1.6L399.6,103.4z"/>
	<path class="st29" d="M424.4,73.5c-0.4,0,1.6-1.2,1.2-1.2c-0.7,0-11.9,4.1-11.9,4.1s-8,3.1-14.1,27.1l3.4,0.8c0,0,3.9-13.8,11.1-21
		h15.8c0,0-0.3-1.2-0.8-2.6c7.6,4.6,12.8,16.7,12.8,16.7l3.2-0.7C438.1,75.2,424.4,73.5,424.4,73.5z"/>
	<path class="st15" d="M411,73.8c0,0-1,1.1,0.2,3.4c1.2,2.3,5.5,3.4,6.9,2.2c1.3-1.1,1.7-3.4,0.7-5.1c0,0,0.1-1.8-0.7-2.5
		c-1-1-1.6,0.7-1.6,0.7S413.1,70.4,411,73.8z"/>
	<path class="st22" d="M415.8,67.3c0,0-2.1-1.3-4.6,0c-2.5,1.3-3.3,5.7-4.7,7c-1.4,1.3,0.7,3.3,3.3,2.2c1.8-0.8,3.2-3.1,4.4-3.8
		c1.1-0.7,2.4-0.2,2.4-0.2s0.6-0.7,1.2-0.3c0.6,0.4,1.1,2.1,1.1,2.1s-0.3,1.8,0.5,2.8c0.8,1.1,4.6,0.9,6.1-1c1.8-2.2,0.8-5.6-1-5.9
		c-1.6-0.3-2.7,0.7-3.8-0.8C419.5,68,417.4,65.7,415.8,67.3z"/>
	<polygon class="st30" points="416.2,81.3 414,83.2 419.1,83.2 	"/>
	<path class="st15" d="M441.8,97.3l-0.5,1.3l0.9-0.2c0,0,0.2,4.4,2.1,3.9c1.9-0.5,0.7-5.6,0.7-5.6L441.8,97.3z"/>
</g>
</svg>
