<?xml version="1.0" encoding="utf-8"?>
<!-- Generator: Adobe Illustrator 22.0.1, SVG Export Plug-In . SVG Version: 6.00 Build 0)  -->
<svg version="1.1" id="Layer_1" xmlns="http://www.w3.org/2000/svg" xmlns:xlink="http://www.w3.org/1999/xlink" x="0px" y="0px"
	 viewBox="0 0 519.2 300.7" style="enable-background:new 0 0 519.2 300.7;" xml:space="preserve">
<style type="text/css">
	.st0{fill:#282C35;}
	.st1{fill:#FBFBFB;}
	.st2{fill:#FFFFFF;}
	.st3{fill:#F1F2F2;}
	.st4{clip-path:url(#SVGID_2_);}
	.st5{fill:#2A2E37;}
	.st6{fill:#323640;}
	.st7{fill:#FF876C;}
	.st8{fill:#2B2F38;}
	.st9{fill:#00B5AC;}
	.st10{fill:#D1D4D4;}
	.st11{fill:#E3E5E5;}
	.st12{fill:#41AD49;}
	.st13{fill:#E6E7E8;}
	.st14{opacity:0.2;fill:#589DBC;enable-background:new    ;}
	.st15{fill:#EAEBEC;}
	.st16{fill:#292B36;}
	.st17{fill:#3D424F;}
	.st18{fill:#F2F2F2;}
	.st19{fill:#E5E8E8;}
	.st20{fill:#E3E3E3;}
	.st21{fill:#383D4A;}
	.st22{fill:#C2C4C4;}
	.st23{fill:#E2F3E4;}
	.st24{fill:#96D29B;}
	.st25{fill:#8DCE92;}
	.st26{opacity:0.45;fill:#383D4A;enable-background:new    ;}
	.st27{opacity:0.35;fill:#3D424F;enable-background:new    ;}
	.st28{display:none;}
	.st29{opacity:0.62;fill:#F8F9FA;enable-background:new    ;}
	.st30{fill:#0B5C20;}
	.st31{fill:#404045;}
	.st32{fill:#363338;}
	.st33{fill:#3D3D42;}
	.st34{fill:#FAFAFA;}
	.st35{fill:#BDBFBF;}
	.st36{fill:#FF876B;}
	.st37{fill:#F2786B;}
	.st38{fill:#F27369;}
	.st39{fill:#DEDFE0;}
	.st40{fill:#D9D9DB;}
	.st41{opacity:0.8;}
</style>
<g>
	<path class="st0" d="M225.4,318.7h-209c0-0.1,0-22.7,0-22.8V189.5c0-7.1,5.7-12.9,12.9-12.9h183.1"/>
	<polyline class="st1" points="209.5,190.9 31.2,190.9 31.2,305.9 209.5,305.9 	"/>
	<path class="st2" d="M227.9,336.6H13.7c-8.3,0-15.1-6.7-15.1-15.1v-2.8H243"/>
	<path class="st3" d="M209.5,191.2c-85.1,11.6-153.1,50-178.4,99.7v-100h178.4"/>
</g>
<g>
	<g>
		<g>
			<g>
				<g>
					<g>
						<g>
							<g>
								<defs>
									<rect id="SVGID_1_" x="50.4" y="196.7" width="147.9" height="111.6"/>
								</defs>
								<clipPath id="SVGID_2_">
									<use xlink:href="#SVGID_1_"  style="overflow:visible;"/>
								</clipPath>
								<g class="st4">
									<g>
										<g>
											<path class="st5" d="M69.8,218.7H84c0-5.4-7.3-6.1-7.3-6.1C69.4,212.6,69.8,218.6,69.8,218.7z"/>
											<path class="st6" d="M84.1,218.7h79.7c0,0,0.4-6.1-7.9-6.1s-79.2,0-79.2,0S84,213.5,84.1,218.7z"/>
										</g>
										<rect x="69.7" y="218.6" class="st6" width="94.2" height="135"/>
										<g>
											<path class="st5" d="M180.6,353.7h-16.7c0,5.4,8.7,6.1,8.7,6.1C181,359.8,180.6,353.7,180.6,353.7z"/>
											<path class="st6" d="M163.9,353.7H69.7c0,0-0.5,6.1,9.3,6.1s93.6,0,93.6,0S163.9,358.9,163.9,353.7z"/>
										</g>
									</g>
									<g>
										<g>
											<path class="st7" d="M99.9,334.2c0-0.4,0.4-0.7,0.9-0.7h8.8c0.5,0,0.9,0.4,0.9,0.7c0,0.4-0.4,0.7-0.9,0.7h-8.8
												C100.3,334.9,99.9,334.6,99.9,334.2z"/>
										</g>
										<g>
											<path class="st8" d="M85.3,334.2c0-0.4,0.4-0.7,0.9-0.7H96c0.5,0,0.9,0.4,0.9,0.7c0,0.4-0.4,0.7-0.9,0.7h-9.9
												C85.7,334.9,85.3,334.6,85.3,334.2z"/>
										</g>
										<g>
											<path class="st8" d="M75.2,340.2c0-0.4,0.4-0.7,0.9-0.7h33.5c0.5,0,0.9,0.4,0.9,0.7c0,0.4-0.4,0.7-0.9,0.7H76
												C75.5,340.9,75.2,340.4,75.2,340.2z"/>
										</g>
										<g>
											<path class="st9" d="M91.9,346.3c0-0.4,0.4-0.7,0.9-0.7h16.7c0.5,0,0.9,0.4,0.9,0.7c0,0.4-0.4,0.7-0.9,0.7H92.7
												C92.2,347,91.9,346.6,91.9,346.3z"/>
										</g>
										<g>
											<path class="st7" d="M81.8,346.3c0-0.4,0.4-0.7,0.9-0.7h5c0.5,0,0.9,0.4,0.9,0.7c0,0.4-0.4,0.7-0.9,0.7h-5
												C82.2,347,81.9,346.6,81.8,346.3z"/>
										</g>
										<g>
											<path class="st8" d="M129.9,346.9c0,0.4-0.4,0.7-0.9,0.7h-8.8c-0.5,0-0.9-0.4-0.9-0.7s0.4-0.7,0.9-0.7h8.8
												C129.6,346.1,129.9,346.4,129.9,346.9z"/>
										</g>
										<g>
											<path class="st7" d="M144.5,346.9c0,0.4-0.4,0.7-0.9,0.7h-9.9c-0.5,0-0.9-0.4-0.9-0.7s0.4-0.7,0.9-0.7h9.9
												C144.2,346.1,144.5,346.4,144.5,346.9z"/>
										</g>
										<g>
											<path class="st9" d="M154.7,341c0,0.4-0.4,0.7-0.9,0.7h-33.5c-0.5,0-0.9-0.4-0.9-0.7c0-0.4,0.4-0.7,0.9-0.7h33.5
												C154.3,340.3,154.7,340.5,154.7,341z"/>
										</g>
										<g>
											<path class="st8" d="M138,334.9c0,0.4-0.4,0.7-0.9,0.7h-16.7c-0.5,0-0.9-0.4-0.9-0.7c0-0.4,0.4-0.7,0.9-0.7h16.7
												C137.5,334.2,137.8,334.3,138,334.9z"/>
										</g>
										<g>
											<path class="st8" d="M148,334.9c0,0.4-0.4,0.7-0.9,0.7h-5c-0.5,0-0.9-0.4-0.9-0.7c0-0.4,0.4-0.7,0.9-0.7h5
												C147.6,334.2,148,334.3,148,334.9z"/>
										</g>
										<g>
											<path class="st7" d="M122.1,296.4c0-0.4,0.4-0.7,0.9-0.7h27.7c0.5,0,0.9,0.4,0.9,0.7c0,0.4-0.4,0.7-0.9,0.7H123
												C122.5,297.1,122.1,296.8,122.1,296.4z"/>
										</g>
										<g>
											<path class="st8" d="M81.4,296.4c0-0.4,0.4-0.7,0.9-0.7h36.3c0.5,0,0.9,0.4,0.9,0.7c0,0.4-0.4,0.7-0.9,0.7H82.2
												C81.8,297.1,81.4,296.8,81.4,296.4z"/>
										</g>
										<g>
											<path class="st8" d="M104.3,304.8c0-0.4,0.4-0.7,0.9-0.7h52.5c0.5,0,0.9,0.4,0.9,0.7c0,0.4-0.4,0.7-0.9,0.7h-52.5
												C104.7,305.5,104.3,305.2,104.3,304.8z"/>
										</g>
										<g>
											<path class="st9" d="M75.2,304.8c0-0.4,0.4-0.7,0.9-0.7h24.4c0.5,0,0.9,0.4,0.9,0.7c0,0.4-0.4,0.7-0.9,0.7H76
												C75.5,305.5,75.2,305.2,75.2,304.8z"/>
										</g>
										<g>
											<path class="st8" d="M137,314.1c0-0.4,0.4-0.7,0.9-0.7h19.8c0.5,0,0.9,0.4,0.9,0.7c0,0.4-0.4,0.7-0.9,0.7h-19.8
												C137.5,314.8,137.1,314.4,137,314.1z"/>
										</g>
										<g>
											<path class="st7" d="M94.4,314.1c0-0.4,0.4-0.7,0.9-0.7h37.1c0.5,0,0.9,0.4,0.9,0.7c0,0.4-0.4,0.7-0.9,0.7H95.3
												C94.8,314.8,94.4,314.4,94.4,314.1z"/>
										</g>
										<g>
											<path class="st8" d="M82.7,314.1c0-0.4,0.4-0.7,0.9-0.7h7.1c0.5,0,0.9,0.4,0.9,0.7c0,0.4-0.4,0.7-0.9,0.7h-7.1
												C83.1,314.8,82.7,314.4,82.7,314.1z"/>
										</g>
										<g>
											<path class="st7" d="M122.1,227.5c0-0.4,0.4-0.7,0.9-0.7h27.7c0.5,0,0.9,0.4,0.9,0.7c0,0.4-0.4,0.7-0.9,0.7H123
												C122.5,228.2,122.1,228.1,122.1,227.5z"/>
										</g>
										<g>
											<path class="st8" d="M81.4,227.5c0-0.4,0.4-0.7,0.9-0.7h36.3c0.5,0,0.9,0.4,0.9,0.7c0,0.4-0.4,0.7-0.9,0.7H82.2
												C81.8,228.2,81.4,228.1,81.4,227.5z"/>
										</g>
										<g>
											<path class="st8" d="M104.3,235.9c0-0.4,0.4-0.7,0.9-0.7h52.5c0.5,0,0.9,0.4,0.9,0.7c0,0.4-0.4,0.7-0.9,0.7h-52.5
												C104.7,236.7,104.3,236.3,104.3,235.9z"/>
										</g>
										<g>
											<path class="st9" d="M75.2,235.9c0-0.4,0.4-0.7,0.9-0.7h24.4c0.5,0,0.9,0.4,0.9,0.7c0,0.4-0.4,0.7-0.9,0.7H76
												C75.5,236.7,75.2,236.3,75.2,235.9z"/>
										</g>
										<g>
											<path class="st8" d="M137,245.2c0-0.4,0.4-0.7,0.9-0.7h19.8c0.5,0,0.9,0.4,0.9,0.7c0,0.4-0.4,0.7-0.9,0.7h-19.8
												C137.5,245.9,137.1,245.6,137,245.2z"/>
										</g>
										<g>
											<path class="st7" d="M94.4,245.2c0-0.4,0.4-0.7,0.9-0.7h37.1c0.5,0,0.9,0.4,0.9,0.7c0,0.4-0.4,0.7-0.9,0.7H95.3
												C94.8,245.9,94.4,245.6,94.4,245.2z"/>
										</g>
										<g>
											<path class="st8" d="M82.7,245.2c0-0.4,0.4-0.7,0.9-0.7h7.1c0.5,0,0.9,0.4,0.9,0.7c0,0.4-0.4,0.7-0.9,0.7h-7.1
												C83.1,245.9,82.7,245.6,82.7,245.2z"/>
										</g>
										<g>
											<path class="st9" d="M152.3,323.5c0-0.4,0.4-0.7,0.9-0.7h4.4c0.5,0,0.9,0.4,0.9,0.7c0,0.4-0.4,0.7-0.9,0.7h-4.4
												C152.8,324.2,152.3,323.8,152.3,323.5z"/>
										</g>
										<g>
											<path class="st8" d="M103.3,323.5c0-0.4,0.4-0.7,0.9-0.7h43.5c0.5,0,0.9,0.4,0.9,0.7c0,0.4-0.4,0.7-0.9,0.7h-43.5
												C103.7,324.2,103.3,323.8,103.3,323.5z"/>
										</g>
										<g>
											<path class="st7" d="M75.2,323.5c0-0.4,0.4-0.7,0.9-0.7H99c0.5,0,0.9,0.4,0.9,0.7c0,0.4-0.4,0.7-0.9,0.7H76
												C75.5,324.2,75.2,323.8,75.2,323.5z"/>
										</g>
										<g>
											<path class="st8" d="M95.3,285.9c0,0.4-0.4,0.7-0.9,0.7H83c-0.5,0-0.9-0.4-0.9-0.7c0-0.4,0.4-0.7,0.9-0.7h11.5
												C94.9,285.2,95.3,285.4,95.3,285.9z"/>
										</g>
										<g>
											<path class="st9" d="M152.2,285.9c0,0.4-0.4,0.7-0.9,0.7h-52c-0.5,0-0.9-0.4-0.9-0.7c0-0.4,0.4-0.7,0.9-0.7h52.1
												C151.9,285.2,152.2,285.4,152.2,285.9z"/>
										</g>
										<g>
											<path class="st7" d="M147.5,267.1c0-0.4,0.4-0.7,0.9-0.7h8.4c0.5,0,0.9,0.4,0.9,0.7s-0.4,0.7-0.9,0.7h-8.4
												C147.8,267.9,147.5,267.5,147.5,267.1z"/>
										</g>
										<g>
											<path class="st8" d="M109.6,267.1c0-0.4,0.4-0.7,0.9-0.7H144c0.5,0,0.9,0.4,0.9,0.7s-0.4,0.7-0.9,0.7h-33.5
												C109.9,267.9,109.6,267.5,109.6,267.1z"/>
										</g>
										<g>
											<path class="st9" d="M75.2,267.1c0-0.4,0.4-0.7,0.9-0.7h28.2c0.5,0,0.9,0.4,0.9,0.7s-0.4,0.7-0.9,0.7H76
												C75.5,267.9,75.2,267.5,75.2,267.1z"/>
										</g>
										<g>
											<path class="st8" d="M90.8,277.1c0-0.4,0.4-0.7,0.9-0.7h65.1c0.5,0,0.9,0.4,0.9,0.7s-0.4,0.7-0.9,0.7H91.6
												C91.1,277.9,90.8,277.5,90.8,277.1z"/>
										</g>
										<g>
											<path class="st7" d="M75.2,277.1c0-0.4,0.4-0.7,0.9-0.7h10.5c0.5,0,0.9,0.4,0.9,0.7s-0.4,0.7-0.9,0.7H76
												C75.5,277.9,75.2,277.5,75.2,277.1z"/>
										</g>
										<g>
											<path class="st7" d="M91.5,256.9c0,0.4-0.4,0.7-0.9,0.7H76c-0.5,0-0.9-0.4-0.9-0.7s0.4-0.7,0.9-0.7h14.6
												C91.1,256.2,91.5,256.4,91.5,256.9z"/>
										</g>
										<g>
											<path class="st9" d="M157.6,256.9c0,0.4-0.4,0.7-0.9,0.7h-61c-0.5,0-0.9-0.4-0.9-0.7s0.4-0.7,0.9-0.7h61
												C157.1,256.2,157.6,256.4,157.6,256.9z"/>
										</g>
									</g>
								</g>
							</g>
						</g>
					</g>
				</g>
			</g>
		</g>
	</g>
</g>
<g>
	<path class="st0" d="M294.3,317.5h209c0-0.1,0-22.7,0-22.8V188.3c0-7.1-5.7-12.9-12.9-12.9H307.2"/>
	<polyline class="st10" points="310,189.7 488.3,189.7 488.3,304.8 310,304.8 	"/>
	<path class="st2" d="M291.6,335.7h214.2c8.3,0,15.1-6.7,15.1-15.1v-2.8H276.5"/>
	<path class="st11" d="M310,190c85.1,11.6,153.1,50,178.4,99.7v-100H310"/>
	<g>
		<polyline class="st12" points="452.9,232 398.6,232 398.6,222.4 452.9,222.4 		"/>
		<polyline class="st2" points="452.9,289.7 398.6,289.7 398.6,231.5 452.9,231.5 		"/>
		<g>
			<path class="st2" d="M405.6,225.6c0,0.1-0.1,0.2-0.2,0.2h-4c-0.1,0-0.2-0.1-0.2-0.2l0,0c0-0.1,0.1-0.2,0.2-0.2h4
				C405.4,225.3,405.6,225.4,405.6,225.6L405.6,225.6z"/>
			<path class="st2" d="M405.6,226.8c0,0.1-0.1,0.2-0.2,0.2h-4c-0.1,0-0.2-0.1-0.2-0.2l0,0c0-0.1,0.1-0.2,0.2-0.2h4
				C405.4,226.5,405.6,226.7,405.6,226.8L405.6,226.8z"/>
			<path class="st2" d="M405.6,228c0,0.1-0.1,0.2-0.2,0.2h-4c-0.1,0-0.2-0.1-0.2-0.2l0,0c0-0.1,0.1-0.2,0.2-0.2h4
				C405.4,227.8,405.6,227.9,405.6,228L405.6,228z"/>
		</g>
		<polyline class="st3" points="447.7,251.9 403.5,251.9 403.5,243.1 447.7,243.1 		"/>
		<rect x="403.5" y="243.1" class="st13" width="1.1" height="8.8"/>
		<polyline class="st13" points="447.7,251.9 403.5,251.9 403.5,250.9 447.7,250.9 		"/>
		<polyline class="st3" points="447.7,272.9 403.5,272.9 403.5,264.1 447.7,264.1 		"/>
		<rect x="403.5" y="264.1" class="st13" width="1.1" height="8.8"/>
		<polyline class="st13" points="447.7,272.9 403.5,272.9 403.5,271.6 447.7,271.6 		"/>
		<rect x="403.5" y="235.2" class="st14" width="15.5" height="2.9"/>
		<rect x="403.5" y="239.3" class="st14" width="20.4" height="1.5"/>
		<rect x="403.5" y="255.6" class="st14" width="15.5" height="2.9"/>
		<rect x="403.5" y="259.7" class="st14" width="20.4" height="1.5"/>
		<path class="st3" d="M434.8,276.9h-18.5c-0.7,0-1.3,0.6-1.3,1.3v5.5c0,0.7,0.6,1.3,1.3,1.3h18.5"/>
		<polyline class="st2" points="465.5,212.5 399,212.5 399,199.7 465.5,199.7 		"/>
		<g>
			<path class="st15" d="M411.3,207.4h-2.6v-1h2.4v-0.6h-2.4v-1h2.6V204H408c0,1.5,0,2.9,0,4.5h3.3V207.4z M406.9,204.6
				c-0.4-0.7-1.1-0.9-1.7-0.9c-0.9,0-1.7,0.4-1.7,1.3s0.9,1.2,1.7,1.3c0.6,0.1,1,0.2,1,0.6c0,0.5-0.5,0.6-1,0.6s-1.1-0.2-1.2-0.7
				l-0.7,0.4c0.4,0.9,1,1.1,2,1.1s1.8-0.4,1.8-1.5s-0.9-1.3-1.8-1.5c-0.5-0.1-1-0.1-1-0.6c0-0.4,0.2-0.6,1-0.6
				c0.5,0,0.9,0.2,1.1,0.5L406.9,204.6z"/>
			<path class="st15" d="M415.1,206.8h-1.7l0.9-2L415.1,206.8z M415.8,208.3h1l-2-4.5h-1l-2,4.5h0.9l0.4-0.9h2.3L415.8,208.3z"/>
			<path class="st15" d="M419.6,204.6c0.5,0,0.7,0.4,0.7,0.7c0,0.4-0.2,0.7-0.7,0.7h-1.2v-1.5L419.6,204.6L419.6,204.6z
				 M421.4,208.3l-1.3-1.5c0.9-0.1,1.1-0.7,1.1-1.3c0-0.7-0.6-1.5-1.6-1.5c-0.7,0-1.5,0-2.1,0v4.5h0.9V207h0.9l1.3,1.5L421.4,208.3
				L421.4,208.3z"/>
			<path class="st15" d="M425.4,207.2c-0.2,0.2-0.7,0.5-1.1,0.5c-1.1,0-1.6-0.7-1.6-1.5c0-0.7,0.5-1.6,1.6-1.6
				c0.4,0,0.7,0.1,1.1,0.4l0.6-0.5c-0.5-0.5-1-0.7-1.6-0.7c-1.6,0-2.3,1.2-2.3,2.3s0.7,2.3,2.3,2.3c0.6,0,1.2-0.2,1.7-0.6
				L425.4,207.2z"/>
			<polygon class="st15" points="430.7,208.3 430.7,203.7 429.8,203.7 429.8,205.8 427.6,205.8 427.6,203.7 426.8,203.7 
				426.8,208.3 427.6,208.3 427.6,206.4 429.8,206.4 429.8,208.3 			"/>
		</g>
	</g>
</g>
<g>
	<g>
		<path class="st16" d="M378.7,131.2c0-4.5-3.2-8.2-7.2-8.2H145.4c-3.9,0-7.2,3.7-7.2,8.2v132.6h240.4V131.2H378.7z"/>
		<path class="st17" d="M362.9,143.8c0-3.8-2.8-6.8-6.2-6.8H160.4c-3.4,0-6.2,3-6.2,6.8v109.7h208.7V143.8L362.9,143.8z"/>
		<path class="st18" d="M138.3,263.8v45c0,4.5,3.2,8.2,7.2,8.2h226c4,0,7.2-3.7,7.2-8.2v-45H138.3z"/>
	</g>
	<polygon class="st19" points="290.6,316.9 284.7,316.9 233.5,316.9 227.6,316.9 224.4,351.1 233.5,351.1 284.7,351.1 293.9,351.1 	
		"/>
	<polygon class="st20" points="291,320.9 227.2,320.9 227.6,316.9 290.6,316.9 	"/>
	<path class="st10" d="M302.5,357.5c0.2-0.5,0.4-1.1,0.4-1.8c0-2.4-2.1-4.5-4.5-4.5h-80c-2.4,0-4.5,2.1-4.5,4.5
		c0,0.6,0.1,1.2,0.4,1.8H302.5z"/>
	<path class="st19" d="M268.8,288c0,5.4-4.3,9.6-9.6,9.6c-5.4,0-9.6-4.3-9.6-9.6s4.3-9.6,9.6-9.6C264.4,278.5,268.8,282.7,268.8,288
		"/>
	<path class="st21" d="M362.9,145.3v-1.7c0-3.8-2.8-6.8-6.2-6.8H160.4c-3.4,0-6.2,3-6.2,6.8v108.5
		C181.7,200.2,261.5,159.6,362.9,145.3"/>
	<rect x="175.4" y="115.2" class="st2" width="163.7" height="138.3"/>
	<g>
		<path class="st10" d="M339.1,103.6c0-4.5-3.7-8.2-8.2-8.2H183.7c-4.5,0-8.2,3.7-8.2,8.2v0.2h163.7L339.1,103.6L339.1,103.6z"/>
	</g>
	<rect x="175.4" y="103.9" class="st19" width="163.7" height="11.2"/>
	<g>
		<path class="st2" d="M193.9,111.6c0,0.4,0.4,0.7,1,0.7h124.5c0.5,0,1-0.4,1-0.7v-3.9c0-0.4-0.4-0.7-1-0.7H194.9
			c-0.5,0-1,0.4-1,0.7V111.6L193.9,111.6z"/>
		<path class="st22" d="M182.7,99.6c0,0.6-0.5,1.2-1.2,1.2c-0.6,0-1.2-0.5-1.2-1.2c0-0.6,0.5-1.2,1.2-1.2
			C182.1,98.7,182.7,99,182.7,99.6"/>
		<path class="st22" d="M186,99.6c0,0.6-0.5,1.2-1.2,1.2c-0.6,0-1.2-0.5-1.2-1.2c0-0.6,0.5-1.2,1.2-1.2C185.5,98.7,186,99,186,99.6"
			/>
		<path class="st22" d="M189.4,99.6c0,0.6-0.5,1.2-1.2,1.2c-0.6,0-1.2-0.5-1.2-1.2c0-0.6,0.5-1.2,1.2-1.2
			C188.8,98.7,189.4,99,189.4,99.6"/>
		<path class="st10" d="M179,110.5c0,0.6,0.5,1.2,1.2,1.2h2.3c0.6,0,1.2-0.5,1.2-1.2v-2c0-0.6-0.5-1.2-1.2-1.2h-2.3
			c-0.6,0-1.2,0.5-1.2,1.2V110.5z"/>
		<path class="st10" d="M186.2,110.4c0,0.6,0.5,1.2,1.2,1.2h2.3c0.6,0,1.2-0.5,1.2-1.2v-2c0-0.6-0.5-1.2-1.2-1.2h-2.3
			c-0.6,0-1.2,0.5-1.2,1.2V110.4z"/>
		<path class="st10" d="M323.5,110.5c0,0.6,0.5,1.2,1.2,1.2h2.3c0.6,0,1.2-0.5,1.2-1.2v-2c0-0.6-0.5-1.2-1.2-1.2h-2.3
			c-0.6,0-1.2,0.5-1.2,1.2V110.5z"/>
		<path class="st10" d="M330.5,110.5c0,0.6,0.5,1.2,1.2,1.2h2.3c0.6,0,1.2-0.5,1.2-1.2v-2c0-0.6-0.5-1.2-1.2-1.2h-2.3
			c-0.6,0-1.2,0.5-1.2,1.2V110.5z"/>
	</g>
	<rect x="181.5" y="120.4" class="st11" width="104.5" height="34.9"/>
	<rect x="289" y="120.4" class="st12" width="43.9" height="34.9"/>
	<path class="st23" d="M339.1,159H175.4v29.3h163.7L339.1,159L339.1,159z M183,169.1h25.1v2.9H183V169.1z M325.7,170.9h6.9v6.1h-6.9
		V170.9z M183,173.4h29.5v1.5H183V173.4z M202.6,176.7h8.2v1.5h-8.2V176.7z M183,176.7h18.2v1.5H183V176.7z"/>
	<rect x="182.7" y="193.4" class="st18" width="46.9" height="31.1"/>
	<rect x="234" y="193.4" class="st18" width="46.9" height="31.1"/>
	<rect x="286" y="193.4" class="st18" width="46.9" height="31.1"/>
	<rect x="182.7" y="229.1" class="st11" width="35.2" height="5.2"/>
	<rect x="182.7" y="236.8" class="st18" width="41.5" height="2.7"/>
	<rect x="182.7" y="242.5" class="st18" width="25.5" height="2.7"/>
	<rect x="210.3" y="242.5" class="st18" width="11.5" height="2.7"/>
	<rect x="183" y="169.1" class="st24" width="25.1" height="2.9"/>
	<rect x="183" y="173.4" class="st24" width="29.5" height="1.5"/>
	<rect x="183" y="176.7" class="st24" width="18.2" height="1.5"/>
	<rect x="202.6" y="176.7" class="st12" width="8.2" height="1.5"/>
	<rect x="234" y="228.6" class="st11" width="35.2" height="5.2"/>
	<rect x="234" y="236.4" class="st18" width="41.5" height="2.7"/>
	<rect x="234" y="242" class="st18" width="25.5" height="2.7"/>
	<rect x="261.6" y="242" class="st18" width="11.5" height="2.7"/>
	<rect x="286" y="228.6" class="st11" width="35.2" height="5.2"/>
	<rect x="286" y="236.4" class="st18" width="41.5" height="2.7"/>
	<rect x="286" y="242" class="st18" width="25.5" height="2.7"/>
	<rect x="313.5" y="242" class="st18" width="11.5" height="2.7"/>
	<rect x="325.7" y="170.9" class="st24" width="6.9" height="6.1"/>
	<g>
		<path class="st25" d="M281.7,336.7c-0.9,0-1.3-0.7-1.3-1.6s0.5-1.6,1.3-1.6s1.3,0.7,1.3,1.6C283,335.8,282.6,336.7,281.7,336.7
			 M281.7,337.1c1.2,0,2.1-1,2.1-2.2s-0.7-2.2-2.1-2.2c-1.2,0-2.1,1-2.1,2.2S280.5,337.1,281.7,337.1 M277.9,337v-2.9
			c0.2-0.4,0.7-0.6,1.1-0.6c0.1,0,0.1,0,0.2,0v-0.6c-0.6,0-1.1,0.4-1.3,0.7V333h-0.6v4.1L277.9,337L277.9,337z M274.4,336.5
			c-0.9,0-1.3-0.6-1.3-1.6c0-0.9,0.5-1.6,1.3-1.6c0.5,0,1,0.4,1.2,0.6v1.8C275.4,336.4,274.9,336.5,274.4,336.5 M274.3,338.8
			c1,0,2-0.4,2-1.7v-4h-0.6v0.6c-0.4-0.5-0.9-0.7-1.3-0.7c-1.1,0-1.8,0.9-1.8,2.2c0,1.3,0.7,2.1,1.8,2.1c0.6,0,1.1-0.4,1.3-0.7v0.6
			c0,0.9-0.6,1.2-1.3,1.2c-0.6,0-1-0.1-1.3-0.6l-0.4,0.5C273,338.6,273.5,338.8,274.3,338.8 M271.2,334.7h-2.7
			c0-0.6,0.5-1.3,1.3-1.3C270.7,333.3,271.2,334.1,271.2,334.7 M269.9,337.1c0.6,0,1.2-0.2,1.6-0.6l-0.4-0.4
			c-0.4,0.4-0.9,0.5-1.2,0.5c-0.9,0-1.5-0.6-1.5-1.5h3.3V335c0-1.2-0.7-2.2-2-2.2c-1.2,0-2.1,1-2.1,2.2
			C267.8,336.4,268.7,337.1,269.9,337.1 M266.9,337v-2.9c0-0.9-0.5-1.3-1.3-1.3c-0.6,0-1.2,0.4-1.5,0.7v-0.6h-0.6v4.1h0.6v-3
			c0.2-0.4,0.7-0.6,1.2-0.6c0.6,0,1,0.2,1,1v2.7h0.6V337z M260.7,336.1c-0.7,0-1.1-0.6-1.1-1.2s0.4-1.2,1.1-1.2s1.1,0.6,1.1,1.2
			C261.7,335.8,261.3,336.1,260.7,336.1 M260.7,337.1c1.3,0,2.2-1,2.2-2.2s-0.9-2.2-2.2-2.2s-2.2,1-2.2,2.2S259.3,337.1,260.7,337.1
			 M257.4,337.1c0.5,0,0.7-0.1,0.9-0.2L258,336c0,0.1-0.2,0.1-0.4,0.1c-0.2,0-0.4-0.2-0.4-0.5v-1.8h0.9v-1h-0.9v-1.1h-1.1v1.1h-0.7
			v1h0.7v2.2C256.3,336.7,256.7,337.1,257.4,337.1 M255.2,337v-2.9c0-0.9-0.5-1.3-1.3-1.3c-0.6,0-1.2,0.4-1.5,0.6v-0.5h-1.1v4.1h1.1
			v-2.8c0.2-0.2,0.5-0.5,1-0.5s0.7,0.2,0.7,0.7v2.4h1.1V337z M250.5,333.1h-1.1v4.1h1.1V333.1z M250,332.5c0.4,0,0.6-0.2,0.6-0.6
			s-0.2-0.6-0.6-0.6c-0.4,0-0.6,0.2-0.6,0.6S249.6,332.5,250,332.5 M246.7,336.1c-0.4,0-0.7-0.2-1-0.5v-1.5c0.2-0.2,0.6-0.5,1-0.5
			c0.6,0,1.1,0.5,1.1,1.2C247.8,335.8,247.3,336.1,246.7,336.1 M247.1,337.1c1.1,0,1.8-0.7,1.8-2.2c0-1.3-0.7-2.2-1.8-2.2
			c-0.5,0-1,0.2-1.2,0.6v-0.5h-1.1v5.7h1.1v-2.1C246.1,337,246.6,337.1,247.1,337.1 M238.7,338.8c0.1,0,0.2,0,0.5,0
			c0.5,0,0.9-0.2,1.1-0.7l2.1-5h-0.5l-1.5,3.5l-1.5-3.5h-0.5l1.7,4.1l-0.4,0.7c-0.1,0.4-0.4,0.5-0.6,0.5c-0.1,0-0.2,0-0.4-0.1
			L238.7,338.8z M234.8,337v-0.6c0.2,0.4,0.9,0.7,1.5,0.7c1.1,0,1.8-0.9,1.8-2.2c0-1.3-0.7-2.2-1.8-2.2c-0.6,0-1.1,0.2-1.5,0.7v-2.2
			h-0.5v5.7L234.8,337L234.8,337z M234.8,336v-2.1c0.2-0.4,0.7-0.7,1.3-0.7c1,0,1.5,0.7,1.5,1.7s-0.5,1.7-1.5,1.7
			C235.5,336.7,235,336.4,234.8,336"/>
	</g>
</g>
<path class="st26" d="M226.1,22.4c0,5.9,5.3,10.7,11.7,10.7h39.5c6.5,0,11.7-4.8,11.7-10.7v-6.5c0-5.9-5.3-10.7-11.7-10.7h-39.5
	c-6.5,0-11.7,4.8-11.7,10.7L226.1,22.4L226.1,22.4z"/>
<polygon class="st2" points="246.3,24.2 246.3,20.2 241.5,20.2 241.5,24.2 239.6,24.2 239.6,14.5 241.5,14.5 241.5,18.5 246.3,18.5 
	246.3,14.5 248.1,14.5 248.1,24.2 "/>
<polygon class="st2" points="253.3,16.1 250.3,16.1 250.3,14.5 258.2,14.5 258.2,16.1 255.2,16.1 255.2,24.2 253.3,24.2 "/>
<polygon class="st2" points="268.8,17.1 265.7,21.2 265.3,21.2 262.2,17.1 262.2,24.2 260.3,24.2 260.3,14.5 262.5,14.5 265.5,18.6 
	268.6,14.5 270.7,14.5 270.7,24.2 268.8,24.2 "/>
<polygon class="st2" points="275.2,14.5 275.2,22.4 280.3,22.4 280.3,24.2 273.4,24.2 273.4,14.5 "/>
<path class="st27" d="M263.9,65.6c0,6,4.9,10.7,10.7,10.7H311c6,0,10.7-4.9,10.7-10.7V59c0-6-4.9-10.7-10.7-10.7h-36.3
	c-6,0-10.7,4.9-10.7,10.7v6.6H263.9z"/>
<path class="st2" d="M281.2,62.7c0,2.3-1.5,4-3.9,4c-2.3,0-3.9-1.3-3.9-3.9h1.7c0,1.6,0.7,2.3,2.2,2.3c1.6,0,2.2-1.1,2.2-2.4v-3.5
	h-2.7v-1.5h4.4L281.2,62.7L281.2,62.7z"/>
<path class="st2" d="M287.8,59.5l-1.7,3.8h3.3L287.8,59.5z M290.1,64.9h-4.6l-0.7,1.7H283l4-8.9h1.8l4,8.9H291L290.1,64.9z"/>
<polygon class="st2" points="297.8,66.6 296,66.6 292.3,57.7 294.1,57.7 296.8,64.5 299.6,57.7 301.5,57.7 "/>
<path class="st2" d="M307.4,59.5l-1.7,3.8h3.3L307.4,59.5z M309.7,64.9h-4.6l-0.7,1.7h-1.8l4-8.9h1.8l4,8.9h-1.8L309.7,64.9z"/>
<g>
	<path class="st12" d="M197.2,65.4c0,6,4.9,10.7,10.7,10.7h36.3c6,0,10.7-4.9,10.7-10.7v-6.6c0-6-4.9-10.7-10.7-10.7h-36.3
		c-6,0-10.7,4.9-10.7,10.7V65.4z"/>
	<path class="st2" d="M218.7,65.9c-1.1,1.1-2.4,1.6-3.9,1.6c-3.9,0-5.5-2.7-5.5-5.4s1.7-5.5,5.5-5.5c1.5,0,2.8,0.5,3.8,1.6l-1.3,1.2
		c-0.7-0.6-1.6-1-2.6-1c-2.6,0-3.7,1.8-3.5,3.7c0,1.7,1,3.5,3.5,3.5c0.9,0,2-0.4,2.6-1.1L218.7,65.9z"/>
	<path class="st2" d="M227.4,59.3c-0.4-0.6-1.3-1.2-2.4-1.2c-1.5,0-2.2,0.6-2.2,1.3c0,0.9,1.1,1.2,2.3,1.3c2.2,0.2,4.1,0.9,4.1,3.3
		c0,2.3-2.1,3.3-4.4,3.3c-2.1,0-3.8-0.6-4.5-2.6l1.6-0.9c0.5,1.1,1.7,1.7,2.9,1.7s2.4-0.5,2.4-1.6c0-1-1-1.3-2.4-1.6
		c-2.1-0.2-4.1-0.9-4.1-3.2c0-2.2,2.1-3,4-3c1.6,0,3.3,0.5,4.1,2.1L227.4,59.3z"/>
	<path class="st2" d="M238.4,59.3c-0.4-0.6-1.3-1.2-2.4-1.2c-1.5,0-2.2,0.6-2.2,1.3c0,0.9,1.1,1.2,2.3,1.3c2.2,0.2,4.1,0.9,4.1,3.3
		c0,2.3-2.1,3.3-4.4,3.3c-2.1,0-3.8-0.6-4.5-2.6l1.6-0.9c0.5,1.1,1.7,1.7,2.9,1.7s2.4-0.5,2.4-1.6c0-1-1-1.3-2.4-1.6
		c-2.1-0.2-4.1-0.9-4.1-3.2c0-2.2,2.1-3,4-3c1.6,0,3.3,0.5,4.1,2.1L238.4,59.3z"/>
</g>
<g id="fundo" class="st28">
</g>
<g>
	<path class="st29" d="M643.3,351.5H-424.4c-23.3,0-42.1-22.8-42.1-50.7V31.1c0-28,18.9-50.7,42.1-50.7H643.3
		c23.3,0,42.1,22.8,42.1,50.7v269.6C685.4,328.7,666.5,351.5,643.3,351.5z"/>
</g>
<g>
	<polygon class="st24" points="256.6,210.3 271.7,293.5 269.2,293.9 254.4,210.8 	"/>
	<polygon class="st12" points="254.4,210.8 269.2,293.9 266.7,294 251.9,211.2 	"/>
	<polygon class="st30" points="249.4,211.3 251.9,211.2 266.7,294 264.5,294.4 	"/>
	<g>
		<path class="st31" d="M250.1,201.8l0.4-6.3l2.5,5.7C251.9,201.8,250.9,202.1,250.1,201.8"/>
		<path class="st2" d="M252.9,201.4l3.8,8.9l-7.3,1l0.6-9.6C250.9,202.1,251.9,201.8,252.9,201.4"/>
	</g>
	<polygon class="st2" points="264.9,296.7 272,295.7 271.7,293.5 264.5,294.4 	"/>
	<polygon class="st32" points="266.3,305.2 273.5,304.1 272,295.7 264.9,296.7 	"/>
	<polygon class="st33" points="273.5,304.1 272,295.7 269.8,295.8 271.3,304.5 	"/>
	<polygon class="st34" points="271.7,293.5 272,295.7 269.8,295.8 269.3,293.6 	"/>
	<polygon class="st19" points="270.9,210.2 263.6,294 261.3,293.9 268.4,210.1 	"/>
	<polygon class="st10" points="268.4,210.1 261.3,293.9 258.7,293.9 266,209.8 	"/>
	<polygon class="st35" points="263.6,209.8 266,209.8 258.7,293.9 256.5,293.6 	"/>
	<g>
		<path class="st31" d="M266.7,200.6l2-5.9l1,6.1C268.6,201.1,267.5,200.8,266.7,200.6"/>
		<path class="st2" d="M269.6,200.7l1.4,9.5l-7.4-0.6l3.1-9.3C267.5,200.8,268.6,201.1,269.6,200.7"/>
	</g>
	<polygon class="st2" points="256.2,295.8 263.5,296.3 263.6,294 256.5,293.6 	"/>
	<polygon class="st32" points="255.5,304.5 262.8,304.8 263.5,296.3 256.2,295.8 	"/>
	<polygon class="st33" points="262.8,304.8 263.5,296.3 261.3,296.3 260.4,304.8 	"/>
	<polygon class="st34" points="263.6,294 263.5,296.3 261.3,296.3 261.4,294 	"/>
	<polygon class="st36" points="246.2,208.8 263.3,291.5 260.8,291.9 244,209.2 	"/>
	<polygon class="st37" points="244,209.2 260.8,291.9 258.3,292.4 241.4,209.6 	"/>
	<polygon class="st38" points="239.1,210.1 241.4,209.6 258.3,292.4 256.1,292.6 	"/>
	<g>
		<path class="st31" d="M239.4,200.3l0.1-6.3l2.7,5.7C241.3,200.6,240.3,200.7,239.4,200.3"/>
		<path class="st2" d="M242.3,200l4.2,8.9l-7.3,1.1l0.4-9.6C240.3,200.7,241.3,200.6,242.3,200"/>
	</g>
	<polygon class="st2" points="256.5,295 263.6,293.9 263.3,291.5 256.1,292.6 	"/>
	<polygon class="st32" points="258.2,303.5 265.4,302.1 263.6,293.9 256.5,295 	"/>
	<polygon class="st33" points="265.4,302.1 263.6,293.9 261.5,294.2 263.3,302.5 	"/>
	<polygon class="st34" points="263.3,291.5 263.6,293.9 261.5,294.2 261,291.9 	"/>
	<rect x="226.9" y="251.3" class="st18" width="62.1" height="8.1"/>
	<rect x="232.4" y="259.4" class="st39" width="51.2" height="50.6"/>
	<rect x="232.4" y="259.4" class="st40" width="51.2" height="2.2"/>
</g>
<g>
	<g class="st41">
		<polygon class="st16" points="240.7,271.4 240.8,284.9 244.3,284.9 244.3,279.4 249.4,279.4 249.4,276.6 244.3,276.6 244.2,273.9 
			249.4,273.8 249.4,271.3 		"/>
		<path class="st16" d="M262.8,280.2c-0.6,0.7-2.3,1.5-4.1,1.5c-2.3,0-3.9-1.6-3.9-3.9c0-2.4,1.9-3.9,4.1-3.9c1.9,0,3.2,1.1,3.9,1.5
			l0-3.4c-1-0.4-2.8-1.1-4.8-1.1c-3.8,0-7,2.2-7,7c0,4.1,2.5,7,7.1,6.9c1.5,0,3.2-0.1,4.8-1.2L262.8,280.2L262.8,280.2z"/>
		<polygon class="st16" points="264.2,271.3 264.2,274.3 268.6,274.3 268.6,284.8 272.3,284.8 272.3,274.3 276.9,274.3 276.9,271.3 
					"/>
		<polygon class="st16" points="240.8,289.4 241.8,289.4 241.8,289.2 241.4,289.2 241.4,288.1 241.9,288.1 241.9,288.7 242,288.7 
			242,287.6 241.9,287.6 241.9,288 241.4,288 241.4,287.1 242,287.1 242,287.6 242.2,287.6 242.2,286.9 240.8,286.9 240.8,287.1 
			240.9,287.1 241,289.2 240.8,289.2 		"/>
		<path class="st16" d="M242.4,287.7l0.4,0l0,1.2c0,0.4,0.1,0.7,0.5,0.7c0.1,0,0.4,0,0.5-0.1l0,0.1l0.6,0l0-0.1l-0.4,0l0-1.5l-0.6,0
			l0,0.1l0.4,0l0,1.2c-0.1,0.1-0.4,0.1-0.4,0.1c-0.1,0-0.4-0.1-0.4-0.4l0-1.2L242.4,287.7L242.4,287.7L242.4,287.7z"/>
		<path class="st16" d="M244.4,289.4l0.9,0l0-0.1l-0.4,0l0-1.3c0.1-0.1,0.4-0.1,0.4-0.1c0.1,0,0.4,0.1,0.4,0.4l0,1.1l-0.1,0l0,0.1
			l0.9,0l0-0.1l-0.4,0l0-1.2c0-0.4-0.1-0.7-0.5-0.7c-0.1,0-0.4,0.1-0.5,0.1l0-0.3l-0.6,0l0,0.1l0.4,0l0,1.5L244.4,289.4L244.4,289.4
			L244.4,289.4z"/>
		<path class="st16" d="M247.3,286.8l0.4,0l0,1.1c-0.1-0.1-0.4-0.1-0.5-0.1c-0.4,0-0.6,0.4-0.6,1.1c0,0.7,0.4,1.1,0.9,1.1l0.9,0
			l0-0.1l-0.4,0l0-2.9L247.3,286.8L247.3,286.8L247.3,286.8z M247.6,289.2L247.6,289.2c-0.5,0-0.9-0.1-0.9-0.8
			c0-0.4,0.1-0.8,0.4-0.8c0.3,0,0.1,0,0.4,0.1L247.6,289.2L247.6,289.2z"/>
		<path class="st16" d="M248.5,288c0.1-0.1,0.4-0.1,0.5-0.1c0.2,0,0.4,0.1,0.4,0.4l0,0.1l-0.4,0.1c-0.4,0-0.5,0.1-0.5,0.7
			c0,0.1,0.1,0.4,0.4,0.4c0.1,0,0.4-0.1,0.5-0.1c0,0.1,0.1,0.1,0.4,0.1c0.1,0,0.1,0,0.4-0.1l0-0.1l-0.1,0c-0.1,0-0.1-0.1-0.1-0.1
			l0-0.8c0-0.4-0.1-0.7-0.5-0.7C249,287.9,248.6,287.6,248.5,288L248.5,288L248.5,288z M249.2,288.7l0,0.4c-0.1,0-0.1,0.1-0.1,0.1
			c-0.1,0-0.1-0.1-0.1-0.1C248.6,288.8,248.9,288.7,249.2,288.7L249.2,288.7z"/>
		<path class="st16" d="M250.4,289.8C250.5,289.8,250.5,289.8,250.4,289.8c0.1,0.4,0,0.4-0.1,0.4l0,0.1c0.5,0,0.6-0.1,0.6-0.4
			c0-0.1-0.1-0.4-0.1-0.4l0-0.1c0.4,0,0.6-0.1,0.6-0.4l0-0.1c0,0-0.1,0.1-0.5,0.1c-0.4,0-0.5-0.1-0.5-0.8c0-0.4,0.1-0.7,0.4-0.7
			c0.1,0,0.4,0.1,0.4,0.4l0.1,0l0-0.7l0,0l0,0.1c-0.1,0-0.4-0.1-0.4-0.1c-0.5,0-0.6,0.4-0.6,1.1c0,0.4,0.1,0.8,0.5,1.1L250.4,289.8
			L250.4,289.8z"/>
		<path class="st16" d="M251.8,287.3C251.8,287.1,252,287.1,251.8,287.3c0.4-0.1,0.5,0,0.6,0c0.1,0,0.4-0.1,0.4-0.4l-0.1,0
			c0,0.1,0,0.1-0.1,0.1c-0.1,0-0.4-0.1-0.5-0.1C251.8,286.8,251.7,286.9,251.8,287.3L251.8,287.3L251.8,287.3z M251.7,288
			c0.1-0.1,0.4-0.1,0.5-0.1c0.2,0,0.4,0.1,0.4,0.4l0,0.1l-0.4,0.1c-0.4,0-0.5,0.1-0.5,0.7c0,0.1,0.1,0.4,0.4,0.4
			c0.1,0,0.4-0.1,0.5-0.1c0,0.1,0.1,0.1,0.4,0.1c0.1,0,0.1,0,0.4-0.1l0-0.1l-0.1,0c-0.1,0-0.1-0.1-0.1-0.1l0-0.8
			c0-0.4-0.1-0.7-0.5-0.7C252.1,287.9,251.8,287.6,251.7,288L251.7,288L251.7,288z M252.3,288.6l0,0.4c-0.1,0-0.1,0.1-0.1,0.1
			c-0.1,0-0.1-0.1-0.1-0.1C252,288.8,252,288.6,252.3,288.6L252.3,288.6z"/>
		<path class="st16" d="M253.2,288.3c0,0.7,0.4,1.1,0.9,1.1c0.5,0,0.9-0.4,0.9-1.1c0-0.7-0.4-1.1-0.9-1.1
			C253.4,287.5,253.2,288,253.2,288.3L253.2,288.3z M253.4,288.3c0-0.4,0.1-0.8,0.5-0.8c0.4,0,0.5,0.1,0.5,0.8
			c0,0.4-0.1,0.8-0.5,0.8C253.6,289.1,253.4,288.9,253.4,288.3L253.4,288.3z"/>
		<path class="st16" d="M256.1,290.4l0.9,0l0-0.1l-0.4,0l0-1.1c0.1,0.1,0.1,0.1,0.4,0.1c0.5,0,0.6-0.7,0.6-1.1
			c0-0.7-0.4-1.1-0.6-1.1c-0.1,0-0.1,0-0.1,0s-0.1,0-0.1,0.1l0,0l-0.7,0l0,0.1l0.4,0l0,2.4L256.1,290.4L256.1,290.4L256.1,290.4z
			 M256.6,288c0.1-0.1,0.1-0.1,0.4-0.1c0.4,0,0.5,0.4,0.5,0.8s-0.1,0.8-0.4,0.8c-0.1,0-0.4-0.1-0.4-0.1L256.6,288L256.6,288z"/>
		<path class="st16" d="M258.1,288c0.1-0.1,0.4-0.1,0.5-0.1s0.4,0.1,0.4,0.4l0,0.1l-0.4,0.1c-0.4,0-0.5,0.1-0.5,0.7
			c0,0.1,0.1,0.4,0.4,0.4c0.1,0,0.4-0.1,0.5-0.1c0,0.1,0.1,0.1,0.4,0.1c0.3,0,0.1,0,0.4-0.1l0-0.1l-0.3,0c-0.1,0-0.1-0.1-0.1-0.1
			l0-0.8c0-0.4-0.1-0.7-0.5-0.7C258.4,287.5,258.4,287.5,258.1,288L258.1,288L258.1,288z M258.8,288.6l0,0.4c-0.1,0-0.1,0.1-0.1,0.1
			c-0.1,0-0.1-0.1-0.1-0.1C258.4,288.7,258.4,288.6,258.8,288.6L258.8,288.6z"/>
		<path class="st16" d="M259.6,289.4l0.9,0l0-0.1l-0.4,0l0-1.3c0.1-0.1,0.1-0.1,0.4-0.1c0.1,0,0.1,0,0.1,0.1c0-0.1,0.1-0.1,0.1-0.4
			c-0.1-0.1-0.1-0.1-0.4-0.1c-0.1,0-0.1,0-0.4,0.4l0,0l0-0.4l-0.5,0l0,0.1l0.4,0l0,1.5L259.6,289.4L259.6,289.4L259.6,289.4z"/>
		<path class="st16" d="M261.2,288c0.1-0.1,0.4-0.1,0.5-0.1c0.1,0,0.4,0.1,0.4,0.4l0,0.1l-0.4,0.1c-0.4,0-0.5,0.1-0.5,0.7
			c0,0.1,0.1,0.4,0.4,0.4c0.1,0,0.4-0.1,0.5-0.1c0,0.1,0.1,0.1,0.4,0.1c0.1,0,0.1,0,0.4-0.1l0-0.1l-0.1,0c-0.1,0-0.1-0.1-0.1-0.1
			l0-0.8c0-0.4-0.1-0.7-0.5-0.7C261.8,287.9,261.2,287.5,261.2,288L261.2,288L261.2,288z M261.9,288.6l0,0.4c-0.1,0-0.1,0.1-0.1,0.1
			c-0.1,0-0.1-0.1-0.1-0.1C261.3,288.7,261.5,288.6,261.9,288.6L261.9,288.6z"/>
		<path class="st16" d="M263.8,288c0.1-0.1,0.4-0.1,0.5-0.1c0.2,0,0.4,0.1,0.4,0.4l0,0.1l-0.4,0.1c-0.4,0-0.5,0.1-0.5,0.7
			c0,0.1,0.1,0.4,0.4,0.4c0.1,0,0.4-0.1,0.5-0.1c0,0.1,0.1,0.1,0.4,0.1c0.3,0,0.1,0,0.4-0.1l0-0.1l-0.1,0c-0.1,0-0.1-0.1-0.1-0.1
			l0-0.8c0-0.4-0.1-0.7-0.5-0.7C264.1,287.5,263.8,287.5,263.8,288L263.8,288L263.8,288z M264.4,288.6l0,0.4c-0.1,0-0.1,0.1-0.1,0.1
			c-0.1,0-0.1-0.1-0.1-0.1C263.9,288.7,264.1,288.6,264.4,288.6L264.4,288.6z"/>
		<path class="st16" d="M268.2,288.8c-0.4,0.1-0.5,0.4-0.6,0.4c-0.5,0-0.9-0.4-0.9-1.2c0-0.7,0.4-1.2,0.6-1.2c0.3,0,0.5,0.1,0.5,0.7
			l0.1,0l0-0.8l-0.1,0l0,0.1c-0.1,0-0.4-0.1-0.5-0.1c-0.6,0-1.3,0.7-1.3,1.5c0,0.8,0.5,1.5,1.3,1.5
			C267.7,289.6,267.9,289.4,268.2,288.8L268.2,288.8L268.2,288.8z"/>
		<path class="st16" d="M268.4,289.4l0.9,0l0-0.1l-0.4,0l0-1.5l-0.5,0l0,0.1l0.4,0l0,1.5L268.4,289.4L268.4,289.4L268.4,289.4z
			 M268.6,286.7C268.5,286.7,268.5,286.9,268.6,286.7l0,0.4c0.1,0,0.1-0.1,0.1-0.1S268.9,286.7,268.6,286.7L268.6,286.7z"/>
		<path class="st16" d="M269.8,287.3l0.4-0.4l0.4,0.4l0.1,0l-0.5-0.8l0,0L269.8,287.3L269.8,287.3L269.8,287.3z M270.8,288.3
			c0-0.7-0.4-0.8-0.6-0.8c-0.5,0-0.6,0.4-0.6,1.1c0,0.7,0.4,1.1,0.9,1.1c0.1,0,0.4,0,0.5-0.1l0-0.1c-0.1,0.1-0.4,0.1-0.5,0.1
			c-0.4,0-0.5-0.4-0.5-0.8L270.8,288.3L270.8,288.3z M269.8,288c0-0.4,0.1-0.4,0.4-0.4c0.1,0,0.4,0.1,0.4,0.4L269.8,288L269.8,288z"
			/>
		<path class="st16" d="M270.9,289.4l0.9,0l0-0.1l-0.4,0l0-1.3c0.1-0.1,0.4-0.1,0.4-0.1c0.1,0,0.4,0.1,0.4,0.4l0,1.1l-0.1,0l0,0.1
			l0.9,0l0-0.1l-0.4,0l0-1.2c0-0.4-0.1-0.7-0.5-0.7c-0.1,0-0.4,0.1-0.5,0.1l0-0.3l-0.7,0l0,0.1l0.4,0l0,1.5L270.9,289.4L270.9,289.4
			L270.9,289.4z"/>
		<path class="st16" d="M274.3,287.5L274.3,287.5L274.3,287.5c-0.4,0-0.4,0-0.5,0c-0.5,0-0.6,0.4-0.6,1.1c0,0.7,0.4,1.1,0.9,1.1
			c0.4,0,0.6-0.1,0.6-0.4l0-0.3c0,0-0.1,0.1-0.5,0.1c-0.5,0-0.5-0.1-0.5-0.8c0-0.4,0.1-0.7,0.4-0.7c0.1,0,0.4,0.1,0.4,0.4l0.1,0
			l0-0.7L274.3,287.5L274.3,287.5z"/>
		<path class="st16" d="M274.6,289.3l0.9,0l0-0.1l-0.1,0l0-1.5l-0.7,0l0,0.1l0.4,0l0,1.5L274.6,289.3L274.6,289.3L274.6,289.3z
			 M275,286.7C274.9,286.7,274.9,286.8,275,286.7l0,0.4L275,286.7C275.2,286.8,275.2,286.7,275,286.7L275,286.7z"/>
		<path class="st16" d="M275.7,287.9c0.1-0.1,0.4-0.1,0.5-0.1c0.1,0,0.4,0.1,0.4,0.4l0,0.1l-0.4,0.1c-0.4,0-0.5,0.1-0.5,0.7
			c0,0.1,0.1,0.4,0.4,0.4c0.1,0,0.4-0.1,0.5-0.1c0,0.1,0.1,0.1,0.4,0.1c0.1,0,0.1,0,0.4-0.1l0-0.1l-0.3,0c-0.1,0-0.1-0.1-0.1-0.1
			l0-0.8c0-0.4-0.1-0.7-0.5-0.7C275.9,287.8,275.9,287.5,275.7,287.9L275.7,287.9L275.7,287.9z M276.5,288.6l0,0.4
			c-0.1,0-0.1,0.1-0.1,0.1c-0.1,0-0.1-0.1-0.1-0.1C276.1,288.7,276.1,288.6,276.5,288.6L276.5,288.6z"/>
		<path class="st16" d="M297,286.7C296.7,286.7,296.7,286.8,297,286.7l0,0.4c0.1,0,0.1-0.1,0.1-0.1S297.1,286.7,297,286.7L297,286.7
			z"/>
		<g>
			<path class="st16" d="M240.8,292.6L240.8,292.6l0.1-1.2l-0.1,0l0-0.1l0.4,0l0,0.1l0.4,1.1l0.4-1.1l0-0.1l0.4,0l0,0.1l-0.4,0
				l0,1.2l0.1,0l0,0.1l-0.5,0l0-0.1l0.1,0l0-1.1l0,0l-0.4,1.1l0,0l-0.4-1.1l0,0L240.8,292.6L240.8,292.6l0.1,0.1L240.8,292.6
				L240.8,292.6z"/>
			<path class="st16" d="M242.4,292.6L242.4,292.6l0.1-1.2l-0.1,0l0-0.1l0.5,0l0,0.1l-0.1,0l0,1.2l0.1,0l0,0.1L242.4,292.6
				L242.4,292.6z"/>
			<path class="st16" d="M242.9,292.6L242.9,292.6l0.1-1.2l-0.1,0l0-0.1l0.4,0l0,0.1l0.6,1.1l0-1.1l-0.1,0l0-0.1l0.5,0l0,0.1l-0.1,0
				l0,1.2l-0.1,0l-0.6-1.1l0,0.8l0.1,0l0,0.1l-0.6,0L242.9,292.6L242.9,292.6z"/>
			<path class="st16" d="M244.4,292.6L244.4,292.6l0.1-1.2l-0.1,0l0-0.1l0.5,0l0,0.1l-0.1,0l0,1.2l0.1,0l0,0.1L244.4,292.6
				L244.4,292.6z"/>
			<path class="st16" d="M245.1,292.1L245.1,292.1L245.1,292.1c0.1,0.1,0.1,0.4,0.4,0.4c0.1,0,0.1,0,0.1-0.1
				C245.7,292.1,245.3,292.1,245.1,292.1l0-0.4c0-0.1,0.1-0.4,0.4-0.4l0.1,0l0,0l0.1,0l0,0.4l-0.1,0l0-0.1l-0.1-0.1
				c-0.1,0-0.1,0-0.1,0.1s0.4,0.1,0.5,0.4l0.1,0.1c0,0.1-0.1,0.4-0.4,0.4c-0.3,0-0.1,0-0.1,0l0,0l-0.1,0L245.1,292.1L245.1,292.1z"
				/>
			<path class="st16" d="M246.2,292.6L246.2,292.6l0.1-1.1l-0.4,0l0,0.1l-0.1,0l0-0.4l0.1,0l0,0l0.9,0l0,0l0.1,0l0,0.4l-0.1,0l0-0.1
				l-0.4,0l0,1.1l0.1,0l0,0.1L246.2,292.6L246.2,292.6z"/>
			<path class="st16" d="M247,292.6L247,292.6l0.1-1.2l-0.1,0l0-0.1l0.9,0l0,0.1l-0.1,0l0-0.1l-0.4,0l0,0.4l0.4,0l0-0.1l0.1,0l0,0.4
				l-0.1,0l0-0.1l-0.4,0l0,0.7l0.4,0l0-0.4l0.1,0l0,0.4L247,292.6L247,292.6z M247.4,291.1l0.1-0.4l0.1,0L247.4,291.1L247.4,291.1z"
				/>
			<path class="st16" d="M248,292.6L248,292.6l0.1-1.2l-0.1,0l0-0.1l0.5,0c0.4,0,0.4,0.1,0.4,0.4c0,0.1-0.1,0.4-0.4,0.4l0,0
				c0.1,0,0.1,0.1,0.4,0.7l0.1,0l0,0.1l-0.4,0l-0.1-0.4c-0.1-0.1-0.1-0.4-0.4-0.4l0,0L248,292.6l0.4-0.1l0,0.1L248,292.6L248,292.6z
				 M248.4,291.9C248.5,291.9,248.5,291.9,248.4,291.9c0.1-0.4,0.1-0.4,0-0.4l0,0L248.4,291.9L248.4,291.9z"/>
			<path class="st16" d="M249.1,292.6L249.1,292.6l0.1-1.2l-0.1,0l0-0.1l0.5,0l0,0.1l-0.1,0l0,1.2l0.1,0l0,0.1L249.1,292.6
				L249.1,292.6z"/>
			<path class="st16" d="M250.4,291c0.4,0,0.6,0.4,0.6,0.8c0,0.4-0.1,0.8-0.6,0.8c-0.4,0-0.6-0.4-0.6-0.8
				C249.8,291.5,249.9,291,250.4,291z M250.4,292.6c0.4,0,0.4-0.1,0.4-0.7c0-0.4-0.1-0.7-0.4-0.7c-0.1,0-0.4,0.1-0.4,0.7
				C250.1,292.2,250.1,292.6,250.4,292.6z"/>
			<path class="st16" d="M251.7,292.6L251.7,292.6l0.1-1.2l-0.1,0l0-0.1l0.5,0c0.4,0,0.6,0.1,0.6,0.7c0,0.5-0.1,0.7-0.5,0.7
				L251.7,292.6L251.7,292.6z M252.2,292.6c0.1,0,0.4,0,0.4-0.7c0-0.1,0-0.4-0.1-0.4c0,0-0.1-0.1-0.4-0.1l0,0L252.2,292.6
				L252.2,292.6z"/>
			<path class="st16" d="M252.8,292.6L252.8,292.6l0.5-1.2l0.1,0l0.4,1.2l0.1,0l0,0.1l-0.4,0l0-0.1l0.1,0l-0.1-0.4l-0.4,0l-0.1,0.4
				l0.1,0l0,0.1L252.8,292.6L252.8,292.6z M253.3,291.5L253.3,291.5l-0.1,0.4l0.4,0L253.3,291.5z"/>
			<path class="st16" d="M254.6,292.6L254.6,292.6l0.1-1.2l-0.1,0l0-0.1l0.9,0l0,0.1l-0.1,0l0-0.1l-0.4,0l0,0.4l0.4,0l0-0.1l0.1,0
				l0,0.4l-0.1,0l0-0.1l-0.4,0l0,0.7l0.4,0l0-0.4l0.1,0l0,0.4L254.6,292.6L254.6,292.6z"/>
			<path class="st16" d="M255.3,292.6L255.3,292.6l0.1-1.2l-0.1,0l0-0.1l0.5,0c0.4,0,0.6,0.1,0.6,0.7c0,0.5-0.1,0.7-0.5,0.7
				L255.3,292.6L255.3,292.6z M255.9,292.6c0.1,0,0.4,0,0.4-0.7c0-0.1,0-0.4-0.1-0.4c0,0-0.1-0.1-0.4-0.1l0,0L255.9,292.6
				L255.9,292.6z"/>
			<path class="st16" d="M256.7,291l0.5,0l0,0.1l-0.1,0l0,0.7c0,0.4,0.1,0.4,0.4,0.4c0.3,0,0.4-0.1,0.4-0.4l0-0.7l-0.1,0l0-0.1
				l0.5,0l0,0.1l-0.1,0l0,0.8c0,0.4-0.1,0.7-0.5,0.7c-0.4,0-0.5-0.1-0.5-0.7L256.7,291L256.7,291L256.7,291z"/>
			<path class="st16" d="M259.1,292.2c-0.1,0.1-0.1,0.1-0.4,0.1c-0.4,0-0.5-0.4-0.5-0.7c0-0.4,0.1-0.8,0.6-0.8c0.1,0,0.1,0,0.4,0
				l0,0l0,0l0,0.4l0,0c0-0.1-0.1-0.1-0.4-0.1c-0.1,0-0.4,0.1-0.4,0.7C258.6,292.2,258.8,292.5,259.1,292.2
				C258.8,292.5,259,292.2,259.1,292.2L259.1,292.2z"/>
			<path class="st16" d="M259.1,292.5L259.1,292.5l0.5-1.2l0.1,0l0.4,1.2l0.1,0l0,0.1l-0.5,0l0-0.1l0.1,0l-0.1-0.4l-0.3,0
				L259.1,292.5l0.4,0l0,0.1L259.1,292.5L259.1,292.5z M259.6,291.5L259.6,291.5l-0.1,0.4l0.4,0L259.6,291.5z"/>
			<path class="st16" d="M260.9,292.5c-0.4,0-0.5-0.4-0.5-0.7c0-0.4,0.1-0.8,0.6-0.8c0.1,0,0.1,0,0.4,0l0,0l0,0l0,0.4l0,0
				c0-0.1-0.1-0.1-0.4-0.1c-0.1,0-0.4,0.1-0.4,0.7C260.5,292.2,260.7,292.5,260.9,292.5c0.4-0.1,0.4-0.1,0.5-0.1l0,0.1
				C261.3,292.5,261,292.5,260.9,292.5L260.9,292.5C261,292.5,261,292.6,260.9,292.5c0.1,0.4,0.1,0.4-0.1,0.4l0,0c0.1,0,0.1,0,0.1,0
				C260.9,292.6,260.9,292.6,260.9,292.5L260.9,292.5z"/>
			<path class="st16" d="M261.3,292.5L261.3,292.5l0.5-1.2l0.1,0l0.4,1.2l0.1,0l0,0.1l-0.4,0l0-0.1l0.1,0l-0.1-0.4l-0.4,0l-0.1,0.4
				l0.1,0l0,0.1L261.3,292.5L261.3,292.5z M261.8,290.9C261.8,290.6,261.8,290.6,261.8,290.9c0.4-0.1,0.4-0.1,0.4-0.1l0,0l0,0
				C262,290.9,262,290.9,261.8,290.9C261.9,290.9,261.9,290.9,261.8,290.9L261.8,290.9L261.8,290.9z M261.9,291.4L261.9,291.4
				l-0.1,0.4l0.4,0L261.9,291.4z"/>
			<path class="st16" d="M263.1,291c0.4,0,0.6,0.4,0.6,0.8c0,0.4-0.1,0.8-0.6,0.8c-0.4,0-0.6-0.4-0.6-0.8
				C262.6,291.4,262.8,291,263.1,291z M263.1,292.5c0.4,0,0.4-0.1,0.4-0.7c0-0.4-0.1-0.7-0.4-0.7c-0.3,0-0.4,0.1-0.4,0.7
				C262.8,292.2,262.9,292.5,263.1,292.5z"/>
			<path class="st16" d="M264.2,292.5L264.2,292.5l0.1-1.2l-0.1,0l0-0.1l0.9,0l0,0.1l-0.1,0l0-0.1l-0.4,0l0,0.4l0.4,0l0-0.1l0.1,0
				l0,0.4l-0.1,0l0-0.1l-0.4,0l0,0.7l0.4,0l0-0.4l0.1,0l0,0.4L264.2,292.5L264.2,292.5z"/>
			<path class="st16" d="M266.9,292.2c-0.1,0.1-0.1,0.1-0.4,0.1c-0.4,0-0.5-0.4-0.5-0.7c0-0.4,0.1-0.8,0.6-0.8c0.1,0,0.1,0,0.4,0
				l0,0l0,0l0,0.4l0,0c0-0.1-0.1-0.1-0.4-0.1c-0.1,0-0.4,0.1-0.4,0.7C266.3,292.2,266.6,292.5,266.9,292.2
				C266.6,292.5,266.7,292.2,266.9,292.2L266.9,292.2z"/>
			<path class="st16" d="M266.9,292.5L266.9,292.5l0.1-1.2l-0.1,0l0-0.1l0.5,0l0,0.1l-0.1,0l0,1.2l0.1,0l0,0.1L266.9,292.5
				L266.9,292.5z"/>
			<path class="st16" d="M267.6,292.5L267.6,292.5l0.1-1.2l-0.1,0l0-0.1l0.9,0l0,0.1l-0.1,0l0-0.1l-0.4,0l0,0.4l0.4,0l0-0.1l0.1,0
				l0,0.4l-0.1,0l0-0.1l-0.4,0l0,0.7l0.4,0l0-0.4l0.1,0l0,0.4L267.6,292.5L267.6,292.5z M267.7,291l0.1-0.4l0.1,0l0.1,0.4l0,0
				l-0.1-0.1L267.7,291L267.7,291z"/>
			<path class="st16" d="M268.4,292.5L268.4,292.5l0.1-1.2l-0.1,0l0-0.1l0.4,0l0,0.1l0.6,1.1l0-1.1l-0.1,0l0-0.1l0.5,0l0,0.1l-0.3,0
				l0,1.2l-0.1,0l-0.6-1.1l0,0.8l0.1,0l0,0.1l-0.5,0L268.4,292.5z"/>
			<path class="st16" d="M270.8,292.2c-0.1,0.1-0.1,0.1-0.4,0.1c-0.4,0-0.5-0.4-0.5-0.7c0-0.4,0.1-0.8,0.6-0.8c0.1,0,0.1,0,0.4,0
				l0,0l0,0l0,0.4l0,0c0-0.1-0.1-0.1-0.4-0.1c-0.3,0-0.4,0.1-0.4,0.7C270.3,292.2,270.5,292.5,270.8,292.2
				C270.5,292.5,270.8,292.2,270.8,292.2L270.8,292.2z"/>
			<path class="st16" d="M270.9,292.5L270.9,292.5l0.1-1.2l-0.1,0l0-0.1l0.5,0l0,0.1l-0.1,0l0,1.2l0.1,0l0,0.1L270.9,292.5
				L270.9,292.5z"/>
			<path class="st16" d="M271.7,292.5L271.7,292.5l0.5-1.2l0.1,0l0.4,1.2l0.1,0l0,0.1l-0.4,0l0-0.1l0.1,0l-0.1-0.4l-0.4,0l-0.1,0.4
				l0.1,0l0,0.1L271.7,292.5L271.7,292.5z M272.2,291.4L272.2,291.4l-0.1,0.4l0.4,0L272.2,291.4z"/>
		</g>
	</g>
</g>
</svg>
