<?xml version="1.0" encoding="utf-8"?>
<!-- Generator: Adobe Illustrator 19.0.0, SVG Export Plug-In . SVG Version: 6.00 Build 0)  -->
<svg version="1.1" xmlns="http://www.w3.org/2000/svg" xmlns:xlink="http://www.w3.org/1999/xlink" x="0px" y="0px"
	 viewBox="144.3 327.3 900 352.1" style="enable-background:new 144.3 327.3 900 352.1;" xml:space="preserve">
<style type="text/css">
	.st0{fill-rule:evenodd;clip-rule:evenodd;fill:#F8F9FA;}
	.st1{fill:#A7A9AC;}
	.st2{fill:#BCBEC0;}
	.st3{fill:#58595B;}
	.st4{fill:#FFFFFF;}
	.st5{fill:#6D6E71;}
	.st6{fill:#41AD49;}
	.st7{fill:#231F20;}
	.st8{fill:#D1D3D4;}
	.st9{fill:#939598;}
	.st10{fill:#F1F2F2;}
	.st11{fill:#E2F3E4;}
	.st12{fill:#96D29B;}
	.st13{opacity:0.5;}
	.st14{opacity:0.95;}
	.st15{fill:#41AD49;stroke:#41AD49;stroke-miterlimit:10;}
	.st16{fill:#0B5C20;}
	.st17{fill:#404045;}
	.st18{fill:#363338;}
	.st19{fill:#3D3D42;}
	.st20{fill:#FAFAFA;}
	.st21{fill:#E5E8E8;}
	.st22{fill:#D1D4D4;}
	.st23{fill:#BDBFBF;}
	.st24{fill:#FF876B;}
	.st25{fill:#F2786B;}
	.st26{fill:#F27369;}
	.st27{fill:#F2F2F2;}
	.st28{fill:#D9D9DB;}
	.st29{opacity:0.33;fill-rule:evenodd;clip-rule:evenodd;fill:#FFFFFF;}
</style>
<g id="Layer_1">
	<g id="Layer_1_1_">
	</g>
	<ellipse class="st0" cx="579.3" cy="649.8" rx="343.8" ry="20.7"/>
	<g>
		<rect x="720.6" y="412.5" class="st1" width="8.7" height="32.1"/>
		<rect x="685.1" y="412.5" class="st1" width="8.7" height="32.1"/>
		<g>
			<line class="st2" x1="693.7" y1="412.5" x2="720.6" y2="444.9"/>
			
				<rect x="686.1" y="427.3" transform="matrix(0.6386 0.7696 -0.7696 0.6386 585.5198 -389.2766)" class="st3" width="42.1" height="2.8"/>
		</g>
		<g>
			<line class="st2" x1="693.7" y1="444.9" x2="720.6" y2="412.5"/>
			
				<rect x="705.8" y="407.7" transform="matrix(0.7696 0.6385 -0.6385 0.7696 436.7021 -352.7892)" class="st3" width="2.8" height="42.1"/>
		</g>
	</g>
	<g>
		<g>
			<g>
				<path class="st4" d="M440.4,420.3h2.7c1.7,0,3.3-1.8,3.3-3.5v-18.4c0-1.7-1.6-3.3-3.3-3.3h-18.4c-1.7,0-2.6,1.6-2.6,3.3v18.4
					c0,1.7,0.9,3.5,2.6,3.5h1.8v38.2h13.9V420.3z"/>
				<path class="st5" d="M440.4,459.8h-13.9c-0.8,0-1.4-0.6-1.4-1.4v-36.8h-0.4c-2.6,0-4-2.5-4-4.9v-18.4c0-2.7,1.7-4.7,4-4.7h18.4
					c2.5,0,4.7,2.2,4.7,4.7v18.4c0,2.5-2.3,4.9-4.7,4.9h-1.3v36.8C441.7,459.2,441.1,459.8,440.4,459.8z M427.9,457.1H439v-36.8
					c0-0.8,0.6-1.4,1.4-1.4h2.7c0.9,0,1.9-1.1,1.9-2.1v-18.4c0-0.9-1-1.9-1.9-1.9h-18.4c-0.9,0-1.2,1.2-1.2,1.9v18.4
					c0,0.8,0.4,2.1,1.2,2.1h1.8c0.8,0,1.4,0.6,1.4,1.4V457.1z"/>
			</g>
		</g>
		<g>
			<g>
				<rect x="422.1" y="467.2" class="st6" width="24.3" height="40.8"/>
				<g>
					<rect x="414.3" y="455" class="st6" width="39.1" height="12.1"/>
					<path class="st6" d="M415.7,465.8H452v-9.4h-36.3V465.8z"/>
				</g>
			</g>
			<g>
				<rect x="422.1" y="478" class="st3" width="10.4" height="2.8"/>
			</g>
			<g>
				<rect x="422.1" y="489.2" class="st7" width="10.4" height="2.8"/>
			</g>
		</g>
	</g>
	<g>
		<path class="st8" d="M483,440.3h7.7c0-13.9,13.9-23.4,13.9-23.4L483,391.8L461.5,417c0,0,13.9,9.4,13.9,23.3H483z"/>
		<g>
			<rect x="481.5" y="391.7" class="st3" width="2.8" height="22.6"/>
		</g>
		<g>
			<circle class="st9" cx="483.1" cy="419.8" r="4.9"/>
			<path class="st3" d="M483.1,426c-3.5,0-6.3-2.8-6.3-6.3c0-3.5,2.8-6.3,6.3-6.3c3.5,0,6.3,2.8,6.3,6.3
				C489.4,423.2,486.6,426,483.1,426z M483.1,416.3c-1.9,0-3.5,1.6-3.5,3.5c0,1.9,1.6,3.5,3.5,3.5c1.9,0,3.5-1.6,3.5-3.5
				C486.6,417.9,485.1,416.3,483.1,416.3z"/>
		</g>
		<g>
			<g>
				<rect x="466.4" y="528.8" class="st10" width="32.1" height="11.3"/>
				<path class="st7" d="M498.5,541.5h-32.1c-0.8,0-1.4-0.6-1.4-1.4v-11.3c0-0.8,0.6-1.4,1.4-1.4h32.1c0.8,0,1.4,0.6,1.4,1.4v11.3
					C499.9,540.9,499.3,541.5,498.5,541.5z M467.8,538.7h29.3v-8.5h-29.3V538.7z"/>
			</g>
			<g>
				<polygon class="st11" points="498.5,449 495.9,449 495.9,440.3 469,440.3 469,449 466.4,449 466.4,528.8 498.5,528.8 				"/>
				<path class="st12" d="M498.5,530.2h-32.1c-0.8,0-1.4-0.6-1.4-1.4V449c0-0.8,0.6-1.4,1.4-1.4h1.2v-7.3c0-0.8,0.6-1.4,1.4-1.4
					h26.9c0.8,0,1.4,0.6,1.4,1.4v7.3h1.2c0.8,0,1.4,0.6,1.4,1.4v79.8C499.9,529.6,499.3,530.2,498.5,530.2z"/>
			</g>
		</g>
		<g>
			<rect x="469" y="447.6" class="st3" width="13" height="2.8"/>
		</g>
	</g>
	<g>
		<rect x="608.7" y="599.1" class="st8" width="52.9" height="35.6"/>
		<g>
			<path class="st3" d="M758,448.6c0-7.3-6-13.5-13.7-13.5H525.6c-7.7,0-14.1,6.2-14.1,13.5v110.6H758V448.6z"/>
			<g>
				<path class="st10" d="M511.5,559.2v28.3c0,7.3,6.4,11.7,14,11.7h217.6c7.6,0,13.6-4.3,13.6-11.7v-28.3H511.5z"/>
				<path class="st3" d="M743.1,600.5H525.5c-9,0-15.4-5.4-15.4-13v-28.3c0-0.8,0.6-1.4,1.4-1.4h245.2c0.8,0,1.4,0.6,1.4,1.4v28.3
					C758.1,595.1,751.9,600.5,743.1,600.5z M512.9,560.6v26.9c0,4.9,3.9,10.3,12.6,10.3h217.6c8.4,0,12.2-5.2,12.2-10.3v-26.9H512.9
					z"/>
			</g>
		</g>
		<circle class="st2" cx="634.9" cy="579.2" r="8.6"/>
		<g>
			<rect x="598.3" y="634.7" class="st4" width="72.9" height="9.5"/>
			<path class="st5" d="M599.7,642.1h70.1v-10.3h-70.1V642.1z"/>
		</g>
		<g>
			<rect x="527.1" y="449.8" class="st11" width="215.2" height="109.3"/>
			<path class="st3" d="M742.3,560.6H527.1c-0.8,0-1.4-0.6-1.4-1.4V449.8c0-0.8,0.6-1.4,1.4-1.4h215.2c0.8,0,1.4,0.6,1.4,1.4v109.3
				C743.7,560,743.1,560.6,742.3,560.6z M528.5,557.8H741V451.2H528.5V557.8z"/>
		</g>
		<g class="st13">
			<rect x="541.9" y="464.6" class="st4" width="186.6" height="27.8"/>
			<rect x="541.9" y="499.3" class="st4" width="123.2" height="24.3"/>
			<rect x="678.1" y="499.3" class="st4" width="49.5" height="24.3"/>
			<rect x="541.9" y="531.4" class="st4" width="185.7" height="11.3"/>
		</g>
	</g>
	<g>
		<rect x="541.9" y="461.1" class="st6" width="183.1" height="43.4"/>
	</g>
	<g>
		<path class="st5" d="M599.2,494.7c0-5.1-4.5-8.4-9.6-8.4H410.3c-5.1,0-9.9,3.3-9.9,8.4v130.5h198.7V494.7z"/>
		<g>
			<path class="st10" d="M384.8,625.1v10c0,5.1,6.1,9.1,11.9,9.1h206.4c5.9,0,11.6-4,11.6-9.1v-10H384.8z"/>
			<path class="st5" d="M603.1,645.6H396.7c-6.3,0-13.3-4.3-13.3-10.5v-10c0-0.8,0.6-1.4,1.4-1.4h230c0.8,0,1.4,0.6,1.4,1.4v10
				c0,2.8-1.5,5.5-4.2,7.6C609.5,644.6,606.3,645.6,603.1,645.6z M386.2,626.5v8.6c0,4.3,5.7,7.7,10.5,7.7h206.4
				c5.4,0,10.2-3.7,10.2-7.7v-8.6H386.2z"/>
		</g>
		<g>
			<rect x="413.5" y="496.7" class="st11" width="172.7" height="116.3"/>
			<path class="st3" d="M586.1,614.4H413.5c-0.8,0-1.4-0.6-1.4-1.4V496.7c0-0.8,0.6-1.4,1.4-1.4h172.7c0.8,0,1.4,0.6,1.4,1.4V613
				C587.5,613.8,586.9,614.4,586.1,614.4z M414.8,611.6h169.9V498.1H414.8V611.6z"/>
		</g>
		<g>
			<rect x="488.9" y="634.2" class="st7" width="22.6" height="2.8"/>
		</g>
		<g class="st13">
			<rect x="556.6" y="511.5" class="st12" width="16.5" height="27.8"/>
			<rect x="429.1" y="511.5" class="st12" width="118.9" height="27.8"/>
			<rect x="429.1" y="547.9" class="st12" width="33" height="27.8"/>
			<rect x="468.1" y="547.9" class="st12" width="101.5" height="27.8"/>
			<rect x="429.1" y="585.2" class="st12" width="140.6" height="13"/>
		</g>
	</g>
	<g>
		<g>
			<g>
				<path class="st7" d="M540.3,587.4l-6.9-6.9c-0.3-0.3-0.4-0.6-0.4-1c0-0.4,0.1-0.7,0.4-1l6.9-6.9l2,2l-5.9,5.9l5.9,5.9
					L540.3,587.4z"/>
			</g>
			<g>
				<path class="st7" d="M561.7,587.4l-2-2l5.9-5.9l-5.9-5.9l2-2l6.9,6.9c0.3,0.3,0.4,0.6,0.4,1c0,0.4-0.1,0.7-0.4,1L561.7,587.4z"
					/>
			</g>
			<g>
				
					<rect x="549" y="569.6" transform="matrix(0.9031 0.4294 -0.4294 0.9031 302.1446 -180.2068)" class="st7" width="2.8" height="19.7"/>
			</g>
		</g>
	</g>
	<g>
		<g>
			<rect x="437.8" y="549.1" class="st7" width="91.1" height="2.8"/>
		</g>
		<g>
			<rect x="479.4" y="547" class="st9" width="8.7" height="7.8"/>
			<path class="st7" d="M488.1,556.2h-8.7c-0.8,0-1.4-0.6-1.4-1.4V547c0-0.8,0.6-1.4,1.4-1.4h8.7c0.8,0,1.4,0.6,1.4,1.4v7.8
				C489.5,555.6,488.8,556.2,488.1,556.2z M480.8,553.5h5.9v-5h-5.9V553.5z"/>
		</g>
		<g>
			<rect x="429.1" y="547" class="st9" width="8.7" height="8.7"/>
			<path class="st7" d="M437.8,557.1h-8.7c-0.8,0-1.4-0.6-1.4-1.4V547c0-0.8,0.6-1.4,1.4-1.4h8.7c0.8,0,1.4,0.6,1.4,1.4v8.7
				C439.1,556.5,438.5,557.1,437.8,557.1z M430.5,554.3h5.9v-5.9h-5.9V554.3z"/>
		</g>
		<g>
			<rect x="528.9" y="547" class="st9" width="9.5" height="7.8"/>
			<path class="st7" d="M538.4,556.2h-9.5c-0.8,0-1.4-0.6-1.4-1.4V547c0-0.8,0.6-1.4,1.4-1.4h9.5c0.8,0,1.4,0.6,1.4,1.4v7.8
				C539.8,555.6,539.2,556.2,538.4,556.2z M530.3,553.5h6.8v-5h-6.8V553.5z"/>
		</g>
		<g>
			<path class="st7" d="M488.6,552C488.5,552,488.5,552,488.6,552l0-2.8c0,0,0,0,0,0c0.3,0,15.5-0.1,25.5-10.1
				c5.9-5.9,8.9-14.1,8.9-24.4h2.8c0,11.1-3.3,19.9-9.8,26.4C505.3,551.8,489.7,552,488.6,552z"/>
		</g>
		<g>
			<path class="st7" d="M479.5,552c-1.2,0-16.7-0.2-27.4-10.9c-6.5-6.4-9.8-15.3-9.8-26.4h2.8c0,10.3,3,18.5,9,24.4
				c10,10,25.1,10.1,25.5,10.1c0,0,0,0,0,0L479.5,552C479.6,552,479.5,552,479.5,552z"/>
		</g>
		<g>
			<rect x="519.3" y="511.5" class="st9" width="9.5" height="8.7"/>
			<path class="st7" d="M528.9,521.5h-9.5c-0.8,0-1.4-0.6-1.4-1.4v-8.7c0-0.8,0.6-1.4,1.4-1.4h9.5c0.8,0,1.4,0.6,1.4,1.4v8.7
				C530.3,520.9,529.6,521.5,528.9,521.5z M520.7,518.7h6.8v-5.9h-6.8V518.7z"/>
		</g>
		<g>
			<rect x="438.6" y="511.5" class="st9" width="9.5" height="7.8"/>
			<path class="st7" d="M448.2,520.7h-9.5c-0.8,0-1.4-0.6-1.4-1.4v-7.8c0-0.8,0.6-1.4,1.4-1.4h9.5c0.8,0,1.4,0.6,1.4,1.4v7.8
				C449.6,520,448.9,520.7,448.2,520.7z M440,517.9h6.8v-5H440V517.9z"/>
		</g>
	</g>
	<g>
		<rect x="443.8" y="574.3" class="st7" width="32.1" height="2.8"/>
	</g>
	<g>
		<rect x="483.7" y="574.3" class="st7" width="13.9" height="2.8"/>
	</g>
	<g>
		<rect x="443.8" y="583.8" class="st7" width="67.7" height="2.8"/>
	</g>
	<g>
		<rect x="620" y="493.6" class="st7" width="7.8" height="2.8"/>
	</g>
	<g>
		<rect x="637.3" y="493.6" class="st7" width="7.8" height="2.8"/>
	</g>
	<g>
		<rect x="655.6" y="493.6" class="st7" width="7.8" height="2.8"/>
	</g>
	<g>
		<g>
			<rect x="670.2" y="515.5" class="st4" width="52.9" height="42.2"/>
			<path class="st7" d="M723.1,558.8h-52.9c-0.6,0-1.1-0.5-1.1-1.1v-42.2c0-0.6,0.5-1.1,1.1-1.1h52.9c0.6,0,1.1,0.5,1.1,1.1v42.2
				C724.2,558.2,723.7,558.8,723.1,558.8z M671.3,556.5h50.6v-39.9h-50.6V556.5z"/>
		</g>
		<rect x="674.5" y="520.5" class="st12" width="45" height="32.9"/>
		<g>
			<path class="st7" d="M710.1,543.8l-17.5-10.1l-17.9,9.3l-1.1-2l18.4-9.6c0.3-0.2,0.8-0.2,1.1,0l18,10.4L710.1,543.8z"/>
		</g>
		<g>
			<path class="st7" d="M718.2,539.3l-8.4-5.5l-6,5.4l-1.5-1.7l6.7-5.9c0.4-0.3,1-0.4,1.4-0.1l9.2,5.9L718.2,539.3z"/>
		</g>
		<circle class="st4" cx="700.6" cy="526.6" r="4.2"/>
	</g>
	<rect x="608.7" y="518.4" class="st4" width="42.5" height="8.7"/>
	<rect x="608.7" y="531.4" class="st4" width="42.5" height="20"/>
	<g>
		<rect x="620" y="521.3" class="st7" width="27.8" height="2.8"/>
	</g>
	<g>
		<rect x="613" y="536.1" class="st7" width="34.7" height="2.8"/>
	</g>
	<g>
		<rect x="613" y="543.9" class="st7" width="34.7" height="2.8"/>
	</g>
	<g>
		<g>
			<polygon class="st6" points="729.3,419.5 577.5,419.5 577.5,397.8 653.4,397.8 729.3,397.8 			"/>
			<path class="st3" d="M729.3,420.9H577.5c-0.8,0-1.4-0.6-1.4-1.4v-21.7c0-0.8,0.6-1.4,1.4-1.4h151.9c0.8,0,1.4,0.6,1.4,1.4v21.7
				C730.7,420.2,730.1,420.9,729.3,420.9z M578.9,418.1h149.1v-18.9H578.9V418.1z"/>
		</g>
		<g>
			<line class="st2" x1="653" y1="409.1" x2="653" y2="397.8"/>
			<rect x="651.6" y="397.8" class="st3" width="2.8" height="11.3"/>
		</g>
		<g>
			<line class="st2" x1="670.3" y1="409.1" x2="670.3" y2="397.8"/>
			<rect x="668.9" y="397.8" class="st3" width="2.8" height="11.3"/>
		</g>
		<g>
			<line class="st2" x1="687.7" y1="409.1" x2="687.7" y2="397.8"/>
			<rect x="686.3" y="397.8" class="st3" width="2.8" height="11.3"/>
		</g>
		<g>
			<line class="st2" x1="705" y1="409.1" x2="705" y2="397.8"/>
			<rect x="703.6" y="397.8" class="st3" width="2.8" height="11.3"/>
		</g>
		<g>
			<line class="st2" x1="635.6" y1="409.1" x2="635.6" y2="397.8"/>
			<rect x="634.2" y="397.8" class="st7" width="2.8" height="11.3"/>
		</g>
		<g>
			<line class="st2" x1="618.2" y1="409.1" x2="618.2" y2="397.8"/>
			<rect x="616.9" y="397.8" class="st3" width="2.8" height="11.3"/>
		</g>
		<g>
			<line class="st2" x1="600.9" y1="409.1" x2="600.9" y2="397.8"/>
			<rect x="599.5" y="397.8" class="st3" width="2.8" height="11.3"/>
		</g>
	</g>
	<rect x="626.9" y="396" class="st10" width="16.5" height="63.3"/>
	<g>
		<rect x="633.3" y="396" class="st3" width="2.8" height="65.1"/>
	</g>
	<g class="st14">
		<g>
			<rect x="645.6" y="542.9" class="st4" width="57.7" height="46"/>
			<path class="st7" d="M704.3,590.2h-57.7c-0.7,0-1.2-0.6-1.2-1.2v-46c0-0.7,0.6-1.2,1.2-1.2h57.7c0.7,0,1.2,0.6,1.2,1.2v46
				C705.6,589.6,705,590.2,704.3,590.2z M647.9,587.7h55.2v-43.5h-55.2V587.7z"/>
		</g>
		<g>
			<rect x="655.2" y="549.4" class="st15" width="40.1" height="8.8"/>
			<g>
				<rect x="655.2" y="558.2" class="st4" width="40.1" height="22.5"/>
				<path class="st3" d="M695.3,581.3h-40.1c-0.3,0-0.6-0.3-0.6-0.6v-22.5c0-0.3,0.3-0.6,0.6-0.6h40.1c0.3,0,0.6,0.3,0.6,0.6v22.5
					C695.9,581.1,695.6,581.3,695.3,581.3z M655.8,580.1h38.9v-21.3h-38.9V580.1z"/>
			</g>
			<g>
				<rect x="656.9" y="551.6" class="st4" width="5.3" height="1.2"/>
			</g>
			<g>
				<rect x="656.9" y="554.1" class="st4" width="5.3" height="1.2"/>
			</g>
			<g>
				<path class="st4" d="M690.9,555.4c-0.2,0-0.3-0.1-0.4-0.2l-1.7-1.7l0.9-0.9l1.3,1.3l1.5-1.3l0.8,0.9l-1.9,1.7
					C691.2,555.4,691.1,555.4,690.9,555.4z"/>
			</g>
			<g>
				<rect x="655.2" y="565.3" class="st7" width="40.1" height="1.2"/>
			</g>
			<g>
				<rect x="655.2" y="572.4" class="st7" width="40.1" height="1.2"/>
			</g>
			<g>
				<rect x="658.3" y="561.4" class="st8" width="24.6" height="1.4"/>
				<rect x="684.4" y="561.4" class="st8" width="7.4" height="1.4"/>
			</g>
			<g>
				<rect x="658.3" y="568.4" class="st8" width="24.6" height="1.4"/>
				<rect x="684.4" y="568.4" class="st8" width="7.4" height="1.4"/>
			</g>
			<g>
				<rect x="658.3" y="575.4" class="st8" width="24.6" height="1.4"/>
				<rect x="684.4" y="575.4" class="st8" width="7.4" height="1.4"/>
			</g>
		</g>
	</g>
	<g>
		<polygon class="st12" points="606.9,588 617.1,644.3 615.5,644.5 605.3,588.3 		"/>
		<polygon class="st6" points="605.3,588.3 615.5,644.5 613.8,644.8 603.7,588.5 		"/>
		<polygon class="st16" points="602,588.7 603.7,588.5 613.8,644.8 612.2,645 		"/>
		<g>
			<path class="st17" d="M602.4,582.2l0.2-4.2l1.7,3.9C603.7,582.3,603.1,582.4,602.4,582.2"/>
			<path class="st4" d="M604.3,581.9l2.6,6.1l-4.9,0.7l0.4-6.5C603.1,582.4,603.7,582.3,604.3,581.9"/>
		</g>
		<polygon class="st4" points="612.4,646.5 617.3,645.9 617.1,644.3 612.2,645 		"/>
		<polygon class="st18" points="613.5,652.3 618.4,651.6 617.3,645.9 612.4,646.5 		"/>
		<polygon class="st19" points="618.4,651.6 617.3,645.9 615.8,646.1 616.9,651.8 		"/>
		<polygon class="st20" points="617.1,644.3 617.3,645.9 615.8,646.1 615.6,644.5 		"/>
		<polygon class="st21" points="616.6,587.9 611.7,644.8 610.1,644.7 614.9,587.8 		"/>
		<polygon class="st22" points="614.9,587.8 610.1,644.6 608.4,644.5 613.3,587.7 		"/>
		<polygon class="st23" points="611.6,587.6 613.2,587.7 608.4,644.5 606.7,644.4 		"/>
		<g>
			<path class="st17" d="M613.7,581.3l1.3-4l0.6,4.1C615,581.7,614.3,581.7,613.7,581.3"/>
			<path class="st4" d="M615.6,581.5l1,6.5l-5-0.3l2.1-6.3C614.3,581.7,615,581.7,615.6,581.5"/>
		</g>
		<polygon class="st4" points="606.6,646 611.6,646.3 611.7,644.8 606.7,644.4 		"/>
		<polygon class="st18" points="606.1,651.8 611.1,652.1 611.6,646.3 606.6,646 		"/>
		<polygon class="st19" points="611.1,652.1 611.6,646.3 610,646.2 609.5,652 		"/>
		<polygon class="st20" points="611.7,644.8 611.6,646.3 610,646.2 610.2,644.7 		"/>
		<polygon class="st24" points="599.9,587 611.4,643.1 609.8,643.3 598.3,587.2 		"/>
		<polygon class="st25" points="598.3,587.2 609.8,643.3 608.1,643.6 596.6,587.5 		"/>
		<polygon class="st26" points="595,587.8 596.6,587.5 608.1,643.6 606.5,643.8 		"/>
		<g>
			<path class="st17" d="M595.2,581.3l0.1-4.2l1.8,3.9C596.5,581.3,595.9,581.4,595.2,581.3"/>
			<path class="st4" d="M597.1,581l2.8,6l-4.9,0.8l0.2-6.5C595.9,581.4,596.5,581.3,597.1,581"/>
		</g>
		<polygon class="st4" points="606.8,645.4 611.7,644.6 611.4,643.1 606.5,643.8 		"/>
		<polygon class="st18" points="608,651.1 612.9,650.3 611.7,644.6 606.8,645.4 		"/>
		<polygon class="st19" points="612.9,650.3 611.7,644.6 610.2,644.8 611.4,650.5 		"/>
		<polygon class="st20" points="611.4,643.1 611.7,644.6 610.2,644.8 609.9,643.3 		"/>
		<rect x="586.8" y="615.9" class="st27" width="42.1" height="5.5"/>
		<rect x="590.5" y="621.3" class="st8" width="34.7" height="34.3"/>
		<rect x="590.5" y="621.3" class="st28" width="34.7" height="1.6"/>
	</g>
	<g>
		<g>
			<g>
				<path class="st12" d="M742.2,648.5v-4c0.4-0.2,1.5-0.5,2.2-0.9l2.9,2.8c0.3,0.3,0.7,0.3,1,0l4.2-4c0.3-0.3,0.3-0.7,0-1l-3-2.6
					c0.4-0.7,0.7-1.5,0.9-1.9h4.2c0.4,0,0.5-0.7,0.5-1.1v-5.7c0-0.4-0.1-1.1-0.5-1.1h-4.2c-0.2-0.8-0.6-1.3-0.9-1.9l3-2.7
					c0.3-0.3,0.3-0.6,0-0.9l-4.2-4c-0.3-0.3-0.7-0.3-1,0l-2.9,2.8c-0.7-0.4-1.8-0.7-2.2-0.9v-4c0-0.4-0.4-0.8-0.8-0.8h-6
					c-0.4,0-1.1,0.4-1.1,0.8v4c-0.9,0.2-1.4,0.5-2.1,0.9l-2.9-2.8c-0.3-0.3-0.7-0.3-1,0l-4.2,4c-0.3,0.3-0.3,0.7,0,1l3,2.6
					c-0.4,0.7-0.7,1.1-0.9,1.9h-4.2c-0.4,0-0.8,0.7-0.8,1.1v5.7c0,0.4,0.4,1.1,0.8,1.1h4.2c0.2,0.4,0.6,1.3,0.9,1.9l-3,2.7
					c-0.3,0.3-0.3,0.6,0,0.9l4.2,4c0.3,0.3,0.7,0.3,1,0l2.8-2.8c0.7,0.4,1.2,0.7,2.1,0.9v4c0,0.4,0.7,0.4,1.1,0.4h6
					C741.8,648.9,742.2,648.9,742.2,648.5z"/>
			</g>
			<g>
				<path class="st6" d="M741.4,649.6h-6c-1.2,0-1.8-0.4-1.8-1V645c-0.5-0.2-0.8-0.3-1.2-0.5l-2.4,2.4c-0.6,0.5-1.5,0.5-2,0l-4.2-4
					c-0.3-0.3-0.4-0.6-0.4-0.9c0-0.3,0.1-0.7,0.4-0.9l2.6-2.4c-0.1-0.3-0.2-0.5-0.4-0.8c-0.1-0.1-0.1-0.3-0.2-0.4h-3.7
					c-0.9,0-1.5-1.1-1.5-1.7v-5.7c0-0.6,0.6-1.7,1.5-1.7h3.7c0.2-0.4,0.4-0.8,0.6-1.1l-2.6-2.3c-0.6-0.5-0.6-1.4,0-1.9l4.2-4
					c0.5-0.5,1.4-0.5,2,0l2.5,2.4c0.4-0.2,0.8-0.4,1.2-0.6v-3.5c0-0.8,1.1-1.5,1.8-1.5h6c0.8,0,1.4,0.8,1.4,1.5v3.5
					c0.1,0.1,0.3,0.1,0.5,0.2c0.3,0.1,0.6,0.2,0.9,0.4l2.6-2.5c0.5-0.5,1.5-0.5,2,0l4.2,4c0.6,0.5,0.6,1.3,0,1.8l-2.6,2.4
					c0.2,0.4,0.4,0.7,0.6,1.2h3.7c0.3,0,1.2,0.2,1.2,1.7v5.7c0,1.6-0.8,1.7-1.2,1.7H751c-0.1,0.1-0.1,0.2-0.2,0.4
					c-0.1,0.2-0.2,0.5-0.3,0.8l2.6,2.3c0.3,0.3,0.4,0.6,0.4,1c0,0.4-0.1,0.7-0.4,0.9l-4.2,4c-0.5,0.5-1.5,0.5-2,0l-2.6-2.5
					c-0.3,0.1-0.6,0.2-1,0.4c-0.2,0.1-0.3,0.1-0.4,0.2v3.5C742.9,649.2,742.4,649.6,741.4,649.6z M735.1,648.2c0.1,0,0.2,0,0.4,0h6
					c0,0,0,0,0.1,0v-3.7c0-0.2,0.1-0.5,0.4-0.6c0.2-0.1,0.6-0.2,1-0.4c0.4-0.2,0.9-0.3,1.3-0.5c0.3-0.1,0.6-0.1,0.8,0.1l2.9,2.8
					l4.3-4l-2.9-2.6c-0.2-0.2-0.3-0.5-0.1-0.8c0.2-0.3,0.4-0.8,0.5-1.1c0.1-0.3,0.3-0.6,0.4-0.8c0.1-0.2,0.4-0.3,0.6-0.3h3.9
					c0-0.1,0-0.2,0-0.4v-5.7c0-0.2,0-0.3,0-0.4h-3.9c-0.3,0-0.6-0.2-0.7-0.5c-0.2-0.6-0.4-1-0.7-1.4c-0.1-0.1-0.1-0.2-0.2-0.4
					c-0.1-0.3-0.1-0.6,0.1-0.8l2.9-2.7l-4.2-4l-3,2.8c-0.2,0.2-0.5,0.3-0.8,0.1c-0.3-0.2-0.8-0.3-1.2-0.5c-0.4-0.1-0.8-0.3-1-0.4
					c-0.2-0.1-0.4-0.3-0.4-0.6v-4c0,0-0.1-0.1-0.1-0.1h-5.9c-0.1,0-0.3,0.1-0.4,0.2v3.9c0,0.3-0.2,0.6-0.5,0.6
					c-0.6,0.2-1.1,0.4-1.6,0.7l-0.3,0.2c-0.3,0.1-0.6,0.1-0.8-0.1l-2.9-2.8l-4.2,4l3,2.6c0.2,0.2,0.3,0.5,0.1,0.8
					c-0.1,0.1-0.1,0.3-0.2,0.4c-0.3,0.5-0.5,0.8-0.7,1.4c-0.1,0.3-0.4,0.5-0.7,0.5h-4.1c-0.1,0.1-0.2,0.3-0.2,0.4v5.7
					c0,0.1,0.1,0.3,0.2,0.4h4.1c0.3,0,0.5,0.1,0.6,0.3c0.1,0.2,0.3,0.5,0.4,0.8c0.2,0.4,0.3,0.8,0.5,1.1c0.1,0.3,0.1,0.6-0.1,0.8
					l-2.9,2.7l4.2,4l2.8-2.8c0.2-0.2,0.6-0.3,0.8-0.1l0.3,0.2c0.6,0.3,1,0.5,1.6,0.7c0.3,0.1,0.5,0.3,0.5,0.6V648.2z"/>
				<path class="st6" d="M741.4,650h-6c-2,0-2.3-1-2.3-1.5v-3.1c-0.2-0.1-0.4-0.2-0.6-0.3l-2.1,2.2c-0.4,0.4-0.9,0.6-1.4,0.6
					c0,0,0,0,0,0c-0.5,0-1-0.2-1.3-0.5l-4.2-4c-0.4-0.3-0.6-0.8-0.6-1.3c0-0.5,0.2-0.9,0.6-1.3l2.3-2.1c-0.1-0.2-0.1-0.3-0.2-0.4
					l-0.1-0.1h-3.4c-1.2,0-2-1.3-2-2.2v-5.7c0-0.8,0.7-2.2,2-2.2h3.3c0.1-0.2,0.2-0.4,0.3-0.6l-2.3-2c-0.8-0.7-0.8-1.9,0-2.6l4.2-4
					c0.7-0.7,2-0.7,2.7,0l2.2,2.2c0.2-0.1,0.4-0.2,0.6-0.3v-3.2c0-1.1,1.4-2,2.3-2h6c1.2,0,2,1,2,2l0,3.2l0.1,0
					c0.2,0.1,0.4,0.2,0.6,0.2l2.3-2.2c0.4-0.3,0.9-0.5,1.4-0.5c0,0,0,0,0,0c0.5,0,1,0.2,1.3,0.5l4.2,4c0.8,0.7,0.8,1.8,0,2.5
					l-2.3,2.1c0.1,0.2,0.2,0.4,0.3,0.6h3.3c0.4,0,1.7,0.2,1.7,2.2v5.7c0,2.1-1.3,2.2-1.7,2.2l-3.4,0l0,0.1c-0.1,0.1-0.1,0.3-0.2,0.4
					l2.3,2c0.4,0.4,0.6,0.8,0.6,1.3s-0.2,0.9-0.6,1.3l-4.2,4c-0.3,0.3-0.8,0.5-1.4,0.5c0,0,0,0,0,0c-0.5,0-1-0.2-1.4-0.5l-2.4-2.2
					c-0.2,0.1-0.4,0.2-0.6,0.2l-0.1,0v3.2C743.4,649,743.2,650,741.4,650z M732.3,643.9l0.3,0.2c0.4,0.2,0.7,0.4,1.2,0.5l0.3,0.1
					v3.8c0,0.2,0,0.6,1.3,0.6h6c0.9,0,0.9-0.4,0.9-0.6v-3.9l0.7-0.3l0.3,0.4l-0.2-0.5c0.3-0.1,0.6-0.2,0.9-0.3l0.3-0.1l2.8,2.7
					c0.2,0.2,0.4,0.2,0.6,0.2c0,0,0,0,0,0c0.2,0,0.5-0.1,0.6-0.2l4.2-4c0.2-0.2,0.3-0.4,0.3-0.6c0-0.2-0.1-0.4-0.3-0.6l-2.8-2.5
					l0.2-0.3c0.1-0.2,0.2-0.5,0.3-0.7l0.3-0.7h4.1c0.6,0,0.6-0.8,0.6-1.3v-5.7c0-0.5-0.1-1.3-0.6-1.3h-4l-0.1-0.3
					c-0.2-0.4-0.3-0.7-0.5-1.1l-0.2-0.3l2.9-2.6c0.3-0.3,0.3-0.8,0-1.2l-4.2-4c-0.3-0.3-1-0.3-1.3,0l-2.8,2.7l-0.3-0.1
					c-0.3-0.1-0.6-0.2-0.9-0.3l-0.8-0.3v-3.9c0-0.4-0.4-1-0.9-1h-6c-0.5,0-1.3,0.5-1.3,1v3.8l-0.3,0.1c-0.5,0.2-0.8,0.3-1.2,0.5
					l-0.3,0.2l-2.8-2.7c-0.3-0.3-0.9-0.3-1.2,0l-4.2,4c-0.4,0.3-0.3,0.9,0,1.2l2.8,2.5l-0.2,0.3c-0.2,0.3-0.4,0.7-0.5,1.1l-0.1,0.3
					h-4c-0.5,0-1,0.8-1,1.3v5.7c0,0.4,0.4,1.3,1,1.3h4.1l0.3,0.7c0.1,0.3,0.2,0.5,0.3,0.8l0.2,0.3l-2.9,2.6
					c-0.2,0.2-0.3,0.4-0.3,0.6c0,0.2,0.1,0.4,0.3,0.6l4.2,4c0.2,0.2,0.4,0.2,0.6,0.2c0,0,0,0,0,0c0.3,0,0.5-0.1,0.7-0.3L732.3,643.9
					z M742,648.7h-6.5c-0.2,0-0.3,0-0.4,0l-0.5,0v-4.1c0-0.1-0.1-0.1-0.1-0.2c-0.7-0.2-1.2-0.4-1.7-0.7l-0.3-0.2c-0.1,0-0.2,0-0.2,0
					l-3.1,3.2l-5-4.7l3.3-3c0.1-0.1,0.1-0.1,0-0.2c-0.2-0.4-0.4-0.8-0.6-1.2c-0.1-0.3-0.3-0.6-0.4-0.8c0-0.1-0.1-0.1-0.2-0.1H722
					l-0.2-0.2c-0.1-0.1-0.3-0.5-0.4-0.7l0-5.7c0-0.3,0.2-0.6,0.4-0.8l0.2-0.2h4.3c0.1,0,0.2-0.1,0.2-0.1c0.2-0.6,0.4-1.1,0.7-1.5
					l0.2-0.4c0-0.1,0-0.2,0-0.2l-3.3-3l4.9-4.7l3.2,3.2c0.1,0.1,0.2,0.1,0.2,0l0.3-0.2c0.5-0.3,1-0.5,1.7-0.7c0.1,0,0.1-0.1,0.1-0.2
					v-4.1l0.1-0.1c0.1-0.1,0.5-0.4,0.7-0.4l6.2,0l0.1,0.1c0.1,0.1,0.3,0.3,0.3,0.5l0,4c0,0.1,0,0.1,0.1,0.2c0.2,0.1,0.5,0.2,0.9,0.4
					c0.4,0.2,0.9,0.3,1.3,0.5c0.1,0,0.2,0,0.2,0l3.3-3.2l4.9,4.7l-3.3,3c-0.1,0.1-0.1,0.1,0,0.2l0.2,0.4c0.3,0.5,0.5,0.9,0.7,1.5
					c0,0.1,0.1,0.1,0.2,0.1h4.3l0.1,0.4c0,0.1,0,0.3,0,0.5v5.7c0,0.2,0,0.4,0,0.5l-0.1,0.4h-4.3c-0.1,0-0.1,0-0.2,0.1
					c-0.1,0.2-0.2,0.5-0.4,0.8c-0.2,0.4-0.4,0.8-0.6,1.2c0,0.1,0,0.2,0,0.2l3.3,3l-5,4.7l-3.3-3.1c-0.1-0.1-0.1-0.1-0.2,0
					c-0.4,0.2-0.9,0.4-1.3,0.5c-0.4,0.1-0.7,0.3-0.9,0.4c-0.1,0-0.1,0.1-0.1,0.2V648.7z M735.6,647.7h5.4v-3.2c0-0.4,0.2-0.8,0.6-1
					c0.3-0.1,0.6-0.3,1.1-0.4c0.4-0.1,0.9-0.3,1.2-0.5c0.5-0.2,1-0.2,1.4,0.2l2.6,2.5l3.5-3.3l-2.6-2.3c-0.4-0.4-0.5-0.9-0.2-1.4
					c0.2-0.3,0.4-0.7,0.5-1.1c0.2-0.4,0.3-0.7,0.4-0.9c0.2-0.4,0.6-0.6,1.1-0.6h3.4v-5.6h-3.4c-0.5,0-1-0.3-1.2-0.8
					c-0.2-0.5-0.3-0.9-0.6-1.3l-0.2-0.4c-0.3-0.5-0.2-1,0.2-1.4l2.6-2.3l-3.5-3.3l-2.6,2.5c-0.4,0.4-0.9,0.4-1.4,0.2
					c-0.3-0.2-0.8-0.3-1.2-0.5c-0.4-0.2-0.8-0.3-1.1-0.4c-0.4-0.2-0.6-0.6-0.6-1v-3.6h-5.4v3.6c0,0.5-0.4,1-0.9,1.1
					c-0.6,0.2-1,0.4-1.5,0.6l-0.4,0.2c-0.5,0.2-1.1,0.2-1.4-0.2l-2.5-2.4l-3.5,3.3l2.6,2.3c0.4,0.4,0.5,0.9,0.2,1.4l-0.2,0.4
					c-0.3,0.5-0.5,0.8-0.6,1.3c-0.1,0.5-0.6,0.8-1.2,0.8h-3.8c0,0,0,0,0,0l0,5.5h3.8c0.4,0,0.8,0.2,1.1,0.6c0.1,0.2,0.3,0.5,0.4,0.9
					c0.2,0.4,0.3,0.7,0.5,1.1c0.3,0.4,0.2,1-0.2,1.4l-2.6,2.3l3.5,3.3l2.4-2.4c0.4-0.4,1-0.5,1.4-0.2l0.3,0.2
					c0.5,0.3,0.9,0.5,1.5,0.6c0.5,0.1,0.9,0.6,0.9,1.1V647.7z"/>
			</g>
		</g>
		<g>
			<ellipse class="st6" cx="738.3" cy="633.2" rx="5.4" ry="5.1"/>
		</g>
	</g>
	<g>
		<path class="st12" d="M689.7,620.6l2.4,9.6l3.4,3.6c0,0,0.8,2.9,0.8,3.2c0,0.3-3.1,3.3-3.1,3.3l-3.3,6.4l-0.4,4.1
			c0,0,0.7,2,1.1,1.7s6.7-0.1,7.2,0s9.1-0.2,9.3-0.3s0.7-2.2,0.7-2.9s-2-6.5-2.3-7c-0.2-0.5-3.3-5.1-3.7-5.3
			c-0.3-0.2-0.8-2.9-0.8-2.9s2.4-2,2.6-2.3c0.2-0.2,3.9-6.6,3.9-7.3c0-0.7,0.2-3.8,0.1-4.3c-0.1-0.6-0.9-1.8-1.3-1.7
			c-0.4,0.1-15.7,0.4-15.7,0.4L689.7,620.6z"/>
		<g>
			<path class="st6" d="M711,650.9h-2.1v-3.7c0-3.7-2.1-7.2-5.8-9.7c-0.5-0.3-0.8-1-0.8-1.8c0-0.8,0.3-1.5,0.8-1.8
				c3.7-2.5,5.8-5.9,5.8-9.7v-3.7h2.1c0.7,0,1.2-0.5,1.2-1.2s-0.5-1.2-1.2-1.2h-24.2c-0.7,0-1.2,0.5-1.2,1.2c0,0.7,0.5,1.2,1.2,1.2
				h2.1v3.7c0,3.7,2.1,7.2,5.8,9.7c0.5,0.3,0.8,1,0.8,1.8c0,0.8-0.3,1.5-0.8,1.8c-3.7,2.5-5.8,5.9-5.8,9.7v3.7h-2.1
				c-0.7,0-1.2,0.5-1.2,1.2s0.5,1.2,1.2,1.2H711c0.7,0,1.2-0.5,1.2-1.2S711.6,650.9,711,650.9L711,650.9z M691.2,647.1
				c0-3.9,3-6.5,4.7-7.7c1.1-0.8,1.8-2.2,1.8-3.7c0-1.6-0.7-3-1.8-3.7c-1.8-1.2-4.7-3.8-4.7-7.7v-3.7h15.3v3.7c0,3.9-3,6.5-4.7,7.7
				c-1.1,0.8-1.8,2.2-1.8,3.7c0,1.6,0.7,3,1.8,3.7c1.8,1.2,4.7,3.8,4.7,7.7v3.7h-0.4c-1-3.6-5.6-5.7-6.3-6.2c-1.6-1.1-2.5,0.5-3,0.8
				c-0.6,0.5-4.3,1.7-5.3,5.4h-0.4L691.2,647.1L691.2,647.1z M703.4,651.8l-10.2-0.9c0.8,1.3,4.5,2.4,6.3,0.9
				c1.8,1.5,2.7-0.9,3.5,0.9L703.4,651.8z M703.7,650.9"/>
			<path class="st6" d="M698.7,642.7c0.5,0,0.9-0.2,1.2-0.5c0.3-0.3,0.5-0.8,0.5-1.2c0-0.5-0.2-0.9-0.5-1.2
				c-0.3-0.3-0.8-0.5-1.2-0.5c-0.5,0-0.9,0.2-1.2,0.5c-0.3,0.3-0.5,0.8-0.5,1.2c0,0.5,0.2,0.9,0.5,1.2
				C697.8,642.5,698.3,642.7,698.7,642.7L698.7,642.7z M698.7,642.7"/>
			<path class="st6" d="M698.9,634.5c0.7,0,1.2-0.5,1.2-1.2v-2.1c0-0.7-0.5-1.2-1.2-1.2s-1.2,0.5-1.2,1.2v2.1
				C697.7,633.9,698.2,634.5,698.9,634.5L698.9,634.5z M698.9,634.5"/>
		</g>
	</g>
	<rect x="-27" y="218.9" class="st29" width="1198.8" height="572.3"/>
</g>
<g id="Layer_2">
</g>
</svg>
