<?xml version="1.0" encoding="utf-8"?>
<!-- Generator: Adobe Illustrator 19.0.0, SVG Export Plug-In . SVG Version: 6.00 Build 0)  -->
<svg version="1.1" id="Layer_1" xmlns="http://www.w3.org/2000/svg" xmlns:xlink="http://www.w3.org/1999/xlink" x="0px" y="0px"
	 viewBox="377 247.2 450 320" style="enable-background:new 377 247.2 450 320;" xml:space="preserve">
<style type="text/css">
	.st0{opacity:0.65;fill:#F8F9FA;}
	.st1{fill:#A7A9AC;}
	.st2{fill:none;}
	.st3{fill:#58595B;}
	.st4{fill:#FFFFFF;}
	.st5{fill:#6D6E71;}
	.st6{fill:#41AD49;}
	.st7{fill:#231F20;}
	.st8{fill:#D1D3D4;}
	.st9{fill:#939598;}
	.st10{fill:#F1F2F2;}
	.st11{fill:#E2F3E4;}
	.st12{fill:#96D29B;}
	.st13{fill:#BCBEC0;}
	.st14{opacity:0.86;fill:#FFFFFF;}
	.st15{opacity:0.5;}
	.st16{opacity:0.55;}
	.st17{opacity:0.95;}
	.st18{fill:#0B5C20;}
	.st19{fill:#404045;}
	.st20{fill:#363338;}
	.st21{fill:#3D3D42;}
	.st22{fill:#FAFAFA;}
	.st23{fill:#E5E8E8;}
	.st24{fill:#D1D4D4;}
	.st25{fill:#BDBFBF;}
	.st26{fill:#FF876B;}
	.st27{fill:#F2786B;}
	.st28{fill:#F27369;}
	.st29{fill:#F2F2F2;}
	.st30{fill:#D9D9DB;}
	.st31{opacity:0.8;}
	.st32{fill-rule:evenodd;clip-rule:evenodd;fill:#FFFFFF;}
	.st33{opacity:0.55;fill:#FFFFFF;enable-background:new    ;}
</style>
<g id="Layer_1_1_">
</g>
<ellipse class="st0" cx="591.3" cy="529.4" rx="206.5" ry="21"/>
<g>
	<g>
		<rect x="687.6" y="355" class="st1" width="6.1" height="22.7"/>
		<rect x="662.5" y="355" class="st1" width="6.1" height="22.7"/>
		<g>
			<line class="st2" x1="668.6" y1="355" x2="687.6" y2="377.9"/>
			
				<rect x="663.3" y="365.4" transform="matrix(-0.6386 -0.7696 0.7696 -0.6386 829.1777 1122.2621)" class="st3" width="29.7" height="2"/>
		</g>
		<g>
			<line class="st2" x1="668.6" y1="377.9" x2="687.6" y2="355"/>
			
				<rect x="677.2" y="351.6" transform="matrix(-0.7696 -0.6385 0.6385 -0.7696 966.092 1081.4331)" class="st3" width="2" height="29.7"/>
		</g>
	</g>
	<g>
		<g>
			<g>
				<path class="st4" d="M489.7,360.5h1.9c1.2,0,2.3-1.3,2.3-2.5v-13c0-1.2-1.1-2.3-2.3-2.3h-13c-1.2,0-1.8,1.1-1.8,2.3v13
					c0,1.2,0.6,2.5,1.8,2.5h1.3v27h9.8V360.5z"/>
				<path class="st5" d="M489.7,388.4h-9.8c-0.6,0-1-0.4-1-1v-26h-0.3c-1.8,0-2.8-1.8-2.8-3.5v-13c0-1.9,1.2-3.3,2.8-3.3h13
					c1.8,0,3.3,1.6,3.3,3.3v13c0,1.8-1.6,3.5-3.3,3.5h-0.9v26C490.6,388,490.2,388.4,489.7,388.4z M480.8,386.5h7.8v-26
					c0-0.6,0.4-1,1-1h1.9c0.6,0,1.3-0.8,1.3-1.5v-13c0-0.6-0.7-1.3-1.3-1.3h-13c-0.6,0-0.8,0.8-0.8,1.3v13c0,0.6,0.3,1.5,0.8,1.5
					h1.3c0.6,0,1,0.4,1,1V386.5z"/>
			</g>
		</g>
		<g>
			<g>
				<rect x="476.7" y="393.6" class="st6" width="17.2" height="28.8"/>
				<g>
					<rect x="471.2" y="385" class="st6" width="27.6" height="8.5"/>
					<path class="st6" d="M472.2,392.6h25.6V386h-25.6V392.6z"/>
				</g>
			</g>
			<g>
				<rect x="476.7" y="401.2" class="st3" width="7.3" height="2"/>
			</g>
			<g>
				<rect x="476.7" y="409.1" class="st7" width="7.3" height="2"/>
			</g>
		</g>
	</g>
	<g>
		<path class="st8" d="M519.8,374.6h5.4c0-9.8,9.8-16.5,9.8-16.5l-15.3-17.7l-15.2,17.8c0,0,9.8,6.6,9.8,16.5H519.8z"/>
		<g>
			<rect x="518.7" y="340.3" class="st3" width="2" height="16"/>
		</g>
		<g>
			<circle class="st9" cx="519.8" cy="360.1" r="3.5"/>
			<path class="st3" d="M519.8,364.5c-2.5,0-4.5-2-4.5-4.5c0-2.5,2-4.5,4.5-4.5c2.5,0,4.5,2,4.5,4.5
				C524.3,362.5,522.3,364.5,519.8,364.5z M519.8,357.6c-1.3,0-2.5,1.1-2.5,2.5c0,1.3,1.1,2.5,2.5,2.5c1.3,0,2.5-1.1,2.5-2.5
				C522.3,358.8,521.2,357.6,519.8,357.6z"/>
		</g>
		<g>
			<g>
				<rect x="508" y="437.1" class="st10" width="22.7" height="8"/>
				<path class="st7" d="M530.7,446.1H508c-0.6,0-1-0.4-1-1v-8c0-0.6,0.4-1,1-1h22.7c0.6,0,1,0.4,1,1v8
					C531.7,445.7,531.3,446.1,530.7,446.1z M509,444.1h20.7v-6H509V444.1z"/>
			</g>
			<g>
				<polygon class="st11" points="530.7,380.7 528.9,380.7 528.9,374.6 509.9,374.6 509.9,380.7 508,380.7 508,437.1 530.7,437.1 
									"/>
				<path class="st12" d="M530.7,438.1H508c-0.6,0-1-0.4-1-1v-56.4c0-0.6,0.4-1,1-1h0.8v-5.2c0-0.6,0.4-1,1-1h19c0.6,0,1,0.4,1,1
					v5.2h0.8c0.6,0,1,0.4,1,1v56.4C531.7,437.7,531.3,438.1,530.7,438.1z"/>
			</g>
		</g>
		<g>
			<rect x="509.9" y="379.8" class="st3" width="9.2" height="2"/>
		</g>
	</g>
	<g>
		<rect x="608.6" y="486.8" class="st8" width="37.4" height="25.1"/>
		<g>
			<path class="st3" d="M714,380.5c0-5.2-4.2-9.5-9.7-9.5H549.9c-5.4,0-10,4.4-10,9.5v78.1H714V380.5z"/>
			<g>
				<path class="st10" d="M539.9,458.6v20c0,5.2,4.5,8.3,9.9,8.3h153.7c5.4,0,9.6-3,9.6-8.3v-20H539.9z"/>
				<path class="st3" d="M703.5,487.8H549.8c-6.4,0-10.9-3.8-10.9-9.2v-20c0-0.6,0.4-1,1-1h173.2c0.6,0,1,0.4,1,1v20
					C714.1,484,709.7,487.8,703.5,487.8z M540.9,459.6v19c0,3.5,2.8,7.3,8.9,7.3h153.7c5.9,0,8.6-3.7,8.6-7.3v-19H540.9z"/>
			</g>
		</g>
		<circle class="st13" cx="627.1" cy="472.7" r="6.1"/>
		<g>
			<rect x="601.2" y="511.9" class="st4" width="51.5" height="6.7"/>
			<path class="st5" d="M602.2,517.2h49.5v-7.3h-49.5V517.2z"/>
		</g>
		<g>
			<rect x="550.9" y="381.3" class="st14" width="152" height="77.2"/>
			<path class="st3" d="M702.9,459.6h-152c-0.6,0-1-0.4-1-1v-77.3c0-0.6,0.4-1,1-1h152c0.6,0,1,0.4,1,1v77.2
				C703.9,459.2,703.5,459.6,702.9,459.6z M551.9,457.6H702v-75.3H551.9V457.6z"/>
		</g>
		<g class="st15">
			<rect x="561.4" y="391.8" class="st4" width="131.8" height="19.6"/>
			<rect x="561.4" y="416.3" class="st4" width="87" height="17.2"/>
			<rect x="657.6" y="416.3" class="st4" width="35" height="17.2"/>
			<rect x="561.4" y="439" class="st4" width="131.2" height="8"/>
		</g>
	</g>
	<g>
		<rect x="561.4" y="389.3" class="st13" width="129.3" height="30.7"/>
	</g>
	<g>
		<path class="st5" d="M601.8,413c0-3.6-3.2-5.9-6.8-5.9H468.4c-3.6,0-7,2.3-7,5.9v92.2h140.4L601.8,413L601.8,413z"/>
		<g>
			<path class="st10" d="M450.4,505.2v7.1c0,3.6,4.3,6.4,8.4,6.4h145.8c4.2,0,8.2-2.8,8.2-6.4v-7.1H450.4z"/>
			<path class="st5" d="M604.6,519.6H458.8c-4.5,0-9.4-3-9.4-7.4v-7.1c0-0.6,0.4-1,1-1h162.5c0.6,0,1,0.4,1,1v7.1c0,2-1.1,3.9-3,5.4
				C609.1,518.9,606.9,519.6,604.6,519.6z M451.4,506.1v6.1c0,3,4,5.4,7.4,5.4h145.8c3.8,0,7.2-2.6,7.2-5.4v-6.1H451.4z"/>
		</g>
		<g>
			<rect x="470.7" y="414.4" class="st14" width="122" height="82.2"/>
			<path class="st3" d="M592.6,497.6H470.7c-0.6,0-1-0.4-1-1v-82.2c0-0.6,0.4-1,1-1h122c0.6,0,1,0.4,1,1v82.2
				C593.6,497.2,593.2,497.6,592.6,497.6z M471.6,495.6h120v-80.2h-120V495.6z"/>
		</g>
		<g>
			<rect x="523.9" y="511.6" class="st7" width="16" height="2"/>
		</g>
		<g class="st16">
			<rect x="571.8" y="424.9" class="st13" width="11.7" height="19.6"/>
			<rect x="481.7" y="424.9" class="st13" width="84" height="19.6"/>
			<rect x="481.7" y="450.6" class="st13" width="23.3" height="19.6"/>
			<rect x="509.2" y="450.6" class="st13" width="71.7" height="19.6"/>
			<rect x="481.7" y="477" class="st13" width="99.3" height="9.2"/>
		</g>
	</g>
	<g>
		<g>
			<g>
				<path class="st7" d="M560.2,478.5l-4.9-4.9c-0.2-0.2-0.3-0.4-0.3-0.7s0.1-0.5,0.3-0.7l4.9-4.9l1.4,1.4l-4.2,4.2l4.2,4.2
					L560.2,478.5z"/>
			</g>
			<g>
				<path class="st7" d="M575.4,478.5l-1.4-1.4l4.2-4.2l-4.2-4.2l1.4-1.4l4.9,4.9c0.2,0.2,0.3,0.4,0.3,0.7s-0.1,0.5-0.3,0.7
					L575.4,478.5z"/>
			</g>
			<g>
				
					<rect x="566.4" y="465.9" transform="matrix(-0.9031 -0.4294 0.4294 -0.9031 876.7072 1143.5988)" class="st7" width="2" height="13.9"/>
			</g>
		</g>
	</g>
	<g>
		<g>
			<rect x="487.8" y="451.5" class="st7" width="64.4" height="2"/>
		</g>
		<g>
			<rect x="517.2" y="450" class="st9" width="6.1" height="5.5"/>
			<path class="st7" d="M523.4,456.5h-6.1c-0.6,0-1-0.4-1-1V450c0-0.6,0.4-1,1-1h6.1c0.6,0,1,0.4,1,1v5.5
				C524.4,456.1,523.9,456.5,523.4,456.5z M518.2,454.6h4.2V451h-4.2V454.6z"/>
		</g>
		<g>
			<rect x="481.7" y="450" class="st9" width="6.1" height="6.1"/>
			<path class="st7" d="M487.8,457.1h-6.1c-0.6,0-1-0.4-1-1V450c0-0.6,0.4-1,1-1h6.1c0.6,0,1,0.4,1,1v6.1
				C488.7,456.7,488.3,457.1,487.8,457.1z M482.7,455.1h4.2V451h-4.2V455.1z"/>
		</g>
		<g>
			<rect x="552.2" y="450" class="st9" width="6.7" height="5.5"/>
			<path class="st7" d="M558.9,456.5h-6.7c-0.6,0-1-0.4-1-1V450c0-0.6,0.4-1,1-1h6.7c0.6,0,1,0.4,1,1v5.5
				C559.9,456.1,559.5,456.5,558.9,456.5z M553.2,454.6h4.8V451h-4.8V454.6z"/>
		</g>
		<g>
			<path class="st7" d="M523.7,453.5C523.6,453.5,523.6,453.5,523.7,453.5v-2l0,0c0.2,0,10.9-0.1,18-7.1c4.2-4.2,6.3-10,6.3-17.2h2
				c0,7.8-2.3,14.1-6.9,18.6C535.5,453.4,524.5,453.5,523.7,453.5z"/>
		</g>
		<g>
			<path class="st7" d="M517.3,453.5c-0.8,0-11.8-0.1-19.4-7.7c-4.6-4.5-6.9-10.8-6.9-18.6h2c0,7.3,2.1,13.1,6.4,17.2
				c7.1,7.1,17.7,7.1,18,7.1l0,0L517.3,453.5C517.4,453.5,517.3,453.5,517.3,453.5z"/>
		</g>
		<g>
			<rect x="545.4" y="424.9" class="st9" width="6.7" height="6.1"/>
			<path class="st7" d="M552.2,432h-6.7c-0.6,0-1-0.4-1-1v-6.1c0-0.6,0.4-1,1-1h6.7c0.6,0,1,0.4,1,1v6.1
				C553.2,431.5,552.7,432,552.2,432z M546.4,430h4.8v-4.2h-4.8V430z"/>
		</g>
		<g>
			<rect x="488.4" y="424.9" class="st9" width="6.7" height="5.5"/>
			<path class="st7" d="M495.2,431.4h-6.7c-0.6,0-1-0.4-1-1v-5.5c0-0.6,0.4-1,1-1h6.7c0.6,0,1,0.4,1,1v5.5
				C496.2,430.9,495.7,431.4,495.2,431.4z M489.4,429.4h4.8v-3.5h-4.8V429.4z"/>
		</g>
	</g>
	<g>
		<rect x="492.1" y="469.3" class="st7" width="22.7" height="2"/>
	</g>
	<g>
		<rect x="520.3" y="469.3" class="st7" width="9.8" height="2"/>
	</g>
	<g>
		<rect x="492.1" y="476" class="st7" width="47.8" height="2"/>
	</g>
	<g>
		<rect x="616.5" y="412.3" class="st7" width="5.5" height="2"/>
	</g>
	<g>
		<rect x="628.8" y="412.3" class="st7" width="5.5" height="2"/>
	</g>
	<g>
		<rect x="641.7" y="412.3" class="st7" width="5.5" height="2"/>
	</g>
	<g>
		<g>
			<rect x="652" y="427.7" class="st4" width="37.4" height="29.8"/>
			<path class="st7" d="M689.4,458.3H652c-0.4,0-0.8-0.4-0.8-0.8v-29.8c0-0.4,0.4-0.8,0.8-0.8h37.4c0.4,0,0.8,0.4,0.8,0.8v29.8
				C690.2,457.9,689.8,458.3,689.4,458.3z M652.8,456.7h35.7v-28.2h-35.7V456.7z"/>
		</g>
		<rect x="655" y="431.3" class="st13" width="31.8" height="23.2"/>
		<g>
			<path class="st7" d="M680.2,447.7l-12.4-7.1l-12.6,6.6l-0.8-1.4l13-6.8c0.2-0.1,0.6-0.1,0.8,0l12.7,7.3L680.2,447.7z"/>
		</g>
		<g>
			<path class="st7" d="M685.9,444.5l-5.9-3.9l-4.2,3.8l-1.1-1.2l4.7-4.2c0.3-0.2,0.7-0.3,1-0.1l6.5,4.2L685.9,444.5z"/>
		</g>
		<circle class="st4" cx="673.5" cy="435.6" r="3"/>
	</g>
	<rect x="608.6" y="429.8" class="st4" width="30" height="6.1"/>
	<rect x="608.6" y="439" class="st4" width="30" height="14.1"/>
	<g>
		<rect x="616.5" y="431.8" class="st7" width="19.6" height="2"/>
	</g>
	<g>
		<rect x="611.6" y="442.3" class="st7" width="24.5" height="2"/>
	</g>
	<g>
		<rect x="611.6" y="447.8" class="st7" width="24.5" height="2"/>
	</g>
	<g>
		<g>
			<polygon class="st12" points="695,359.5 587.7,359.5 587.7,344.2 641.4,344.2 695,344.2 			"/>
			<path class="st3" d="M693.8,360.9H586.5c-0.6,0-1-0.4-1-1v-15.3c0-0.6,0.4-1,1-1h107.3c0.6,0,1,0.4,1,1v15.3
				C694.7,360.4,694.3,360.9,693.8,360.9z M587.5,358.9h105.3v-13.4H587.5V358.9z"/>
		</g>
		<g>
			<line class="st2" x1="639.9" y1="352.6" x2="639.9" y2="344.6"/>
			<rect x="638.9" y="344.6" class="st3" width="2" height="8"/>
		</g>
		<g>
			<line class="st2" x1="652.1" y1="352.6" x2="652.1" y2="344.6"/>
			<rect x="651.1" y="344.6" class="st3" width="2" height="8"/>
		</g>
		<g>
			<line class="st2" x1="664.4" y1="352.6" x2="664.4" y2="344.6"/>
			<rect x="663.4" y="344.6" class="st3" width="2" height="8"/>
		</g>
		<g>
			<line class="st2" x1="676.6" y1="352.6" x2="676.6" y2="344.6"/>
			<rect x="675.6" y="344.6" class="st3" width="2" height="8"/>
		</g>
		<g>
			<line class="st2" x1="627.6" y1="352.6" x2="627.6" y2="344.6"/>
			<rect x="626.6" y="344.6" class="st7" width="2" height="8"/>
		</g>
		<g>
			<line class="st2" x1="615.3" y1="352.6" x2="615.3" y2="344.6"/>
			<rect x="614.4" y="344.6" class="st3" width="2" height="8"/>
		</g>
		<g>
			<line class="st2" x1="603" y1="352.6" x2="603" y2="344.6"/>
			<rect x="602.1" y="344.6" class="st3" width="2" height="8"/>
		</g>
	</g>
	<rect x="621.4" y="343.3" class="st10" width="11.7" height="44.7"/>
	<g>
		<rect x="625.9" y="343.3" class="st3" width="2" height="46"/>
	</g>
	<g class="st17">
		<g>
			<rect x="639.9" y="449.5" class="st4" width="40.8" height="32.5"/>
			<path class="st7" d="M681.4,482.9h-40.8c-0.5,0-0.8-0.4-0.8-0.8v-32.5c0-0.5,0.4-0.8,0.8-0.8h40.8c0.5,0,0.8,0.4,0.8,0.8v32.5
				C682.3,482.5,681.9,482.9,681.4,482.9z M641.5,481.2h39v-30.7h-39V481.2z"/>
		</g>
		<g>
			<rect x="646.7" y="454.1" class="st9" width="28.3" height="6.2"/>
			<g>
				<rect x="646.7" y="460.3" class="st4" width="28.3" height="15.9"/>
				<path class="st13" d="M675,476.6h-28.3c-0.2,0-0.4-0.2-0.4-0.4v-15.9c0-0.2,0.2-0.4,0.4-0.4H675c0.2,0,0.4,0.2,0.4,0.4v15.9
					C675.4,476.5,675.2,476.6,675,476.6z M647.1,475.8h27.5v-15h-27.5V475.8z"/>
			</g>
			<g>
				<rect x="647.9" y="455.7" class="st4" width="3.7" height="0.8"/>
			</g>
			<g>
				<rect x="647.9" y="457.4" class="st4" width="3.7" height="0.8"/>
			</g>
			<g>
				<path class="st4" d="M671.9,458.3c-0.1,0-0.2-0.1-0.3-0.1l-1.2-1.2l0.6-0.6l0.9,0.9l1.1-0.9l0.6,0.6l-1.3,1.2
					C672.1,458.3,672.1,458.3,671.9,458.3z"/>
			</g>
			<g>
				<rect x="646.7" y="465.3" class="st13" width="28.3" height="0.8"/>
			</g>
			<g>
				<rect x="646.7" y="470.4" class="st13" width="28.3" height="0.8"/>
			</g>
			<g>
				<rect x="648.9" y="462.6" class="st8" width="17.4" height="1"/>
				<rect x="667.3" y="462.6" class="st8" width="5.2" height="1"/>
			</g>
			<g>
				<rect x="648.9" y="467.5" class="st8" width="17.4" height="1"/>
				<rect x="667.3" y="467.5" class="st8" width="5.2" height="1"/>
			</g>
			<g>
				<rect x="648.9" y="472.5" class="st8" width="17.4" height="1"/>
				<rect x="667.3" y="472.5" class="st8" width="5.2" height="1"/>
			</g>
		</g>
	</g>
	<g>
		<g>
			<g>
				<path class="st12" d="M718.4,524.3v-3.1c0.3-0.2,1.2-0.4,1.7-0.7l2.3,2.2c0.2,0.2,0.6,0.2,0.8,0l3.3-3.1c0.2-0.2,0.2-0.6,0-0.8
					l-2.4-2c0.3-0.6,0.6-1.2,0.7-1.5h3.3c0.3,0,0.4-0.6,0.4-0.9v-4.5c0-0.3-0.1-0.9-0.4-0.9h-3.3c-0.2-0.6-0.5-1-0.7-1.5l2.4-2.1
					c0.2-0.2,0.2-0.5,0-0.7l-3.3-3.1c-0.2-0.2-0.6-0.2-0.8,0l-2.3,2.2c-0.6-0.3-1.4-0.6-1.7-0.7v-3.1c0-0.3-0.3-0.6-0.6-0.6H713
					c-0.3,0-0.9,0.3-0.9,0.6v3.1c-0.7,0.2-1.1,0.4-1.7,0.7l-2.3-2.2c-0.2-0.2-0.6-0.2-0.8,0l-3.3,3.1c-0.2,0.2-0.2,0.6,0,0.8l2.4,2
					c-0.3,0.6-0.6,0.9-0.7,1.5h-3.3c-0.3,0-0.6,0.6-0.6,0.9v4.5c0,0.3,0.3,0.9,0.6,0.9h3.3c0.2,0.3,0.5,1,0.7,1.5l-2.4,2.1
					c-0.2,0.2-0.2,0.5,0,0.7l3.3,3.1c0.2,0.2,0.6,0.2,0.8,0l2.2-2.2c0.6,0.3,0.9,0.6,1.7,0.7v3.1c0,0.3,0.6,0.3,0.9,0.3h4.7
					C718.1,524.6,718.4,524.6,718.4,524.3z"/>
			</g>
			<g>
				<path class="st6" d="M717.8,525.2H713c-0.9,0-1.4-0.3-1.4-0.8v-2.8c-0.4-0.2-0.6-0.2-0.9-0.4l-1.9,1.9c-0.5,0.4-1.2,0.4-1.6,0
					l-3.3-3.1c-0.2-0.2-0.3-0.5-0.3-0.7c0-0.2,0.1-0.6,0.3-0.7l2-1.9c-0.1-0.2-0.2-0.4-0.3-0.6c-0.1-0.1-0.1-0.2-0.2-0.3h-2.9
					c-0.7,0-1.2-0.9-1.2-1.3v-4.5c0-0.5,0.5-1.3,1.2-1.3h2.9c0.2-0.3,0.3-0.6,0.5-0.9l-2-1.8c-0.5-0.4-0.5-1.1,0-1.5l3.3-3.1
					c0.4-0.4,1.1-0.4,1.6,0l2,1.9c0.3-0.2,0.6-0.3,0.9-0.5v-2.8c0-0.6,0.9-1.2,1.4-1.2h4.7c0.6,0,1.1,0.6,1.1,1.2v2.8
					c0.1,0.1,0.2,0.1,0.4,0.2c0.2,0.1,0.5,0.2,0.7,0.3l2-2c0.4-0.4,1.2-0.4,1.6,0l3.3,3.1c0.5,0.4,0.5,1,0,1.4l-2,1.9
					c0.2,0.3,0.3,0.6,0.5,0.9h2.9c0.2,0,0.9,0.2,0.9,1.3v4.5c0,1.3-0.6,1.3-0.9,1.3h-3c-0.1,0.1-0.1,0.2-0.2,0.3
					c-0.1,0.2-0.2,0.4-0.2,0.6l2,1.8c0.2,0.2,0.3,0.5,0.3,0.8s-0.1,0.6-0.3,0.7l-3.3,3.1c-0.4,0.4-1.2,0.4-1.6,0l-2-2
					c-0.2,0.1-0.5,0.2-0.8,0.3c-0.2,0.1-0.2,0.1-0.3,0.2v2.8C718.9,524.9,718.5,525.2,717.8,525.2z M712.8,524.1c0.1,0,0.2,0,0.3,0
					h4.7c0,0,0,0,0.1,0v-2.9c0-0.2,0.1-0.4,0.3-0.5c0.2-0.1,0.5-0.2,0.8-0.3c0.3-0.2,0.7-0.2,1-0.4c0.2-0.1,0.5-0.1,0.6,0.1l2.3,2.2
					l3.4-3.1l-2.3-2c-0.2-0.2-0.2-0.4-0.1-0.6c0.2-0.2,0.3-0.6,0.4-0.9c0.1-0.2,0.2-0.5,0.3-0.6c0.1-0.2,0.3-0.2,0.5-0.2h3.1
					c0-0.1,0-0.2,0-0.3v-4.5c0-0.2,0-0.2,0-0.3h-3.1c-0.2,0-0.5-0.2-0.6-0.4c-0.2-0.5-0.3-0.8-0.6-1.1c-0.1-0.1-0.1-0.2-0.2-0.3
					c-0.1-0.2-0.1-0.5,0.1-0.6l2.3-2.1l-3.3-3.1l-2.4,2.2c-0.2,0.2-0.4,0.2-0.6,0.1c-0.2-0.2-0.6-0.2-0.9-0.4
					c-0.3-0.1-0.6-0.2-0.8-0.3c-0.2-0.1-0.3-0.2-0.3-0.5v-3.1l-0.1-0.1h-4.6c-0.1,0-0.2,0.1-0.3,0.2v3.1c0,0.2-0.2,0.5-0.4,0.5
					c-0.5,0.2-0.9,0.3-1.3,0.6l-0.2,0.2c-0.2,0.1-0.5,0.1-0.6-0.1l-2.3-2.2l-3.3,3.1l2.4,2c0.2,0.2,0.2,0.4,0.1,0.6
					c-0.1,0.1-0.1,0.2-0.2,0.3c-0.2,0.4-0.4,0.6-0.6,1.1c-0.1,0.2-0.3,0.4-0.6,0.4h-3.2c-0.1,0.1-0.2,0.2-0.2,0.3v4.5
					c0,0.1,0.1,0.2,0.2,0.3h3.2c0.2,0,0.4,0.1,0.5,0.2c0.1,0.2,0.2,0.4,0.3,0.6c0.2,0.3,0.2,0.6,0.4,0.9c0.1,0.2,0.1,0.5-0.1,0.6
					l-2.3,2.1l3.3,3.1l2.2-2.2c0.2-0.2,0.5-0.2,0.6-0.1l0.2,0.2c0.5,0.2,0.8,0.4,1.3,0.6c0.2,0.1,0.4,0.2,0.4,0.5L712.8,524.1
					L712.8,524.1z"/>
				<path class="st6" d="M717.8,525.5H713c-1.6,0-1.8-0.8-1.8-1.2v-2.4c-0.2-0.1-0.3-0.2-0.5-0.2l-1.7,1.7c-0.3,0.3-0.7,0.5-1.1,0.5
					l0,0c-0.4,0-0.8-0.2-1-0.4l-3.3-3.1c-0.3-0.2-0.5-0.6-0.5-1s0.2-0.7,0.5-1l1.8-1.7c-0.1-0.2-0.1-0.2-0.2-0.3l-0.1-0.1h-2.7
					c-0.9,0-1.6-1-1.6-1.7V510c0-0.6,0.6-1.7,1.6-1.7h2.6c0.1-0.2,0.2-0.3,0.2-0.5l-1.8-1.6c-0.6-0.6-0.6-1.5,0-2l3.3-3.1
					c0.6-0.6,1.6-0.6,2.1,0l1.7,1.7c0.2-0.1,0.3-0.2,0.5-0.2V500c0-0.9,1.1-1.6,1.8-1.6h4.7c0.9,0,1.6,0.8,1.6,1.6v2.5h0.1
					c0.2,0.1,0.3,0.2,0.5,0.2l1.8-1.7c0.3-0.2,0.7-0.4,1.1-0.4l0,0c0.4,0,0.8,0.2,1,0.4l3.3,3.1c0.6,0.6,0.6,1.4,0,2l-1.8,1.7
					c0.1,0.2,0.2,0.3,0.2,0.5h2.6c0.3,0,1.3,0.2,1.3,1.7v4.5c0,1.7-1,1.7-1.3,1.7h-2.7v0.1c-0.1,0.1-0.1,0.2-0.2,0.3l1.8,1.6
					c0.3,0.3,0.5,0.6,0.5,1s-0.2,0.7-0.5,1l-3.3,3.1c-0.2,0.2-0.6,0.4-1.1,0.4l0,0c-0.4,0-0.8-0.2-1.1-0.4l-1.9-1.7
					c-0.2,0.1-0.3,0.2-0.5,0.2h-0.1v2.5C719.3,524.7,719.2,525.5,717.8,525.5z M710.6,520.7l0.2,0.2c0.3,0.2,0.6,0.3,0.9,0.4
					l0.2,0.1v3c0,0.2,0,0.5,1,0.5h4.7c0.7,0,0.7-0.3,0.7-0.5v-3.1l0.6-0.2l0.2,0.3l-0.2-0.4c0.2-0.1,0.5-0.2,0.7-0.2l0.2-0.1
					l2.2,2.1c0.2,0.2,0.3,0.2,0.5,0.2l0,0c0.2,0,0.4-0.1,0.5-0.2l3.3-3.1c0.2-0.2,0.2-0.3,0.2-0.5s-0.1-0.3-0.2-0.5l-2.2-2l0.2-0.2
					c0.1-0.2,0.2-0.4,0.2-0.6l0.2-0.6h3.2c0.5,0,0.5-0.6,0.5-1v-4.5c0-0.4-0.1-1-0.5-1H725l-0.1-0.2c-0.2-0.3-0.2-0.6-0.4-0.9
					l-0.2-0.2l2.3-2c0.2-0.2,0.2-0.6,0-0.9l-3.3-3.1c-0.2-0.2-0.8-0.2-1,0l-2.2,2.1l-0.2-0.1c-0.2-0.1-0.5-0.2-0.7-0.2l-0.6-0.2
					v-3.1c0-0.3-0.3-0.8-0.7-0.8h-4.7c-0.4,0-1,0.4-1,0.8v3l-0.2,0.1c-0.4,0.2-0.6,0.2-0.9,0.4l-0.2,0.2l-2.2-2.1
					c-0.2-0.2-0.7-0.2-0.9,0l-3.3,3.1c-0.3,0.2-0.2,0.7,0,0.9l2.2,2l-0.2,0.2c-0.2,0.2-0.3,0.6-0.4,0.9l-0.1,0.2h-3.1
					c-0.4,0-0.8,0.6-0.8,1v4.5c0,0.3,0.3,1,0.8,1h3.2l0.2,0.6c0.1,0.2,0.2,0.4,0.2,0.6l0.2,0.2l-2.3,2c-0.2,0.2-0.2,0.3-0.2,0.5
					c0,0.2,0.1,0.3,0.2,0.5l3.3,3.1c0.2,0.2,0.3,0.2,0.5,0.2l0,0c0.2,0,0.4-0.1,0.6-0.2L710.6,520.7z M718.2,524.5h-5.1
					c-0.2,0-0.2,0-0.3,0h-0.4v-3.2c0-0.1-0.1-0.1-0.1-0.2c-0.6-0.2-0.9-0.3-1.3-0.6l-0.2-0.2c-0.1,0-0.2,0-0.2,0l-2.4,2.5l-3.9-3.7
					l2.6-2.4c0.1-0.1,0.1-0.1,0-0.2c-0.2-0.3-0.3-0.6-0.5-0.9c-0.1-0.2-0.2-0.5-0.3-0.6c0-0.1-0.1-0.1-0.2-0.1h-3.4l-0.2-0.2
					c-0.1-0.1-0.2-0.4-0.3-0.6v-4.5c0-0.2,0.2-0.5,0.3-0.6l0.2-0.2h3.4c0.1,0,0.2-0.1,0.2-0.1c0.2-0.5,0.3-0.9,0.6-1.2l0.2-0.3
					c0-0.1,0-0.2,0-0.2l-2.6-2.4l3.9-3.7l2.5,2.5c0.1,0.1,0.2,0.1,0.2,0l0.2-0.2c0.4-0.2,0.8-0.4,1.3-0.6c0.1,0,0.1-0.1,0.1-0.2
					v-3.2l0.1-0.1c0.1-0.1,0.4-0.3,0.6-0.3h4.9l0.1,0.1c0.1,0.1,0.2,0.2,0.2,0.4v3.1c0,0.1,0,0.1,0.1,0.2c0.2,0.1,0.4,0.2,0.7,0.3
					c0.3,0.2,0.7,0.2,1,0.4c0.1,0,0.2,0,0.2,0l2.6-2.5l3.9,3.7l-2.6,2.4c-0.1,0.1-0.1,0.1,0,0.2l0.2,0.3c0.2,0.4,0.4,0.7,0.6,1.2
					c0,0.1,0.1,0.1,0.2,0.1h3.4l0.1,0.3c0,0.1,0,0.2,0,0.4v4.5c0,0.2,0,0.3,0,0.4l-0.1,0.3h-3.4c-0.1,0-0.1,0-0.2,0.1
					c-0.1,0.2-0.2,0.4-0.3,0.6c-0.2,0.3-0.3,0.6-0.5,0.9c0,0.1,0,0.2,0,0.2l2.6,2.4l-3.9,3.7l-2.6-2.4c-0.1-0.1-0.1-0.1-0.2,0
					c-0.3,0.2-0.7,0.3-1,0.4s-0.6,0.2-0.7,0.3c-0.1,0-0.1,0.1-0.1,0.2v3.2H718.2z M713.2,523.7h4.2v-2.5c0-0.3,0.2-0.6,0.5-0.8
					c0.2-0.1,0.5-0.2,0.9-0.3c0.3-0.1,0.7-0.2,0.9-0.4c0.4-0.2,0.8-0.2,1.1,0.2l2,2l2.8-2.6l-2-1.8c-0.3-0.3-0.4-0.7-0.2-1.1
					c0.2-0.2,0.3-0.6,0.4-0.9c0.2-0.3,0.2-0.6,0.3-0.7c0.2-0.3,0.5-0.5,0.9-0.5h2.7v-4.4H725c-0.4,0-0.8-0.2-0.9-0.6
					c-0.2-0.4-0.2-0.7-0.5-1l-0.2-0.3c-0.2-0.4-0.2-0.8,0.2-1.1l2-1.8l-2.8-2.6l-2,2c-0.3,0.3-0.7,0.3-1.1,0.2
					c-0.2-0.2-0.6-0.2-0.9-0.4s-0.6-0.2-0.9-0.3c-0.3-0.2-0.5-0.5-0.5-0.8v-2.8h-4.2v2.8c0,0.4-0.3,0.8-0.7,0.9
					c-0.5,0.2-0.8,0.3-1.2,0.5l-0.3,0.2c-0.4,0.2-0.9,0.2-1.1-0.2l-2-1.9l-2.8,2.6l2,1.8c0.3,0.3,0.4,0.7,0.2,1.1l-0.2,0.3
					c-0.2,0.4-0.4,0.6-0.5,1c-0.1,0.4-0.5,0.6-0.9,0.6h-3l0,0v4.3h3c0.3,0,0.6,0.2,0.9,0.5c0.1,0.2,0.2,0.4,0.3,0.7
					c0.2,0.3,0.2,0.6,0.4,0.9c0.2,0.3,0.2,0.8-0.2,1.1l-2,1.8l2.8,2.6l1.9-1.9c0.3-0.3,0.8-0.4,1.1-0.2l0.2,0.2
					c0.4,0.2,0.7,0.4,1.2,0.5c0.4,0.1,0.7,0.5,0.7,0.9v2.4H713.2z"/>
			</g>
		</g>
		<g>
			<ellipse class="st6" cx="715.3" cy="512.3" rx="4.2" ry="4"/>
		</g>
	</g>
	<g>
		<path class="st12" d="M677.1,502.4l1.9,7.6l2.7,2.8c0,0,0.6,2.3,0.6,2.5c0,0.2-2.4,2.6-2.4,2.6l-2.6,5l-0.3,3.2
			c0,0,0.6,1.6,0.9,1.3c0.3-0.2,5.3-0.1,5.7,0s7.2-0.2,7.3-0.2c0.2-0.1,0.6-1.7,0.6-2.3c0-0.6-1.6-5.1-1.8-5.5
			c-0.2-0.4-2.6-4-2.9-4.2c-0.2-0.2-0.6-2.3-0.6-2.3s1.9-1.6,2-1.8c0.2-0.2,3.1-5.2,3.1-5.7c0-0.6,0.2-3,0.1-3.4
			c-0.1-0.5-0.7-1.4-1-1.3c-0.3,0.1-12.4,0.3-12.4,0.3L677.1,502.4z"/>
		<g>
			<path class="st6" d="M693.8,526.2h-1.7v-2.9c0-2.9-1.7-5.7-4.6-7.6c-0.4-0.2-0.6-0.8-0.6-1.4c0-0.6,0.2-1.2,0.6-1.4
				c2.9-2,4.6-4.6,4.6-7.6v-2.9h1.7c0.6,0,0.9-0.4,0.9-0.9s-0.4-0.9-0.9-0.9h-19c-0.6,0-0.9,0.4-0.9,0.9s0.4,0.9,0.9,0.9h1.7v2.9
				c0,2.9,1.7,5.7,4.6,7.6c0.4,0.2,0.6,0.8,0.6,1.4c0,0.6-0.2,1.2-0.6,1.4c-2.9,2-4.6,4.6-4.6,7.6v2.9h-1.7c-0.6,0-0.9,0.4-0.9,0.9
				c0,0.6,0.4,0.9,0.9,0.9h19c0.6,0,0.9-0.4,0.9-0.9C694.8,526.6,694.3,526.2,693.8,526.2L693.8,526.2z M678.3,523.2
				c0-3.1,2.4-5.1,3.7-6.1c0.9-0.6,1.4-1.7,1.4-2.9c0-1.3-0.6-2.4-1.4-2.9c-1.4-0.9-3.7-3-3.7-6.1v-2.9h12v2.9
				c0,3.1-2.4,5.1-3.7,6.1c-0.9,0.6-1.4,1.7-1.4,2.9c0,1.3,0.6,2.4,1.4,2.9c1.4,0.9,3.7,3,3.7,6.1v2.9H690c-0.8-2.8-4.4-4.5-5-4.9
				c-1.3-0.9-2,0.4-2.4,0.6c-0.5,0.4-3.4,1.3-4.2,4.2h-0.3L678.3,523.2L678.3,523.2z M687.9,526.9l-8-0.7c0.6,1,3.5,1.9,5,0.7
				c1.4,1.2,2.1-0.7,2.8,0.7L687.9,526.9z"/>
			<path class="st6" d="M684.2,519.8c0.4,0,0.7-0.2,0.9-0.4c0.2-0.2,0.4-0.6,0.4-0.9c0-0.4-0.2-0.7-0.4-0.9
				c-0.2-0.2-0.6-0.4-0.9-0.4c-0.4,0-0.7,0.2-0.9,0.4c-0.2,0.2-0.4,0.6-0.4,0.9c0,0.4,0.2,0.7,0.4,0.9
				C683.5,519.6,683.8,519.8,684.2,519.8L684.2,519.8z"/>
			<path class="st6" d="M684.3,513.3c0.6,0,0.9-0.4,0.9-0.9v-1.7c0-0.6-0.4-0.9-0.9-0.9c-0.6,0-0.9,0.4-0.9,0.9v1.7
				C683.4,512.8,683.8,513.3,684.3,513.3L684.3,513.3z"/>
		</g>
	</g>
</g>
<g id="Layer_2">
</g>
<g>
	<g>
		<polygon class="st12" points="458.9,476.1 467.3,522.6 466,522.7 457.6,476.4 		"/>
		<polygon class="st6" points="457.6,476.4 466,522.7 464.6,523 456.3,476.5 		"/>
		<polygon class="st18" points="454.9,476.7 456.3,476.5 464.6,523 463.3,523.1 		"/>
		<g>
			<path class="st19" d="M455.2,471.4l0.2-3.5l1.4,3.2C456.3,471.4,455.8,471.5,455.2,471.4"/>
			<path class="st4" d="M456.8,471.1l2.1,5l-4,0.6l0.3-5.4C455.8,471.5,456.3,471.4,456.8,471.1"/>
		</g>
		<polygon class="st4" points="463.5,524.4 467.5,523.9 467.3,522.6 463.3,523.1 		"/>
		<polygon class="st20" points="464.4,529.1 468.4,528.6 467.5,523.9 463.5,524.4 		"/>
		<polygon class="st21" points="468.4,528.6 467.5,523.9 466.3,524 467.2,528.7 		"/>
		<polygon class="st22" points="467.3,522.6 467.5,523.9 466.3,524 466.1,522.7 		"/>
		<polygon class="st23" points="466.9,476.1 462.9,523 461.6,522.9 465.5,476 		"/>
		<polygon class="st24" points="465.5,476 461.6,522.8 460.2,522.7 464.2,475.9 		"/>
		<polygon class="st25" points="462.8,475.8 464.1,475.9 460.2,522.7 458.8,522.6 		"/>
		<g>
			<path class="st19" d="M464.5,470.6l1.1-3.3l0.5,3.4C465.6,470.9,465,470.9,464.5,470.6"/>
			<path class="st4" d="M466.1,470.8l0.8,5.4l-4.1-0.2l1.7-5.2C465,470.9,465.6,470.9,466.1,470.8"/>
		</g>
		<polygon class="st4" points="458.7,524 462.8,524.2 462.9,523 458.8,522.6 		"/>
		<polygon class="st20" points="458.3,528.7 462.4,529 462.8,524.2 458.7,524 		"/>
		<polygon class="st21" points="462.4,529 462.8,524.2 461.5,524.1 461.1,528.9 		"/>
		<polygon class="st22" points="462.9,523 462.8,524.2 461.5,524.1 461.7,522.9 		"/>
		<polygon class="st26" points="453.2,475.3 462.7,521.6 461.3,521.7 451.9,475.5 		"/>
		<polygon class="st27" points="451.9,475.5 461.3,521.7 459.9,522 450.4,475.7 		"/>
		<polygon class="st28" points="449.1,476 450.4,475.7 459.9,522 458.6,522.1 		"/>
		<g>
			<path class="st19" d="M449.3,470.6l0.1-3.5l1.5,3.2C450.4,470.6,449.9,470.7,449.3,470.6"/>
			<path class="st4" d="M450.9,470.4l2.3,4.9l-4,0.7l0.2-5.4C449.9,470.7,450.4,470.6,450.9,470.4"/>
		</g>
		<polygon class="st4" points="458.9,523.5 462.9,522.8 462.7,521.6 458.6,522.1 		"/>
		<polygon class="st20" points="459.8,528.2 463.9,527.5 462.9,522.8 458.9,523.5 		"/>
		<polygon class="st21" points="463.9,527.5 462.9,522.8 461.7,523 462.7,527.7 		"/>
		<polygon class="st22" points="462.7,521.6 462.9,522.8 461.7,523 461.4,521.7 		"/>
		<rect x="442.4" y="499.1" class="st29" width="34.7" height="4.5"/>
		<rect x="445.4" y="503.6" class="st3" width="28.6" height="28.3"/>
		<rect x="445.4" y="503.6" class="st30" width="28.6" height="1.3"/>
	</g>
	<g>
		<g class="st31">
			<polygon class="st4" points="449.8,511.1 449.8,518.2 451.9,518.2 451.9,515.3 454.9,515.3 454.9,513.9 451.9,513.9 451.9,512.5 
				454.9,512.5 454.9,511.1 449.8,511.1 			"/>
			<path class="st4" d="M462.7,515.9c-0.4,0.3-1.3,0.8-2.4,0.8c-1.3,0-2.3-0.9-2.3-2c0-1.3,1.1-2,2.4-2c1.1,0,1.9,0.5,2.3,0.8v-1.9
				c-0.6-0.2-1.6-0.5-2.8-0.5c-2.2,0-4.1,1.1-4.1,3.7c0,2.2,1.5,3.7,4.1,3.7c0.9,0,1.9-0.1,2.8-0.6V515.9L462.7,515.9z"/>
			<polygon class="st4" points="463.6,511.1 463.6,512.8 466.2,512.8 466.2,518.2 468.3,518.2 468.3,512.8 471,512.8 471,511.1 
				463.6,511.1 			"/>
			<polygon class="st4" points="449.8,520.6 450.4,520.6 450.4,520.5 450.2,520.5 450.2,520 450.5,520 450.5,520.2 450.6,520.2 
				450.6,519.7 450.5,519.7 450.5,519.9 450.2,519.9 450.2,519.4 450.6,519.4 450.6,519.6 450.7,519.6 450.7,519.3 449.8,519.3 
				449.8,519.4 450,519.4 450,520.5 449.8,520.5 449.8,520.6 			"/>
			<path class="st4" d="M450.8,519.8h0.2v0.6c0,0.2,0.1,0.3,0.3,0.3c0.1,0,0.2,0,0.3-0.1v0.1h0.4v-0.1h-0.2v-0.8h-0.4v0.1h0.2v0.6
				c-0.1,0.1-0.2,0.1-0.2,0.1c-0.1,0-0.2-0.1-0.2-0.2v-0.6L450.8,519.8L450.8,519.8L450.8,519.8z"/>
			<path class="st4" d="M452,520.6h0.5v-0.1h-0.2v-0.6c0.1-0.1,0.2-0.1,0.2-0.1c0.1,0,0.2,0.1,0.2,0.2v0.5h-0.1v0.1h0.5v-0.1h-0.2
				v-0.6c0-0.2-0.1-0.3-0.3-0.3c-0.1,0-0.2,0.1-0.3,0.1v-0.1H452v0.1h0.2v0.7L452,520.6L452,520.6L452,520.6z"/>
			<path class="st32" d="M453.7,519.2h0.2v0.5c-0.1-0.1-0.2-0.1-0.3-0.1c-0.2,0-0.4,0.2-0.4,0.5c0,0.3,0.2,0.5,0.5,0.5h0.5v-0.1
				h-0.2v-1.4L453.7,519.2L453.7,519.2L453.7,519.2z M453.9,520.5L453.9,520.5c-0.3,0-0.5-0.1-0.5-0.4c0-0.2,0.1-0.4,0.2-0.4
				c0.1,0,0.1,0,0.2,0.1V520.5L453.9,520.5z"/>
			<path class="st32" d="M454.4,519.9c0.1-0.1,0.2-0.1,0.3-0.1c0.1,0,0.2,0.1,0.2,0.2v0.1l-0.2,0.1c-0.2,0-0.3,0.1-0.3,0.3
				c0,0.1,0.1,0.2,0.2,0.2c0.1,0,0.2-0.1,0.3-0.1c0,0.1,0.1,0.1,0.2,0.1c0.1,0,0.1,0,0.2-0.1v-0.1c0,0-0.1,0-0.1,0
				c-0.1,0-0.1-0.1-0.1-0.1V520c0-0.2-0.1-0.3-0.3-0.3C454.6,519.7,454.5,519.7,454.4,519.9L454.4,519.9L454.4,519.9z M454.8,520.2
				v0.2c-0.1,0-0.1,0.1-0.1,0.1c-0.1,0-0.1-0.1-0.1-0.1C454.5,520.3,454.6,520.2,454.8,520.2L454.8,520.2z"/>
			<path class="st4" d="M455.5,520.8c0.1,0,0.1,0,0.1,0.1c0,0.1-0.1,0.1-0.2,0.1v0.1c0.3,0,0.4-0.1,0.4-0.2c0-0.1-0.1-0.2-0.1-0.2
				l0-0.1c0.2,0,0.4-0.1,0.4-0.2c0,0,0-0.1,0-0.1c0,0-0.1,0.1-0.3,0.1c-0.2,0-0.3-0.1-0.3-0.4c0-0.2,0.1-0.3,0.2-0.3
				c0.1,0,0.2,0.1,0.2,0.2h0.1v-0.3H456l0,0.1c-0.1,0-0.2-0.1-0.2-0.1c-0.3,0-0.4,0.2-0.4,0.5c0,0.2,0.1,0.4,0.3,0.5L455.5,520.8
				L455.5,520.8z"/>
			<path class="st32" d="M456.3,519.5C456.3,519.4,456.4,519.4,456.3,519.5c0.2-0.1,0.3,0,0.4,0c0.1,0,0.2-0.1,0.2-0.2h-0.1
				c0,0.1,0,0.1-0.1,0.1c-0.1,0-0.2-0.1-0.3-0.1C456.3,519.2,456.2,519.3,456.3,519.5L456.3,519.5L456.3,519.5z M456.2,519.9
				c0.1-0.1,0.2-0.1,0.3-0.1c0.1,0,0.2,0.1,0.2,0.2v0.1l-0.2,0.1c-0.2,0-0.3,0.1-0.3,0.3c0,0.1,0.1,0.2,0.2,0.2
				c0.1,0,0.2-0.1,0.3-0.1c0,0.1,0.1,0.1,0.2,0.1c0.1,0,0.1,0,0.2-0.1v-0.1c0,0-0.1,0-0.1,0c-0.1,0-0.1-0.1-0.1-0.1V520
				c0-0.2-0.1-0.3-0.3-0.3C456.4,519.7,456.3,519.7,456.2,519.9L456.2,519.9L456.2,519.9z M456.6,520.2v0.2c-0.1,0-0.1,0.1-0.1,0.1
				c-0.1,0-0.1-0.1-0.1-0.1C456.4,520.3,456.4,520.2,456.6,520.2L456.6,520.2z"/>
			<path class="st32" d="M457.1,520.1c0,0.3,0.2,0.5,0.5,0.5c0.3,0,0.5-0.2,0.5-0.5c0-0.3-0.2-0.5-0.5-0.5
				C457.3,519.7,457.1,519.9,457.1,520.1L457.1,520.1z M457.3,520.1c0-0.2,0.1-0.4,0.3-0.4c0.2,0,0.3,0.1,0.3,0.4
				c0,0.2-0.1,0.4-0.3,0.4C457.4,520.5,457.3,520.4,457.3,520.1L457.3,520.1z"/>
			<path class="st32" d="M458.8,521.1h0.5V521h-0.2v-0.5c0.1,0.1,0.1,0.1,0.2,0.1c0.3,0,0.4-0.3,0.4-0.5c0-0.3-0.2-0.5-0.4-0.5
				c-0.1,0-0.1,0-0.1,0c0,0-0.1,0-0.1,0.1v-0.1h-0.4v0.1h0.2v1.3L458.8,521.1L458.8,521.1L458.8,521.1z M459.1,519.9
				c0.1-0.1,0.1-0.1,0.2-0.1c0.2,0,0.3,0.2,0.3,0.4c0,0.2-0.1,0.4-0.2,0.4c-0.1,0-0.2-0.1-0.2-0.1V519.9L459.1,519.9z"/>
			<path class="st32" d="M460,519.9c0.1-0.1,0.2-0.1,0.3-0.1c0.1,0,0.2,0.1,0.2,0.2v0.1l-0.2,0.1c-0.2,0-0.3,0.1-0.3,0.3
				c0,0.1,0.1,0.2,0.2,0.2c0.1,0,0.2-0.1,0.3-0.1c0,0.1,0.1,0.1,0.2,0.1c0.1,0,0.1,0,0.2-0.1v-0.1c0,0-0.1,0-0.1,0
				c-0.1,0-0.1-0.1-0.1-0.1V520c0-0.2-0.1-0.3-0.3-0.3C460.2,519.7,460.1,519.7,460,519.9L460,519.9L460,519.9z M460.4,520.2v0.2
				c-0.1,0-0.1,0.1-0.1,0.1c-0.1,0-0.1-0.1-0.1-0.1C460.2,520.3,460.2,520.2,460.4,520.2L460.4,520.2z"/>
			<path class="st4" d="M460.9,520.6h0.5v-0.1h-0.2v-0.6c0.1-0.1,0.1-0.1,0.2-0.1c0.1,0,0.1,0,0.1,0.1c0-0.1,0.1-0.1,0.1-0.2
				c-0.1-0.1-0.1-0.1-0.2-0.1c-0.1,0-0.1,0-0.2,0.2h0v-0.2h-0.4v0.1h0.2v0.7L460.9,520.6L460.9,520.6L460.9,520.6z"/>
			<path class="st32" d="M461.8,519.9c0.1-0.1,0.2-0.1,0.3-0.1c0.1,0,0.2,0.1,0.2,0.2v0.1l-0.2,0.1c-0.2,0-0.3,0.1-0.3,0.3
				c0,0.1,0.1,0.2,0.2,0.2c0.1,0,0.2-0.1,0.3-0.1c0,0.1,0.1,0.1,0.2,0.1c0.1,0,0.1,0,0.2-0.1v-0.1c0,0-0.1,0-0.1,0
				c-0.1,0-0.1-0.1-0.1-0.1V520c0-0.2-0.1-0.3-0.3-0.3C462,519.7,461.8,519.7,461.8,519.9L461.8,519.9L461.8,519.9z M462.2,520.2
				v0.2c-0.1,0-0.1,0.1-0.1,0.1c-0.1,0-0.1-0.1-0.1-0.1C461.9,520.3,462,520.2,462.2,520.2L462.2,520.2z"/>
			<path class="st32" d="M463.3,519.9c0.1-0.1,0.2-0.1,0.3-0.1c0.1,0,0.2,0.1,0.2,0.2v0.1l-0.2,0.1c-0.2,0-0.3,0.1-0.3,0.3
				c0,0.1,0.1,0.2,0.2,0.2c0.1,0,0.2-0.1,0.3-0.1c0,0.1,0.1,0.1,0.2,0.1c0.1,0,0.1,0,0.2-0.1v-0.1c0,0-0.1,0-0.1,0
				c-0.1,0-0.1-0.1-0.1-0.1V520c0-0.2-0.1-0.3-0.3-0.3C463.5,519.7,463.3,519.7,463.3,519.9L463.3,519.9L463.3,519.9z M463.7,520.2
				v0.2c-0.1,0-0.1,0.1-0.1,0.1c-0.1,0-0.1-0.1-0.1-0.1C463.4,520.3,463.5,520.2,463.7,520.2L463.7,520.2z"/>
			<path class="st4" d="M465.9,520.4c-0.2,0.1-0.3,0.2-0.4,0.2c-0.3,0-0.5-0.2-0.5-0.6c0-0.3,0.2-0.6,0.4-0.6c0.2,0,0.3,0.1,0.3,0.3
				h0.1v-0.4h-0.1l0,0.1c-0.1,0-0.2-0.1-0.3-0.1c-0.4,0-0.7,0.3-0.7,0.7c0,0.4,0.3,0.7,0.7,0.7c0.2,0,0.3-0.1,0.5-0.2V520.4
				L465.9,520.4z"/>
			<path class="st32" d="M466,520.6h0.5v-0.1h-0.2v-0.8H466v0.1h0.2v0.7L466,520.6L466,520.6L466,520.6z M466.2,519.2
				c-0.1,0-0.1,0.1-0.1,0.1s0.1,0.1,0.1,0.1c0.1,0,0.1-0.1,0.1-0.1S466.3,519.2,466.2,519.2L466.2,519.2z"/>
			<path class="st32" d="M466.8,519.5l0.2-0.2l0.2,0.2h0.1l-0.3-0.4H467L466.8,519.5L466.8,519.5L466.8,519.5z M467.4,520.1
				c0-0.3-0.2-0.4-0.4-0.4c-0.3,0-0.4,0.2-0.4,0.5c0,0.3,0.2,0.5,0.5,0.5c0.1,0,0.2,0,0.3-0.1l0-0.1c-0.1,0.1-0.2,0.1-0.3,0.1
				c-0.2,0-0.3-0.2-0.3-0.4H467.4L467.4,520.1z M466.8,520c0-0.2,0.1-0.2,0.2-0.2c0.1,0,0.2,0.1,0.2,0.2H466.8L466.8,520z"/>
			<path class="st4" d="M467.5,520.6h0.5v-0.1h-0.2v-0.6c0.1-0.1,0.2-0.1,0.2-0.1c0.1,0,0.2,0.1,0.2,0.2v0.5h-0.1v0.1h0.5v-0.1h-0.2
				v-0.6c0-0.2-0.1-0.3-0.3-0.3c-0.1,0-0.2,0.1-0.3,0.1v-0.1h-0.4v0.1h0.2v0.7L467.5,520.6L467.5,520.6L467.5,520.6z"/>
			<path class="st4" d="M469.5,519.7L469.5,519.7L469.5,519.7c-0.2,0-0.2,0-0.3,0c-0.3,0-0.4,0.2-0.4,0.5c0,0.3,0.2,0.5,0.5,0.5
				c0.2,0,0.4-0.1,0.4-0.2c0,0,0-0.1,0-0.1c0,0-0.1,0.1-0.3,0.1c-0.2,0-0.3-0.1-0.3-0.4c0-0.2,0.1-0.3,0.2-0.3
				c0.1,0,0.2,0.1,0.2,0.2h0.1V519.7L469.5,519.7z"/>
			<path class="st32" d="M469.6,520.6h0.5v-0.1H470v-0.8h-0.4v0.1h0.2v0.7L469.6,520.6L469.6,520.6L469.6,520.6z M469.9,519.2
				c-0.1,0-0.1,0.1-0.1,0.1s0.1,0.1,0.1,0.1s0.1-0.1,0.1-0.1S470,519.2,469.9,519.2L469.9,519.2z"/>
			<path class="st32" d="M470.3,519.9c0.1-0.1,0.2-0.1,0.3-0.1c0.1,0,0.2,0.1,0.2,0.2v0.1l-0.2,0.1c-0.2,0-0.3,0.1-0.3,0.3
				c0,0.1,0.1,0.2,0.2,0.2c0.1,0,0.2-0.1,0.3-0.1c0,0.1,0.1,0.1,0.2,0.1c0.1,0,0.1,0,0.2-0.1v-0.1c0,0-0.1,0-0.1,0
				c-0.1,0-0.1-0.1-0.1-0.1V520c0-0.2-0.1-0.3-0.3-0.3C470.5,519.7,470.4,519.7,470.3,519.9L470.3,519.9L470.3,519.9z M470.7,520.2
				v0.2c-0.1,0-0.1,0.1-0.1,0.1c-0.1,0-0.1-0.1-0.1-0.1C470.5,520.3,470.5,520.2,470.7,520.2L470.7,520.2z"/>
			<path class="st32" d="M482.7,519.2c-0.1,0-0.1,0.1-0.1,0.1s0.1,0.1,0.1,0.1c0.1,0,0.1-0.1,0.1-0.1S482.8,519.2,482.7,519.2
				L482.7,519.2z"/>
			<g>
				<path class="st4" d="M449.8,522.2L449.8,522.2l0.1-0.6h-0.1v-0.1h0.2v0.1l0.2,0.5l0.2-0.5v-0.1h0.2v0.1h-0.1v0.6h0.1v0.1h-0.3
					v-0.1h0.1v-0.5h0l-0.2,0.5h0l-0.2-0.5h0v0.5h0.1v0.1L449.8,522.2L449.8,522.2z"/>
				<path class="st4" d="M450.8,522.2L450.8,522.2l0.1-0.6h-0.1v-0.1h0.3v0.1H451v0.6h0.1v0.1L450.8,522.2L450.8,522.2z"/>
				<path class="st4" d="M451.1,522.2L451.1,522.2l0.1-0.6h-0.1v-0.1h0.2v0.1l0.4,0.5v-0.5h-0.1v-0.1h0.3v0.1h-0.1v0.6h-0.1
					l-0.4-0.5v0.4h0.1v0.1L451.1,522.2L451.1,522.2z"/>
				<path class="st4" d="M452,522.2L452,522.2l0.1-0.6H452v-0.1h0.3v0.1h-0.1v0.6h0.1v0.1L452,522.2L452,522.2z"/>
				<path class="st4" d="M452.4,522L452.4,522L452.4,522c0.1,0.1,0.1,0.2,0.2,0.2c0.1,0,0.1,0,0.1-0.1c0-0.1-0.2-0.1-0.2-0.2
					c0,0-0.1-0.1-0.1-0.1c0-0.1,0.1-0.2,0.2-0.2c0,0,0.1,0,0.1,0v0h0.1v0.2h-0.1v-0.1c0,0-0.1-0.1-0.1-0.1c-0.1,0-0.1,0-0.1,0.1
					c0,0.1,0.2,0.1,0.3,0.2c0,0,0.1,0.1,0.1,0.1c0,0.1-0.1,0.2-0.2,0.2c-0.1,0-0.1,0-0.1,0v0h-0.1V522z"/>
				<path class="st4" d="M453,522.2L453,522.2l0.1-0.5h-0.2v0.1h-0.1v-0.2h0.1v0h0.5v0h0.1v0.2h-0.1v-0.1h-0.2v0.5h0.1v0.1
					L453,522.2L453,522.2z"/>
				<path class="st4" d="M453.5,522.2L453.5,522.2l0.1-0.6h-0.1v-0.1h0.5v0.1h-0.1v-0.1h-0.2v0.2h0.2v-0.1h0.1v0.2h-0.1v-0.1h-0.2
					v0.3h0.2v-0.1h0.1v0.2L453.5,522.2L453.5,522.2z M453.7,521.5l0.1-0.2h0.1L453.7,521.5L453.7,521.5z"/>
				<path class="st4" d="M454.1,522.2L454.1,522.2l0.1-0.6h-0.1v-0.1h0.3c0.2,0,0.2,0.1,0.2,0.2c0,0.1-0.1,0.2-0.2,0.2v0
					c0.1,0,0.1,0.1,0.2,0.3h0.1v0.1h-0.2l-0.1-0.2c-0.1-0.1-0.1-0.2-0.2-0.2h0v0.2h0.1v0.1L454.1,522.2L454.1,522.2z M454.3,521.9
					c0.1,0,0.1,0,0.1-0.1c0-0.1,0-0.1-0.1-0.1h0L454.3,521.9L454.3,521.9z"/>
				<path class="st4" d="M454.7,522.2L454.7,522.2l0.1-0.6h-0.1v-0.1h0.3v0.1h-0.1v0.6h0.1v0.1L454.7,522.2L454.7,522.2z"/>
				<path class="st4" d="M455.5,521.5c0.2,0,0.4,0.2,0.4,0.4c0,0.2-0.1,0.4-0.4,0.4c-0.2,0-0.4-0.2-0.4-0.4
					C455.1,521.7,455.2,521.5,455.5,521.5z M455.5,522.2c0.2,0,0.2-0.1,0.2-0.3c0-0.2-0.1-0.3-0.2-0.3c-0.1,0-0.2,0.1-0.2,0.3
					C455.3,522.1,455.3,522.2,455.5,522.2z"/>
				<path class="st4" d="M456.2,522.2L456.2,522.2l0.1-0.6h-0.1v-0.1h0.3c0.2,0,0.4,0.1,0.4,0.3c0,0.2-0.1,0.3-0.3,0.3L456.2,522.2
					L456.2,522.2z M456.5,522.2c0.1,0,0.2,0,0.2-0.3c0-0.1,0-0.2-0.1-0.2c0,0-0.1-0.1-0.2-0.1h0L456.5,522.2L456.5,522.2z"/>
				<path class="st4" d="M456.9,522.2L456.9,522.2l0.3-0.6h0.1l0.2,0.6h0.1v0.1h-0.2v-0.1h0.1l-0.1-0.2h-0.2l-0.1,0.2h0.1v0.1
					L456.9,522.2L456.9,522.2z M457.2,521.7L457.2,521.7l-0.1,0.2h0.2L457.2,521.7z"/>
				<path class="st4" d="M457.9,522.2L457.9,522.2l0.1-0.6h-0.1v-0.1h0.5v0.1h-0.1v-0.1h-0.2v0.2h0.2v-0.1h0.1v0.2h-0.1v-0.1h-0.2
					v0.3h0.2v-0.1h0.1v0.2L457.9,522.2L457.9,522.2z"/>
				<path class="st4" d="M458.4,522.2L458.4,522.2l0.1-0.6h-0.1v-0.1h0.3c0.2,0,0.4,0.1,0.4,0.3c0,0.2-0.1,0.3-0.3,0.3L458.4,522.2
					L458.4,522.2z M458.7,522.2c0.1,0,0.2,0,0.2-0.3c0-0.1,0-0.2-0.1-0.2c0,0-0.1-0.1-0.2-0.1h0L458.7,522.2L458.7,522.2z"/>
				<path class="st4" d="M459.2,521.5h0.3v0.1h-0.1v0.3c0,0.2,0.1,0.2,0.2,0.2c0.1,0,0.2-0.1,0.2-0.2v-0.3h-0.1v-0.1h0.3v0.1h-0.1
					v0.4c0,0.2-0.1,0.3-0.3,0.3c-0.2,0-0.3-0.1-0.3-0.3L459.2,521.5L459.2,521.5L459.2,521.5z"/>
				<path class="st4" d="M460.6,522.1c-0.1,0.1-0.1,0.1-0.2,0.1c-0.2,0-0.3-0.2-0.3-0.3c0-0.2,0.1-0.4,0.4-0.4c0.1,0,0.1,0,0.2,0
					l0,0h0v0.2h0c0-0.1-0.1-0.1-0.2-0.1c-0.1,0-0.2,0.1-0.2,0.3c0,0.2,0.1,0.3,0.2,0.3C460.4,522.2,460.5,522.1,460.6,522.1
					L460.6,522.1z"/>
				<path class="st4" d="M460.6,522.2L460.6,522.2l0.3-0.6h0.1l0.2,0.6h0.1v0.1H461v-0.1h0.1L461,522h-0.2l-0.1,0.2h0.1v0.1
					L460.6,522.2L460.6,522.2z M460.9,521.7L460.9,521.7l-0.1,0.2h0.2L460.9,521.7z"/>
				<path class="st4" d="M461.6,522.2c-0.2,0-0.3-0.2-0.3-0.3c0-0.2,0.1-0.4,0.4-0.4c0.1,0,0.1,0,0.2,0l0,0h0v0.2h0
					c0-0.1-0.1-0.1-0.2-0.1c-0.1,0-0.2,0.1-0.2,0.3C461.4,522.1,461.5,522.2,461.6,522.2c0.2-0.1,0.2-0.1,0.3-0.1v0.1
					C461.8,522.2,461.7,522.2,461.6,522.2L461.6,522.2c0.1,0,0.1,0.1,0.1,0.1c0,0.1,0,0.1-0.2,0.1v0c0.1,0,0.1,0,0.1,0
					C461.6,522.3,461.6,522.3,461.6,522.2L461.6,522.2z"/>
				<path class="st4" d="M461.9,522.2L461.9,522.2l0.3-0.6h0.1l0.2,0.6h0.1v0.1h-0.2v-0.1h0.1l-0.1-0.2h-0.2l-0.1,0.2h0.1v0.1
					L461.9,522.2L461.9,522.2z M462.1,521.4c0-0.1,0-0.1,0.1-0.1c0.1,0,0.1,0,0.1,0c0,0,0,0,0,0h0c0,0.1,0,0.1-0.1,0.1
					C462.2,521.4,462.2,521.4,462.1,521.4C462.1,521.4,462.1,521.4,462.1,521.4L462.1,521.4z M462.2,521.7L462.2,521.7l-0.1,0.2h0.2
					L462.2,521.7z"/>
				<path class="st4" d="M462.9,521.5c0.2,0,0.4,0.2,0.4,0.4c0,0.2-0.1,0.4-0.4,0.4c-0.2,0-0.4-0.2-0.4-0.4
					C462.6,521.7,462.7,521.5,462.9,521.5z M462.9,522.2c0.2,0,0.2-0.1,0.2-0.3c0-0.2-0.1-0.3-0.2-0.3c-0.1,0-0.2,0.1-0.2,0.3
					C462.7,522.1,462.8,522.2,462.9,522.2z"/>
				<path class="st4" d="M463.6,522.2L463.6,522.2l0.1-0.6h-0.1v-0.1h0.5v0.1h-0.1v-0.1h-0.2v0.2h0.2v-0.1h0.1v0.2H464v-0.1h-0.2
					v0.3h0.2v-0.1h0.1v0.2L463.6,522.2L463.6,522.2z"/>
				<path class="st4" d="M465.1,522.1c-0.1,0.1-0.1,0.1-0.2,0.1c-0.2,0-0.3-0.2-0.3-0.3c0-0.2,0.1-0.4,0.4-0.4c0.1,0,0.1,0,0.2,0
					l0,0h0v0.2h0c0-0.1-0.1-0.1-0.2-0.1c-0.1,0-0.2,0.1-0.2,0.3c0,0.2,0.1,0.3,0.2,0.3C464.9,522.2,465,522.1,465.1,522.1
					L465.1,522.1z"/>
				<path class="st4" d="M465.1,522.2L465.1,522.2l0.1-0.6h-0.1v-0.1h0.3v0.1h-0.1v0.6h0.1v0.1L465.1,522.2L465.1,522.2z"/>
				<path class="st4" d="M465.5,522.2L465.5,522.2l0.1-0.6h-0.1v-0.1h0.5v0.1h-0.1v-0.1h-0.2v0.2h0.2v-0.1h0.1v0.2h-0.1v-0.1h-0.2
					v0.3h0.2v-0.1h0.1v0.2L465.5,522.2L465.5,522.2z M465.6,521.5l0.1-0.2h0.1l0.1,0.2h0l-0.1-0.1L465.6,521.5L465.6,521.5z"/>
				<path class="st4" d="M466,522.2L466,522.2l0.1-0.6H466v-0.1h0.2v0.1l0.4,0.5v-0.5h-0.1v-0.1h0.3v0.1h-0.1v0.6h-0.1l-0.4-0.5v0.4
					h0.1v0.1L466,522.2L466,522.2z"/>
				<path class="st4" d="M467.4,522.1c-0.1,0.1-0.1,0.1-0.2,0.1c-0.2,0-0.3-0.2-0.3-0.3c0-0.2,0.1-0.4,0.4-0.4c0.1,0,0.1,0,0.2,0
					l0,0h0v0.2h0c0-0.1-0.1-0.1-0.2-0.1c-0.1,0-0.2,0.1-0.2,0.3c0,0.2,0.1,0.3,0.2,0.3C467.3,522.2,467.4,522.1,467.4,522.1
					L467.4,522.1z"/>
				<path class="st4" d="M467.5,522.2L467.5,522.2l0.1-0.6h-0.1v-0.1h0.3v0.1h-0.1v0.6h0.1v0.1L467.5,522.2L467.5,522.2z"/>
				<path class="st4" d="M467.9,522.2L467.9,522.2l0.3-0.6h0.1l0.2,0.6h0.1v0.1h-0.2v-0.1h0.1l-0.1-0.2h-0.2l-0.1,0.2h0.1v0.1
					L467.9,522.2L467.9,522.2z M468.2,521.7L468.2,521.7l-0.1,0.2h0.2L468.2,521.7z"/>
			</g>
		</g>
		<path class="st3" d="M445.6,531.8c0,0,10.8,6.7,28.6-0.3l-28.4-0.3L445.6,531.8z"/>
	</g>
</g>
<rect x="26.4" y="134" class="st33" width="1198.8" height="572.3"/>
</svg>
