<?xml version="1.0" encoding="utf-8"?>
<!-- Generator: Adobe Illustrator 19.0.0, SVG Export Plug-In . SVG Version: 6.00 Build 0)  -->
<svg version="1.1" id="Layer_1" xmlns="http://www.w3.org/2000/svg" xmlns:xlink="http://www.w3.org/1999/xlink" x="0px" y="0px"
	 viewBox="474.5 105.9 255 375" style="enable-background:new 474.5 105.9 255 375;" xml:space="preserve">
<style type="text/css">
	.st0{fill:#F8F9FA;}
	.st1{opacity:0.55;fill:#36474F;enable-background:new    ;}
	.st2{fill:#E0E0E0;}
	.st3{fill:#36474F;}
	.st4{fill:#FF0C3E;}
	.st5{fill:#FFD514;}
	.st6{fill:#00E871;}
	.st7{fill:#41AD49;}
	.st8{fill:#96D29B;}
	.st9{opacity:0.15;enable-background:new    ;}
	.st10{opacity:0.45;enable-background:new    ;}
	.st11{opacity:0.45;}
	.st12{opacity:0.55;fill:#FFFFFF;enable-background:new    ;}
</style>
<ellipse class="st0" cx="601.7" cy="452.6" rx="122.2" ry="25.2"/>
<g id="Layer_1_1_">
</g>
<path class="st1" d="M657.4,296.8H523.5h-0.1c-1.3,0-2.4,1.1-2.4,2.5v23v0.1v115.8v0.1c0,1.3,1.1,2.4,2.4,2.4h133.9h0.1
	c1.3,0,2.4-1.1,2.4-2.4V322.5v-0.1v-23.1C659.8,297.8,658.7,296.8,657.4,296.8z"/>
<g>
	<rect x="528.1" y="327.7" class="st2" width="138.8" height="115.9"/>
	<path class="st2" d="M669.2,327.7L669.2,327.7v115.9c0,1.4-1,2.4-2.4,2.4l0,0H528.1c-1.3,0-2.4-1-2.4-2.4l0,0V327.7
		c0-1.3,1.1-2.4,2.4-2.4l0,0h138.8C668.2,325.3,669.2,326.4,669.2,327.7L669.2,327.7z M664.4,441.2v-111h-134v111H664.4z"/>
	<rect x="528.1" y="304.6" class="st3" width="138.8" height="23.1"/>
	<path class="st3" d="M528.1,302.2L528.1,302.2h138.8c1.4,0,2.4,1.1,2.4,2.4v0.1v23c0,1.4-1,2.5-2.4,2.5l0,0H528.1
		c-1.3,0-2.4-1.1-2.4-2.5l0,0v-23.1C525.7,303.3,526.8,302.2,528.1,302.2L528.1,302.2z M664.4,307h-134v18.3h134L664.4,307
		L664.4,307z"/>
	<path class="st4" d="M544.6,310.9c2.9,0,5.2,2.4,5.2,5.2c0,3-2.4,5.2-5.2,5.2c-3,0-5.2-2.3-5.2-5.2
		C539.4,313.3,541.7,310.9,544.6,310.9L544.6,310.9z"/>
	<path class="st4" d="M544.6,308.7c2,0,3.9,0.8,5.2,2.2c1.4,1.3,2.2,3.3,2.2,5.2c0,2.1-0.8,3.9-2.2,5.3c-1.3,1.3-3.2,2.1-5.2,2.1
		c-2.1,0-3.9-0.8-5.3-2.1c-1.3-1.4-2.1-3.3-2.1-5.3c0-2,0.8-3.9,2.1-5.2C540.7,309.5,542.5,308.7,544.6,308.7L544.6,308.7z
		 M546.8,314c-0.6-0.5-1.3-0.8-2.1-0.8c-0.8,0-1.6,0.3-2.1,0.8c-0.5,0.6-0.9,1.3-0.9,2.1s0.4,1.6,0.9,2.1c0.5,0.5,1.3,0.9,2.1,0.9
		c0.8,0,1.5-0.4,2.1-0.9c0.5-0.5,0.8-1.3,0.8-2.1C547.6,315.3,547.3,314.6,546.8,314L546.8,314z"/>
	<path class="st5" d="M563.4,310.9c3,0,5.2,2.4,5.2,5.2c0,3-2.3,5.2-5.2,5.2c-2.9,0-5.1-2.3-5.1-5.2S560.5,310.9,563.4,310.9
		L563.4,310.9z"/>
	<path class="st5" d="M563.4,308.7c2.1,0,4,0.8,5.3,2.2c1.3,1.3,2.2,3.3,2.2,5.2c0,2.1-0.9,3.9-2.2,5.3c-1.3,1.3-3.2,2.1-5.3,2.1
		c-2,0-3.9-0.8-5.2-2.1c-1.3-1.4-2.2-3.3-2.2-5.3c0-2,0.9-3.9,2.2-5.2C559.5,309.5,561.3,308.7,563.4,308.7L563.4,308.7z M565.5,314
		c-0.5-0.5-1.2-0.8-2.1-0.8c-0.8,0-1.5,0.3-2,0.8c-0.6,0.6-0.9,1.3-0.9,2.1s0.3,1.6,0.9,2.1c0.5,0.5,1.2,0.9,2,0.9
		c0.9,0,1.6-0.4,2.1-0.9c0.6-0.5,0.9-1.3,0.9-2.1C566.4,315.3,566.1,314.6,565.5,314L565.5,314z"/>
	<path class="st6" d="M582.2,310.9c3,0,5.2,2.4,5.2,5.2c0,3-2.3,5.2-5.2,5.2c-3,0-5.2-2.3-5.2-5.2S579.4,310.9,582.2,310.9
		L582.2,310.9z"/>
	<path class="st6" d="M582.2,308.7c2.1,0,3.9,0.8,5.3,2.2c1.3,1.3,2.1,3.3,2.1,5.2c0,2.1-0.8,3.9-2.1,5.3c-1.4,1.3-3.2,2.1-5.3,2.1
		c-2,0-3.9-0.8-5.2-2.1c-1.4-1.4-2.2-3.3-2.2-5.3c0-2,0.8-3.9,2.2-5.2C578.4,309.5,580.2,308.7,582.2,308.7L582.2,308.7z M584.4,314
		c-0.5-0.5-1.3-0.8-2.1-0.8s-1.5,0.3-2.1,0.8c-0.5,0.6-0.8,1.3-0.8,2.1s0.3,1.6,0.8,2.1c0.6,0.5,1.3,0.9,2.1,0.9s1.6-0.4,2.1-0.9
		s0.8-1.3,0.8-2.1C585.2,315.3,584.9,314.6,584.4,314L584.4,314z"/>
	<rect x="539.8" y="339.9" class="st7" width="115.3" height="26.7"/>
	<path class="st7" d="M539.8,337.5L539.8,337.5h115.3c1.3,0,2.4,1.1,2.4,2.4v0.1v26.6c0,1.4-1.1,2.4-2.4,2.4H655H539.8
		c-1.3,0-2.4-1-2.4-2.4l0,0v-26.7C537.4,338.6,538.5,337.5,539.8,337.5L539.8,337.5z M652.6,342.2H542.3v21.9h110.3L652.6,342.2
		L652.6,342.2z"/>
	<rect x="539.8" y="377.3" class="st8" width="52.2" height="26.7"/>
	<path class="st8" d="M539.8,374.9L539.8,374.9H592c1.4,0,2.4,1.1,2.4,2.4v0.1V404c0,1.3-1,2.4-2.4,2.4l0,0h-52.2
		c-1.3,0-2.4-1.1-2.4-2.4l0,0v-26.7C537.4,376,538.5,374.9,539.8,374.9L539.8,374.9z M589.6,379.7h-47.3v21.9h47.3V379.7z"/>
	<rect x="605.4" y="379.8" class="st9" width="47.4" height="21.8"/>
	<path class="st9" d="M602.9,374.9L602.9,374.9h52.2c1.3,0,2.4,1.1,2.4,2.4v0.1V404c0,1.3-1.1,2.4-2.4,2.4H655h-52.1
		c-1.4,0-2.4-1.1-2.4-2.4l0,0v-26.7C600.5,376,601.5,374.9,602.9,374.9L602.9,374.9z M652.6,379.7h-47.3v21.9h47.3V379.7z"/>
	<path class="st10" d="M533.1,427.7c-1.4,0-2.8-1.2-2.8-2.8c0-1.6,1.2-2.9,2.8-2.9h57.7c1.4,0,2.8,1.2,2.8,2.9
		c0,1.4-1.2,2.8-2.8,2.8H533.1z"/>
	<path class="st10" d="M533.1,440.5c-1.4,0-2.8-1.2-2.8-2.8c0-1.6,1.2-2.9,2.8-2.9h57.7c1.4,0,2.8,1.2,2.8,2.9
		c0,1.4-1.2,2.8-2.8,2.8H533.1z"/>
	<path class="st10" d="M604.3,427.7c-1.4,0-2.8-1.2-2.8-2.8c0-1.6,1.2-2.9,2.8-2.9H662c1.6,0,2.8,1.2,2.8,2.9c0,1.4-1.1,2.8-2.8,2.8
		H604.3z"/>
	<path class="st10" d="M604.3,440.5c-1.4,0-2.8-1.2-2.8-2.8c0-1.6,1.2-2.9,2.8-2.9H662c1.6,0,2.8,1.2,2.8,2.9c0,1.4-1.1,2.8-2.8,2.8
		H604.3z"/>
</g>
<g>
	<g>
		<path class="st1" d="M683.5,385.1h-62.2h-0.1c-0.6,0-1.1,0.5-1.1,1.1v10.3v0.1v51.9v0.1c0,0.6,0.5,1.1,1.1,1.1h62.2h0.1
			c0.6,0,1.1-0.5,1.1-1.1v-51.9v-0.1v-10.3C684.6,385.7,684.1,385.1,683.5,385.1z"/>
		<rect x="624.2" y="400.4" class="st2" width="61.9" height="51.3"/>
		<path class="st2" d="M624.2,399.4h61.9c0.7,0,1.2,0.4,1.2,1v51.3c0,0.6-0.6,1-1.2,1h-61.9c-0.7,0-1.2-0.4-1.2-1v-51.3
			C623,399.9,623.6,399.4,624.2,399.4L624.2,399.4z M685,401.5h-59.4v49.2H685V401.5z"/>
		<g class="st11">
			<path d="M634.8,426.9v-3.2l12.4-6.6v4.2l-8.6,4.1l8.6,4.1v4.2L634.8,426.9z"/>
			<path d="M660.3,412.5l-7.6,25.6h-3.6l7.6-25.6H660.3z"/>
			<path d="M662.3,433.6v-4.2l8.6-4.1l-8.6-4.1v-4.2l12.4,6.6v3.2L662.3,433.6z"/>
		</g>
		<rect x="624.2" y="389.4" class="st3" width="62.2" height="11"/>
		<path class="st3" d="M624.2,388.4h62.2c0.6,0,1,0.4,1,1v11c0,0.6-0.4,1-1,1h-62.2c-0.6,0-1-0.4-1-1v-11
			C623.2,388.9,623.6,388.4,624.2,388.4L624.2,388.4z M685.3,390.4h-60.1v9h60.1V390.4z"/>
	</g>
	<path class="st4" d="M629.5,391.6c1.3,0,2.4,1.1,2.4,2.4c0,1.3-1.1,2.4-2.4,2.4c-1.3,0-2.4-1.1-2.4-2.4
		C627.2,392.6,628.2,391.6,629.5,391.6L629.5,391.6z"/>
	<path class="st4" d="M629.5,390.5c1,0,1.8,0.4,2.4,1c0.6,0.7,1,1.5,1,2.4c0,0.9-0.4,1.8-1,2.4c-0.7,0.7-1.5,1-2.4,1
		c-0.9,0-1.8-0.4-2.4-1c-0.7-0.6-1-1.5-1-2.4c0-1,0.4-1.8,1-2.4C627.8,390.9,628.7,390.5,629.5,390.5L629.5,390.5z M630.5,393
		c-0.2-0.2-0.6-0.4-1-0.4c-0.4,0-0.7,0.2-1,0.4c-0.2,0.2-0.4,0.6-0.4,1s0.2,0.7,0.4,0.9c0.3,0.3,0.6,0.4,1,0.4s0.7-0.2,1-0.4
		c0.2-0.2,0.4-0.6,0.4-0.9C630.9,393.6,630.8,393.2,630.5,393L630.5,393z"/>
	<path class="st5" d="M638.3,391.6c1.3,0,2.4,1.1,2.4,2.4c0,1.3-1.1,2.4-2.4,2.4c-1.3,0-2.4-1.1-2.4-2.4
		C635.9,392.6,636.9,391.6,638.3,391.6L638.3,391.6z"/>
	<path class="st5" d="M638.3,390.5c0.9,0,1.8,0.4,2.4,1c0.7,0.7,1,1.5,1,2.4c0,0.9-0.4,1.8-1,2.4c-0.6,0.7-1.5,1-2.4,1
		c-1,0-1.8-0.4-2.4-1c-0.6-0.6-1-1.5-1-2.4c0-1,0.4-1.8,1-2.4C636.5,390.9,637.3,390.5,638.3,390.5L638.3,390.5z M639.2,393
		c-0.2-0.2-0.6-0.4-0.9-0.4c-0.4,0-0.7,0.2-1,0.4c-0.2,0.2-0.4,0.6-0.4,1s0.2,0.7,0.4,0.9c0.2,0.3,0.6,0.4,1,0.4
		c0.4,0,0.7-0.2,0.9-0.4c0.3-0.2,0.4-0.6,0.4-0.9S639.5,393.2,639.2,393L639.2,393z"/>
	<path class="st6" d="M646.9,391.6c1.3,0,2.4,1.1,2.4,2.4c0,1.3-1.1,2.4-2.4,2.4c-1.3,0-2.4-1.1-2.4-2.4
		C644.5,392.6,645.7,391.6,646.9,391.6L646.9,391.6z"/>
	<path class="st6" d="M646.9,390.5c1,0,1.8,0.4,2.4,1c0.6,0.7,1,1.5,1,2.4c0,0.9-0.4,1.8-1,2.4c-0.7,0.7-1.5,1-2.4,1
		c-0.9,0-1.8-0.4-2.4-1c-0.7-0.6-1-1.5-1-2.4c0-1,0.4-1.8,1-2.4C645.1,390.9,646,390.5,646.9,390.5L646.9,390.5z M647.9,393
		c-0.2-0.2-0.6-0.4-1-0.4c-0.4,0-0.7,0.2-1,0.4c-0.2,0.2-0.4,0.6-0.4,1s0.1,0.7,0.4,0.9c0.3,0.3,0.6,0.4,1,0.4s0.7-0.2,1-0.4
		c0.2-0.2,0.4-0.6,0.4-0.9S648.1,393.2,647.9,393L647.9,393z"/>
</g>
<rect x="300.9" y="25.6" class="st12" width="1198.8" height="572.3"/>
</svg>
