<?xml version="1.0" encoding="utf-8"?>
<!-- Generator: Adobe Illustrator 19.0.0, SVG Export Plug-In . SVG Version: 6.00 Build 0)  -->
<svg version="1.1" id="Layer_1" xmlns="http://www.w3.org/2000/svg" xmlns:xlink="http://www.w3.org/1999/xlink" x="0px" y="0px"
	 viewBox="152 244.8 900 352.1" style="enable-background:new 152 244.8 900 352.1;" xml:space="preserve">
<style type="text/css">
	.st0{fill:#F8F9FA;}
	.st1{opacity:0.55;fill:#36474F;enable-background:new    ;}
	.st2{fill-rule:evenodd;clip-rule:evenodd;fill:#E0E0E0;}
	.st3{fill:#E0E0E0;}
	.st4{opacity:0.45;}
	.st5{fill-rule:evenodd;clip-rule:evenodd;fill:#36474F;}
	.st6{fill:#36474F;}
	.st7{fill-rule:evenodd;clip-rule:evenodd;fill:#FF0C3E;}
	.st8{fill:#FF0C3E;}
	.st9{fill-rule:evenodd;clip-rule:evenodd;fill:#FFD514;}
	.st10{fill:#FFD514;}
	.st11{fill-rule:evenodd;clip-rule:evenodd;fill:#00E871;}
	.st12{fill:#00E871;}
	.st13{fill:#716558;}
	.st14{fill:#9A8379;}
	.st15{fill:#69C8F2;}
	.st16{fill:#EF3A50;}
	.st17{fill:#7AC9AC;}
	.st18{fill-rule:evenodd;clip-rule:evenodd;fill:#41AD49;}
	.st19{fill:#41AD49;}
	.st20{fill-rule:evenodd;clip-rule:evenodd;fill:#96D29B;}
	.st21{fill:#96D29B;}
	.st22{opacity:0.55;fill:#FFFFFF;enable-background:new    ;}
</style>
<g id="Layer_1_1_">
</g>
<ellipse class="st0" cx="599.3" cy="543.6" rx="343.8" ry="20.7"/>
<path class="st1" d="M479.7,424.4H367.4h-0.1c-1,0-2,0.9-2,2v18.7v0.1V539v0.1c0,1,0.9,2,2,2h112.3h0.1c1,0,2-0.9,2-2v-93.8v-0.1
	v-18.7C481.7,425.4,480.8,424.4,479.7,424.4z"/>
<path class="st1" d="M829.4,421.6H719h-0.1c-1,0-1.9,0.9-1.9,2V442v0.1v92.2v0.1c0,1,0.9,1.9,1.9,1.9h110.5h0.1c1,0,1.9-0.9,1.9-1.9
	v-92.3V442v-18.4C831.3,422.5,830.4,421.6,829.4,421.6z"/>
<rect x="372.7" y="452.1" class="st2" width="111.9" height="92.7"/>
<path class="st3" d="M372.7,450.3h111.9c1.2,0,2.2,0.8,2.2,1.8v92.7c0,1-1,1.8-2.2,1.8H372.7c-1.2,0-2.2-0.8-2.2-1.8v-92.7
	C370.5,451.1,371.5,450.3,372.7,450.3L372.7,450.3z M482.4,454H375v88.9h107.4V454z"/>
<g class="st4">
	<path d="M391.8,500v-5.7l22.4-12v7.5l-15.5,7.4l15.5,7.4v7.5L391.8,500z"/>
	<path d="M437.9,474l-13.8,46.3h-6.5l13.7-46.3H437.9z"/>
	<path d="M441.4,512v-7.5l15.5-7.4l-15.5-7.4v-7.5l22.4,12v5.7L441.4,512z"/>
</g>
<rect x="372.6" y="432.2" class="st5" width="112.4" height="19.9"/>
<path class="st6" d="M372.6,430.3H485c1,0,1.8,0.8,1.8,1.8v19.9c0,1-0.8,1.8-1.8,1.8H372.6c-1,0-1.8-0.8-1.8-1.8v-19.9
	C370.8,431.2,371.6,430.3,372.6,430.3L372.6,430.3z M483.1,434H374.5v16.3h108.6V434z"/>
<path class="st7" d="M382.3,436.1c2.4,0,4.3,1.9,4.3,4.4c0,2.3-1.9,4.3-4.3,4.3c-2.4,0-4.3-1.9-4.3-4.3
	C378,438,379.9,436.1,382.3,436.1L382.3,436.1z"/>
<path class="st8" d="M382.3,434.2c1.8,0,3.3,0.8,4.4,1.8c1.1,1.2,1.8,2.7,1.8,4.4c0,1.7-0.7,3.3-1.8,4.4c-1.2,1.2-2.7,1.8-4.4,1.8
	c-1.7,0-3.3-0.7-4.3-1.8c-1.2-1.1-1.8-2.7-1.8-4.4c0-1.8,0.7-3.3,1.8-4.4C379.1,434.9,380.7,434.2,382.3,434.2L382.3,434.2z
	 M384.1,438.7c-0.4-0.4-1.1-0.8-1.8-0.8c-0.7,0-1.3,0.3-1.8,0.8c-0.4,0.4-0.7,1.1-0.7,1.8c0,0.7,0.3,1.3,0.7,1.7
	c0.5,0.5,1.1,0.8,1.8,0.8c0.7,0,1.3-0.3,1.8-0.8c0.4-0.4,0.8-1,0.8-1.7C384.8,439.8,384.5,439.1,384.1,438.7L384.1,438.7z"/>
<path class="st9" d="M398.1,436.1c2.3,0,4.3,1.9,4.3,4.4c0,2.3-1.9,4.3-4.3,4.3c-2.4,0-4.4-1.9-4.4-4.3
	C393.7,438,395.6,436.1,398.1,436.1L398.1,436.1z"/>
<path class="st10" d="M398.1,434.2c1.7,0,3.3,0.8,4.3,1.8c1.2,1.2,1.8,2.7,1.8,4.4c0,1.7-0.7,3.3-1.8,4.4c-1.1,1.2-2.7,1.8-4.3,1.8
	c-1.8,0-3.3-0.7-4.4-1.8c-1.1-1.1-1.8-2.7-1.8-4.4c0-1.8,0.8-3.3,1.8-4.4C394.8,434.9,396.3,434.2,398.1,434.2L398.1,434.2z
	 M399.7,438.7c-0.4-0.4-1-0.8-1.7-0.8c-0.7,0-1.3,0.3-1.8,0.8c-0.4,0.4-0.8,1.1-0.8,1.8c0,0.7,0.3,1.3,0.8,1.7
	c0.4,0.5,1.1,0.8,1.8,0.8c0.7,0,1.3-0.3,1.7-0.8c0.5-0.4,0.8-1,0.8-1.7C400.5,439.8,400.2,439.1,399.7,438.7L399.7,438.7z"/>
<path class="st11" d="M413.7,436.1c2.4,0,4.4,1.9,4.4,4.4c0,2.3-1.9,4.3-4.4,4.3c-2.3,0-4.3-1.9-4.3-4.3
	C409.3,438,411.4,436.1,413.7,436.1L413.7,436.1z"/>
<path class="st12" d="M413.7,434.2c1.8,0,3.3,0.8,4.4,1.8c1.1,1.2,1.8,2.7,1.8,4.4c0,1.7-0.7,3.3-1.8,4.4c-1.2,1.2-2.7,1.8-4.4,1.8
	c-1.7,0-3.3-0.7-4.3-1.8c-1.2-1.1-1.8-2.7-1.8-4.4c0-1.8,0.7-3.3,1.8-4.4C410.4,434.9,412,434.2,413.7,434.2L413.7,434.2z
	 M415.4,438.7c-0.4-0.4-1.1-0.8-1.8-0.8c-0.7,0-1.3,0.3-1.8,0.8c-0.4,0.4-0.7,1.1-0.7,1.8c0,0.7,0.2,1.3,0.7,1.7
	c0.5,0.5,1.1,0.8,1.8,0.8c0.7,0,1.3-0.3,1.8-0.8c0.4-0.4,0.8-1,0.8-1.7C416.2,439.8,415.9,439.1,415.4,438.7L415.4,438.7z"/>
<path class="st1" d="M672.3,401.6H525.2h-0.1c-1.4,0-2.6,1.1-2.6,2.5v22.6v0.1v113.6v0.1c0,1.3,1.2,2.4,2.6,2.4h147.1h0.1
	c1.4,0,2.6-1.1,2.6-2.4V426.8v-0.1V404C674.9,402.6,673.7,401.6,672.3,401.6z"/>
<g>
	<rect x="711.4" y="449" class="st2" width="112.6" height="93.2"/>
	<path class="st3" d="M711.4,447.1H824c1.2,0,2.2,0.8,2.2,1.9v93.2c0,1-1,1.9-2.2,1.9H711.4c-1.2,0-2.2-0.8-2.2-1.9V449
		C709.2,448,710.2,447.1,711.4,447.1L711.4,447.1z M821.7,450.9H713.7v89.4h107.9V450.9z"/>
	<rect x="711.3" y="428.9" class="st5" width="113" height="20.1"/>
	<path class="st6" d="M711.3,427.1h113c1,0,1.9,0.8,1.9,1.9V449c0,1-0.8,1.9-1.9,1.9h-113c-1,0-1.9-0.8-1.9-1.9v-20.1
		C709.5,427.9,710.3,427.1,711.3,427.1L711.3,427.1z M822.4,430.8H713.2v16.3h109.2V430.8z"/>
	<path class="st7" d="M721.1,432.9c2.4,0,4.4,1.9,4.4,4.4c0,2.4-1.9,4.3-4.4,4.3c-2.4,0-4.4-1.9-4.4-4.3
		C716.7,434.8,718.7,432.9,721.1,432.9L721.1,432.9z"/>
	<path class="st8" d="M721.1,431c1.8,0,3.3,0.8,4.5,1.9c1.1,1.2,1.8,2.7,1.8,4.5c0,1.7-0.7,3.3-1.8,4.4c-1.2,1.2-2.7,1.9-4.5,1.9
		c-1.7,0-3.3-0.7-4.4-1.9c-1.2-1.1-1.8-2.7-1.8-4.4c0-1.8,0.7-3.3,1.8-4.5C717.8,431.7,719.4,431,721.1,431L721.1,431z M722.9,435.5
		c-0.4-0.4-1.1-0.8-1.8-0.8c-0.7,0-1.3,0.3-1.8,0.8c-0.4,0.4-0.7,1.1-0.7,1.8c0,0.7,0.3,1.3,0.7,1.7c0.5,0.5,1.1,0.8,1.8,0.8
		c0.7,0,1.3-0.3,1.8-0.8c0.4-0.4,0.8-1,0.8-1.7C723.6,436.6,723.3,435.9,722.9,435.5L722.9,435.5z"/>
	<path class="st9" d="M736.9,432.9c2.4,0,4.3,1.9,4.3,4.4c0,2.4-1.9,4.3-4.3,4.3c-2.4,0-4.4-1.9-4.4-4.3
		C732.5,434.8,734.5,432.9,736.9,432.9L736.9,432.9z"/>
	<path class="st10" d="M736.9,431c1.7,0,3.3,0.8,4.4,1.9c1.2,1.2,1.9,2.7,1.9,4.5c0,1.7-0.7,3.3-1.9,4.4c-1.1,1.2-2.7,1.9-4.4,1.9
		c-1.8,0-3.3-0.7-4.5-1.9c-1.1-1.1-1.8-2.7-1.8-4.4c0-1.8,0.8-3.3,1.8-4.5C733.6,431.7,735.1,431,736.9,431L736.9,431z M738.6,435.5
		c-0.4-0.4-1-0.8-1.7-0.8c-0.7,0-1.3,0.3-1.8,0.8c-0.4,0.4-0.8,1.1-0.8,1.8c0,0.7,0.3,1.3,0.8,1.7c0.4,0.5,1.1,0.8,1.8,0.8
		c0.7,0,1.3-0.3,1.7-0.8c0.5-0.4,0.8-1,0.8-1.7C739.3,436.6,739.1,435.9,738.6,435.5L738.6,435.5z"/>
	<path class="st11" d="M752.6,432.9c2.4,0,4.4,1.9,4.4,4.4c0,2.4-1.9,4.3-4.4,4.3c-2.4,0-4.4-1.9-4.4-4.3
		C748.3,434.8,750.3,432.9,752.6,432.9L752.6,432.9z"/>
	<path class="st12" d="M752.6,431c1.8,0,3.3,0.8,4.5,1.9c1.1,1.2,1.8,2.7,1.8,4.5c0,1.7-0.7,3.3-1.8,4.4c-1.2,1.2-2.7,1.9-4.5,1.9
		c-1.7,0-3.3-0.7-4.4-1.9c-1.2-1.1-1.9-2.7-1.9-4.4c0-1.8,0.7-3.3,1.9-4.5C749.3,431.7,750.9,431,752.6,431L752.6,431z M754.4,435.5
		c-0.4-0.4-1.1-0.8-1.8-0.8c-0.7,0-1.3,0.3-1.8,0.8c-0.4,0.4-0.7,1.1-0.7,1.8c0,0.7,0.3,1.3,0.7,1.7c0.5,0.5,1.1,0.8,1.8,0.8
		c0.7,0,1.3-0.3,1.8-0.8c0.4-0.4,0.8-1,0.8-1.7C755.1,436.6,754.8,435.9,754.4,435.5L754.4,435.5z"/>
	<g>
		<g>
			<g>
				<g>
					<path class="st13" d="M752.1,478.7C752.1,478.6,752.1,478.6,752.1,478.7L752.1,478.7z"/>
				</g>
				
					<rect x="757.8" y="490.4" transform="matrix(0.9825 0.1865 -0.1865 0.9825 104.7452 -132.8187)" class="st14" width="1.3" height="0"/>
			</g>
		</g>
		<rect x="731.7" y="469.2" class="st15" width="9.9" height="3"/>
		<rect x="747.1" y="476.5" class="st15" width="9.9" height="3"/>
		<rect x="731.7" y="476.5" class="st16" width="9.9" height="3"/>
		<rect x="731.7" y="483.7" class="st15" width="9.9" height="3"/>
		<rect x="747.1" y="483.7" class="st17" width="25" height="3"/>
		<rect x="762.2" y="490.9" class="st17" width="25" height="3"/>
		<rect x="745.3" y="469.2" class="st17" width="8.2" height="3"/>
		<rect x="751.9" y="498.2" class="st17" width="25" height="3"/>
		<rect x="746.6" y="505.4" class="st16" width="25" height="3"/>
		<rect x="777" y="504.8" class="st16" width="12.5" height="3"/>
		<rect x="791.2" y="504.8" class="st16" width="12.5" height="3"/>
		<rect x="731.7" y="490.9" class="st16" width="25.3" height="3"/>
		<rect x="731.7" y="498.2" class="st15" width="15.4" height="3"/>
		<rect x="731.7" y="505.4" class="st17" width="9.9" height="3"/>
	</g>
</g>
<g>
	<rect x="531" y="433.6" class="st2" width="136.1" height="113.7"/>
	<path class="st3" d="M669.4,433.6L669.4,433.6v113.7c0,1.4-1,2.4-2.4,2.4l0,0H531c-1.3,0-2.4-1-2.4-2.4l0,0V433.6
		c0-1.3,1.1-2.4,2.4-2.4l0,0h136.1C668.4,431.3,669.4,432.4,669.4,433.6L669.4,433.6z M664.7,545V436.1H533.3V545H664.7z"/>
	<rect x="531" y="411" class="st5" width="136.1" height="22.7"/>
	<path class="st6" d="M531,408.6L531,408.6h136.1c1.4,0,2.4,1.1,2.4,2.4v0.1v22.6c0,1.4-1,2.5-2.4,2.5l0,0H531
		c-1.3,0-2.4-1.1-2.4-2.5l0,0V411C528.6,409.7,529.7,408.6,531,408.6L531,408.6z M664.7,413.3H533.3v17.9h131.4V413.3z"/>
	<path class="st7" d="M547.2,417.2c2.8,0,5.1,2.4,5.1,5.1c0,2.9-2.4,5.1-5.1,5.1c-2.9,0-5.1-2.3-5.1-5.1
		C542.1,419.5,544.3,417.2,547.2,417.2L547.2,417.2z"/>
	<path class="st8" d="M547.2,415c2,0,3.8,0.8,5.1,2.2c1.4,1.3,2.2,3.2,2.2,5.1c0,2.1-0.8,3.8-2.2,5.2c-1.3,1.3-3.1,2.1-5.1,2.1
		c-2.1,0-3.8-0.8-5.2-2.1c-1.3-1.4-2.1-3.2-2.1-5.2c0-2,0.8-3.8,2.1-5.1C543.4,415.8,545.1,415,547.2,415L547.2,415z M549.3,420.2
		c-0.6-0.5-1.3-0.8-2.1-0.8c-0.8,0-1.6,0.3-2.1,0.8c-0.5,0.6-0.9,1.3-0.9,2.1c0,0.8,0.4,1.6,0.9,2.1c0.5,0.5,1.3,0.9,2.1,0.9
		c0.8,0,1.5-0.4,2.1-0.9c0.5-0.5,0.8-1.3,0.8-2.1C550.1,421.5,549.8,420.8,549.3,420.2L549.3,420.2z"/>
	<path class="st9" d="M565.6,417.2c2.9,0,5.1,2.4,5.1,5.1c0,2.9-2.3,5.1-5.1,5.1c-2.8,0-5-2.3-5-5.1
		C560.6,419.5,562.8,417.2,565.6,417.2L565.6,417.2z"/>
	<path class="st10" d="M565.6,415c2.1,0,3.9,0.8,5.2,2.2c1.3,1.3,2.2,3.2,2.2,5.1c0,2.1-0.9,3.8-2.2,5.2c-1.3,1.3-3.1,2.1-5.2,2.1
		c-2,0-3.8-0.8-5.1-2.1c-1.3-1.4-2.2-3.2-2.2-5.2c0-2,0.9-3.8,2.2-5.1C561.8,415.8,563.6,415,565.6,415L565.6,415z M567.7,420.2
		c-0.5-0.5-1.2-0.8-2.1-0.8c-0.8,0-1.5,0.3-2,0.8c-0.6,0.6-0.9,1.3-0.9,2.1c0,0.8,0.3,1.6,0.9,2.1c0.5,0.5,1.2,0.9,2,0.9
		c0.9,0,1.6-0.4,2.1-0.9c0.6-0.5,0.9-1.3,0.9-2.1C568.6,421.5,568.3,420.8,567.7,420.2L567.7,420.2z"/>
	<path class="st11" d="M584.1,417.2c2.9,0,5.1,2.4,5.1,5.1c0,2.9-2.3,5.1-5.1,5.1c-2.9,0-5.1-2.3-5.1-5.1
		C579,419.5,581.3,417.2,584.1,417.2L584.1,417.2z"/>
	<path class="st12" d="M584.1,415c2.1,0,3.8,0.8,5.2,2.2c1.3,1.3,2.1,3.2,2.1,5.1c0,2.1-0.8,3.8-2.1,5.2c-1.4,1.3-3.1,2.1-5.2,2.1
		c-2,0-3.8-0.8-5.1-2.1c-1.4-1.4-2.2-3.2-2.2-5.2c0-2,0.8-3.8,2.2-5.1C580.3,415.8,582.1,415,584.1,415L584.1,415z M586.2,420.2
		c-0.5-0.5-1.3-0.8-2.1-0.8c-0.8,0-1.5,0.3-2.1,0.8c-0.5,0.6-0.8,1.3-0.8,2.1c0,0.8,0.3,1.6,0.8,2.1c0.6,0.5,1.3,0.9,2.1,0.9
		c0.8,0,1.6-0.4,2.1-0.9c0.5-0.5,0.8-1.3,0.8-2.1C587,421.5,586.7,420.8,586.2,420.2L586.2,420.2z"/>
	<rect x="542.5" y="445.6" class="st18" width="113.1" height="26.2"/>
	<path class="st19" d="M542.5,443.2L542.5,443.2h113.1c1.3,0,2.4,1.1,2.4,2.4v0.1v26.1c0,1.4-1.1,2.4-2.4,2.4h-0.1h-113
		c-1.3,0-2.4-1-2.4-2.4l0,0v-26.2C540.1,444.3,541.2,443.2,542.5,443.2L542.5,443.2z M653.1,447.9H544.9v21.5h108.2V447.9z"/>
	<rect x="542.5" y="482.3" class="st20" width="51.2" height="26.2"/>
	<path class="st21" d="M542.5,479.9L542.5,479.9h51.2c1.4,0,2.4,1.1,2.4,2.4v0.1v26.1c0,1.3-1,2.4-2.4,2.4l0,0h-51.2
		c-1.3,0-2.4-1.1-2.4-2.4l0,0v-26.2C540.1,481,541.2,479.9,542.5,479.9L542.5,479.9z M591.3,484.6h-46.4v21.5h46.4V484.6z"/>
	<rect x="604.4" y="482.3" class="st20" width="51.2" height="26.2"/>
	<path class="st21" d="M604.4,479.9L604.4,479.9h51.2c1.3,0,2.4,1.1,2.4,2.4v0.1v26.1c0,1.3-1.1,2.4-2.4,2.4h-0.1h-51.1
		c-1.4,0-2.4-1.1-2.4-2.4l0,0v-26.2C602,481,603,479.9,604.4,479.9L604.4,479.9z M653.1,484.6h-46.4v21.5h46.4V484.6z"/>
	<path class="st4" d="M535.9,531.7c-1.4,0-2.7-1.2-2.7-2.7c0-1.6,1.2-2.8,2.7-2.8h56.6c1.4,0,2.7,1.2,2.7,2.8c0,1.4-1.2,2.7-2.7,2.7
		H535.9z"/>
	<path class="st4" d="M535.9,544.3c-1.4,0-2.7-1.2-2.7-2.7c0-1.6,1.2-2.8,2.7-2.8h56.6c1.4,0,2.7,1.2,2.7,2.8c0,1.4-1.2,2.7-2.7,2.7
		H535.9z"/>
	<path class="st4" d="M605.7,531.7c-1.4,0-2.7-1.2-2.7-2.7c0-1.6,1.2-2.8,2.7-2.8h56.6c1.6,0,2.7,1.2,2.7,2.8c0,1.4-1.1,2.7-2.7,2.7
		H605.7z"/>
	<path class="st4" d="M605.7,544.3c-1.4,0-2.7-1.2-2.7-2.7c0-1.6,1.2-2.8,2.7-2.8h56.6c1.6,0,2.7,1.2,2.7,2.8c0,1.4-1.1,2.7-2.7,2.7
		H605.7z"/>
</g>
<rect x="-17.8" y="184.5" class="st22" width="1198.8" height="572.3"/>
</svg>
