<?xml version="1.0" encoding="utf-8"?>
<!-- Generator: Adobe Illustrator 19.0.0, SVG Export Plug-In . SVG Version: 6.00 Build 0)  -->
<svg version="1.1" id="Layer_1" xmlns="http://www.w3.org/2000/svg" xmlns:xlink="http://www.w3.org/1999/xlink" x="0px" y="0px"
	 viewBox="152 244.8 900 352.1" style="enable-background:new 152 244.8 900 352.1;" xml:space="preserve">
<style type="text/css">
	.st0{fill:#F8F9FA;}
	.st1{opacity:0.9;fill:#36474F;enable-background:new    ;}
	.st2{fill:#E0E0E0;}
	.st3{fill:#36474F;}
	.st4{fill:#FF0C3E;}
	.st5{fill:#FFD514;}
	.st6{fill:#00E871;}
	.st7{fill:#B91912;}
	.st8{fill:#C82620;}
	.st9{fill:#D52D28;}
	.st10{fill:#006065;}
	.st11{fill:#008390;}
	.st12{fill:#0097A8;}
	.st13{fill:#FF6F00;}
	.st14{fill:#FF9000;}
	.st15{fill:#FFA100;}
	.st16{opacity:0.55;fill:#FFFFFF;enable-background:new    ;}
</style>
<g id="Layer_1_1_">
</g>
<ellipse class="st0" cx="610.1" cy="562.2" rx="343.8" ry="20.7"/>
<path class="st1" d="M706.6,343.5H505.4h-0.2c-1.9,0-3.5,1.6-3.5,3.6v33.5v0.2v168v0.2c0,1.9,1.6,3.5,3.5,3.5h201.2h0.2
	c1.9,0,3.5-1.6,3.5-3.5V381v-0.2v-33.5C710.1,345.2,708.5,343.5,706.6,343.5z"/>
<g>
	<rect x="492.2" y="387.8" class="st2" width="205.3" height="171.4"/>
	<path class="st2" d="M701.1,387.8v0.2v171.2c0,2-1.5,3.5-3.5,3.5h-0.2H492.2c-2,0-3.5-1.5-3.5-3.5V559V387.8c0-2,1.5-3.5,3.5-3.5
		h0.2h205.1C699.4,384.2,701.1,385.8,701.1,387.8L701.1,387.8z M693.8,555.6V391.4h-198v164.3h198V555.6z"/>
	<rect x="492.2" y="353.6" class="st3" width="205.3" height="34.2"/>
	<path class="st3" d="M492.2,349.9h0.2h205.1c2,0,3.5,1.5,3.5,3.7l0,0v34.2c0,2-1.5,3.5-3.5,3.5h-0.2H492.2c-2,0-3.5-1.7-3.5-3.5
		v-0.2v-34.1C488.7,351.4,490.2,349.9,492.2,349.9L492.2,349.9z M693.8,357.1h-198v27.1h198V357.1z"/>
	<path class="st4" d="M516.8,363c4.3,0,7.7,3.4,7.7,7.7c0,4.1-3.4,7.7-7.7,7.7c-4.1,0-7.7-3.5-7.7-7.7
		C509,366.3,512.5,363,516.8,363L516.8,363z"/>
	<path class="st4" d="M516.8,359.7c3.1,0,5.8,1.1,7.8,3.1c2,2.2,3.1,4.7,3.1,7.8c0,3-1.1,5.8-3.1,7.7c-2.1,2.2-4.7,3.3-7.8,3.3
		c-3,0-5.8-1.1-7.7-3.3c-2.1-2-3.3-4.7-3.3-7.7c0-3.1,1.1-5.8,3.3-7.8C510.9,360.8,513.8,359.7,516.8,359.7L516.8,359.7z
		 M519.9,367.5c-0.7-0.7-2-1.3-3.1-1.3s-2.2,0.6-3.1,1.3c-0.7,0.7-1.1,2-1.1,3.1s0.4,2.2,1.1,3.1c0.9,0.7,2,1.1,3.1,1.1
		c1.1,0,2.4-0.4,3.1-1.1c0.7-0.9,1.3-2,1.3-3.1S520.6,368.3,519.9,367.5L519.9,367.5z"/>
	<path class="st5" d="M544.7,363c4.1,0,7.7,3.4,7.7,7.7c0,4.1-3.5,7.7-7.7,7.7c-4.3,0-7.7-3.5-7.7-7.7
		C536.9,366.3,540.3,363,544.7,363L544.7,363z"/>
	<path class="st5" d="M544.7,359.7c3,0,5.8,1.1,7.7,3.1c2.1,2.2,3.3,4.7,3.3,7.8c0,3-1.1,5.8-3.3,7.7c-2,2.2-4.7,3.3-7.7,3.3
		c-3.1,0-5.8-1.1-7.8-3.3c-2-2-3.1-4.7-3.1-7.7c0-3.1,1.1-5.8,3.1-7.8C538.8,360.8,541.6,359.7,544.7,359.7L544.7,359.7z
		 M547.8,367.5c-0.9-0.7-2-1.3-3.1-1.3s-2.4,0.6-3.1,1.3c-0.7,0.7-1.3,2-1.3,3.1s0.6,2.2,1.3,3.1c0.7,0.7,2,1.1,3.1,1.1
		s2.2-0.4,3.1-1.1c0.7-0.9,1.1-2,1.1-3.1S548.4,368.3,547.8,367.5L547.8,367.5z"/>
	<path class="st6" d="M572.3,363c4.3,0,7.7,3.4,7.7,7.7c0,4.1-3.4,7.7-7.7,7.7c-4.1,0-7.5-3.5-7.5-7.7
		C564.8,366.3,568.2,363,572.3,363L572.3,363z"/>
	<path class="st6" d="M572.3,359.7c3.1,0,5.8,1.1,7.8,3.1c2,2.2,3.3,4.7,3.3,7.8c0,3-1.3,5.8-3.3,7.7c-2.1,2.2-4.7,3.3-7.8,3.3
		c-3,0-5.8-1.1-7.7-3.3c-2-2-3.3-4.7-3.3-7.7c0-3.1,1.3-5.8,3.3-7.8C566.5,360.8,569.4,359.7,572.3,359.7L572.3,359.7z M575.4,367.5
		c-0.7-0.7-1.8-1.3-3.1-1.3c-1.1,0-2.2,0.6-3,1.3c-0.9,0.7-1.3,2-1.3,3.1s0.4,2.2,1.3,3.1c0.7,0.7,1.8,1.1,3,1.1
		c1.3,0,2.4-0.4,3.1-1.1c0.9-0.9,1.3-2,1.3-3.1C576.9,369.5,576.3,368.3,575.4,367.5L575.4,367.5z"/>
	<path class="st7" d="M513.5,410h43.5c1,0,1.8,0.7,1.8,1.5V443c0,0.9-0.7,1.8-1.8,1.8h-43.5c-0.9,0-1.8-0.9-1.8-1.8v-31.5
		C511.7,410.7,512.5,410,513.5,410L513.5,410z"/>
	<path class="st8" d="M573.2,410h43.7c0.9,0,1.5,0.7,1.5,1.5V443c0,0.9-0.7,1.8-1.5,1.8h-43.7c-0.9,0-1.5-0.9-1.5-1.8v-31.5
		C571.4,410.7,572.2,410,573.2,410L573.2,410z"/>
	<path class="st9" d="M632.8,410h43.5c0.9,0,1.5,0.7,1.5,1.5V443c0,0.9-0.7,1.8-1.5,1.8h-43.5c-1,0-1.8-0.9-1.8-1.8v-31.5
		C631.1,410.7,631.8,410,632.8,410L632.8,410z"/>
	<path class="st10" d="M513.5,455.9h43.5c1,0,1.8,0.7,1.8,1.5V489c0,1-0.7,1.8-1.8,1.8h-43.5c-0.9,0-1.8-0.7-1.8-1.8v-31.5
		C511.7,456.7,512.5,455.9,513.5,455.9L513.5,455.9z"/>
	<path class="st11" d="M573.2,455.9h43.7c0.9,0,1.5,0.7,1.5,1.5V489c0,1-0.7,1.8-1.5,1.8h-43.7c-0.9,0-1.5-0.7-1.5-1.8v-31.5
		C571.4,456.7,572.2,455.9,573.2,455.9L573.2,455.9z"/>
	<path class="st12" d="M632.8,455.9h43.5c0.9,0,1.5,0.7,1.5,1.5V489c0,1-0.7,1.8-1.5,1.8h-43.5c-1,0-1.8-0.7-1.8-1.8v-31.5
		C631.1,456.7,631.8,455.9,632.8,455.9L632.8,455.9z"/>
	<path class="st13" d="M513.5,502.1h43.5c1,0,1.8,0.9,1.8,1.8v31.5c0,0.9-0.7,1.5-1.8,1.5h-43.5c-0.9,0-1.8-0.7-1.8-1.5v-31.5
		C511.7,502.9,512.5,502.1,513.5,502.1L513.5,502.1z"/>
	<path class="st14" d="M573.2,502.1h43.7c0.9,0,1.5,0.9,1.5,1.8v31.5c0,0.9-0.7,1.5-1.5,1.5h-43.7c-0.9,0-1.5-0.7-1.5-1.5v-31.5
		C571.4,502.9,572.2,502.1,573.2,502.1L573.2,502.1z"/>
	<path class="st15" d="M632.8,502.1h43.5c0.9,0,1.5,0.9,1.5,1.8v31.5c0,0.9-0.7,1.5-1.5,1.5h-43.5c-1,0-1.8-0.7-1.8-1.5v-31.5
		C631.1,502.9,631.8,502.1,632.8,502.1L632.8,502.1z"/>
</g>
<rect x="11.9" y="83.7" class="st16" width="1198.8" height="572.3"/>
</svg>
