<?xml version="1.0" encoding="utf-8"?>
<!-- Generator: Adobe Illustrator 19.0.0, SVG Export Plug-In . SVG Version: 6.00 Build 0)  -->
<svg version="1.1" id="Layer_1" xmlns="http://www.w3.org/2000/svg" xmlns:xlink="http://www.w3.org/1999/xlink" x="0px" y="0px"
	 viewBox="152 244.8 900 352.1" style="enable-background:new 152 244.8 900 352.1;" xml:space="preserve">
<style type="text/css">
	.st0{fill:#F8F9FA;}
	.st1{opacity:0.9;fill:#36474F;enable-background:new    ;}
	.st2{fill:#E0E0E0;}
	.st3{fill:#36474F;}
	.st4{fill:#FF0C3E;}
	.st5{fill:#FFD514;}
	.st6{fill:#00E871;}
	.st7{fill:#9E9E9E;}
	.st8{opacity:0.55;fill:#FFFFFF;enable-background:new    ;}
</style>
<g id="Layer_1_1_">
</g>
<ellipse class="st0" cx="610.1" cy="562.2" rx="343.8" ry="20.7"/>
<path class="st1" d="M706.6,343.5H505.4h-0.2c-1.9,0-3.5,1.6-3.5,3.6v33.5v0.2v168v0.2c0,1.9,1.6,3.5,3.5,3.5h201.2h0.2
	c1.9,0,3.5-1.6,3.5-3.5V381v-0.2v-33.5C710.1,345.2,708.5,343.5,706.6,343.5z"/>
<g>
	<rect x="495.4" y="388.3" class="st2" width="203.7" height="170.2"/>
	<path class="st2" d="M702.8,388.3v0.2v170.1c0,1.9-1.6,3.5-3.5,3.5l0,0H495.4c-2.1,0-3.5-1.6-3.5-3.5v-0.2V388.3
		c0-1.9,1.5-3.5,3.5-3.5l0,0h203.7C701.2,384.8,702.8,386.4,702.8,388.3L702.8,388.3z M695.7,555V391.9H499V555H695.7z"/>
	<rect x="495.4" y="354.2" class="st3" width="203.7" height="34.1"/>
	<path class="st3" d="M495.4,350.6L495.4,350.6h203.7c1.9,0,3.5,1.6,3.5,3.5v0.2v34c0,1.9-1.6,3.5-3.5,3.5l0,0H495.4
		c-2.1,0-3.5-1.6-3.5-3.5v-0.2v-34C491.9,352.3,493.4,350.6,495.4,350.6L495.4,350.6z M695.7,357.9H499v26.9h196.7V357.9z"/>
	<path class="st4" d="M519.8,363.6c4.1,0,7.6,3.4,7.6,7.6s-3.5,7.7-7.6,7.7c-4.3,0-7.6-3.5-7.6-7.7
		C512.1,367.1,515.5,363.6,519.8,363.6L519.8,363.6z"/>
	<path class="st4" d="M519.8,360.4c2.9,0,5.7,1.2,7.6,3.1c2.1,2.1,3.3,4.7,3.3,7.8c0,3-1.2,5.7-3.3,7.7c-1.9,2.1-4.7,3.3-7.6,3.3
		c-3.1,0-5.7-1.2-7.8-3.3c-1.9-1.9-3.1-4.7-3.1-7.7c0-3.1,1.2-5.7,3.1-7.8C514,361.6,516.7,360.4,519.8,360.4L519.8,360.4z
		 M522.9,368.2c-0.9-0.7-1.9-1.4-3.1-1.4c-1.2,0-2.4,0.5-3.1,1.4c-0.7,0.7-1.4,1.9-1.4,3.1s0.5,2.2,1.4,3.1c0.7,0.7,1.9,1.2,3.1,1.2
		c1.2,0,2.2-0.5,3.1-1.2c0.7-0.9,1.2-1.9,1.2-3.1C524.1,370.2,523.6,369,522.9,368.2L522.9,368.2z"/>
	<path class="st5" d="M547.3,363.6c4.3,0,7.6,3.4,7.6,7.6s-3.4,7.7-7.6,7.7c-4.1,0-7.5-3.5-7.5-7.7S543.2,363.6,547.3,363.6
		L547.3,363.6z"/>
	<path class="st5" d="M547.3,360.4c3.1,0,5.7,1.2,7.8,3.1c1.9,2.1,3.3,4.7,3.3,7.8c0,3-1.4,5.7-3.3,7.7c-2.1,2.1-4.7,3.3-7.8,3.3
		c-2.9,0-5.7-1.2-7.6-3.3c-1.9-1.9-3.3-4.7-3.3-7.7c0-3.1,1.4-5.7,3.3-7.8C541.6,361.6,544.4,360.4,547.3,360.4L547.3,360.4z
		 M550.4,368.2c-0.7-0.7-1.7-1.4-3.1-1.4c-1.2,0-2.2,0.5-2.9,1.4c-0.9,0.7-1.4,1.9-1.4,3.1s0.5,2.2,1.4,3.1c0.7,0.7,1.8,1.2,2.9,1.2
		c1.4,0,2.4-0.5,3.1-1.2c0.9-0.9,1.4-1.9,1.4-3.1C551.8,370.2,551.3,369,550.4,368.2L550.4,368.2z"/>
	<path class="st6" d="M575,363.6c4.3,0,7.6,3.4,7.6,7.6s-3.4,7.7-7.6,7.7c-4.3,0-7.6-3.5-7.6-7.7C567.4,367.1,570.7,363.6,575,363.6
		L575,363.6z"/>
	<path class="st6" d="M575,360.4c3.1,0,5.7,1.2,7.6,3.1c2.1,2.1,3.3,4.7,3.3,7.8c0,3-1.2,5.7-3.3,7.7c-1.9,2.1-4.5,3.3-7.6,3.3
		c-2.9,0-5.7-1.2-7.6-3.3c-2.1-1.9-3.3-4.7-3.3-7.7c0-3.1,1.2-5.7,3.3-7.8C569.3,361.6,572.1,360.4,575,360.4L575,360.4z
		 M578.1,368.2c-0.9-0.7-1.9-1.4-3.1-1.4c-1.2,0-2.2,0.5-3.1,1.4c-0.7,0.7-1.2,1.9-1.2,3.1s0.5,2.2,1.2,3.1c0.9,0.7,1.9,1.2,3.1,1.2
		c1.2,0,2.2-0.5,3.1-1.2c0.7-0.9,1.2-1.9,1.2-3.1C579.3,370.2,578.8,369,578.1,368.2L578.1,368.2z"/>
	<path class="st7" d="M627.2,412.7l1.4,28.6h-3.4c-0.7-5-1.6-8.7-2.6-10.8c-1.9-3.4-4.3-6.1-7.4-7.7c-3.1-1.6-7.1-2.4-12.1-2.4H586
		V513c0,7.4,0.7,12.1,2.4,14c2.4,2.5,5.7,3.7,10.4,3.7h4.1v3.3h-51.4v-3.3h4.3c5.2,0,8.8-1.6,11.1-4.7c1.4-1.9,2.1-6.2,2.1-13v-92.5
		h-14.6c-5.6,0-9.7,0.3-12.1,1.2c-3.1,1.2-5.7,3.3-8,6.5c-2.2,3.3-3.5,7.5-3.8,13.2h-3.4l1.2-28.6L627.2,412.7L627.2,412.7z"/>
	<path class="st7" d="M667.1,467.9l0.5,15.5h-1.7c-0.5-2.6-0.9-4.5-1.5-5.7c-1-1.9-2.4-3.3-4-4.1c-1.7-0.9-4-1.5-6.6-1.5h-9.3v50.7
		c0,4,0.5,6.5,1.4,7.5c1.2,1.5,3.1,2.1,5.6,2.1h2.4v1.8h-28.1v-1.8h2.4c2.8,0,4.8-0.9,6.1-2.5c0.7-1,1-3.4,1-7.1v-50.7h-8.1
		c-3.1,0-5.2,0.3-6.4,0.7c-1.7,0.6-3.1,1.8-4.5,3.5c-1.2,1.8-1.9,4.2-2.1,7.1h-1.9l0.7-15.5H667.1L667.1,467.9z"/>
</g>
<rect x="28.9" y="86.7" class="st8" width="1198.8" height="572.3"/>
</svg>
