<?xml version="1.0" encoding="utf-8"?>
<!-- Generator: Adobe Illustrator 19.0.0, SVG Export Plug-In . SVG Version: 6.00 Build 0)  -->
<svg version="1.1" id="Layer_1" xmlns="http://www.w3.org/2000/svg" xmlns:xlink="http://www.w3.org/1999/xlink" x="0px" y="0px"
	 viewBox="152 244.8 900 352.1" style="enable-background:new 152 244.8 900 352.1;" xml:space="preserve">
<style type="text/css">
	.st0{fill:#F8F9FA;}
	.st1{opacity:0.9;fill:#36474F;enable-background:new    ;}
	.st2{fill:#36474F;}
	.st3{fill:#FF0C3E;}
	.st4{fill:#FFD514;}
	.st5{fill:#00E871;}
	.st6{fill:#E0E0E0;}
	.st7{fill:#FEFEFE;}
	.st8{clip-path:url(#SVGID_2_);fill:#CCD1D9;}
	.st9{clip-path:url(#SVGID_4_);fill:#CCD1D9;}
	.st10{fill:#CCD1D9;}
	.st11{clip-path:url(#SVGID_6_);fill:#CCD1D9;}
	.st12{clip-path:url(#SVGID_8_);fill:#CCD1D9;}
	.st13{clip-path:url(#SVGID_10_);fill:#CCD1D9;}
	.st14{clip-path:url(#SVGID_12_);fill:#CCD1D9;}
	.st15{clip-path:url(#SVGID_14_);fill:#CCD1D9;}
	.st16{fill:#45AC4C;}
	.st17{clip-path:url(#SVGID_16_);fill:#CCD1D9;}
	.st18{opacity:0.55;fill:#FFFFFF;enable-background:new    ;}
</style>
<ellipse class="st0" cx="613.1" cy="559.1" rx="343.8" ry="26.6"/>
<path class="st1" d="M888.1,432.8H788h-0.1c-0.9,0-1.7,0.8-1.7,1.8v16.7v0.1V535v0.1c0,0.9,0.8,1.7,1.7,1.7H888h0.1
	c0.9,0,1.7-0.8,1.7-1.7v-83.6v-0.1v-16.7C889.9,433.6,889.1,432.8,888.1,432.8z"/>
<g>
	<rect x="783" y="438.4" class="st2" width="101.1" height="16.9"/>
	<path class="st2" d="M783,436.7L783,436.7h101.1c0.9,0,1.7,0.8,1.7,1.7l0,0v16.8c0,0.9-0.8,1.7-1.7,1.7l0,0H783
		c-0.9,0-1.7-0.8-1.7-1.7l0,0v-16.8C781.2,437.5,782,436.7,783,436.7L783,436.7z M882.3,440.2h-97.6v13.4h97.6V440.2z"/>
	<path class="st3" d="M795.1,443.2c2.1,0,3.8,1.7,3.8,3.7c0,2.1-1.7,3.8-3.8,3.8c-2,0-3.8-1.7-3.8-3.8
		C791.2,444.8,793,443.2,795.1,443.2L795.1,443.2z"/>
	<path class="st3" d="M795.1,441.5c1.5,0,2.8,0.6,3.9,1.6c0.9,0.9,1.5,2.3,1.5,3.8s-0.6,2.8-1.5,3.9c-1,0.9-2.3,1.6-3.9,1.6
		c-1.4,0-2.8-0.6-3.8-1.6s-1.6-2.3-1.6-3.9c0-1.4,0.6-2.8,1.6-3.8C792.2,442.1,793.6,441.5,795.1,441.5L795.1,441.5z M796.6,445.4
		c-0.3-0.4-0.9-0.6-1.5-0.6s-1.1,0.2-1.5,0.6c-0.3,0.3-0.6,0.9-0.6,1.4c0,0.6,0.2,1.2,0.6,1.5c0.4,0.4,0.9,0.6,1.5,0.6
		s1.1-0.2,1.5-0.6c0.3-0.3,0.6-0.9,0.6-1.5C797.3,446.3,797,445.8,796.6,445.4L796.6,445.4z"/>
	<path class="st4" d="M808.8,443.2c2,0,3.8,1.7,3.8,3.7c0,2.1-1.7,3.8-3.8,3.8s-3.8-1.7-3.8-3.8C805,444.8,806.7,443.2,808.8,443.2
		L808.8,443.2z"/>
	<path class="st4" d="M808.8,441.5c1.4,0,2.8,0.6,3.8,1.6c1,0.9,1.6,2.3,1.6,3.8s-0.6,2.8-1.6,3.9c-0.9,0.9-2.3,1.6-3.8,1.6
		s-2.8-0.6-3.9-1.6c-0.9-1-1.5-2.3-1.5-3.9c0-1.4,0.6-2.8,1.5-3.8C805.9,442.1,807.3,441.5,808.8,441.5L808.8,441.5z M810.3,445.4
		c-0.4-0.4-0.9-0.6-1.5-0.6s-1.2,0.2-1.5,0.6c-0.3,0.3-0.6,0.9-0.6,1.4c0,0.6,0.3,1.2,0.6,1.5c0.3,0.4,0.9,0.6,1.5,0.6
		s1.1-0.2,1.5-0.6c0.3-0.3,0.6-0.9,0.6-1.5C810.9,446.3,810.7,445.8,810.3,445.4L810.3,445.4z"/>
	<path class="st5" d="M822.4,443.2c2.1,0,3.8,1.7,3.8,3.7c0,2.1-1.7,3.8-3.8,3.8c-2,0-3.7-1.7-3.7-3.8
		C818.7,444.8,820.4,443.2,822.4,443.2L822.4,443.2z"/>
	<path class="st5" d="M822.4,441.5c1.5,0,2.8,0.6,3.9,1.6c0.9,0.9,1.6,2.3,1.6,3.8s-0.6,2.8-1.6,3.9c-1,0.9-2.3,1.6-3.9,1.6
		c-1.4,0-2.8-0.6-3.8-1.6c-0.9-1-1.6-2.3-1.6-3.9c0-1.4,0.6-2.8,1.6-3.8C819.6,442.1,821,441.5,822.4,441.5L822.4,441.5z M824,445.4
		c-0.3-0.4-0.9-0.6-1.5-0.6s-1.1,0.2-1.4,0.6c-0.4,0.3-0.6,0.9-0.6,1.4c0,0.6,0.2,1.2,0.6,1.5c0.3,0.4,0.9,0.6,1.4,0.6
		c0.6,0,1.1-0.2,1.5-0.6c0.4-0.3,0.6-0.9,0.6-1.5C824.6,446.3,824.4,445.8,824,445.4L824,445.4z"/>
	<path class="st6" d="M884.1,455.4v84.4H783v-84.4h57.6l2.9-5.2c0.4-0.8,0.9-1.7,3-1.7h10.8c1.7,0,2.6,0.9,3.1,1.7l2.8,5.2H884.1z"
		/>
	<path class="st6" d="M885.9,455.4L885.9,455.4v84.4c0,1-0.8,1.8-1.7,1.8l0,0H783c-0.9,0-1.7-0.8-1.7-1.8l0,0v-84.4
		c0-1,0.8-1.7,1.7-1.7l0,0h56.5l2.4-4.2l0,0l0,0l0,0c0.6-1.2,1.4-2.5,4.5-2.5h10.8c1.1,0,2,0.3,2.6,0.6l0,0l0,0
		c0.9,0.5,1.5,1.2,1.9,2l2.3,4.2h19.9C885.1,453.6,885.9,454.4,885.9,455.4L885.9,455.4z M882.3,538v-80.8h-19.1l0,0
		c-0.6,0-1.2-0.3-1.5-0.9l-2.8-5.1c0-0.2-0.3-0.4-0.6-0.6l0,0c-0.2,0-0.5-0.2-0.9-0.2h-10.8c-0.9,0-1.2,0.3-1.4,0.6l0,0l0,0l0,0l0,0
		l-2.8,5.1c-0.2,0.6-0.9,1-1.6,1H785v80.8L882.3,538L882.3,538z"/>
	<polygon class="st7" points="867.9,444 867.9,446.5 870.2,446.5 870.2,447.4 867.9,447.4 867.9,449.7 867,449.7 867,447.4 
		864.8,447.4 864.8,446.5 867,446.5 867,444 	"/>
</g>
<g>
	<g>
		<g>
			<g>
				<defs>
					<rect id="SVGID_1_" x="826" y="474.9" width="39.1" height="35.2"/>
				</defs>
				<clipPath id="SVGID_2_">
					<use xlink:href="#SVGID_1_"  style="overflow:visible;"/>
				</clipPath>
				<path class="st8" d="M843.7,506.2l-3.9,3.9h25.4v-3.9H843.7z M860.7,482.7c0.8-0.8,0.8-2,0-2.7l-4.5-4.5c-0.8-0.8-2-0.8-2.7,0
					L850,479l7.4,7.4L860.7,482.7z M826,502.7v7.4h7.4l21.5-21.7l-7.4-7.4L826,502.7z"/>
			</g>
		</g>
	</g>
</g>
<g id="Layer_1_1_">
</g>
<g>
	<g>
		<g>
			<defs>
				<rect id="SVGID_3_" x="1339.3" y="-283.7" width="58.6" height="58.6"/>
			</defs>
			<clipPath id="SVGID_4_">
				<use xlink:href="#SVGID_3_"  style="overflow:visible;"/>
			</clipPath>
			<path class="st9" d="M1365.7-263.2h5.9v-5.9h-5.9V-263.2z M1368.6-231c-12.9,0-23.4-10.5-23.4-23.4c0-12.9,10.5-23.4,23.4-23.4
				s23.4,10.5,23.4,23.4S1381.6-231,1368.6-231 M1368.6-283.7c-16.1,0-29.3,13.2-29.3,29.3s13.2,29.3,29.3,29.3
				c16.1,0,29.3-13.2,29.3-29.3S1384.8-283.7,1368.6-283.7 M1365.7-239.8h5.9v-17.6h-5.9V-239.8z"/>
		</g>
	</g>
</g>
<g>
	<polygon class="st10" points="1234.4,-109.1 1230.7,-105.3 1227,-109.1 1225.9,-108 1229.6,-104.3 1225.9,-100.6 1227,-99.5 
		1230.7,-103.2 1234.4,-99.5 1235.4,-100.6 1231.7,-104.3 1235.4,-108 	"/>
	<g>
		<g>
			<g>
				<defs>
					<rect id="SVGID_5_" x="1218.7" y="-116.3" width="24" height="24"/>
				</defs>
				<clipPath id="SVGID_6_">
					<use xlink:href="#SVGID_5_"  style="overflow:visible;"/>
				</clipPath>
				<path class="st11" d="M1230.7-94.2c-5.6,0-10.1-4.5-10.1-10.1s4.5-10.1,10.1-10.1s10.1,4.5,10.1,10.1S1236.3-94.2,1230.7-94.2
					 M1230.7-116.3c-6.6,0-12,5.4-12,12s5.4,12,12,12s12-5.4,12-12S1237.3-116.3,1230.7-116.3"/>
			</g>
		</g>
	</g>
</g>
<g>
	<g>
		<g>
			<g>
				<defs>
					<rect id="SVGID_7_" x="1289.1" y="-116.3" width="24" height="24"/>
				</defs>
				<clipPath id="SVGID_8_">
					<use xlink:href="#SVGID_7_"  style="overflow:visible;"/>
				</clipPath>
				<path class="st12" d="M1299.9-107.9h2.4v-2.4h-2.4V-107.9z M1301.1-94.7c-5.3,0-9.6-4.3-9.6-9.6s4.3-9.6,9.6-9.6
					c5.3,0,9.6,4.3,9.6,9.6S1306.4-94.7,1301.1-94.7 M1301.1-116.3c-6.6,0-12,5.4-12,12s5.4,12,12,12s12-5.4,12-12
					S1307.7-116.3,1301.1-116.3 M1299.9-98.3h2.4v-7.2h-2.4V-98.3z"/>
			</g>
		</g>
	</g>
</g>
<g>
	<g>
		<g>
			<g>
				<defs>
					<rect id="SVGID_9_" x="1245.7" y="60.3" width="28.8" height="16.4"/>
				</defs>
				<clipPath id="SVGID_10_">
					<use xlink:href="#SVGID_9_"  style="overflow:visible;"/>
				</clipPath>
				<path class="st13" d="M1260.1,74.3c-3.1,0-5.8-2.6-5.8-5.9c0-3.2,2.6-5.9,5.8-5.9s5.8,2.6,5.8,5.9S1263.4,74.3,1260.1,74.3
					 M1260.1,60.3c-5.3,0-9.4,3.1-14.4,8.3c4.3,4.3,7.9,8.3,14.4,8.3s11.2-4.9,14.4-8.2C1271.3,64.7,1266.5,60.3,1260.1,60.3"/>
			</g>
		</g>
		<g>
			<g>
				<defs>
					<rect id="SVGID_11_" x="1245.7" y="60.3" width="28.8" height="16.4"/>
				</defs>
				<clipPath id="SVGID_12_">
					<use xlink:href="#SVGID_11_"  style="overflow:visible;"/>
				</clipPath>
				<path class="st14" d="M1260.1,66.4c0-0.5,0.2-1,0.5-1.3c-0.1,0-0.4,0-0.5,0c-1.8,0-3.4,1.6-3.4,3.5s1.6,3.5,3.4,3.5
					s3.4-1.6,3.4-3.5c0-0.1,0-0.2,0-0.5c-0.4,0.2-0.8,0.5-1.3,0.5C1261.1,68.4,1260.1,67.6,1260.1,66.4"/>
			</g>
		</g>
	</g>
</g>
<g>
	<polygon class="st10" points="1369.5,-101.9 1367,-104.3 1365.5,-102.8 1369.5,-99 1377.5,-108 1376,-109.5 	"/>
	<g>
		<g>
			<g>
				<defs>
					<rect id="SVGID_13_" x="1359.5" y="-116.3" width="24" height="24"/>
				</defs>
				<clipPath id="SVGID_14_">
					<use xlink:href="#SVGID_13_"  style="overflow:visible;"/>
				</clipPath>
				<path class="st15" d="M1371.5-94.2c-5.6,0-10.1-4.5-10.1-10.1s4.5-10.1,10.1-10.1s10.1,4.5,10.1,10.1S1377.1-94.2,1371.5-94.2
					 M1371.5-116.3c-6.6,0-12,5.4-12,12s5.4,12,12,12s12-5.4,12-12S1378.2-116.3,1371.5-116.3"/>
			</g>
		</g>
	</g>
</g>
<path class="st1" d="M797.5,408.8H663.4h-0.1c-1.3,0-2.3,1.1-2.3,2.4v22.3v0.1v112v0.1c0,1.3,1.1,2.3,2.3,2.3h134.1h0.1
	c1.3,0,2.3-1.1,2.3-2.3V433.8v-0.1v-22.3C799.8,409.9,798.8,408.8,797.5,408.8z"/>
<g>
	<rect x="656.6" y="416.4" class="st2" width="135.5" height="22.7"/>
	<path class="st2" d="M656.6,414L656.6,414H792c1.3,0,2.3,1.1,2.3,2.3v0.1v22.5c0,1.3-1.1,2.3-2.3,2.3l0,0H656.6
		c-1.3,0-2.3-1.1-2.3-2.3l0,0v-22.5C654.3,415.1,655.4,414,656.6,414L656.6,414z M789.6,418.8H659v17.9h130.7v-17.9H789.6z"/>
	<path class="st3" d="M672.8,422.7c2.9,0,5.1,2.3,5.1,5c0,2.9-2.3,5.1-5.1,5.1c-2.7,0-5.1-2.3-5.1-5.1
		C667.7,424.9,670.1,422.7,672.8,422.7L672.8,422.7z"/>
	<path class="st3" d="M672.8,420.4c2.1,0,3.8,0.9,5.2,2.1c1.3,1.3,2.1,3.1,2.1,5.1c0,2.1-0.8,3.8-2.1,5.2c-1.4,1.3-3.1,2.1-5.2,2.1
		c-1.9,0-3.8-0.9-5.1-2.1c-1.4-1.4-2.1-3.1-2.1-5.2c0-1.9,0.8-3.8,2.1-5.1C669,421.3,670.8,420.4,672.8,420.4L672.8,420.4z
		 M674.8,425.7c-0.5-0.6-1.3-0.9-2.1-0.9s-1.5,0.3-2.1,0.9c-0.5,0.5-0.8,1.2-0.8,1.9c0,0.9,0.3,1.6,0.8,2.1c0.6,0.6,1.3,0.9,2.1,0.9
		s1.5-0.3,2.1-0.9c0.5-0.5,0.9-1.2,0.9-2.1C675.8,426.9,675.4,426.2,674.8,425.7L674.8,425.7z"/>
	<path class="st4" d="M691.2,422.7c2.7,0,5.1,2.3,5.1,5c0,2.9-2.3,5.1-5.1,5.1c-2.9,0-5.1-2.3-5.1-5.1
		C686.1,424.9,688.4,422.7,691.2,422.7L691.2,422.7z"/>
	<path class="st4" d="M691.2,420.4c1.9,0,3.8,0.9,5.1,2.1c1.4,1.3,2.1,3.1,2.1,5.1c0,2.1-0.8,3.8-2.1,5.2c-1.3,1.3-3.1,2.1-5.1,2.1
		c-2.1,0-3.8-0.9-5.2-2.1c-1.3-1.4-2.1-3.1-2.1-5.2c0-1.9,0.8-3.8,2.1-5.1C687.4,421.3,689.2,420.4,691.2,420.4L691.2,420.4z
		 M693.2,425.7c-0.6-0.6-1.3-0.9-2.1-0.9s-1.6,0.3-2.1,0.9c-0.5,0.5-0.9,1.2-0.9,1.9c0,0.9,0.4,1.6,0.9,2.1c0.5,0.6,1.3,0.9,2.1,0.9
		s1.5-0.3,2.1-0.9c0.5-0.5,0.8-1.2,0.8-2.1C694,426.9,693.8,426.2,693.2,425.7L693.2,425.7z"/>
	<path class="st5" d="M709.5,422.7c2.9,0,5.1,2.3,5.1,5c0,2.9-2.3,5.1-5.1,5.1c-2.7,0-5-2.3-5-5.1S706.8,422.7,709.5,422.7
		L709.5,422.7z"/>
	<path class="st5" d="M709.5,420.4c2.1,0,3.8,0.9,5.2,2.1c1.3,1.3,2.1,3.1,2.1,5.1c0,2.1-0.9,3.8-2.1,5.2c-1.4,1.3-3.1,2.1-5.2,2.1
		c-1.9,0-3.8-0.9-5.1-2.1c-1.3-1.4-2.1-3.1-2.1-5.2c0-1.9,0.9-3.8,2.1-5.1C705.7,421.3,707.6,420.4,709.5,420.4L709.5,420.4z
		 M711.6,425.7c-0.5-0.6-1.2-0.9-2.1-0.9c-0.8,0-1.5,0.3-1.9,0.9c-0.6,0.5-0.9,1.2-0.9,1.9c0,0.9,0.3,1.6,0.9,2.1
		c0.5,0.6,1.2,0.9,1.9,0.9c0.9,0,1.5-0.3,2.1-0.9c0.6-0.5,0.9-1.2,0.9-2.1C712.4,426.9,712.2,426.2,711.6,425.7L711.6,425.7z"/>
	<path class="st6" d="M792.1,439v113H656.6V439h77.1l3.9-6.9c0.6-1.1,1.2-2.3,4-2.3h14.5c2.3,0,3.5,1.2,4.1,2.3l3.8,6.9H792.1z"/>
	<path class="st6" d="M794.4,439L794.4,439v113c0,1.4-1.1,2.5-2.3,2.5H792H656.7c-1.3,0-2.3-1.1-2.3-2.5l0,0V439
		c0-1.4,1.1-2.3,2.3-2.3h0.1h75.7l3.2-5.7l0,0v-0.1l0.1-0.1c0.9-1.7,1.9-3.3,6-3.3h14.5c1.5,0,2.7,0.4,3.5,0.9h0.1l0,0
		c1.2,0.7,2.1,1.7,2.5,2.7l3.1,5.7H792C793.4,436.7,794.4,437.7,794.4,439L794.4,439z M789.6,549.7V441.4h-25.5l0,0
		c-0.8,0-1.6-0.5-2.1-1.3l-3.8-6.9c-0.1-0.3-0.4-0.6-0.8-0.8l0,0c-0.3-0.1-0.7-0.3-1.3-0.3h-14.5c-1.3,0-1.7,0.5-1.9,0.9l-0.1,0.1
		v0.1l0,0l0,0l-3.8,6.8c-0.3,0.8-1.2,1.4-2.1,1.4H659v108.3H789.6L789.6,549.7z"/>
	<polygon class="st7" points="770.4,423.8 770.4,427.1 773.4,427.1 773.4,428.4 770.4,428.4 770.4,431.5 769.2,431.5 769.2,428.4 
		766.2,428.4 766.2,427.1 769.2,427.1 769.2,423.8 	"/>
</g>
<path class="st1" d="M317.1,434.7v16.7v0.1v83.6c0,0.9,0.8,1.7,1.7,1.7h0.1H419c0.9,0,1.7-0.8,1.7-1.7V535v-83.6v-0.1v-16.7
	c0-1-0.8-1.8-1.7-1.8h0H318.9C317.9,432.8,317.1,433.6,317.1,434.7z"/>
<g>
	<rect x="322.9" y="438.4" class="st2" width="101.1" height="16.9"/>
	<path class="st2" d="M424,436.7c0.9,0,1.7,0.8,1.7,1.8v16.8l0,0c0,0.9-0.8,1.7-1.7,1.7H323l0,0c-0.9,0-1.7-0.8-1.7-1.7v-16.8l0,0
		c0-0.9,0.8-1.7,1.7-1.7L424,436.7L424,436.7L424,436.7z M324.7,453.6h97.6v-13.4h-97.6V453.6z"/>
	<path class="st3" d="M412,443.2c2,0,3.8,1.6,3.8,3.7s-1.7,3.8-3.8,3.8c-2.1,0-3.8-1.6-3.8-3.8C408.2,444.9,409.8,443.2,412,443.2
		L412,443.2z"/>
	<path class="st3" d="M412,441.5c1.5,0,2.9,0.6,3.8,1.6c1,0.9,1.6,2.3,1.6,3.8s-0.5,2.8-1.6,3.9c-0.9,0.9-2.3,1.6-3.8,1.6
		s-2.8-0.6-3.9-1.6c-0.9-1-1.5-2.3-1.5-3.9c0-1.4,0.6-2.8,1.5-3.8C409.1,442.1,410.4,441.5,412,441.5L412,441.5z M410.5,445.4
		c-0.4,0.4-0.7,0.9-0.6,1.4c0,0.6,0.3,1.2,0.6,1.5c0.4,0.4,0.9,0.6,1.5,0.6s1.1-0.2,1.5-0.6c0.4-0.3,0.6-0.9,0.6-1.5
		c0-0.5-0.2-1.1-0.6-1.4c-0.4-0.4-0.9-0.6-1.5-0.6S410.8,445,410.5,445.4L410.5,445.4z"/>
	<path class="st4" d="M398.2,443.2c2.1,0,3.8,1.6,3.8,3.7s-1.6,3.8-3.8,3.8c-2,0-3.8-1.6-3.8-3.8
		C394.4,444.9,396.2,443.2,398.2,443.2L398.2,443.2z"/>
	<path class="st4" d="M398.2,441.5c1.5,0,2.9,0.6,3.9,1.6c0.9,0.9,1.5,2.3,1.5,3.8s-0.6,2.8-1.5,3.9c-1,0.9-2.3,1.6-3.9,1.6
		c-1.4,0-2.8-0.6-3.8-1.6s-1.6-2.3-1.6-3.9c0-1.4,0.5-2.8,1.6-3.8C395.4,442.1,396.8,441.5,398.2,441.5L398.2,441.5z M396.7,445.4
		c-0.4,0.4-0.6,0.9-0.6,1.4c0,0.6,0.2,1.2,0.6,1.5c0.4,0.4,0.9,0.6,1.5,0.6s1.2-0.2,1.5-0.6c0.3-0.3,0.6-0.9,0.6-1.5
		c0-0.5-0.3-1.1-0.6-1.4c-0.3-0.4-0.9-0.6-1.5-0.6C397.7,444.8,397.2,445,396.7,445.4L396.7,445.4z"/>
	<path class="st5" d="M384.6,443.2c2,0,3.7,1.6,3.7,3.7s-1.7,3.8-3.7,3.8c-2.1,0-3.8-1.6-3.8-3.8
		C380.8,444.9,382.4,443.2,384.6,443.2L384.6,443.2z"/>
	<path class="st5" d="M384.6,441.5c1.4,0,2.8,0.6,3.8,1.6c0.9,0.9,1.6,2.3,1.6,3.8s-0.6,2.8-1.6,3.9c-0.9,0.9-2.3,1.6-3.8,1.6
		s-2.8-0.6-3.9-1.6c-0.9-1-1.6-2.3-1.6-3.9c0-1.4,0.6-2.8,1.6-3.8C381.7,442.1,383,441.5,384.6,441.5L384.6,441.5z M383,445.4
		c-0.4,0.4-0.6,0.9-0.6,1.4c0,0.6,0.2,1.2,0.6,1.5c0.4,0.4,0.9,0.6,1.5,0.6c0.5,0,1.1-0.2,1.4-0.6c0.4-0.3,0.6-0.9,0.6-1.5
		c0-0.5-0.2-1.1-0.6-1.4c-0.3-0.4-0.8-0.6-1.4-0.6S383.4,445,383,445.4L383,445.4z"/>
	<path class="st6" d="M343.8,455.4l2.8-5.2c0.4-0.8,1.3-1.7,3.1-1.7h10.8c2.1,0,2.5,0.9,3,1.7l2.9,5.2H424v84.4H322.9v-84.4H343.8z"
		/>
	<path class="st6" d="M321.2,455.4c0-1,0.8-1.7,1.8-1.7h19.9l2.3-4.2c0.3-0.7,1-1.5,1.9-2l0,0l0,0c0.6-0.3,1.5-0.6,2.6-0.6h10.8
		c3,0,3.8,1.2,4.5,2.5l0,0l0,0l0,0l2.4,4.2h56.5l0,0c0.9,0,1.7,0.7,1.7,1.7v84.4l0,0c0,1-0.8,1.8-1.7,1.8H323l0,0
		c-0.9,0-1.7-0.8-1.7-1.8L321.2,455.4L321.2,455.4L321.2,455.4z M324.7,538h97.5v-80.8h-55.8c-0.7,0-1.4-0.4-1.6-1l-2.8-5.1l0,0l0,0
		l0,0l0,0c-0.1-0.3-0.4-0.6-1.4-0.6h-10.8c-0.4,0-0.7,0.1-0.9,0.2l0,0c-0.3,0.1-0.5,0.4-0.6,0.6l-2.8,5.1c-0.3,0.6-0.9,0.9-1.5,0.9
		l0,0h-19.1V538H324.7z"/>
	<polygon class="st7" points="340,444 340,446.5 342.3,446.5 342.3,447.4 340,447.4 340,449.7 339.1,449.7 339.1,447.4 336.8,447.4 
		336.8,446.5 339.1,446.5 339.1,444 	"/>
</g>
<path class="st1" d="M401.9,411.3v22.3v0.1v112c0,1.3,1.1,2.3,2.3,2.3h0.1h134.1c1.3,0,2.3-1.1,2.3-2.3v-0.1v-112v-0.1v-22.3
	c0-1.3-1.1-2.4-2.3-2.4h-0.1H404.2C402.9,408.8,401.9,409.9,401.9,411.3z"/>
<g>
	<rect x="409.6" y="416.4" class="st2" width="135.5" height="22.7"/>
	<path class="st2" d="M545.1,414c1.3,0,2.3,1.1,2.3,2.4v22.5l0,0c0,1.3-1.1,2.3-2.3,2.3H409.7h-0.1c-1.3,0-2.3-1.1-2.3-2.3v-22.5
		v-0.1c0-1.3,1.1-2.3,2.3-2.3H545.1L545.1,414L545.1,414z M412.1,436.7h130.7v-17.9H412.1V436.7z"/>
	<path class="st3" d="M528.9,422.7c2.7,0,5.1,2.2,5.1,5s-2.3,5.1-5.1,5.1s-5.1-2.2-5.1-5.1C523.8,425,526,422.7,528.9,422.7
		L528.9,422.7z"/>
	<path class="st3" d="M528.9,420.4c2,0,3.9,0.9,5.1,2.1c1.3,1.3,2.1,3.1,2.1,5.1c0,2.1-0.7,3.8-2.1,5.2c-1.3,1.3-3.1,2.1-5.1,2.1
		c-2.1,0-3.8-0.9-5.2-2.1c-1.3-1.4-2.1-3.1-2.1-5.2c0-1.9,0.8-3.8,2.1-5.1C525.1,421.3,526.8,420.4,528.9,420.4L528.9,420.4z
		 M526.9,425.7c-0.5,0.5-0.9,1.2-0.9,1.9c0,0.9,0.4,1.6,0.9,2.1c0.5,0.6,1.3,0.9,2.1,0.9s1.5-0.3,2.1-0.9c0.5-0.5,0.8-1.2,0.8-2.1
		c0-0.7-0.3-1.5-0.8-1.9c-0.6-0.6-1.3-0.9-2.1-0.9C528.1,424.8,527.3,425.1,526.9,425.7L526.9,425.7z"/>
	<path class="st4" d="M510.5,422.7c2.9,0,5.1,2.2,5.1,5s-2.2,5.1-5.1,5.1c-2.7,0-5.1-2.2-5.1-5.1C505.4,425,507.7,422.7,510.5,422.7
		L510.5,422.7z"/>
	<path class="st4" d="M510.5,420.4c2.1,0,3.9,0.9,5.2,2.1c1.3,1.3,2.1,3.1,2.1,5.1c0,2.1-0.8,3.8-2.1,5.2c-1.4,1.3-3.1,2.1-5.2,2.1
		c-1.9,0-3.8-0.9-5.1-2.1c-1.3-1.4-2.1-3.1-2.1-5.2c0-1.9,0.7-3.8,2.1-5.1C506.7,421.3,508.5,420.4,510.5,420.4L510.5,420.4z
		 M508.5,425.7c-0.5,0.5-0.8,1.2-0.8,1.9c0,0.9,0.3,1.6,0.8,2.1c0.6,0.6,1.3,0.9,2.1,0.9c0.8,0,1.6-0.3,2.1-0.9
		c0.5-0.5,0.9-1.2,0.9-2.1c0-0.7-0.4-1.5-0.9-1.9c-0.5-0.6-1.3-0.9-2.1-0.9C509.7,424.8,509.1,425.1,508.5,425.7L508.5,425.7z"/>
	<path class="st5" d="M492.2,422.7c2.7,0,5,2.2,5,5s-2.3,5.1-5,5.1c-2.8,0-5.1-2.2-5.1-5.1C487.1,425,489.3,422.7,492.2,422.7
		L492.2,422.7z"/>
	<path class="st5" d="M492.2,420.4c1.9,0,3.8,0.9,5.1,2.1c1.3,1.3,2.1,3.1,2.1,5.1c0,2.1-0.9,3.8-2.1,5.2c-1.3,1.3-3.1,2.1-5.1,2.1
		c-2.1,0-3.8-0.9-5.2-2.1c-1.3-1.4-2.1-3.1-2.1-5.2c0-1.9,0.9-3.8,2.1-5.1C488.4,421.3,490.1,420.4,492.2,420.4L492.2,420.4z
		 M490.1,425.7c-0.6,0.5-0.9,1.2-0.9,1.9c0,0.9,0.3,1.6,0.9,2.1c0.5,0.6,1.2,0.9,2.1,0.9c0.7,0,1.5-0.3,1.9-0.9
		c0.6-0.5,0.9-1.2,0.9-2.1c0-0.7-0.3-1.5-0.9-1.9c-0.5-0.6-1.1-0.9-1.9-0.9C491.3,424.8,490.6,425.1,490.1,425.7L490.1,425.7z"/>
	<path class="st6" d="M437.6,439l3.8-6.9c0.6-1.1,1.8-2.3,4.1-2.3H460c2.8,0,3.4,1.2,4,2.3l3.9,6.9H545v113H409.6V439H437.6z"/>
	<path class="st6" d="M407.3,439c0-1.3,1.1-2.3,2.4-2.3h26.6l3.1-5.7c0.5-1,1.3-2,2.5-2.7l0,0h0.1c0.9-0.5,2.1-0.9,3.5-0.9H460
		c4.1,0,5.1,1.7,6,3.3l0.1,0.1v0.1l0,0l3.2,5.7H545h0.1c1.3,0,2.3,0.9,2.3,2.3v113l0,0c0,1.4-1.1,2.5-2.3,2.5H409.7h-0.1
		c-1.3,0-2.3-1.1-2.3-2.5L407.3,439L407.3,439L407.3,439z M412.1,549.7h130.6V441.4h-74.8c-0.9,0-1.9-0.6-2.1-1.4l-3.8-6.8l0,0l0,0
		v-0.1l-0.1-0.1c-0.2-0.4-0.6-0.9-1.9-0.9h-14.5c-0.6,0-1,0.2-1.3,0.3l0,0c-0.4,0.2-0.7,0.5-0.8,0.8l-3.8,6.9
		c-0.5,0.8-1.3,1.3-2.1,1.3l0,0H412L412.1,549.7L412.1,549.7z"/>
	<polygon class="st7" points="432.5,423.8 432.5,427.1 435.5,427.1 435.5,428.4 432.5,428.4 432.5,431.5 431.3,431.5 431.3,428.4 
		428.3,428.4 428.3,427.1 431.3,427.1 431.3,423.8 	"/>
</g>
<g>
	<polygon class="st10" points="747.1,479.6 742.8,479.6 742.8,494.5 727.9,494.5 727.9,498.7 742.8,498.7 742.8,513.6 747.1,513.6 
		747.1,498.7 762,498.7 762,494.5 747.1,494.5 	"/>
	<g>
		<path class="st10" d="M745,525.3c-15.9,0-28.7-12.9-28.7-28.7c0-15.9,12.9-28.7,28.7-28.7s28.7,12.9,28.7,28.7
			C773.7,512.5,760.8,525.3,745,525.3 M745,462.6c-18.8,0-34,15.2-34,34s15.2,34,34,34s34-15.2,34-34S763.8,462.6,745,462.6"/>
	</g>
</g>
<g>
	<path class="st1" d="M697.8,377.7h-192h-0.2c-1.8,0-3.3,1.4-3.3,3.2v29.4v0.2V558v0.2c0,1.7,1.5,3.1,3.3,3.1h192.1h0.2
		c1.8,0,3.3-1.4,3.3-3.1V410.7v-0.2v-29.4C701.2,379.2,699.7,377.7,697.8,377.7z"/>
	<g>
		<rect x="514.7" y="387.4" class="st2" width="174.5" height="29.2"/>
		<path class="st2" d="M514.7,384.4L514.7,384.4h174.4c1.6,0,3,1.4,3,3v0.1v29c0,1.6-1.4,3-3,3H689H514.7c-1.6,0-3-1.4-3-3l0,0v-29
			C511.7,385.8,513.1,384.4,514.7,384.4L514.7,384.4z M686.1,390.5H517.7v23.1H686L686.1,390.5L686.1,390.5z"/>
		<path class="st3" d="M535.6,395.6c3.7,0,6.5,2.9,6.5,6.4c0,3.7-2.9,6.5-6.5,6.5c-3.5,0-6.5-2.9-6.5-6.5
			C529,398.4,532.1,395.6,535.6,395.6L535.6,395.6z"/>
		<path class="st3" d="M535.6,392.6c2.7,0,4.9,1.1,6.7,2.7c1.6,1.6,2.7,4,2.7,6.5c0,2.7-1,4.9-2.7,6.7c-1.8,1.6-4,2.7-6.7,2.7
			c-2.5,0-4.9-1.1-6.5-2.7c-1.8-1.8-2.7-4-2.7-6.7c0-2.5,1-4.9,2.7-6.5C530.6,393.8,533,392.6,535.6,392.6L535.6,392.6z
			 M538.2,399.4c-0.6-0.8-1.6-1.1-2.7-1.1s-1.9,0.3-2.7,1.1c-0.6,0.6-1,1.5-1,2.5c0,1.1,0.3,2.1,1,2.7c0.8,0.8,1.6,1.1,2.7,1.1
			s2-0.3,2.7-1.1c0.6-0.6,1.1-1.5,1.1-2.7C539.4,401,538.9,400.1,538.2,399.4L538.2,399.4z"/>
		<path class="st4" d="M559.3,395.6c3.5,0,6.5,2.9,6.5,6.4c0,3.7-3,6.5-6.5,6.5c-3.7,0-6.5-2.9-6.5-6.5
			C552.7,398.4,555.6,395.6,559.3,395.6L559.3,395.6z"/>
		<path class="st4" d="M559.3,392.6c2.5,0,4.9,1.1,6.5,2.7c1.8,1.6,2.7,4,2.7,6.5c0,2.7-1,4.9-2.7,6.7c-1.6,1.6-4,2.7-6.5,2.7
			c-2.7,0-4.9-1.1-6.7-2.7c-1.6-1.8-2.7-4-2.7-6.7c0-2.5,1-4.9,2.7-6.5C554.3,393.8,556.6,392.6,559.3,392.6L559.3,392.6z
			 M561.9,399.4c-0.8-0.8-1.6-1.1-2.7-1.1c-1,0-2.1,0.3-2.7,1.1c-0.6,0.6-1.1,1.5-1.1,2.5c0,1.1,0.5,2.1,1.1,2.7
			c0.6,0.8,1.6,1.1,2.7,1.1c1,0,1.9-0.3,2.7-1.1c0.6-0.6,1-1.5,1-2.7C562.9,401,562.6,400.1,561.9,399.4L561.9,399.4z"/>
		<path class="st5" d="M582.8,395.6c3.7,0,6.5,2.9,6.5,6.4c0,3.7-2.9,6.5-6.5,6.5c-3.5,0-6.4-2.9-6.4-6.5
			C576.4,398.4,579.3,395.6,582.8,395.6L582.8,395.6z"/>
		<path class="st5" d="M582.8,392.6c2.7,0,4.9,1.1,6.7,2.7c1.6,1.6,2.7,4,2.7,6.5c0,2.7-1.1,4.9-2.7,6.7c-1.8,1.6-4,2.7-6.7,2.7
			c-2.5,0-4.9-1.1-6.5-2.7c-1.6-1.8-2.7-4-2.7-6.7c0-2.5,1.1-4.9,2.7-6.5C577.9,393.8,580.3,392.6,582.8,392.6L582.8,392.6z
			 M585.5,399.4c-0.6-0.8-1.5-1.1-2.7-1.1c-1,0-1.9,0.3-2.5,1.1c-0.8,0.6-1.1,1.5-1.1,2.5c0,1.1,0.3,2.1,1.1,2.7
			c0.6,0.8,1.5,1.1,2.5,1.1c1.1,0,2-0.3,2.7-1.1c0.8-0.6,1.1-1.5,1.1-2.7C586.6,401,586.3,400.1,585.5,399.4L585.5,399.4z"/>
		<path class="st6" d="M689.2,416.6v145.6H514.7V416.6h99.4l5.1-8.9c0.8-1.4,1.5-2.9,5.2-2.9H643c3,0,4.6,1.5,5.3,2.9l4.9,8.9H689.2
			z"/>
		<path class="st6" d="M692.2,416.6L692.2,416.6v145.6c0,1.8-1.4,3.2-3,3.2h-0.1H514.8c-1.6,0-3-1.4-3-3.2l0,0V416.6
			c0-1.8,1.4-3,3-3h0.1h97.5l4.1-7.3l0,0v-0.1l0.1-0.1c1.1-2.1,2.5-4.3,7.7-4.3h18.6c1.9,0,3.4,0.5,4.6,1.1h0.1l0,0
			c1.5,0.9,2.7,2.1,3.3,3.4l4,7.3h34.3C690.9,413.6,692.2,414.9,692.2,416.6L692.2,416.6z M686.1,559.1V419.7h-32.9l0,0
			c-1,0-2.1-0.6-2.7-1.6l-4.9-8.8c-0.1-0.3-0.5-0.8-1-1l0,0c-0.3-0.1-0.9-0.3-1.6-0.3h-18.6c-1.6,0-2.1,0.6-2.4,1.1l-0.1,0.1v0.1
			l0,0l0,0l-4.9,8.8c-0.3,1-1.5,1.8-2.7,1.8H518v139.5L686.1,559.1L686.1,559.1z"/>
		<polygon class="st7" points="661.2,397 661.2,401.2 665.2,401.2 665.2,402.9 661.2,402.9 661.2,406.9 659.8,406.9 659.8,402.9 
			655.8,402.9 655.8,401.2 659.8,401.2 659.8,397 		"/>
	</g>
	<g>
		<path class="st16" d="M600.7,530.3c-22.3,0-40.4-18.1-40.4-40.4c0-22.3,18.1-40.4,40.4-40.4c22.3,0,40.4,18.1,40.4,40.4
			C641.1,512.2,623,530.3,600.7,530.3 M600.7,442.1c-26.4,0-47.8,21.4-47.8,47.8c0,26.4,21.4,47.8,47.8,47.8
			c26.4,0,47.8-21.4,47.8-47.8S627.1,442.1,600.7,442.1"/>
		<path class="st16" d="M618.6,483.9c-3.3,0-6,2.7-6,6s2.7,6,6,6s6-2.7,6-6C624.6,486.6,621.9,483.9,618.6,483.9"/>
		<path class="st16" d="M600.7,483.9c-3.3,0-6,2.7-6,6s2.7,6,6,6s6-2.7,6-6C606.7,486.6,604,483.9,600.7,483.9"/>
		<path class="st16" d="M582.7,483.9c-3.3,0-6,2.7-6,6s2.7,6,6,6s6-2.7,6-6C588.7,486.6,586,483.9,582.7,483.9"/>
	</g>
</g>
<g>
	<g>
		<g>
			<path class="st10" d="M347.6,512.2v-32.7h13.1v8.3c0,1.5,1.3,2.8,2.8,2.8h6.8V512h-22.7L347.6,512.2L347.6,512.2z M364.2,481
				l5.9,6.5h-5.9V481z M373.8,486.9c0-0.2-0.2-0.4-0.4-0.7l-8.5-9.4c-0.2-0.2-0.4-0.2-0.7-0.4c-0.2-0.2-0.7-0.2-0.9-0.2H347
				c-1.3,0-2.4,0.9-2.4,2.4v34.2c0,1.3,1.1,2.6,2.4,2.6h24.6c1.3,0,2.2-1.3,2.2-2.6v-24.9C373.8,487.5,373.8,487.3,373.8,486.9"/>
		</g>
	</g>
</g>
<g>
	<polygon class="st10" points="450.6,500.6 443.6,493.8 439.3,498.1 450.6,508.7 473.1,483.4 468.8,479.2 	"/>
	<g>
		<g>
			<g>
				<defs>
					<rect id="SVGID_15_" x="422.5" y="460.1" width="67.4" height="67.4"/>
				</defs>
				<clipPath id="SVGID_16_">
					<use xlink:href="#SVGID_15_"  style="overflow:visible;"/>
				</clipPath>
				<path class="st17" d="M456.2,522.2c-15.7,0-28.4-12.6-28.4-28.4s12.6-28.4,28.4-28.4s28.4,12.6,28.4,28.4
					C484.6,509.6,471.9,522.2,456.2,522.2 M456.2,460.1c-18.5,0-33.7,15.2-33.7,33.7s15.2,33.7,33.7,33.7s33.7-15.2,33.7-33.7
					C489.9,475.3,475,460.1,456.2,460.1"/>
			</g>
		</g>
	</g>
</g>
<rect x="-32.5" y="121.1" class="st18" width="1198.8" height="572.3"/>
</svg>
