<?xml version="1.0" encoding="utf-8"?>
<!-- Generator: Adobe Illustrator 19.0.0, SVG Export Plug-In . SVG Version: 6.00 Build 0)  -->
<svg version="1.1" id="Layer_1" xmlns="http://www.w3.org/2000/svg" xmlns:xlink="http://www.w3.org/1999/xlink" x="0px" y="0px"
	 viewBox="152 244.8 900 352.1" style="enable-background:new 152 244.8 900 352.1;" xml:space="preserve">
<style type="text/css">
	.st0{fill:#F8F9FA;}
	.st1{opacity:0.65;}
	.st2{fill:#E0E0E0;}
	.st3{opacity:0.9;fill:#36474F;enable-background:new    ;}
	.st4{fill:#36474F;}
	.st5{fill:#FF0C3E;}
	.st6{fill:#FFD514;}
	.st7{fill:#00E871;}
	.st8{fill:#41AD49;}
	.st9{opacity:0.8;fill:#1D1D1B;}
	.st10{fill:#221F20;}
	.st11{fill:#FFFFFF;}
	.st12{opacity:0.55;fill:#FFFFFF;enable-background:new    ;}
</style>
<g id="Layer_1_1_">
</g>
<ellipse class="st0" cx="613.1" cy="536" rx="343.8" ry="20.7"/>
<g class="st1">
	<polygon class="st2" points="416.5,456.7 392.5,459.8 393.5,475.9 442.2,469.6 438.3,414.8 424,416.5 426.1,444.1 355.2,350.8 
		316.9,394.9 	"/>
</g>
<g>
	<path class="st3" d="M693.3,336.3H507.9h-0.2c-1.8,0-3.2,1.5-3.2,3.3v30.9v0.2v154.9v0.2c0,1.8,1.5,3.2,3.2,3.2h185.5h0.2
		c1.8,0,3.2-1.5,3.2-3.2v-155v-0.2v-30.8C696.6,337.8,695.1,336.3,693.3,336.3z"/>
	<g>
		<rect x="499" y="345.6" class="st4" width="185.9" height="33"/>
		<path class="st4" d="M499,342.6h185.9c1.7,0,3,1.4,3,3.1v33c0,1.7-1.4,3-3,3H499c-1.7,0-3-1.4-3-3v-33
			C495.9,343.9,497.3,342.6,499,342.6L499,342.6z M681.8,348.7H502v26.9h179.7L681.8,348.7L681.8,348.7z"/>
		<rect x="529.6" y="378.6" class="st0" width="155.4" height="153.3"/>
		<path class="st0" d="M529.6,375.6H685c1.7,0,3,1.4,3,3.1V532c0,1.7-1.4,3-3,3H529.6c-1.7,0-3-1.4-3-3V378.6
			C526.5,376.9,527.9,375.6,529.6,375.6L529.6,375.6z M681.8,381.7h-149v147.1h149V381.7z"/>
		<path class="st5" d="M515,352.1c4,0,7.2,3.2,7.2,7.2c0,3.9-3.2,7.1-7.2,7.1s-7.2-3.2-7.2-7.1C507.8,355.3,511,352.1,515,352.1
			L515,352.1z"/>
		<path class="st5" d="M515,348.9c2.9,0,5.4,1.2,7.3,3.1c1.8,1.9,2.9,4.4,2.9,7.3c0,2.8-1.1,5.4-2.9,7.2c-1.9,1.9-4.4,3.1-7.3,3.1
			c-2.8,0-5.4-1.1-7.2-3.1c-1.9-1.8-3-4.4-3-7.2c0-2.9,1.1-5.4,3-7.3C509.6,350.2,512.3,348.9,515,348.9L515,348.9z M517.9,356.4
			c-0.7-0.7-1.8-1.2-2.9-1.2c-1.1,0-2.1,0.6-2.9,1.2c-0.7,0.7-1.1,1.8-1.1,2.9s0.4,2.1,1.1,2.8c0.8,0.8,1.8,1.2,2.9,1.2
			s2.2-0.4,2.9-1.2c0.7-0.7,1.2-1.7,1.2-2.8S518.6,357.1,517.9,356.4L517.9,356.4z"/>
		<path class="st6" d="M541,352.1c3.9,0,7.1,3.2,7.1,7.2c0,3.9-3.2,7.1-7.1,7.1c-4,0-7.2-3.2-7.2-7.1
			C533.8,355.3,537,352.1,541,352.1L541,352.1z"/>
		<path class="st6" d="M541,348.9c2.8,0,5.4,1.2,7.2,3.1c1.9,1.9,3,4.4,3,7.3c0,2.8-1.1,5.4-3,7.2c-1.8,1.9-4.4,3.1-7.2,3.1
			c-2.9,0-5.4-1.1-7.3-3.1c-1.8-1.8-3-4.4-3-7.2c0-2.9,1.2-5.4,3-7.3C535.6,350.2,538.1,348.9,541,348.9L541,348.9z M543.8,356.4
			c-0.7-0.7-1.7-1.2-2.8-1.2s-2.2,0.6-2.9,1.2c-0.7,0.7-1.2,1.8-1.2,2.9s0.6,2.1,1.2,2.8c0.7,0.8,1.8,1.2,2.9,1.2
			c1.1,0,2.1-0.4,2.8-1.2c0.8-0.7,1.2-1.7,1.2-2.8S544.6,357.1,543.8,356.4L543.8,356.4z"/>
		<path class="st7" d="M566.9,352.1c4,0,7.2,3.2,7.2,7.2c0,3.9-3.2,7.1-7.2,7.1c-3.9,0-7.2-3.2-7.2-7.1
			C559.7,355.3,563,352.1,566.9,352.1L566.9,352.1z"/>
		<path class="st7" d="M566.9,348.9c2.9,0,5.4,1.2,7.3,3.1c1.8,1.9,2.9,4.4,2.9,7.3c0,2.8-1.1,5.4-2.9,7.2c-1.9,1.9-4.4,3.1-7.3,3.1
			c-2.8,0-5.4-1.1-7.2-3.1c-1.9-1.8-3-4.4-3-7.2c0-2.9,1.1-5.4,3-7.3C561.5,350.2,564.1,348.9,566.9,348.9L566.9,348.9z
			 M569.8,356.4c-0.7-0.7-1.8-1.2-2.9-1.2c-1.1,0-2.1,0.6-2.9,1.2c-0.7,0.7-1.1,1.8-1.1,2.9s0.4,2.1,1.1,2.8
			c0.8,0.8,1.8,1.2,2.9,1.2c1.1,0,2.2-0.4,2.9-1.2c0.7-0.7,1.2-1.7,1.2-2.8S570.5,357.1,569.8,356.4L569.8,356.4z"/>
		<rect x="499" y="378.6" class="st2" width="30.6" height="153.3"/>
		<path class="st2" d="M499,375.6h30.6c1.7,0,3.2,1.4,3.2,3.1V532c0,1.7-1.5,3-3.2,3H499c-1.7,0-3-1.4-3-3V378.6
			C495.9,376.9,497.3,375.6,499,375.6L499,375.6z M526.5,381.7H502v147.1h24.5V381.7z"/>
		<path class="st8" d="M506.7,397.7c-1.7,0-3-1.4-3-3c0-1.7,1.4-3.1,3-3.1h15.1c1.7,0,3.2,1.4,3.2,3.1s-1.5,3-3.2,3H506.7z"/>
		<path class="st9" d="M506.7,428.1c-1.7,0-3-1.4-3-3.2c0-1.7,1.4-3.1,3-3.1h15.1c1.7,0,3.2,1.4,3.2,3.1c0,1.8-1.5,3.2-3.2,3.2
			H506.7z"/>
		<path class="st9" d="M506.7,458.3c-1.7,0-3-1.4-3-3.1s1.4-3.2,3-3.2h15.1c1.7,0,3.2,1.5,3.2,3.2s-1.5,3.1-3.2,3.1H506.7z"/>
		<path class="st9" d="M506.7,488.7c-1.7,0-3-1.4-3-3.2c0-1.7,1.4-3,3-3h15.1c1.7,0,3.2,1.4,3.2,3c0,1.8-1.5,3.2-3.2,3.2H506.7z"/>
		<path class="st9" d="M506.7,518.9c-1.7,0-3-1.4-3-3.1c0-1.8,1.4-3.2,3-3.2h15.1c1.7,0,3.2,1.4,3.2,3.2c0,1.7-1.5,3.1-3.2,3.1
			H506.7z"/>
	</g>
	<path class="st10" d="M562.7,428c-0.7,0-1.2-1.1-1.2-2.5c0-1.3,0.5-2.5,1.2-2.5H619c0.7,0,1.2,1.1,1.2,2.5c0,1.3-0.5,2.5-1.2,2.5
		H562.7z"/>
	<path class="st10" d="M563.6,443.3c-1.1,0-2.1-1-2.1-2.5c0-1.3,0.9-2.5,2.1-2.5h98c1.1,0,2.1,1.1,2.1,2.5c0,1.5-0.9,2.5-2.1,2.5
		H563.6z"/>
	<path class="st10" d="M563.6,458.8c-1.1,0-2.1-1.1-2.1-2.6c0-1.3,0.9-2.5,2.1-2.5h98c1.1,0,2.1,1.1,2.1,2.5c0,1.5-0.9,2.6-2.1,2.6
		H563.6z"/>
	<path class="st10" d="M563.6,474.1c-1.1,0-2.1-1.1-2.1-2.5c0-1.5,0.9-2.5,2.1-2.5h98c1.1,0,2.1,1,2.1,2.5c0,1.3-0.9,2.5-2.1,2.5
		H563.6z"/>
	<path class="st10" d="M563.6,489.5c-1.1,0-2.1-1.1-2.1-2.5c0-1.3,0.9-2.5,2.1-2.5h98c1.1,0,2.1,1.1,2.1,2.5c0,1.3-0.9,2.5-2.1,2.5
		H563.6z"/>
	<path class="st10" d="M563.6,504.8c-1.1,0-2.1-1-2.1-2.5c0-1.3,0.9-2.5,2.1-2.5h98c1.1,0,2.1,1.1,2.1,2.5c0,1.5-0.9,2.5-2.1,2.5
		H563.6z"/>
	<path class="st10" d="M563.6,520.3c-1.1,0-2.1-1.1-2.1-2.5c0-1.5,0.9-2.6,2.1-2.6h98c1.1,0,2.1,1.1,2.1,2.6c0,1.3-0.9,2.5-2.1,2.5
		H563.6z"/>
</g>
<ellipse class="st11" cx="318.5" cy="365.4" rx="81.9" ry="79.3"/>
<g>
	<path class="st2" d="M327.8,419c-26.9,0-48.6-21.8-48.6-48.6c0-26.9,21.8-48.6,48.6-48.6s48.6,21.8,48.6,48.6
		C376.4,397.2,354.6,419,327.8,419 M327.8,312.7c-31.8,0-57.6,25.8-57.6,57.6s25.8,57.6,57.6,57.6s57.6-25.8,57.6-57.6
		S359.6,312.7,327.8,312.7"/>
	<path class="st2" d="M324.2,384.8L313.4,374l5-5.8l5.8,5.8l16.2-18l5.4,5.8L324.2,384.8z M327.8,341.6c-15.9,0-28.8,12.9-28.8,28.8
		s12.9,28.8,28.8,28.8s28.8-12.9,28.8-28.8C356.6,354.5,343.7,341.6,327.8,341.6"/>
</g>
<rect x="10.8" y="146.8" class="st12" width="1198.8" height="572.3"/>
</svg>
