<?xml version="1.0" encoding="utf-8"?>
<!-- Generator: Adobe Illustrator 22.0.1, SVG Export Plug-In . SVG Version: 6.00 Build 0)  -->
<svg version="1.1" id="Layer_1" xmlns="http://www.w3.org/2000/svg" xmlns:xlink="http://www.w3.org/1999/xlink" x="0px" y="0px"
	 viewBox="0 0 32 32" style="enable-background:new 0 0 32 32;" xml:space="preserve">
<style type="text/css">
	.st0{fill:#3B3B3B;}
	.st1{fill:#48AD51;}
	.st2{fill:none;}
</style>
<ellipse class="st0" cx="14.7" cy="29.1" rx="12.2" ry="0.9"/>
<title>Spectre.css Logo</title>
<path id="XMLID_662_" class="st1" d="M-230.3,404.2V427c0,0.6,0.5,1.1,1.1,1.1h15.9c0.6,0,1.1-0.5,1.1-1.1v-19.4l0,0v-0.1l0,0
	c0,0,0-0.1-0.1-0.1l0,0l-4-4l-0.1-0.1c-0.1,0-0.1,0-0.2,0h-12.5C-229.8,403.1-230.3,403.6-230.3,404.2z M-213.7,407.1h-2.2
	c-0.1,0-0.2-0.1-0.2-0.2v-2.3L-213.7,407.1z M-229.3,404.2c0-0.1,0.1-0.2,0.2-0.2h12.1v2.9c0,0.6,0.5,1.1,1.1,1.1h2.9v18.9
	c0,0.1-0.1,0.2-0.2,0.2h-15.9c-0.1,0-0.2-0.1-0.2-0.2V404.2L-229.3,404.2z"/>
<path id="XMLID_664_" class="st1" d="M-217.8,431.4c0.1,0.1,0.2,0.1,0.3,0.1s0.2,0,0.3-0.1l0.8-0.8c0.2-0.2,0.2-0.5,0-0.6l-0.8-0.8
	c-0.2-0.2-0.5-0.2-0.6,0c-0.2,0.2-0.2,0.5,0,0.6l0,0h-6.9l0,0c0.2-0.2,0.2-0.5,0-0.6c-0.2-0.2-0.5-0.2-0.6,0l-0.8,0.8l-0.1,0.1
	c0,0.1,0,0.1,0,0.2c0,0.1,0,0.1,0,0.2c0,0.1,0.1,0.1,0.1,0.1l0.8,0.8c0.1,0.1,0.2,0.1,0.3,0.1s0.2,0,0.3-0.1c0.2-0.2,0.2-0.5,0-0.6
	l0,0h6.9l0,0C-217.9,430.9-217.9,431.2-217.8,431.4z"/>
<path id="XMLID_665_" class="st1" d="M-210.1,421.9c-0.2-0.2-0.5-0.2-0.6,0c-0.2,0.2-0.2,0.5,0,0.6l0.8,0.8l0,0l0.1,0.1
	c0.1,0,0.1,0,0.2,0s0.1,0,0.2,0c0,0,0.1,0,0.1-0.1l0,0l0.8-0.8c0.2-0.2,0.2-0.5,0-0.6c-0.2-0.2-0.5-0.2-0.6,0l0,0v-12.6l0,0
	c0.1,0.1,0.2,0.1,0.3,0.1c0.1,0,0.2,0,0.3-0.1c0.2-0.2,0.2-0.5,0-0.6l-0.8-0.8l-0.1-0.1c-0.1,0-0.1,0-0.2,0s-0.1,0-0.2,0
	s-0.1,0.1-0.1,0.1l-0.8,0.8c-0.2,0.2-0.2,0.5,0,0.6c0.2,0.2,0.5,0.2,0.6,0l0,0L-210.1,421.9L-210.1,421.9z"/>
<path id="XMLID_666_" class="st1" d="M-225.5,409.2h3c0.3,0,0.5-0.2,0.5-0.5s-0.2-0.5-0.5-0.5h-3c-0.3,0-0.5,0.2-0.5,0.5
	S-225.7,409.2-225.5,409.2z"/>
<path id="XMLID_667_" class="st1" d="M-225.5,423.8h3c0.3,0,0.5-0.2,0.5-0.5s-0.2-0.5-0.5-0.5h-3c-0.3,0-0.5,0.2-0.5,0.5
	S-225.7,423.8-225.5,423.8z"/>
<path id="XMLID_668_" class="st1" d="M-225.5,412.5h8.6c0.3,0,0.5-0.2,0.5-0.5s-0.2-0.5-0.5-0.5h-8.6c-0.3,0-0.5,0.2-0.5,0.5
	C-225.9,412.3-225.7,412.5-225.5,412.5z"/>
<path id="XMLID_669_" class="st1" d="M-225.5,414.5h8.6c0.3,0,0.5-0.2,0.5-0.5s-0.2-0.5-0.5-0.5h-8.6c-0.3,0-0.5,0.2-0.5,0.5
	C-225.9,414.3-225.7,414.5-225.5,414.5z"/>
<path id="XMLID_670_" class="st1" d="M-225.5,416.6h8.6c0.3,0,0.5-0.2,0.5-0.5s-0.2-0.5-0.5-0.5h-8.6c-0.3,0-0.5,0.2-0.5,0.5
	S-225.7,416.6-225.5,416.6z"/>
<path id="XMLID_671_" class="st1" d="M-225.5,418.7h8.6c0.3,0,0.5-0.2,0.5-0.5s-0.2-0.5-0.5-0.5h-8.6c-0.3,0-0.5,0.2-0.5,0.5
	S-225.7,418.7-225.5,418.7z"/>
<path class="st1" d="M-213.8,407.3c-0.2-0.2-2.7-0.1-2.7-0.1l-0.1-2.9l1.7,0.9l1.8,2.3L-213.8,407.3z"/>
<g>
	<g>
		<g>
			<path class="st2" d="M22.7,16.8l2.7-4.7L22.7,16.8L22.7,16.8z"/>
			<path class="st0" d="M23.5,7.5l1.1-1.8c0.1-0.2,0.5-0.3,0.6-0.2c0.2,0.1,0.3,0.5,0.2,0.6l-1.1,1.8l1.3,0.8l2.4-4
				c0.4-0.7,0.2-1.6-0.5-2l0,0c-0.7-0.4-1.6-0.2-2,0.5l-2.4,4L23.5,7.5z"/>
			<path class="st2" d="M26.7,11c0.2-0.3,0-0.7-0.2-0.9l-2.9-1.7c0,0,0,0-0.1,0c0,0,0,0-0.1,0l-2.1-1.2c-0.2-0.1-0.3-0.1-0.5-0.1
				c-0.2,0.1-0.3,0.1-0.4,0.3l-0.3,0.5l6.2,3.7L26.7,11z"/>
			<path class="st2" d="M18.8,23.5L18.8,23.5l3.2-5.6l0,0L18.8,23.5z"/>
			<path class="st2" d="M21.1,9.5l-2,3.5l0,0l-2.7,4.7l-3.7,6.4c-0.2,0.4-0.1,0.8,0.3,1.1l2.3,1.4c0.4,0.2,0.8,0.1,1.1-0.3l8.4-14.5
				L21.1,9.5z M15.5,21.2c0.2,0.1,0.3,0.5,0.2,0.6l-1,1.8c-0.1,0.2-0.5,0.3-0.6,0.2c-0.1,0-0.2-0.1-0.3-0.3
				c-0.1-0.1-0.1-0.2,0.1-0.4l1-1.8C14.9,21.2,15.2,21,15.5,21.2z M19,14.9c0.2,0.1,0.3,0.5,0.2,0.6l-2.3,3.7
				c-0.1,0.2-0.5,0.3-0.6,0.2c-0.1,0-0.2-0.1-0.3-0.3c-0.1-0.1-0.1-0.2,0.1-0.4l2.3-3.7C18.5,14.9,18.8,14.8,19,14.9z"/>
			<path class="st2" d="M12.8,26l-0.1,0.2c-0.3,0.4-0.1,1,0.3,1.2l0,0c0.2,0.1,0.5,0.2,0.7,0.1s0.4-0.2,0.5-0.4l0.1-0.2L12.8,26z"/>
			<path class="st0" d="M25.5,12.1l0.9,0.5c0.1,0,0.2,0,0.4,0.1c0.1-0.1,0.2-0.1,0.3-0.3l0.5-0.9c0.4-0.7,0.1-1.7-0.6-2.2L26.5,9
				l2.4-4c0.6-1.2,0.3-2.6-0.9-3.3l0,0c-1.2-0.6-2.6-0.3-3.3,0.9l-2.4,4l-0.5-0.3C21.4,6.1,21,6,20.6,6.2c-0.4,0.1-0.8,0.4-1,0.7
				l-0.5,0.9c0,0.1,0,0.2-0.1,0.4c0.1,0.1,0.1,0.2,0.3,0.3L20.2,9l-8.6,14.8c-0.1,0.3-0.1,0.6,0,0.9c0,0.3,0.2,0.5,0.4,0.7l-0.2,0.3
				c-0.3,0.5-0.3,1-0.2,1.4c0,0.3,0.2,0.5,0.5,0.8L12,28.1c0,0.1,0,0.2-0.1,0.4c0.1,0.1,0.1,0.2,0.3,0.3c0.2,0.1,0.5,0.1,0.6-0.2
				l0.1-0.2c0.3,0.1,0.6,0.1,0.9,0c0.4-0.1,0.9-0.4,1.1-0.8l0.2-0.3c0.7,0.1,1.5-0.1,1.9-0.8L25.5,12.1z M25.5,3.1
				c0.4-0.7,1.3-1,2-0.5l0,0c0.7,0.4,1,1.3,0.5,2l-2.4,4l-1.3-0.8L25.4,6c0.1-0.2,0.1-0.5-0.2-0.6c-0.2-0.1-0.5-0.1-0.6,0.2
				l-1.1,1.8L23,7.1L25.5,3.1z M20.2,7.9l0.3-0.5c0.1-0.2,0.3-0.3,0.4-0.3c0.2-0.1,0.3,0,0.5,0.1l2.1,1.2c0,0,0,0,0.1,0
				c0,0,0,0,0.1,0l2.9,1.7c0.3,0.2,0.4,0.6,0.2,0.9l-0.3,0.5L20.2,7.9z M13.7,27.6c-0.2,0.1-0.4,0-0.7-0.1l0,0
				c-0.4-0.3-0.6-0.8-0.3-1.2l0.1-0.2l1.6,0.9l-0.1,0.2C14.1,27.3,13.9,27.5,13.7,27.6z M16.2,26.1c-0.2,0.4-0.7,0.5-1.1,0.3
				L12.8,25c-0.4-0.2-0.5-0.7-0.3-1.1l3.7-6.4l2.7-4.7l0,0l2-3.5l3.6,2.1L16.2,26.1z"/>
			<path class="st1" d="M13.8,23.1c0,0.1,0,0.2-0.1,0.4c0.1,0.1,0.1,0.2,0.3,0.3c0.2,0.1,0.5,0.1,0.6-0.2l1-1.8
				c0.1-0.2,0.1-0.5-0.2-0.6c-0.2-0.1-0.5-0.1-0.6,0.2L13.8,23.1z"/>
			<path class="st0" d="M16.2,18.9c0,0.1,0,0.2-0.1,0.4c0.1,0.1,0.1,0.2,0.3,0.3c0.2,0.1,0.5,0.1,0.6-0.2l2.3-3.7
				c0.1-0.2,0.1-0.5-0.2-0.6c-0.2-0.1-0.5-0.1-0.6,0.2L16.2,18.9z"/>
		</g>
		<path class="st0" d="M15.4,18.7c0,0-0.3,1.9,0.9,2.1s4.1-1.3,4.1-1.3s-0.3,0.9-0.5,1.3c-0.2,0.5-2.3,4.3-2.3,4.3L15.7,27L13,25.7
			L11.7,24L15.4,18.7z"/>
	</g>
	<path class="st0" d="M23,6.4c0,0,2.8-5.8,3.9-4.6c1.1,1.1,1.8,2.1,1.8,2.1l-1.9,3.3l-0.9,2l-3.4-1.5L23,6.4z"/>
</g>
</svg>
