<?xml version="1.0" encoding="utf-8"?>
<!-- Generator: Adobe Illustrator 19.0.0, SVG Export Plug-In . SVG Version: 6.00 Build 0)  -->
<svg version="1.1" id="Layer_1" xmlns="http://www.w3.org/2000/svg" xmlns:xlink="http://www.w3.org/1999/xlink" x="0px" y="0px"
	 viewBox="-281 404.9 32 32" style="enable-background:new -281 404.9 32 32;" xml:space="preserve">
<style type="text/css">
	.st0{fill:#48AD51;}
	.st1{fill:none;}
</style>
<ellipse class="st0" cx="-266.3" cy="434" rx="12.2" ry="0.9"/>
<title>Spectre.css Logo</title>
<path id="XMLID_662_" class="st0" d="M-511.3,809.1v22.8c0,0.6,0.5,1.1,1.1,1.1h15.9c0.6,0,1.1-0.5,1.1-1.1v-19.4l0,0v-0.1l0,0
	c0,0,0-0.1-0.1-0.1l0,0l-4-4l-0.1-0.1c-0.1,0-0.1,0-0.2,0h-12.5C-510.8,808-511.3,808.5-511.3,809.1z M-494.7,812h-2.2
	c-0.1,0-0.2-0.1-0.2-0.2v-2.3L-494.7,812z M-510.3,809.1c0-0.1,0.1-0.2,0.2-0.2h12.1v2.9c0,0.6,0.5,1.1,1.1,1.1h2.9v18.9
	c0,0.1-0.1,0.2-0.2,0.2h-15.9c-0.1,0-0.2-0.1-0.2-0.2V809.1L-510.3,809.1z"/>
<path id="XMLID_664_" class="st0" d="M-498.8,836.3c0.1,0.1,0.2,0.1,0.3,0.1s0.2,0,0.3-0.1l0.8-0.8c0.2-0.2,0.2-0.5,0-0.6l-0.8-0.8
	c-0.2-0.2-0.5-0.2-0.6,0c-0.2,0.2-0.2,0.5,0,0.6l0,0h-6.9l0,0c0.2-0.2,0.2-0.5,0-0.6c-0.2-0.2-0.5-0.2-0.6,0l-0.8,0.8l-0.1,0.1
	c0,0.1,0,0.1,0,0.2c0,0.1,0,0.1,0,0.2c0,0.1,0.1,0.1,0.1,0.1l0.8,0.8c0.1,0.1,0.2,0.1,0.3,0.1s0.2,0,0.3-0.1c0.2-0.2,0.2-0.5,0-0.6
	l0,0h6.9l0,0C-498.9,835.8-498.9,836.1-498.8,836.3z"/>
<path id="XMLID_665_" class="st0" d="M-491.1,826.8c-0.2-0.2-0.5-0.2-0.6,0c-0.2,0.2-0.2,0.5,0,0.6l0.8,0.8l0,0l0.1,0.1
	c0.1,0,0.1,0,0.2,0s0.1,0,0.2,0c0,0,0.1,0,0.1-0.1l0,0l0.8-0.8c0.2-0.2,0.2-0.5,0-0.6c-0.2-0.2-0.5-0.2-0.6,0l0,0v-12.6l0,0
	c0.1,0.1,0.2,0.1,0.3,0.1c0.1,0,0.2,0,0.3-0.1c0.2-0.2,0.2-0.5,0-0.6l-0.8-0.8l-0.1-0.1c-0.1,0-0.1,0-0.2,0s-0.1,0-0.2,0
	c-0.1,0-0.1,0.1-0.1,0.1l-0.8,0.8c-0.2,0.2-0.2,0.5,0,0.6c0.2,0.2,0.5,0.2,0.6,0l0,0V826.8L-491.1,826.8z"/>
<path id="XMLID_666_" class="st0" d="M-506.5,814.1h3c0.3,0,0.5-0.2,0.5-0.5s-0.2-0.5-0.5-0.5h-3c-0.3,0-0.5,0.2-0.5,0.5
	S-506.7,814.1-506.5,814.1z"/>
<path id="XMLID_667_" class="st0" d="M-506.5,828.7h3c0.3,0,0.5-0.2,0.5-0.5s-0.2-0.5-0.5-0.5h-3c-0.3,0-0.5,0.2-0.5,0.5
	S-506.7,828.7-506.5,828.7z"/>
<path id="XMLID_668_" class="st0" d="M-506.5,817.4h8.6c0.3,0,0.5-0.2,0.5-0.5s-0.2-0.5-0.5-0.5h-8.6c-0.3,0-0.5,0.2-0.5,0.5
	C-506.9,817.2-506.7,817.4-506.5,817.4z"/>
<path id="XMLID_669_" class="st0" d="M-506.5,819.4h8.6c0.3,0,0.5-0.2,0.5-0.5s-0.2-0.5-0.5-0.5h-8.6c-0.3,0-0.5,0.2-0.5,0.5
	C-506.9,819.2-506.7,819.4-506.5,819.4z"/>
<path id="XMLID_670_" class="st0" d="M-506.5,821.5h8.6c0.3,0,0.5-0.2,0.5-0.5s-0.2-0.5-0.5-0.5h-8.6c-0.3,0-0.5,0.2-0.5,0.5
	S-506.7,821.5-506.5,821.5z"/>
<path id="XMLID_671_" class="st0" d="M-506.5,823.6h8.6c0.3,0,0.5-0.2,0.5-0.5s-0.2-0.5-0.5-0.5h-8.6c-0.3,0-0.5,0.2-0.5,0.5
	S-506.7,823.6-506.5,823.6z"/>
<path class="st0" d="M-494.8,812.2c-0.2-0.2-2.7-0.1-2.7-0.1l-0.1-2.9l1.7,0.9l1.8,2.3L-494.8,812.2z"/>
<g>
	<g>
		<g>
			<path class="st1" d="M-258.3,421.7l2.7-4.7L-258.3,421.7L-258.3,421.7z"/>
			<path class="st1" d="M-257.5,412.4l1.1-1.8c0.1-0.2,0.5-0.3,0.6-0.2c0.2,0.1,0.3,0.5,0.2,0.6l-1.1,1.8l1.3,0.8l2.4-4
				c0.4-0.7,0.2-1.6-0.5-2l0,0c-0.7-0.4-1.6-0.2-2,0.5l-2.4,4L-257.5,412.4z"/>
			<path class="st1" d="M-254.3,415.9c0.2-0.3,0-0.7-0.2-0.9l-2.9-1.7c0,0,0,0-0.1,0c0,0,0,0-0.1,0l-2.1-1.2
				c-0.2-0.1-0.3-0.1-0.5-0.1c-0.2,0.1-0.3,0.1-0.4,0.3l-0.3,0.5l6.2,3.7L-254.3,415.9z"/>
			<path class="st1" d="M-262.2,428.4L-262.2,428.4l3.2-5.6l0,0L-262.2,428.4z"/>
			<path class="st1" d="M-259.9,414.4l-2,3.5l0,0l-2.7,4.7l-3.7,6.4c-0.2,0.4-0.1,0.8,0.3,1.1l2.3,1.4c0.4,0.2,0.8,0.1,1.1-0.3
				l8.4-14.5L-259.9,414.4z M-265.5,426.1c0.2,0.1,0.3,0.5,0.2,0.6l-1,1.8c-0.1,0.2-0.5,0.3-0.6,0.2c-0.1,0-0.2-0.1-0.3-0.3
				c-0.1-0.1-0.1-0.2,0.1-0.4l1-1.8C-266.1,426.1-265.8,425.9-265.5,426.1z M-262,419.8c0.2,0.1,0.3,0.5,0.2,0.6l-2.3,3.7
				c-0.1,0.2-0.5,0.3-0.6,0.2c-0.1,0-0.2-0.1-0.3-0.3c-0.1-0.1-0.1-0.2,0.1-0.4l2.3-3.7C-262.5,419.8-262.2,419.7-262,419.8z"/>
			<path class="st1" d="M-268.2,430.9l-0.1,0.2c-0.3,0.4-0.1,1,0.3,1.2l0,0c0.2,0.1,0.5,0.2,0.7,0.1s0.4-0.2,0.5-0.4l0.1-0.2
				L-268.2,430.9z"/>
			<path class="st0" d="M-255.5,417l0.9,0.5c0.1,0,0.2,0,0.4,0.1c0.1-0.1,0.2-0.1,0.3-0.3l0.5-0.9c0.4-0.7,0.1-1.7-0.6-2.2l-0.5-0.3
				l2.4-4c0.6-1.2,0.3-2.6-0.9-3.3l0,0c-1.2-0.6-2.6-0.3-3.3,0.9l-2.4,4l-0.5-0.3c-0.4-0.2-0.8-0.3-1.2-0.1c-0.4,0.1-0.8,0.4-1,0.7
				l-0.5,0.9c0,0.1,0,0.2-0.1,0.4c0.1,0.1,0.1,0.2,0.3,0.3l0.9,0.5l-8.6,14.8c-0.1,0.3-0.1,0.6,0,0.9c0,0.3,0.2,0.5,0.4,0.7
				l-0.2,0.3c-0.3,0.5-0.3,1-0.2,1.4c0,0.3,0.2,0.5,0.5,0.8l-0.1,0.2c0,0.1,0,0.2-0.1,0.4c0.1,0.1,0.1,0.2,0.3,0.3
				c0.2,0.1,0.5,0.1,0.6-0.2l0.1-0.2c0.3,0.1,0.6,0.1,0.9,0c0.4-0.1,0.9-0.4,1.1-0.8l0.2-0.3c0.7,0.1,1.5-0.1,1.9-0.8L-255.5,417z
				 M-255.5,408c0.4-0.7,1.3-1,2-0.5l0,0c0.7,0.4,1,1.3,0.5,2l-2.4,4l-1.3-0.8l1.1-1.8c0.1-0.2,0.1-0.5-0.2-0.6
				c-0.2-0.1-0.5-0.1-0.6,0.2l-1.1,1.8l-0.5-0.3L-255.5,408z M-260.8,412.8l0.3-0.5c0.1-0.2,0.3-0.3,0.4-0.3c0.2-0.1,0.3,0,0.5,0.1
				l2.1,1.2c0,0,0,0,0.1,0c0,0,0,0,0.1,0l2.9,1.7c0.3,0.2,0.4,0.6,0.2,0.9l-0.3,0.5L-260.8,412.8z M-267.3,432.5
				c-0.2,0.1-0.4,0-0.7-0.1l0,0c-0.4-0.3-0.6-0.8-0.3-1.2l0.1-0.2l1.6,0.9l-0.1,0.2C-266.9,432.2-267.1,432.4-267.3,432.5z
				 M-264.8,431c-0.2,0.4-0.7,0.5-1.1,0.3l-2.3-1.4c-0.4-0.2-0.5-0.7-0.3-1.1l3.7-6.4l2.7-4.7l0,0l2-3.5l3.6,2.1L-264.8,431z"/>
			<path class="st0" d="M-267.2,428c0,0.1,0,0.2-0.1,0.4c0.1,0.1,0.1,0.2,0.3,0.3c0.2,0.1,0.5,0.1,0.6-0.2l1-1.8
				c0.1-0.2,0.1-0.5-0.2-0.6c-0.2-0.1-0.5-0.1-0.6,0.2L-267.2,428z"/>
			<path class="st0" d="M-264.8,423.8c0,0.1,0,0.2-0.1,0.4c0.1,0.1,0.1,0.2,0.3,0.3c0.2,0.1,0.5,0.1,0.6-0.2l2.3-3.7
				c0.1-0.2,0.1-0.5-0.2-0.6c-0.2-0.1-0.5-0.1-0.6,0.2L-264.8,423.8z"/>
		</g>
		<path class="st0" d="M-265.6,423.6c0,0-0.3,1.9,0.9,2.1s4.1-1.3,4.1-1.3s-0.3,0.9-0.5,1.3c-0.2,0.5-2.3,4.3-2.3,4.3l-1.9,1.9
			l-2.7-1.3l-1.3-1.7L-265.6,423.6z"/>
	</g>
	<path class="st0" d="M-258,411.3c0,0,2.8-5.8,3.9-4.6c1.1,1.1,1.8,2.1,1.8,2.1l-1.9,3.3l-0.9,2l-3.4-1.5L-258,411.3z"/>
</g>
</svg>
