<?xml version="1.0" encoding="utf-8"?>
<!-- Generator: Adobe Illustrator 19.0.0, SVG Export Plug-In . SVG Version: 6.00 Build 0)  -->
<svg version="1.1" id="Layer_1" xmlns="http://www.w3.org/2000/svg" xmlns:xlink="http://www.w3.org/1999/xlink" x="0px" y="0px"
	 viewBox="177 98.2 950 644.7" style="enable-background:new 177 98.2 950 644.7;" xml:space="preserve">
<style type="text/css">
	.st0{fill:#282C35;}
	.st1{fill:#FBFBFB;}
	.st2{fill:#FFFFFF;}
	.st3{fill:#F1F2F2;}
	.st4{clip-path:url(#SVGID_2_);}
	.st5{fill:#2A2E37;}
	.st6{fill:#323640;}
	.st7{fill:#FF876C;}
	.st8{fill:#2B2F38;}
	.st9{fill:#00B5AC;}
	.st10{fill:#96D29B;}
	.st11{opacity:0.35;fill:#F1F2F2;enable-background:new    ;}
	.st12{fill:#41AD49;}
	.st13{fill:#E6E7E8;}
	.st14{opacity:0.2;fill:#589DBC;enable-background:new    ;}
	.st15{fill:#EAEBEC;}
	.st16{fill:#292B36;}
	.st17{fill:#3D424F;}
	.st18{fill:#F2F2F2;}
	.st19{fill:#E5E8E8;}
	.st20{fill:#E3E3E3;}
	.st21{fill:#D1D4D4;}
	.st22{fill:#383D4A;}
	.st23{fill:#C2C4C4;}
	.st24{fill:#E3E5E5;}
	.st25{fill:#E2F3E4;}
	.st26{fill:#8DCE92;}
	.st27{display:none;}
	.st28{fill:#0B5C20;}
	.st29{fill:#404045;}
	.st30{fill:#363338;}
	.st31{fill:#3D3D42;}
	.st32{fill:#FAFAFA;}
	.st33{fill:#BDBFBF;}
	.st34{fill:#FF876B;}
	.st35{fill:#F2786B;}
	.st36{fill:#F27369;}
	.st37{fill:#60B95F;}
	.st38{fill:#D9D9DB;}
	.st39{opacity:0.8;}
	.st40{opacity:0.62;fill:#F8F9FA;enable-background:new    ;}
</style>
<g>
	<path class="st0" d="M625.2,749.9H453.8c0-0.1,0-18.6,0-18.7v-87.3c0-5.8,4.7-10.6,10.6-10.6h150.2"/>
	<polyline class="st1" points="612.2,645.1 465.9,645.1 465.9,739.4 612.2,739.4 	"/>
	<path class="st2" d="M627.3,764.6H451.6c-6.8,0-12.4-5.5-12.4-12.4v-2.3h200.5"/>
	<path class="st3" d="M612.2,645.3c-69.8,9.5-125.6,41-146.3,81.8v-82h146.3"/>
</g>
<g>
	<g>
		<g>
			<g>
				<g>
					<defs>
						<rect id="SVGID_1_" x="481.7" y="649.8" width="121.3" height="91.5"/>
					</defs>
					<clipPath id="SVGID_2_">
						<use xlink:href="#SVGID_1_"  style="overflow:visible;"/>
					</clipPath>
					<g class="st4">
						<g>
							<g>
								<path class="st5" d="M497.6,667.9h11.6c0-4.4-6-5-6-5C497.3,662.9,497.6,667.8,497.6,667.9z"/>
								<path class="st6" d="M509.3,667.9h65.4c0,0,0.3-5-6.5-5s-65,0-65,0S509.2,663.6,509.3,667.9z"/>
							</g>
							<rect x="497.5" y="667.8" class="st6" width="77.3" height="110.7"/>
							<g>
								<path class="st5" d="M588.5,778.6h-13.7c0,4.4,7.1,5,7.1,5C588.8,783.6,588.5,778.6,588.5,778.6z"/>
								<path class="st6" d="M574.8,778.6h-77.3c0,0-0.4,5,7.6,5c8,0,76.8,0,76.8,0S574.8,782.9,574.8,778.6z"/>
							</g>
						</g>
						<g>
							<g>
								<path class="st7" d="M522.3,762.6c0-0.3,0.3-0.6,0.7-0.6h7.2c0.4,0,0.7,0.3,0.7,0.6s-0.3,0.6-0.7,0.6H523
									C522.6,763.2,522.3,762.9,522.3,762.6z"/>
							</g>
							<g>
								<path class="st8" d="M510.3,762.6c0-0.3,0.3-0.6,0.7-0.6h8.1c0.4,0,0.7,0.3,0.7,0.6s-0.3,0.6-0.7,0.6H511
									C510.6,763.2,510.3,762.9,510.3,762.6z"/>
							</g>
							<g>
								<path class="st8" d="M502,767.5c0-0.3,0.3-0.6,0.7-0.6h27.5c0.4,0,0.7,0.3,0.7,0.6s-0.3,0.6-0.7,0.6h-27.5
									C502.3,768.1,502,767.7,502,767.5z"/>
							</g>
							<g>
								<path class="st9" d="M515.7,772.5c0-0.3,0.3-0.6,0.7-0.6h13.7c0.4,0,0.7,0.3,0.7,0.6s-0.3,0.6-0.7,0.6h-13.7
									C516,773.1,515.7,772.8,515.7,772.5z"/>
							</g>
							<g>
								<path class="st7" d="M507.4,772.5c0-0.3,0.3-0.6,0.7-0.6h4.1c0.4,0,0.7,0.3,0.7,0.6s-0.3,0.6-0.7,0.6h-4.1
									C507.8,773.1,507.5,772.8,507.4,772.5z"/>
							</g>
							<g>
								<path class="st8" d="M546.9,773c0,0.3-0.3,0.6-0.7,0.6H539c-0.4,0-0.7-0.3-0.7-0.6s0.3-0.6,0.7-0.6h7.2
									C546.6,772.4,546.9,772.6,546.9,773z"/>
							</g>
							<g>
								<path class="st7" d="M558.9,773c0,0.3-0.3,0.6-0.7,0.6h-8.1c-0.4,0-0.7-0.3-0.7-0.6s0.3-0.6,0.7-0.6h8.1
									C558.6,772.4,558.9,772.6,558.9,773z"/>
							</g>
							<g>
								<path class="st9" d="M567.2,768.2c0,0.3-0.3,0.6-0.7,0.6H539c-0.4,0-0.7-0.3-0.7-0.6s0.3-0.6,0.7-0.6h27.5
									C566.9,767.6,567.2,767.8,567.2,768.2z"/>
							</g>
							<g>
								<path class="st8" d="M553.5,763.2c0,0.3-0.3,0.6-0.7,0.6h-13.7c-0.4,0-0.7-0.3-0.7-0.6s0.3-0.6,0.7-0.6h13.7
									C553.1,762.6,553.4,762.7,553.5,763.2z"/>
							</g>
							<g>
								<path class="st8" d="M561.7,763.2c0,0.3-0.3,0.6-0.7,0.6h-4.1c-0.4,0-0.7-0.3-0.7-0.6s0.3-0.6,0.7-0.6h4.1
									C561.4,762.6,561.7,762.7,561.7,763.2z"/>
							</g>
							<g>
								<path class="st7" d="M540.5,731.6c0-0.3,0.3-0.6,0.7-0.6h22.7c0.4,0,0.7,0.3,0.7,0.6s-0.3,0.6-0.7,0.6h-22.7
									C540.8,732.2,540.5,731.9,540.5,731.6z"/>
							</g>
							<g>
								<path class="st8" d="M507.1,731.6c0-0.3,0.3-0.6,0.7-0.6h29.8c0.4,0,0.7,0.3,0.7,0.6s-0.3,0.6-0.7,0.6h-29.8
									C507.4,732.2,507.1,731.9,507.1,731.6z"/>
							</g>
							<g>
								<path class="st8" d="M525.9,738.5c0-0.3,0.3-0.6,0.7-0.6h43.1c0.4,0,0.7,0.3,0.7,0.6s-0.3,0.6-0.7,0.6h-43.1
									C526.2,739.1,525.9,738.8,525.9,738.5z"/>
							</g>
							<g>
								<path class="st9" d="M502,738.5c0-0.3,0.3-0.6,0.7-0.6h20c0.4,0,0.7,0.3,0.7,0.6s-0.3,0.6-0.7,0.6h-20
									C502.3,739.1,502,738.8,502,738.5z"/>
							</g>
							<g>
								<path class="st8" d="M552.7,746.1c0-0.3,0.3-0.6,0.7-0.6h16.2c0.4,0,0.7,0.3,0.7,0.6s-0.3,0.6-0.7,0.6h-16.2
									C553.1,746.7,552.8,746.4,552.7,746.1z"/>
							</g>
							<g>
								<path class="st7" d="M517.8,746.1c0-0.3,0.3-0.6,0.7-0.6h30.4c0.4,0,0.7,0.3,0.7,0.6s-0.3,0.6-0.7,0.6h-30.4
									C518.1,746.7,517.8,746.4,517.8,746.1z"/>
							</g>
							<g>
								<path class="st8" d="M508.2,746.1c0-0.3,0.3-0.6,0.7-0.6h5.8c0.4,0,0.7,0.3,0.7,0.6s-0.3,0.6-0.7,0.6h-5.8
									C508.5,746.7,508.2,746.4,508.2,746.1z"/>
							</g>
							<g>
								<path class="st7" d="M540.5,675.1c0-0.3,0.3-0.6,0.7-0.6h22.7c0.4,0,0.7,0.3,0.7,0.6s-0.3,0.6-0.7,0.6h-22.7
									C540.8,675.7,540.5,675.6,540.5,675.1z"/>
							</g>
							<g>
								<path class="st8" d="M507.1,675.1c0-0.3,0.3-0.6,0.7-0.6h29.8c0.4,0,0.7,0.3,0.7,0.6s-0.3,0.6-0.7,0.6h-29.8
									C507.4,675.7,507.1,675.6,507.1,675.1z"/>
							</g>
							<g>
								<path class="st8" d="M525.9,682c0-0.3,0.3-0.6,0.7-0.6h43.1c0.4,0,0.7,0.3,0.7,0.6s-0.3,0.6-0.7,0.6h-43.1
									C526.2,682.6,525.9,682.3,525.9,682z"/>
							</g>
							<g>
								<path class="st9" d="M502,682c0-0.3,0.3-0.6,0.7-0.6h20c0.4,0,0.7,0.3,0.7,0.6s-0.3,0.6-0.7,0.6h-20
									C502.3,682.6,502,682.3,502,682z"/>
							</g>
							<g>
								<path class="st8" d="M552.7,689.6c0-0.3,0.3-0.6,0.7-0.6h16.2c0.4,0,0.7,0.3,0.7,0.6s-0.3,0.6-0.7,0.6h-16.2
									C553.1,690.2,552.8,689.9,552.7,689.6z"/>
							</g>
							<g>
								<path class="st7" d="M517.8,689.6c0-0.3,0.3-0.6,0.7-0.6h30.4c0.4,0,0.7,0.3,0.7,0.6s-0.3,0.6-0.7,0.6h-30.4
									C518.1,690.2,517.8,689.9,517.8,689.6z"/>
							</g>
							<g>
								<path class="st8" d="M508.2,689.6c0-0.3,0.3-0.6,0.7-0.6h5.8c0.4,0,0.7,0.3,0.7,0.6s-0.3,0.6-0.7,0.6h-5.8
									C508.5,690.2,508.2,689.9,508.2,689.6z"/>
							</g>
							<g>
								<path class="st9" d="M565.3,753.8c0-0.3,0.3-0.6,0.7-0.6h3.6c0.4,0,0.7,0.3,0.7,0.6s-0.3,0.6-0.7,0.6H566
									C565.7,754.4,565.3,754.1,565.3,753.8z"/>
							</g>
							<g>
								<path class="st8" d="M525.1,753.8c0-0.3,0.3-0.6,0.7-0.6h35.7c0.4,0,0.7,0.3,0.7,0.6s-0.3,0.6-0.7,0.6h-35.7
									C525.4,754.4,525.1,754.1,525.1,753.8z"/>
							</g>
							<g>
								<path class="st7" d="M502,753.8c0-0.3,0.3-0.6,0.7-0.6h18.8c0.4,0,0.7,0.3,0.7,0.6s-0.3,0.6-0.7,0.6h-18.8
									C502.3,754.4,502,754.1,502,753.8z"/>
							</g>
							<g>
								<path class="st8" d="M518.5,723c0,0.3-0.3,0.6-0.7,0.6h-9.4c-0.4,0-0.7-0.3-0.7-0.6s0.3-0.6,0.7-0.6h9.4
									C518.2,722.4,518.5,722.6,518.5,723z"/>
							</g>
							<g>
								<path class="st9" d="M565.2,723c0,0.3-0.3,0.6-0.7,0.6h-42.7c-0.4,0-0.7-0.3-0.7-0.6s0.3-0.6,0.7-0.6h42.7
									C564.9,722.4,565.2,722.6,565.2,723z"/>
							</g>
							<g>
								<path class="st7" d="M561.3,707.6c0-0.3,0.3-0.6,0.7-0.6h6.9c0.4,0,0.7,0.3,0.7,0.6s-0.3,0.6-0.7,0.6H562
									C561.6,708.2,561.3,707.9,561.3,707.6z"/>
							</g>
							<g>
								<path class="st8" d="M530.2,707.6c0-0.3,0.3-0.6,0.7-0.6h27.5c0.4,0,0.7,0.3,0.7,0.6s-0.3,0.6-0.7,0.6h-27.5
									C530.5,708.2,530.2,707.9,530.2,707.6z"/>
							</g>
							<g>
								<path class="st9" d="M502,707.6c0-0.3,0.3-0.6,0.7-0.6h23.1c0.4,0,0.7,0.3,0.7,0.6s-0.3,0.6-0.7,0.6h-23.1
									C502.3,708.2,502,707.9,502,707.6z"/>
							</g>
							<g>
								<path class="st8" d="M514.8,715.8c0-0.3,0.3-0.6,0.7-0.6h53.4c0.4,0,0.7,0.3,0.7,0.6s-0.3,0.6-0.7,0.6h-53.4
									C515.1,716.4,514.8,716.1,514.8,715.8z"/>
							</g>
							<g>
								<path class="st7" d="M502,715.8c0-0.3,0.3-0.6,0.7-0.6h8.6c0.4,0,0.7,0.3,0.7,0.6s-0.3,0.6-0.7,0.6h-8.6
									C502.3,716.4,502,716.1,502,715.8z"/>
							</g>
							<g>
								<path class="st7" d="M515.4,699.2c0,0.3-0.3,0.6-0.7,0.6h-12c-0.4,0-0.7-0.3-0.7-0.6s0.3-0.6,0.7-0.6h12
									C515.1,698.6,515.4,698.8,515.4,699.2z"/>
							</g>
							<g>
								<path class="st9" d="M569.6,699.2c0,0.3-0.3,0.6-0.7,0.6h-50c-0.4,0-0.7-0.3-0.7-0.6s0.3-0.6,0.7-0.6h50
									C569.2,698.6,569.6,698.8,569.6,699.2z"/>
							</g>
						</g>
					</g>
				</g>
			</g>
		</g>
	</g>
</g>
<g>
	<path class="st0" d="M681.7,749.9h171.4c0-0.1,0-18.6,0-18.7v-87.3c0-5.8-4.7-10.6-10.6-10.6H692.3"/>
	<polyline class="st10" points="694.6,645.1 840.9,645.1 840.9,739.5 694.6,739.5 	"/>
	<path class="st2" d="M679.5,764.8h175.7c6.8,0,12.4-5.5,12.4-12.4v-2.3H667.1"/>
	<path class="st11" d="M694.6,645.3c69.8,9.5,125.6,41,146.3,81.8v-82H694.6"/>
	<g>
		<polyline class="st12" points="811.8,679.8 767.3,679.8 767.3,671.9 811.8,671.9 		"/>
		<polyline class="st2" points="811.8,727.1 767.3,727.1 767.3,679.4 811.8,679.4 		"/>
		<g>
			<path class="st2" d="M773,674.5c0,0.1-0.1,0.2-0.2,0.2h-3.3c-0.1,0-0.2-0.1-0.2-0.2l0,0c0-0.1,0.1-0.2,0.2-0.2h3.3
				C772.9,674.3,773,674.4,773,674.5L773,674.5z"/>
			<path class="st2" d="M773,675.5c0,0.1-0.1,0.2-0.2,0.2h-3.3c-0.1,0-0.2-0.1-0.2-0.2l0,0c0-0.1,0.1-0.2,0.2-0.2h3.3
				C772.9,675.3,773,675.4,773,675.5L773,675.5z"/>
			<path class="st2" d="M773,676.5c0,0.1-0.1,0.2-0.2,0.2h-3.3c-0.1,0-0.2-0.1-0.2-0.2l0,0c0-0.1,0.1-0.2,0.2-0.2h3.3
				C772.9,676.3,773,676.4,773,676.5L773,676.5z"/>
		</g>
		<polyline class="st3" points="807.6,696.1 771.3,696.1 771.3,688.9 807.6,688.9 		"/>
		<rect x="771.3" y="688.9" class="st13" width="0.9" height="7.2"/>
		<polyline class="st13" points="807.6,696.1 771.3,696.1 771.3,695.3 807.6,695.3 		"/>
		<polyline class="st3" points="807.6,713.3 771.3,713.3 771.3,706.1 807.6,706.1 		"/>
		<rect x="771.3" y="706.1" class="st13" width="0.9" height="7.2"/>
		<polyline class="st13" points="807.6,713.3 771.3,713.3 771.3,712.3 807.6,712.3 		"/>
		<rect x="771.3" y="682.4" class="st14" width="12.7" height="2.4"/>
		<rect x="771.3" y="685.8" class="st14" width="16.7" height="1.2"/>
		<rect x="771.3" y="699.1" class="st14" width="12.7" height="2.4"/>
		<rect x="771.3" y="702.5" class="st14" width="16.7" height="1.2"/>
		<path class="st3" d="M797,716.6h-15.2c-0.6,0-1.1,0.5-1.1,1.1v4.5c0,0.6,0.5,1.1,1.1,1.1H797"/>
		<polyline class="st2" points="822.2,663.8 767.6,663.8 767.6,653.3 822.2,653.3 		"/>
		<g>
			<path class="st15" d="M777.7,659.6h-2.1v-0.8h2v-0.5h-2v-0.8h2.1v-0.7H775c0,1.2,0,2.4,0,3.7h2.7V659.6z M774.1,657.3
				c-0.3-0.6-0.9-0.7-1.4-0.7c-0.7,0-1.4,0.3-1.4,1.1s0.7,1,1.4,1.1c0.5,0.1,0.8,0.2,0.8,0.5c0,0.4-0.4,0.5-0.8,0.5
				c-0.4,0-0.9-0.2-1-0.6l-0.6,0.3c0.3,0.7,0.8,0.9,1.6,0.9s1.5-0.3,1.5-1.2s-0.7-1.1-1.5-1.2c-0.4-0.1-0.8-0.1-0.8-0.5
				c0-0.3,0.2-0.5,0.8-0.5c0.4,0,0.7,0.2,0.9,0.4L774.1,657.3z"/>
			<path class="st15" d="M780.8,659.1h-1.4l0.7-1.6L780.8,659.1z M781.4,660.3h0.8l-1.6-3.7h-0.8l-1.6,3.7h0.7l0.3-0.7h1.9
				L781.4,660.3z"/>
			<path class="st15" d="M784.5,657.3c0.4,0,0.6,0.3,0.6,0.6s-0.2,0.6-0.6,0.6h-1v-1.2L784.5,657.3L784.5,657.3z M786,660.3
				l-1.1-1.2c0.7-0.1,0.9-0.6,0.9-1.1c0-0.6-0.5-1.2-1.3-1.2c-0.6,0-1.2,0-1.7,0v3.7h0.7v-1.2h0.7l1.1,1.2L786,660.3L786,660.3z"/>
			<path class="st15" d="M789.3,659.4c-0.2,0.2-0.6,0.4-0.9,0.4c-0.9,0-1.3-0.6-1.3-1.2c0-0.6,0.4-1.3,1.3-1.3
				c0.3,0,0.6,0.1,0.9,0.3l0.5-0.4c-0.4-0.4-0.8-0.6-1.3-0.6c-1.3,0-1.9,1-1.9,1.9s0.6,1.9,1.9,1.9c0.5,0,1-0.2,1.4-0.5L789.3,659.4
				z"/>
			<polygon class="st15" points="793.6,660.3 793.6,656.6 792.9,656.6 792.9,658.3 791.1,658.3 791.1,656.6 790.4,656.6 
				790.4,660.3 791.1,660.3 791.1,658.8 792.9,658.8 792.9,660.3 			"/>
		</g>
	</g>
</g>
<g>
	<g>
		<path class="st16" d="M751,611.1c0-3.7-2.6-6.7-5.9-6.7H559.6c-3.2,0-5.9,3-5.9,6.7v108.8h197.2V611.1H751z"/>
		<path class="st17" d="M738,621.4c0-3.1-2.3-5.6-5.1-5.6h-161c-2.8,0-5.1,2.5-5.1,5.6v90H738V621.4L738,621.4z"/>
		<path class="st18" d="M553.8,719.9v36.9c0,3.7,2.6,6.7,5.9,6.7h185.4c3.3,0,5.9-3,5.9-6.7v-36.9H553.8z"/>
	</g>
	<polygon class="st19" points="678.7,763.4 673.9,763.4 631.9,763.4 627,763.4 624.4,791.5 631.9,791.5 673.9,791.5 681.4,791.5 	
		"/>
	<polygon class="st20" points="679,766.7 626.7,766.7 627,763.4 678.7,763.4 	"/>
	<path class="st21" d="M688.5,796.7c0.2-0.4,0.3-0.9,0.3-1.5c0-2-1.7-3.7-3.7-3.7h-65.6c-2,0-3.7,1.7-3.7,3.7c0,0.5,0.1,1,0.3,1.5
		H688.5z"/>
	<path class="st19" d="M660.8,739.7c0,4.4-3.5,7.9-7.9,7.9s-7.9-3.5-7.9-7.9s3.5-7.9,7.9-7.9C657.2,731.9,660.8,735.4,660.8,739.7"
		/>
	<path class="st22" d="M738,622.7v-1.4c0-3.1-2.3-5.6-5.1-5.6h-161c-2.8,0-5.1,2.5-5.1,5.6v89C589.4,667.7,654.8,634.4,738,622.7"/>
	<rect x="584.2" y="598" class="st2" width="134.3" height="113.4"/>
	<g>
		<path class="st21" d="M718.5,588.5c0-3.7-3-6.7-6.7-6.7H591c-3.7,0-6.7,3-6.7,6.7v0.2h134.3L718.5,588.5L718.5,588.5z"/>
	</g>
	<rect x="584.2" y="588.7" class="st19" width="134.3" height="9.2"/>
	<g>
		<path class="st2" d="M599.4,595c0,0.3,0.3,0.6,0.8,0.6h102.1c0.4,0,0.8-0.3,0.8-0.6v-3.2c0-0.3-0.3-0.6-0.8-0.6H600.2
			c-0.4,0-0.8,0.3-0.8,0.6V595L599.4,595z"/>
		<path class="st23" d="M590.2,585.2c0,0.5-0.4,1-1,1c-0.5,0-1-0.4-1-1c0-0.5,0.4-1,1-1C589.7,584.4,590.2,584.7,590.2,585.2"/>
		<path class="st23" d="M592.9,585.2c0,0.5-0.4,1-1,1c-0.5,0-1-0.4-1-1c0-0.5,0.4-1,1-1C592.5,584.4,592.9,584.7,592.9,585.2"/>
		<path class="st23" d="M595.7,585.2c0,0.5-0.4,1-1,1c-0.5,0-1-0.4-1-1c0-0.5,0.4-1,1-1C595.2,584.4,595.7,584.7,595.7,585.2"/>
		<path class="st21" d="M587.2,594.1c0,0.5,0.4,1,1,1h1.9c0.5,0,1-0.4,1-1v-1.6c0-0.5-0.4-1-1-1h-1.9c-0.5,0-1,0.4-1,1V594.1z"/>
		<path class="st21" d="M593.1,594c0,0.5,0.4,1,1,1h1.9c0.5,0,1-0.4,1-1v-1.6c0-0.5-0.4-1-1-1h-1.9c-0.5,0-1,0.4-1,1V594z"/>
		<path class="st21" d="M705.7,594.1c0,0.5,0.4,1,1,1h1.9c0.5,0,1-0.4,1-1v-1.6c0-0.5-0.4-1-1-1h-1.9c-0.5,0-1,0.4-1,1V594.1z"/>
		<path class="st21" d="M711.4,594.1c0,0.5,0.4,1,1,1h1.9c0.5,0,1-0.4,1-1v-1.6c0-0.5-0.4-1-1-1h-1.9c-0.5,0-1,0.4-1,1V594.1z"/>
	</g>
	<rect x="589.2" y="602.2" class="st12" width="85.7" height="28.6"/>
	<rect x="677.4" y="602.2" class="st24" width="36" height="28.6"/>
	<path class="st25" d="M718.5,633.9H584.2v24h134.3V633.9z M590.4,642.2H611v2.4h-20.6V642.2z M707.5,643.7h5.7v5h-5.7V643.7z
		 M590.4,645.7h24.2v1.2h-24.2V645.7z M606.5,648.4h6.7v1.2h-6.7V648.4z M590.4,648.4h14.9v1.2h-14.9V648.4z"/>
	<rect x="590.2" y="662.1" class="st12" width="38.5" height="25.5"/>
	<rect x="632.3" y="662.1" class="st12" width="38.5" height="25.5"/>
	<rect x="674.9" y="662.1" class="st12" width="38.5" height="25.5"/>
	<rect x="590.2" y="691.4" class="st24" width="28.9" height="4.3"/>
	<rect x="590.2" y="697.7" class="st18" width="34" height="2.2"/>
	<rect x="590.2" y="702.4" class="st18" width="20.9" height="2.2"/>
	<rect x="612.8" y="702.4" class="st18" width="9.4" height="2.2"/>
	<rect x="590.4" y="642.2" class="st10" width="20.6" height="2.4"/>
	<rect x="590.4" y="645.7" class="st10" width="24.2" height="1.2"/>
	<rect x="590.4" y="648.4" class="st10" width="14.9" height="1.2"/>
	<rect x="606.5" y="648.4" class="st12" width="6.7" height="1.2"/>
	<rect x="632.3" y="691" class="st24" width="28.9" height="4.3"/>
	<rect x="632.3" y="697.4" class="st18" width="34" height="2.2"/>
	<rect x="632.3" y="702" class="st18" width="20.9" height="2.2"/>
	<rect x="654.9" y="702" class="st18" width="9.4" height="2.2"/>
	<rect x="674.9" y="691" class="st24" width="28.9" height="4.3"/>
	<rect x="674.9" y="697.4" class="st18" width="34" height="2.2"/>
	<rect x="674.9" y="702" class="st18" width="20.9" height="2.2"/>
	<rect x="697.5" y="702" class="st18" width="9.4" height="2.2"/>
	<rect x="707.5" y="643.7" class="st10" width="5.7" height="5"/>
	<g>
		<path class="st26" d="M671.4,779.7c-0.7,0-1.1-0.6-1.1-1.3s0.4-1.3,1.1-1.3c0.7,0,1.1,0.6,1.1,1.3
			C672.5,778.9,672.1,779.7,671.4,779.7 M671.4,780c1,0,1.7-0.8,1.7-1.8s-0.6-1.8-1.7-1.8c-1,0-1.7,0.8-1.7,1.8S670.4,780,671.4,780
			 M668.3,779.9v-2.4c0.2-0.3,0.6-0.5,0.9-0.5c0.1,0,0.1,0,0.2,0v-0.5c-0.5,0-0.9,0.3-1.1,0.6v-0.5h-0.5v3.4L668.3,779.9
			L668.3,779.9z M665.4,779.5c-0.7,0-1.1-0.5-1.1-1.3c0-0.7,0.4-1.3,1.1-1.3c0.4,0,0.8,0.3,1,0.5v1.5
			C666.2,779.4,665.8,779.5,665.4,779.5 M665.3,781.4c0.8,0,1.6-0.3,1.6-1.4v-3.3h-0.5v0.5c-0.3-0.4-0.7-0.6-1.1-0.6
			c-0.9,0-1.5,0.7-1.5,1.8s0.6,1.7,1.5,1.7c0.5,0,0.9-0.3,1.1-0.6v0.5c0,0.7-0.5,1-1.1,1c-0.5,0-0.8-0.1-1.1-0.5l-0.3,0.4
			C664.3,781.2,664.7,781.4,665.3,781.4 M662.8,778h-2.2c0-0.5,0.4-1.1,1.1-1.1C662.4,776.9,662.8,777.5,662.8,778 M661.7,780
			c0.5,0,1-0.2,1.3-0.5l-0.3-0.3c-0.3,0.3-0.7,0.4-1,0.4c-0.7,0-1.2-0.5-1.2-1.2h2.7v-0.1c0-1-0.6-1.8-1.6-1.8s-1.7,0.8-1.7,1.8
			C660,779.4,660.7,780,661.7,780 M659.3,779.9v-2.4c0-0.7-0.4-1.1-1.1-1.1c-0.5,0-1,0.3-1.2,0.6v-0.5h-0.5v3.4h0.5v-2.5
			c0.2-0.3,0.6-0.5,1-0.5c0.5,0,0.8,0.2,0.8,0.8v2.2H659.3z M654.2,779.2c-0.6,0-0.9-0.5-0.9-1s0.3-1,0.9-1c0.6,0,0.9,0.5,0.9,1
			C655,778.9,654.7,779.2,654.2,779.2 M654.2,780c1.1,0,1.8-0.8,1.8-1.8s-0.7-1.8-1.8-1.8s-1.8,0.8-1.8,1.8S653,780,654.2,780
			 M651.5,780c0.4,0,0.6-0.1,0.7-0.2l-0.2-0.7c0,0.1-0.2,0.1-0.3,0.1c-0.2,0-0.3-0.2-0.3-0.4v-1.5h0.7v-0.8h-0.7v-0.9h-0.9v0.9h-0.6
			v0.8h0.6v1.8C650.6,779.7,650.9,780,651.5,780 M649.7,779.9v-2.4c0-0.7-0.4-1.1-1.1-1.1c-0.5,0-1,0.3-1.2,0.5v-0.4h-0.9v3.4h0.9
			v-2.3c0.2-0.2,0.4-0.4,0.8-0.4s0.6,0.2,0.6,0.6v2h0.9V779.9z M645.8,776.7h-0.9v3.4h0.9V776.7z M645.4,776.2
			c0.3,0,0.5-0.2,0.5-0.5s-0.2-0.5-0.5-0.5s-0.5,0.2-0.5,0.5S645.1,776.2,645.4,776.2 M642.7,779.2c-0.3,0-0.6-0.2-0.8-0.4v-1.2
			c0.2-0.2,0.5-0.4,0.8-0.4c0.5,0,0.9,0.4,0.9,1C643.6,778.9,643.2,779.2,642.7,779.2 M643,780c0.9,0,1.5-0.6,1.5-1.8
			c0-1.1-0.6-1.8-1.5-1.8c-0.4,0-0.8,0.2-1,0.5v-0.4h-0.9v4.7h0.9v-1.7C642.2,779.9,642.6,780,643,780 M636.1,781.4
			c0.1,0,0.2,0,0.4,0c0.4,0,0.7-0.2,0.9-0.6l1.7-4.1h-0.4l-1.2,2.9l-1.2-2.9h-0.4l1.4,3.4l-0.3,0.6c-0.1,0.3-0.3,0.4-0.5,0.4
			c-0.1,0-0.2,0-0.3-0.1L636.1,781.4z M632.9,779.9v-0.5c0.2,0.3,0.7,0.6,1.2,0.6c0.9,0,1.5-0.7,1.5-1.8s-0.6-1.8-1.5-1.8
			c-0.5,0-0.9,0.2-1.2,0.6v-1.8h-0.4v4.7H632.9z M632.9,779.1v-1.7c0.2-0.3,0.6-0.6,1.1-0.6c0.8,0,1.2,0.6,1.2,1.4
			c0,0.8-0.4,1.4-1.2,1.4C633.5,779.7,633.1,779.4,632.9,779.1"/>
	</g>
</g>
<g>
	<g>
		<path class="st12" d="M878,686.3c0,4.9,4,8.8,8.8,8.8h29.8c4.9,0,8.8-4,8.8-8.8v-5.4c0-4.9-4-8.8-8.8-8.8h-29.8
			c-4.9,0-8.8,4-8.8,8.8V686.3L878,686.3z"/>
		<polygon class="st2" points="891.8,687.2 891.8,684.2 888.2,684.2 888.2,687.2 886.8,687.2 886.8,679.9 888.2,679.9 888.2,682.9 
			891.8,682.9 891.8,679.9 893.2,679.9 893.2,687.2 		"/>
		<polygon class="st2" points="897.1,681.1 894.8,681.1 894.8,679.9 900.8,679.9 900.8,681.1 898.5,681.1 898.5,687.2 897.1,687.2 
					"/>
		<polygon class="st2" points="908.8,681.9 906.4,685 906.1,685 903.8,681.9 903.8,687.2 902.4,687.2 902.4,679.9 904,679.9 
			906.3,683 908.6,679.9 910.2,679.9 910.2,687.2 908.8,687.2 		"/>
		<polygon class="st2" points="913.6,679.9 913.6,685.9 917.4,685.9 917.4,687.2 912.2,687.2 912.2,679.9 		"/>
	</g>
	<path class="st12" d="M888.7,716.7c0,4.9,4,8.8,8.8,8.8h29.8c4.9,0,8.8-4,8.8-8.8v-5.4c0-4.9-4-8.8-8.8-8.8h-29.8
		c-4.9,0-8.8,4-8.8,8.8V716.7L888.7,716.7z"/>
	<path class="st2" d="M902.9,714.3c0,1.9-1.2,3.3-3.2,3.3c-1.9,0-3.2-1.1-3.2-3.2h1.4c0,1.3,0.6,1.9,1.8,1.9c1.3,0,1.8-0.9,1.8-2
		v-2.9h-2.2v-1.2h3.6L902.9,714.3L902.9,714.3z"/>
	<path class="st2" d="M908.3,711.7l-1.4,3.1h2.7L908.3,711.7z M910.2,716.1h-3.8l-0.6,1.4h-1.5l3.3-7.3h1.5l3.3,7.3h-1.5
		L910.2,716.1z"/>
	<polygon class="st2" points="916.5,717.5 915,717.5 912,710.2 913.5,710.2 915.7,715.8 918,710.2 919.5,710.2 	"/>
	<path class="st2" d="M924.4,711.7l-1.4,3.1h2.7L924.4,711.7z M926.3,716.1h-3.8l-0.6,1.4h-1.5l3.3-7.3h1.5l3.3,7.3H927L926.3,716.1
		z"/>
</g>
<g>
	<path class="st12" d="M386.3,648.3c0,4.9,4,8.8,8.8,8.8h29.8c4.9,0,8.8-4,8.8-8.8v-5.4c0-4.9-4-8.8-8.8-8.8h-29.8
		c-4.9,0-8.8,4-8.8,8.8V648.3z"/>
	<path class="st2" d="M403.9,648.7c-0.9,0.9-2,1.3-3.2,1.3c-3.2,0-4.5-2.2-4.5-4.4s1.4-4.5,4.5-4.5c1.2,0,2.3,0.4,3.1,1.3l-1.1,1
		c-0.6-0.5-1.3-0.8-2.1-0.8c-2.1,0-3,1.5-2.9,3c0,1.4,0.8,2.9,2.9,2.9c0.7,0,1.6-0.3,2.1-0.9L403.9,648.7z"/>
	<path class="st2" d="M411.1,643.3c-0.3-0.5-1.1-1-2-1c-1.2,0-1.8,0.5-1.8,1.1c0,0.7,0.9,1,1.9,1.1c1.8,0.2,3.4,0.7,3.4,2.7
		c0,1.9-1.7,2.7-3.6,2.7c-1.7,0-3.1-0.5-3.7-2.1l1.3-0.7c0.4,0.9,1.4,1.4,2.4,1.4s2-0.4,2-1.3c0-0.8-0.8-1.1-2-1.3
		c-1.7-0.2-3.4-0.7-3.4-2.6c0-1.8,1.7-2.5,3.3-2.5c1.3,0,2.7,0.4,3.4,1.7L411.1,643.3z"/>
	<path class="st2" d="M420.1,643.3c-0.3-0.5-1.1-1-2-1c-1.2,0-1.8,0.5-1.8,1.1c0,0.7,0.9,1,1.9,1.1c1.8,0.2,3.4,0.7,3.4,2.7
		c0,1.9-1.7,2.7-3.6,2.7c-1.7,0-3.1-0.5-3.7-2.1l1.3-0.7c0.4,0.9,1.4,1.4,2.4,1.4s2-0.4,2-1.3c0-0.8-0.8-1.1-2-1.3
		c-1.7-0.2-3.4-0.7-3.4-2.6c0-1.8,1.7-2.5,3.3-2.5c1.3,0,2.7,0.4,3.4,1.7L420.1,643.3z"/>
</g>
<g id="fundo" class="st27">
</g>
<g>
	<g>
		<polygon class="st10" points="412.2,688.5 420.1,732.3 418.8,732.5 411,688.7 		"/>
		<polygon class="st12" points="411,688.7 418.8,732.5 417.5,732.6 409.7,688.9 		"/>
		<polygon class="st28" points="408.4,689 409.7,688.9 417.5,732.6 416.3,732.8 		"/>
		<g>
			<path class="st29" d="M408.7,684l0.2-3.3l1.3,3C409.7,684,409.2,684.1,408.7,684"/>
			<path class="st2" d="M410.2,683.8l2,4.7l-3.8,0.5l0.3-5.1C409.2,684.1,409.7,684,410.2,683.8"/>
		</g>
		<polygon class="st2" points="416.5,734 420.3,733.5 420.1,732.3 416.3,732.8 		"/>
		<polygon class="st30" points="417.3,738.5 421.1,737.9 420.3,733.5 416.5,734 		"/>
		<polygon class="st31" points="421.1,737.9 420.3,733.5 419.1,733.6 419.9,738.1 		"/>
		<polygon class="st32" points="420.1,732.3 420.3,733.5 419.1,733.6 418.9,732.4 		"/>
		<polygon class="st19" points="419.7,688.4 415.9,732.6 414.6,732.5 418.4,688.3 		"/>
		<polygon class="st21" points="418.4,688.3 414.6,732.5 413.3,732.5 417.1,688.2 		"/>
		<polygon class="st33" points="415.9,688.2 417.1,688.2 413.3,732.5 412.1,732.4 		"/>
		<g>
			<path class="st29" d="M417.5,683.3l1-3.1l0.5,3.2C418.5,683.6,417.9,683.5,417.5,683.3"/>
			<path class="st2" d="M419,683.4l0.7,5l-3.9-0.3l1.6-4.9C417.9,683.5,418.5,683.6,419,683.4"/>
		</g>
		<polygon class="st2" points="412,733.6 415.8,733.8 415.9,732.6 412.1,732.4 		"/>
		<polygon class="st30" points="411.6,738.1 415.4,738.3 415.8,733.8 412,733.6 		"/>
		<polygon class="st31" points="415.4,738.3 415.8,733.8 414.6,733.8 414.2,738.3 		"/>
		<polygon class="st32" points="415.9,732.6 415.8,733.8 414.6,733.8 414.7,732.6 		"/>
		<polygon class="st34" points="406.7,687.7 415.7,731.3 414.4,731.5 405.5,687.9 		"/>
		<polygon class="st35" points="405.5,687.9 414.4,731.5 413.1,731.7 404.2,688.1 		"/>
		<polygon class="st36" points="402.9,688.3 404.2,688.1 413.1,731.7 411.9,731.9 		"/>
		<g>
			<path class="st29" d="M403.1,683.2l0.1-3.3l1.4,3C404.1,683.3,403.6,683.4,403.1,683.2"/>
			<path class="st2" d="M404.6,683l2.2,4.7l-3.8,0.6l0.2-5.1C403.6,683.4,404.1,683.3,404.6,683"/>
		</g>
		<polygon class="st2" points="412.1,733.1 415.9,732.5 415.7,731.3 411.9,731.9 		"/>
		<polygon class="st30" points="413,737.6 416.8,736.9 415.9,732.5 412.1,733.1 		"/>
		<polygon class="st31" points="416.8,736.9 415.9,732.5 414.8,732.7 415.7,737.1 		"/>
		<polygon class="st32" points="415.7,731.3 415.9,732.5 414.8,732.7 414.5,731.5 		"/>
		<rect x="396.5" y="710.1" class="st18" width="32.7" height="4.3"/>
		<rect x="399.4" y="714.4" class="st37" width="27" height="26.7"/>
		<rect x="399.4" y="714.4" class="st38" width="27" height="1.2"/>
	</g>
	<g>
		<g class="st39">
			<polygon class="st16" points="402.3,725 402.3,731.6 404.4,731.6 404.4,728.9 407.4,728.9 407.4,727.6 404.4,727.6 404.4,726.3 
				407.4,726.3 407.4,725 			"/>
			<path class="st16" d="M415.2,729.4c-0.4,0.3-1.3,0.7-2.4,0.7c-1.3,0-2.3-0.8-2.3-1.9c0-1.2,1.1-1.9,2.4-1.9
				c1.1,0,1.9,0.5,2.3,0.7v-1.6c-0.6-0.2-1.6-0.5-2.8-0.5c-2.2,0-4.1,1-4.1,3.4c0,2,1.5,3.4,4.1,3.4c0.9,0,1.9-0.1,2.8-0.6V729.4
				L415.2,729.4z"/>
			<polygon class="st16" points="416.1,725 416.1,726.5 418.7,726.5 418.7,731.6 420.8,731.6 420.8,726.5 423.5,726.5 423.5,725 			
				"/>
			<polygon class="st16" points="402.3,733.8 402.9,733.8 402.9,733.7 402.7,733.7 402.7,733.2 403,733.2 403,733.4 403.1,733.4 
				403.1,732.9 403,732.9 403,733.1 402.7,733.1 402.7,732.7 403.1,732.7 403.1,732.9 403.2,732.9 403.2,732.6 402.3,732.6 
				402.3,732.7 402.5,732.7 402.5,733.7 402.3,733.7 			"/>
			<path class="st16" d="M403.3,733h0.2v0.6c0,0.2,0.1,0.3,0.3,0.3c0.1,0,0.2,0,0.3-0.1v0.1h0.4v-0.1h-0.2v-0.7h-0.4v0.1h0.2v0.6
				c-0.1,0.1-0.2,0.1-0.2,0.1c-0.1,0-0.2-0.1-0.2-0.2v-0.6L403.3,733L403.3,733L403.3,733z"/>
			<path class="st16" d="M404.5,733.8h0.5v-0.1h-0.2v-0.6c0.1-0.1,0.2-0.1,0.2-0.1c0.1,0,0.2,0.1,0.2,0.2v0.5h-0.1v0.1h0.5v-0.1
				h-0.2v-0.6c0-0.2-0.1-0.3-0.3-0.3c-0.1,0-0.2,0.1-0.3,0.1v-0.1h-0.3v0.1h0.2v0.7L404.5,733.8L404.5,733.8L404.5,733.8z"/>
			<path class="st16" d="M406.2,732.5h0.2v0.5c-0.1-0.1-0.2-0.1-0.3-0.1c-0.2,0-0.4,0.2-0.4,0.5s0.2,0.5,0.5,0.5h0.5v-0.1h-0.2v-1.4
				L406.2,732.5L406.2,732.5L406.2,732.5z M406.4,733.7L406.4,733.7c-0.3,0-0.5-0.1-0.5-0.4c0-0.2,0.1-0.4,0.2-0.4s0.1,0,0.2,0.1
				L406.4,733.7L406.4,733.7z"/>
			<path class="st16" d="M406.9,733.1c0.1-0.1,0.2-0.1,0.3-0.1s0.2,0.1,0.2,0.2v0.1l-0.2,0.1c-0.2,0-0.3,0.1-0.3,0.3
				c0,0.1,0.1,0.2,0.2,0.2s0.2-0.1,0.3-0.1c0,0.1,0.1,0.1,0.2,0.1s0.1,0,0.2-0.1v-0.1h-0.1c-0.1,0-0.1-0.1-0.1-0.1v-0.4
				c0-0.2-0.1-0.3-0.3-0.3S407,732.9,406.9,733.1L406.9,733.1L406.9,733.1z M407.3,733.4v0.2c-0.1,0-0.1,0.1-0.1,0.1
				c-0.1,0-0.1-0.1-0.1-0.1C407,733.5,407.1,733.4,407.3,733.4L407.3,733.4z"/>
			<path class="st16" d="M408,734C408.1,734,408.1,734,408,734c0.1,0.2,0,0.2-0.1,0.2v0.1c0.3,0,0.4-0.1,0.4-0.2
				c0-0.1-0.1-0.2-0.1-0.2v-0.1c0.2,0,0.4-0.1,0.4-0.2v-0.1c0,0-0.1,0.1-0.3,0.1s-0.3-0.1-0.3-0.4c0-0.2,0.1-0.3,0.2-0.3
				s0.2,0.1,0.2,0.2h0.1v-0.3l0,0v0.1c-0.1,0-0.2-0.1-0.2-0.1c-0.3,0-0.4,0.2-0.4,0.5c0,0.2,0.1,0.4,0.3,0.5L408,734L408,734z"/>
			<path class="st16" d="M408.8,732.8C408.8,732.7,408.9,732.7,408.8,732.8c0.2-0.1,0.3,0,0.4,0s0.2-0.1,0.2-0.2h-0.1
				c0,0.1,0,0.1-0.1,0.1s-0.2-0.1-0.3-0.1C408.8,732.5,408.7,732.6,408.8,732.8L408.8,732.8L408.8,732.8z M408.7,733.1
				c0.1-0.1,0.2-0.1,0.3-0.1s0.2,0.1,0.2,0.2v0.1l-0.2,0.1c-0.2,0-0.3,0.1-0.3,0.3c0,0.1,0.1,0.2,0.2,0.2s0.2-0.1,0.3-0.1
				c0,0.1,0.1,0.1,0.2,0.1s0.1,0,0.2-0.1v-0.1h-0.1c-0.1,0-0.1-0.1-0.1-0.1v-0.4c0-0.2-0.1-0.3-0.3-0.3S408.8,732.9,408.7,733.1
				L408.7,733.1L408.7,733.1z M409.1,733.4v0.2c-0.1,0-0.1,0.1-0.1,0.1c-0.1,0-0.1-0.1-0.1-0.1C408.9,733.5,408.9,733.4,409.1,733.4
				L409.1,733.4z"/>
			<path class="st16" d="M409.6,733.3c0,0.3,0.2,0.5,0.5,0.5s0.5-0.2,0.5-0.5s-0.2-0.5-0.5-0.5C409.8,732.9,409.6,733.1,409.6,733.3
				L409.6,733.3z M409.8,733.3c0-0.2,0.1-0.4,0.3-0.4s0.3,0.1,0.3,0.4c0,0.2-0.1,0.4-0.3,0.4C409.9,733.7,409.8,733.6,409.8,733.3
				L409.8,733.3z"/>
			<path class="st16" d="M411.3,734.3h0.5v-0.1h-0.2v-0.5c0.1,0.1,0.1,0.1,0.2,0.1c0.3,0,0.4-0.3,0.4-0.5c0-0.3-0.2-0.5-0.4-0.5
				c-0.1,0-0.1,0-0.1,0s-0.1,0-0.1,0.1v-0.1h-0.4v0.1h0.2v1.2L411.3,734.3L411.3,734.3L411.3,734.3z M411.6,733.1
				c0.1-0.1,0.1-0.1,0.2-0.1c0.2,0,0.3,0.2,0.3,0.4s-0.1,0.4-0.2,0.4s-0.2-0.1-0.2-0.1L411.6,733.1L411.6,733.1z"/>
			<path class="st16" d="M412.5,733.1c0.1-0.1,0.2-0.1,0.3-0.1s0.2,0.1,0.2,0.2v0.1l-0.2,0.1c-0.2,0-0.3,0.1-0.3,0.3
				c0,0.1,0.1,0.2,0.2,0.2s0.2-0.1,0.3-0.1c0,0.1,0.1,0.1,0.2,0.1s0.1,0,0.2-0.1v-0.1h-0.1c-0.1,0-0.1-0.1-0.1-0.1v-0.4
				c0-0.2-0.1-0.3-0.3-0.3S412.6,732.9,412.5,733.1L412.5,733.1L412.5,733.1z M412.9,733.4v0.2c-0.1,0-0.1,0.1-0.1,0.1
				c-0.1,0-0.1-0.1-0.1-0.1C412.7,733.5,412.7,733.4,412.9,733.4L412.9,733.4z"/>
			<path class="st16" d="M413.4,733.8h0.5v-0.1h-0.2v-0.6c0.1-0.1,0.1-0.1,0.2-0.1s0.1,0,0.1,0.1c0-0.1,0.1-0.1,0.1-0.2
				c-0.1-0.1-0.1-0.1-0.2-0.1s-0.1,0-0.2,0.2l0,0v-0.2h-0.4v0.1h0.2v0.7L413.4,733.8L413.4,733.8L413.4,733.8z"/>
			<path class="st16" d="M414.3,733.1c0.1-0.1,0.2-0.1,0.3-0.1s0.2,0.1,0.2,0.2v0.1l-0.2,0.1c-0.2,0-0.3,0.1-0.3,0.3
				c0,0.1,0.1,0.2,0.2,0.2s0.2-0.1,0.3-0.1c0,0.1,0.1,0.1,0.2,0.1s0.1,0,0.2-0.1v-0.1h-0.1c-0.1,0-0.1-0.1-0.1-0.1v-0.4
				c0-0.2-0.1-0.3-0.3-0.3S414.3,732.9,414.3,733.1L414.3,733.1L414.3,733.1z M414.7,733.4v0.2c-0.1,0-0.1,0.1-0.1,0.1
				c-0.1,0-0.1-0.1-0.1-0.1C414.4,733.5,414.5,733.4,414.7,733.4L414.7,733.4z"/>
			<path class="st16" d="M415.8,733.1c0.1-0.1,0.2-0.1,0.3-0.1s0.2,0.1,0.2,0.2v0.1l-0.2,0.1c-0.2,0-0.3,0.1-0.3,0.3
				c0,0.1,0.1,0.2,0.2,0.2s0.2-0.1,0.3-0.1c0,0.1,0.1,0.1,0.2,0.1s0.1,0,0.2-0.1v-0.1h-0.1c-0.1,0-0.1-0.1-0.1-0.1v-0.4
				c0-0.2-0.1-0.3-0.3-0.3S415.8,732.9,415.8,733.1L415.8,733.1L415.8,733.1z M416.2,733.4v0.2c-0.1,0-0.1,0.1-0.1,0.1
				c-0.1,0-0.1-0.1-0.1-0.1C415.9,733.5,416,733.4,416.2,733.4L416.2,733.4z"/>
			<path class="st16" d="M418.4,733.6c-0.2,0.1-0.3,0.2-0.4,0.2c-0.3,0-0.5-0.2-0.5-0.6c0-0.3,0.2-0.6,0.4-0.6s0.3,0.1,0.3,0.3h0.1
				v-0.4h-0.1v0.1c-0.1,0-0.2-0.1-0.3-0.1c-0.4,0-0.7,0.3-0.7,0.7s0.3,0.7,0.7,0.7C418.1,733.9,418.2,733.8,418.4,733.6L418.4,733.6
				L418.4,733.6z"/>
			<path class="st16" d="M418.5,733.8h0.5v-0.1h-0.2V733h-0.3v0.1h0.2v0.7H418.5L418.5,733.8L418.5,733.8z M418.7,732.5
				C418.6,732.5,418.6,732.6,418.7,732.5v0.2c0.1,0,0.1-0.1,0.1-0.1S418.8,732.5,418.7,732.5L418.7,732.5z"/>
			<path class="st16" d="M419.3,732.8l0.2-0.2l0.2,0.2h0.1l-0.3-0.4l0,0L419.3,732.8L419.3,732.8L419.3,732.8z M419.9,733.3
				c0-0.3-0.2-0.4-0.4-0.4c-0.3,0-0.4,0.2-0.4,0.5s0.2,0.5,0.5,0.5c0.1,0,0.2,0,0.3-0.1v-0.1c-0.1,0.1-0.2,0.1-0.3,0.1
				c-0.2,0-0.3-0.2-0.3-0.4L419.9,733.3L419.9,733.3z M419.3,733.2c0-0.2,0.1-0.2,0.2-0.2s0.2,0.1,0.2,0.2H419.3L419.3,733.2z"/>
			<path class="st16" d="M420,733.8h0.5v-0.1h-0.2v-0.6c0.1-0.1,0.2-0.1,0.2-0.1c0.1,0,0.2,0.1,0.2,0.2v0.5h-0.1v0.1h0.5v-0.1h-0.2
				v-0.6c0-0.2-0.1-0.3-0.3-0.3c-0.1,0-0.2,0.1-0.3,0.1v-0.1h-0.4v0.1h0.2v0.7L420,733.8L420,733.8L420,733.8z"/>
			<path class="st16" d="M422,732.9L422,732.9L422,732.9c-0.2,0-0.2,0-0.3,0c-0.3,0-0.4,0.2-0.4,0.5s0.2,0.5,0.5,0.5
				c0.2,0,0.4-0.1,0.4-0.2v-0.1c0,0-0.1,0.1-0.3,0.1s-0.3-0.1-0.3-0.4c0-0.2,0.1-0.3,0.2-0.3s0.2,0.1,0.2,0.2h0.1v-0.3H422z"/>
			<path class="st16" d="M422.1,733.8h0.5v-0.1h-0.1V733h-0.4v0.1h0.2v0.7H422.1L422.1,733.8L422.1,733.8z M422.4,732.5
				C422.3,732.5,422.3,732.6,422.4,732.5v0.2V732.5C422.5,732.6,422.5,732.5,422.4,732.5L422.4,732.5z"/>
			<path class="st16" d="M422.8,733.1c0.1-0.1,0.2-0.1,0.3-0.1s0.2,0.1,0.2,0.2v0.1l-0.2,0.1c-0.2,0-0.3,0.1-0.3,0.3
				c0,0.1,0.1,0.2,0.2,0.2s0.2-0.1,0.3-0.1c0,0.1,0.1,0.1,0.2,0.1s0.1,0,0.2-0.1v-0.1h-0.1c-0.1,0-0.1-0.1-0.1-0.1v-0.4
				c0-0.2-0.1-0.3-0.3-0.3S422.9,732.9,422.8,733.1L422.8,733.1L422.8,733.1z M423.2,733.4v0.2c-0.1,0-0.1,0.1-0.1,0.1
				c-0.1,0-0.1-0.1-0.1-0.1C423,733.5,423,733.4,423.2,733.4L423.2,733.4z"/>
			<path class="st16" d="M435.2,732.5C435.1,732.5,435.1,732.6,435.2,732.5v0.2c0.1,0,0.1-0.1,0.1-0.1S435.3,732.5,435.2,732.5
				L435.2,732.5z"/>
			<g>
				<path class="st16" d="M402.3,735.3L402.3,735.3l0.1-0.6h-0.1v-0.1h0.2v0.1l0.2,0.5l0.2-0.5v-0.1h0.2v0.1H403v0.6h0.1v0.1h-0.3
					v-0.1h0.1v-0.5l0,0l-0.2,0.5l0,0l-0.2-0.5l0,0v0.5h0.1v0.1L402.3,735.3L402.3,735.3z"/>
				<path class="st16" d="M403.3,735.3L403.3,735.3l0.1-0.6h-0.1v-0.1h0.3v0.1h-0.1v0.6h0.1v0.1L403.3,735.3L403.3,735.3z"/>
				<path class="st16" d="M403.6,735.3L403.6,735.3l0.1-0.6h-0.1v-0.1h0.2v0.1l0.4,0.5v-0.5h-0.1v-0.1h0.3v0.1h-0.1v0.6h-0.1
					l-0.4-0.5v0.4h0.1v0.1H403.6L403.6,735.3z"/>
				<path class="st16" d="M404.5,735.3L404.5,735.3l0.1-0.6h-0.1v-0.1h0.3v0.1h-0.1v0.6h0.1v0.1L404.5,735.3L404.5,735.3z"/>
				<path class="st16" d="M404.9,735.1L404.9,735.1L404.9,735.1c0.1,0.1,0.1,0.2,0.2,0.2s0.1,0,0.1-0.1
					C405.2,735.1,405,735.1,404.9,735.1v-0.2c0-0.1,0.1-0.2,0.2-0.2h0.1l0,0h0.1v0.2h-0.1v-0.1l-0.1-0.1c-0.1,0-0.1,0-0.1,0.1
					s0.2,0.1,0.3,0.2l0.1,0.1c0,0.1-0.1,0.2-0.2,0.2s-0.1,0-0.1,0l0,0H405L404.9,735.1L404.9,735.1z"/>
				<path class="st16" d="M405.5,735.3L405.5,735.3l0.1-0.5h-0.2v0.1h-0.1v-0.2h0.1l0,0h0.5l0,0h0.1v0.2h-0.1v-0.1h-0.2v0.5h0.1v0.1
					L405.5,735.3L405.5,735.3z"/>
				<path class="st16" d="M406,735.3L406,735.3l0.1-0.6H406v-0.1h0.5v0.1h-0.1v-0.1h-0.2v0.2h0.2v-0.1h0.1v0.2h-0.1v-0.1h-0.2v0.3
					h0.2V735h0.1v0.2L406,735.3L406,735.3z M406.2,734.6l0.1-0.2h0.1L406.2,734.6L406.2,734.6z"/>
				<path class="st16" d="M406.6,735.3L406.6,735.3l0.1-0.6h-0.1v-0.1h0.3c0.2,0,0.2,0.1,0.2,0.2c0,0.1-0.1,0.2-0.2,0.2l0,0
					c0.1,0,0.1,0.1,0.2,0.3h0.1v0.1H407l-0.1-0.2c-0.1-0.1-0.1-0.2-0.2-0.2l0,0L406.6,735.3l0.2-0.1v0.1H406.6L406.6,735.3z
					 M406.8,735C406.9,735,406.9,735,406.8,735c0.1-0.2,0.1-0.2,0-0.2l0,0V735L406.8,735z"/>
				<path class="st16" d="M407.2,735.3L407.2,735.3l0.1-0.6h-0.1v-0.1h0.3v0.1h-0.1v0.6h0.1v0.1L407.2,735.3L407.2,735.3z"/>
				<path class="st16" d="M408,734.6c0.2,0,0.4,0.2,0.4,0.4s-0.1,0.4-0.4,0.4c-0.2,0-0.4-0.2-0.4-0.4S407.7,734.6,408,734.6z
					 M408,735.3c0.2,0,0.2-0.1,0.2-0.3s-0.1-0.3-0.2-0.3s-0.2,0.1-0.2,0.3S407.8,735.3,408,735.3z"/>
				<path class="st16" d="M408.7,735.3L408.7,735.3l0.1-0.6h-0.1v-0.1h0.3c0.2,0,0.4,0.1,0.4,0.3s-0.1,0.3-0.3,0.3L408.7,735.3
					L408.7,735.3z M409,735.3c0.1,0,0.2,0,0.2-0.3c0-0.1,0-0.2-0.1-0.2c0,0-0.1-0.1-0.2-0.1l0,0L409,735.3L409,735.3z"/>
				<path class="st16" d="M409.4,735.3L409.4,735.3l0.3-0.6h0.1l0.2,0.6h0.1v0.1h-0.2v-0.1h0.1l-0.1-0.2h-0.2l-0.1,0.2h0.1v0.1
					L409.4,735.3L409.4,735.3z M409.7,734.8L409.7,734.8l-0.1,0.2h0.2L409.7,734.8z"/>
				<path class="st16" d="M410.4,735.3L410.4,735.3l0.1-0.6h-0.1v-0.1h0.5v0.1h-0.1v-0.1h-0.2v0.2h0.2v-0.1h0.1v0.2h-0.1v-0.1h-0.2
					v0.3h0.2V735h0.1v0.2L410.4,735.3L410.4,735.3z"/>
				<path class="st16" d="M410.9,735.3L410.9,735.3l0.1-0.6h-0.1v-0.1h0.3c0.2,0,0.4,0.1,0.4,0.3s-0.1,0.3-0.3,0.3L410.9,735.3
					L410.9,735.3z M411.2,735.3c0.1,0,0.2,0,0.2-0.3c0-0.1,0-0.2-0.1-0.2c0,0-0.1-0.1-0.2-0.1l0,0L411.2,735.3L411.2,735.3z"/>
				<path class="st16" d="M411.7,734.6h0.3v0.1h-0.1v0.3c0,0.2,0.1,0.2,0.2,0.2s0.2-0.1,0.2-0.2v-0.3h-0.1v-0.1h0.3v0.1h-0.1v0.4
					c0,0.2-0.1,0.3-0.3,0.3s-0.3-0.1-0.3-0.3L411.7,734.6L411.7,734.6L411.7,734.6z"/>
				<path class="st16" d="M413.1,735.2c-0.1,0.1-0.1,0.1-0.2,0.1c-0.2,0-0.3-0.2-0.3-0.3c0-0.2,0.1-0.4,0.4-0.4c0.1,0,0.1,0,0.2,0
					l0,0l0,0v0.2l0,0c0-0.1-0.1-0.1-0.2-0.1s-0.2,0.1-0.2,0.3S412.9,735.3,413.1,735.2C412.9,735.3,413,735.2,413.1,735.2
					L413.1,735.2z"/>
				<path class="st16" d="M413.1,735.3L413.1,735.3l0.3-0.6h0.1l0.2,0.6h0.1v0.1h-0.3v-0.1h0.1l-0.1-0.2h-0.2L413.1,735.3h0.2v0.1
					L413.1,735.3L413.1,735.3z M413.4,734.8L413.4,734.8l-0.1,0.2h0.2L413.4,734.8z"/>
				<path class="st16" d="M414.1,735.3c-0.2,0-0.3-0.2-0.3-0.3c0-0.2,0.1-0.4,0.4-0.4c0.1,0,0.1,0,0.2,0l0,0l0,0v0.2l0,0
					c0-0.1-0.1-0.1-0.2-0.1s-0.2,0.1-0.2,0.3C413.9,735.2,414,735.3,414.1,735.3c0.2-0.1,0.2-0.1,0.3-0.1v0.1
					C414.3,735.3,414.2,735.3,414.1,735.3L414.1,735.3C414.2,735.3,414.2,735.4,414.1,735.3c0.1,0.2,0.1,0.2-0.1,0.2l0,0
					c0.1,0,0.1,0,0.1,0C414.1,735.4,414.1,735.4,414.1,735.3L414.1,735.3z"/>
				<path class="st16" d="M414.4,735.3L414.4,735.3l0.3-0.6h0.1l0.2,0.6h0.1v0.1h-0.2v-0.1h0.1l-0.1-0.2h-0.2l-0.1,0.2h0.1v0.1
					L414.4,735.3L414.4,735.3z M414.6,734.5C414.6,734.4,414.6,734.4,414.6,734.5c0.2-0.1,0.2-0.1,0.2-0.1l0,0l0,0
					C414.8,734.5,414.8,734.5,414.6,734.5C414.7,734.5,414.7,734.5,414.6,734.5L414.6,734.5L414.6,734.5z M414.7,734.8L414.7,734.8
					l-0.1,0.2h0.2L414.7,734.8z"/>
				<path class="st16" d="M415.4,734.6c0.2,0,0.4,0.2,0.4,0.4s-0.1,0.4-0.4,0.4c-0.2,0-0.4-0.2-0.4-0.4
					C415.1,734.8,415.2,734.6,415.4,734.6z M415.4,735.3c0.2,0,0.2-0.1,0.2-0.3s-0.1-0.3-0.2-0.3s-0.2,0.1-0.2,0.3
					S415.3,735.3,415.4,735.3z"/>
				<path class="st16" d="M416.1,735.3L416.1,735.3l0.1-0.6h-0.1v-0.1h0.5v0.1h-0.1v-0.1h-0.2v0.2h0.2v-0.1h0.1v0.2h-0.1v-0.1h-0.2
					v0.3h0.2V735h0.1v0.2L416.1,735.3L416.1,735.3z"/>
				<path class="st16" d="M417.6,735.2c-0.1,0.1-0.1,0.1-0.2,0.1c-0.2,0-0.3-0.2-0.3-0.3c0-0.2,0.1-0.4,0.4-0.4c0.1,0,0.1,0,0.2,0
					l0,0l0,0v0.2l0,0c0-0.1-0.1-0.1-0.2-0.1s-0.2,0.1-0.2,0.3S417.4,735.3,417.6,735.2C417.4,735.3,417.5,735.2,417.6,735.2
					L417.6,735.2z"/>
				<path class="st16" d="M417.6,735.3L417.6,735.3l0.1-0.6h-0.1v-0.1h0.3v0.1h-0.1v0.6h0.1v0.1L417.6,735.3L417.6,735.3z"/>
				<path class="st16" d="M418,735.3L418,735.3l0.1-0.6H418v-0.1h0.5v0.1h-0.1v-0.1h-0.2v0.2h0.2v-0.1h0.1v0.2h-0.1v-0.1h-0.2v0.3
					h0.2V735h0.1v0.2L418,735.3L418,735.3z M418.1,734.6l0.1-0.2h0.1l0.1,0.2l0,0l-0.1-0.1L418.1,734.6L418.1,734.6z"/>
				<path class="st16" d="M418.5,735.3L418.5,735.3l0.1-0.6h-0.1v-0.1h0.2v0.1l0.4,0.5v-0.5H419v-0.1h0.3v0.1h-0.1v0.6h-0.1
					l-0.4-0.5v0.4h0.1v0.1H418.5L418.5,735.3z"/>
				<path class="st16" d="M419.9,735.2c-0.1,0.1-0.1,0.1-0.2,0.1c-0.2,0-0.3-0.2-0.3-0.3c0-0.2,0.1-0.4,0.4-0.4c0.1,0,0.1,0,0.2,0
					l0,0l0,0v0.2l0,0c0-0.1-0.1-0.1-0.2-0.1s-0.2,0.1-0.2,0.3S419.7,735.3,419.9,735.2C419.8,735.3,419.9,735.2,419.9,735.2
					L419.9,735.2z"/>
				<path class="st16" d="M420,735.3L420,735.3l0.1-0.6H420v-0.1h0.3v0.1h-0.1v0.6h0.1v0.1L420,735.3L420,735.3z"/>
				<path class="st16" d="M420.4,735.3L420.4,735.3l0.3-0.6h0.1l0.2,0.6h0.1v0.1h-0.2v-0.1h0.1l-0.1-0.2h-0.2l-0.1,0.2h0.1v0.1
					L420.4,735.3L420.4,735.3z M420.7,734.8L420.7,734.8l-0.1,0.2h0.2L420.7,734.8z"/>
			</g>
		</g>
	</g>
</g>
<path class="st40" d="M1163,852.2H121.5c-22.7,0-41.1-18.4-41.1-41.1V592.6c0-22.7,18.4-41.1,41.1-41.1H1163
	c22.7,0,41.1,18.4,41.1,41.1v218.5C1204.1,833.8,1185.7,852.2,1163,852.2z"/>
</svg>
